M48
;Layer_Color=6321
;FILE_FORMAT=2:4
INCH
;TYPE=PLATED
T1F00S00C0.0197
T2F00S00C0.0276
T3F00S00C0.0354
T4F00S00C0.0472
T6F00S00C0.0591
;TYPE=NON_PLATED
T7F00S00C0.1181
T8F00S00C0.1378
%
T01
X044951Y014557
X058032Y013780
X070984Y014291
X072165Y025138
X069675Y025148
X066988Y025138
X064341Y025108
X061693Y025118
X061811Y026732
X059055
X059087Y025118
X056378
X056299Y026732
X052953Y023465
Y022598
Y020748
X048504Y021880
X048494Y022697
Y023504
X056575Y018150
X059331
X061890Y018858
X044961Y018740
Y016496
X038307Y018386
X037598Y019213
X036850Y019252
X035945Y019449
Y020236
X039567Y020394
X039291Y019606
X040167Y021535
X040787Y021102
X040866Y024606
X042165Y025000
Y026614
X043346Y027520
X046220Y026890
X046181Y025118
Y024488
X039449Y024134
X037283Y023268
X035541Y023907
X034783Y023386
X034380Y024902
X033386Y024695
X031370Y026460
Y027460
X031577Y018608
X028071Y019094
X028740Y020709
X025945Y019567
X025787Y023307
X027992Y023937
X029488Y024134
X029370Y026460
X029370Y027457
X030370Y027460
Y026460
X022677Y023346
X018661
X015866Y021732
X014232Y032844
X015886Y033386
X017480Y033917
X018071Y034547
X018337Y037785
Y039222
X018002Y039882
X021182Y038850
X021161Y038120
X022234Y036132
X023770Y032835
X025502Y033268
X027175Y033986
X027894Y034537
X028051Y037766
Y039833
X037746Y032785
X039557Y033278
X041476Y033967
X041870Y034547
X047234Y032825
X048996Y033287
X050787Y033789
X051486Y037047
X051476Y039744
X060994Y032815
X062894Y033287
X064646Y033770
X070630Y032815
X072313Y033287
X073917Y033829
T02
X022953Y012150
Y014150
X049567Y014291
X022953Y016217
Y019217
X020965Y019646
X019587
X014488Y026339
X011496
X031594Y034961
Y037165
Y040472
Y042677
X055020
Y040472
Y037165
Y034961
T03
X010591Y014823
X013854Y014602
Y013602
Y012602
Y015602
X016854
Y014602
Y013602
Y012602
X076024Y014846
Y015846
Y016846
Y017846
Y018846
Y019846
Y020846
Y021846
Y022846
Y023846
Y024846
X016854Y019602
Y018602
Y017602
Y016602
X013854
Y017602
Y018602
Y019602
X010591Y019823
Y020823
Y021823
Y022823
Y023823
Y018823
Y017823
Y016823
Y015823
Y033720
Y034720
Y035720
Y036720
Y037720
Y038720
Y039720
Y040720
Y041720
Y042720
X076024Y042744
Y041744
Y040744
Y039744
Y038744
Y037744
Y036744
Y035744
Y034744
Y033744
Y043744
T04
X010906Y011126
X011906Y012126
X010906Y013126
X049567Y011299
Y019173
X026230Y027480
X024458
X022254Y027519
X020482
X018277Y027558
X016506
X015157Y035276
X013583Y035669
X012894Y037047
Y038819
Y040591
X013583Y041969
X015157Y042362
X016732Y041969
X017421Y040591
Y038819
Y037047
X016732Y035669
X023032
X024606Y035276
X026181Y035669
X026870Y037047
Y038819
Y040591
X026181Y041969
X024606Y042362
X023032Y041969
X022343Y040591
Y038819
Y037047
X036319
Y038819
Y040591
X037008Y041969
X038583Y042362
X040157Y041969
X040846Y040591
Y038819
Y037047
X040157Y035669
X038583Y035276
X037008Y035669
X046457
X045768Y037047
Y038819
Y040591
X046457Y041969
X048032Y042362
X049606Y041969
X050295Y040591
Y038819
Y037047
X049606Y035669
X048032Y035276
X060433Y035679
X062008Y035285
X059744Y037057
Y038829
Y040600
X060433Y041978
X062008Y042372
X063583Y041978
X064272Y040600
Y038829
Y037057
X063583Y035679
X069882
X071457Y035285
X073032Y035679
X073720Y037057
Y038829
Y040600
X073032Y041978
X071457Y042372
X069882Y041978
X069193Y040600
Y038829
Y037057
T06
X016014Y026574
X018770
X019990Y026535
X022746
X023966Y026495
X026722
T07
X012402Y015354
X074213
Y022835
X012402
T08
X015157Y038819
X024606
X038583
X048032
X062008Y038829
X071457
M30
