G04 Layer_Color=15132400*
%FSAX24Y24*%
%MOIN*%
G70*
G01*
G75*
%ADD40C,0.0250*%
%ADD63C,0.0100*%
%ADD64C,0.0098*%
%ADD65C,0.0157*%
%ADD66C,0.0151*%
%ADD67C,0.0139*%
%ADD68C,0.0000*%
%ADD69C,0.0079*%
%ADD70C,0.0236*%
%ADD71C,0.0080*%
%ADD72C,0.0060*%
%ADD73C,0.0080*%
%ADD74R,0.0094X0.1555*%
%ADD75R,0.0262X0.0929*%
D40*
X069563Y041090D02*
G03*
X071477Y041779I001894J-002262D01*
G01*
X060254Y041201D02*
G03*
X062373Y041756I001754J-002372D01*
G01*
X046083Y041034D02*
G03*
X048415Y041744I001949J-002215D01*
G01*
X036610Y041013D02*
G03*
X038946Y041746I001972J-002194D01*
G01*
X022695Y041066D02*
G03*
X024971Y041746I001912J-002247D01*
G01*
X013350Y041150D02*
G03*
X015672Y041724I001808J-002331D01*
G01*
D63*
X015354Y026339D02*
G03*
X015354Y026339I-002362J000000D01*
G01*
X046791Y024931D02*
G03*
X046791Y024931I-000630J000000D01*
G01*
X031614Y014055D02*
G03*
X032008Y013661I000394J000000D01*
G01*
X031811Y014252D02*
G03*
X031614Y014055I000000J-000197D01*
G01*
X032008D02*
G03*
X031811Y014252I-000197J000000D01*
G01*
X031614Y013661D02*
G03*
X032008Y014055I000000J000394D01*
G01*
X031024Y014055D02*
G03*
X031417Y013661I000394J000000D01*
G01*
X031220Y014252D02*
G03*
X031024Y014055I000000J-000197D01*
G01*
X031417D02*
G03*
X031220Y014252I-000197J000000D01*
G01*
X031024Y013661D02*
G03*
X031417Y014055I000000J000394D01*
G01*
X030433D02*
G03*
X030827Y013661I000394J000000D01*
G01*
X030630Y014252D02*
G03*
X030433Y014055I000000J-000197D01*
G01*
X030827D02*
G03*
X030630Y014252I-000197J000000D01*
G01*
X030433Y013661D02*
G03*
X030827Y014055I000000J000394D01*
G01*
X029201Y016181D02*
G03*
X028701Y015681I000000J-000500D01*
G01*
X033780D02*
G03*
X033280Y016181I-000500J000000D01*
G01*
Y011142D02*
G03*
X033780Y011642I000000J000500D01*
G01*
X028701D02*
G03*
X029201Y011142I000500J000000D01*
G01*
X021821Y015738D02*
G03*
X021821Y015738I-001575J000000D01*
G01*
X021841Y019006D02*
G03*
X021841Y019006I-001575J000000D01*
G01*
X023994Y027837D02*
Y028587D01*
X026694D01*
Y027887D02*
Y028587D01*
X020018Y027877D02*
Y028627D01*
X022718D01*
Y027927D02*
Y028627D01*
X016042Y027916D02*
Y028666D01*
X018742D01*
Y027966D02*
Y028666D01*
X036201Y023711D02*
Y023857D01*
X036212Y023868D01*
X036142D02*
X036212D01*
X036994Y016730D02*
Y018230D01*
X037244Y016730D02*
X037494D01*
X037244D02*
Y018230D01*
X037494D01*
Y016730D02*
Y018230D01*
X075674Y016346D02*
X076374D01*
Y023346D02*
X076524Y023196D01*
Y022496D02*
Y023196D01*
X076374Y022346D02*
X076524Y022496D01*
X076374Y022346D02*
X076524Y022196D01*
Y021496D02*
Y022196D01*
X076374Y021346D02*
X076524Y021496D01*
X075524Y023196D02*
X075674Y023346D01*
X075524Y022496D02*
Y023196D01*
Y022496D02*
X075674Y022346D01*
X075524Y022196D02*
X075674Y022346D01*
X075524Y021496D02*
Y022196D01*
Y021496D02*
X075674Y021346D01*
X075624Y015346D02*
X076024D01*
X075524Y015446D02*
X075624Y015346D01*
X075524Y015446D02*
Y016196D01*
X075674Y016346D01*
X075524Y016496D02*
X075674Y016346D01*
X075524Y016496D02*
Y017196D01*
X075674Y017346D01*
X075524Y017496D02*
X075674Y017346D01*
X075524Y017496D02*
Y018196D01*
X075674Y018346D01*
X075524Y018496D02*
X075674Y018346D01*
X075524Y018496D02*
Y019196D01*
X075674Y019346D01*
X075524Y019496D02*
X075674Y019346D01*
X075524Y019496D02*
Y020196D01*
X075674Y020346D01*
X075524Y020496D02*
X075674Y020346D01*
X075524Y020496D02*
Y021196D01*
X075674Y021346D01*
X076374Y018346D02*
X076524Y018496D01*
Y019196D01*
X076374Y019346D02*
X076524Y019196D01*
X076374Y019346D02*
X076524Y019496D01*
Y020196D01*
X076374Y020346D02*
X076524Y020196D01*
X076374Y020346D02*
X076524Y020496D01*
Y021196D01*
X076374Y021346D02*
X076524Y021196D01*
X076374Y018346D02*
X076524Y018196D01*
Y017496D02*
Y018196D01*
X076374Y017346D02*
X076524Y017496D01*
X076374Y017346D02*
X076524Y017196D01*
Y016496D02*
Y017196D01*
X076374Y016346D02*
X076524Y016496D01*
X076374Y016346D02*
X076524Y016196D01*
Y015446D02*
Y016196D01*
X076424Y015346D02*
X076524Y015446D01*
X076024Y015346D02*
X076424D01*
X075524Y023496D02*
X075674Y023346D01*
X075524Y023496D02*
Y024196D01*
X075674Y024346D01*
X075524Y024496D02*
X075674Y024346D01*
X075524Y024496D02*
Y025246D01*
X075624Y025346D01*
X076024D01*
X076374Y023346D02*
X076524Y023496D01*
Y024196D01*
X076374Y024346D02*
X076524Y024196D01*
X076374Y024346D02*
X076524Y024496D01*
Y025246D01*
X076424Y025346D02*
X076524Y025246D01*
X076024Y025346D02*
X076424D01*
X010241Y015323D02*
X010941D01*
Y022323D02*
X011091Y022173D01*
Y021473D02*
Y022173D01*
X010941Y021323D02*
X011091Y021473D01*
X010941Y021323D02*
X011091Y021173D01*
Y020473D02*
Y021173D01*
X010941Y020323D02*
X011091Y020473D01*
X010091Y022173D02*
X010241Y022323D01*
X010091Y021473D02*
Y022173D01*
Y021473D02*
X010241Y021323D01*
X010091Y021173D02*
X010241Y021323D01*
X010091Y020473D02*
Y021173D01*
Y020473D02*
X010241Y020323D01*
X010191Y014323D02*
X010591D01*
X010091Y014423D02*
X010191Y014323D01*
X010091Y014423D02*
Y015173D01*
X010241Y015323D01*
X010091Y015473D02*
X010241Y015323D01*
X010091Y015473D02*
Y016173D01*
X010241Y016323D01*
X010091Y016473D02*
X010241Y016323D01*
X010091Y016473D02*
Y017173D01*
X010241Y017323D01*
X010091Y017473D02*
X010241Y017323D01*
X010091Y017473D02*
Y018173D01*
X010241Y018323D01*
X010091Y018473D02*
X010241Y018323D01*
X010091Y018473D02*
Y019173D01*
X010241Y019323D01*
X010091Y019473D02*
X010241Y019323D01*
X010091Y019473D02*
Y020173D01*
X010241Y020323D01*
X010941Y017323D02*
X011091Y017473D01*
Y018173D01*
X010941Y018323D02*
X011091Y018173D01*
X010941Y018323D02*
X011091Y018473D01*
Y019173D01*
X010941Y019323D02*
X011091Y019173D01*
X010941Y019323D02*
X011091Y019473D01*
Y020173D01*
X010941Y020323D02*
X011091Y020173D01*
X010941Y017323D02*
X011091Y017173D01*
Y016473D02*
Y017173D01*
X010941Y016323D02*
X011091Y016473D01*
X010941Y016323D02*
X011091Y016173D01*
Y015473D02*
Y016173D01*
X010941Y015323D02*
X011091Y015473D01*
X010941Y015323D02*
X011091Y015173D01*
Y014423D02*
Y015173D01*
X010991Y014323D02*
X011091Y014423D01*
X010591Y014323D02*
X010991D01*
X010091Y022473D02*
X010241Y022323D01*
X010091Y022473D02*
Y023173D01*
X010241Y023323D01*
X010091Y023473D02*
X010241Y023323D01*
X010091Y023473D02*
Y024223D01*
X010191Y024323D01*
X010591D01*
X010941Y022323D02*
X011091Y022473D01*
Y023173D01*
X010941Y023323D02*
X011091Y023173D01*
X010941Y023323D02*
X011091Y023473D01*
Y024223D01*
X010991Y024323D02*
X011091Y024223D01*
X010591Y024323D02*
X010991D01*
X059604Y013321D02*
X061104D01*
X059604Y012821D02*
Y013071D01*
X061104D01*
Y012821D02*
Y013071D01*
X059604Y012821D02*
X061104D01*
X055392D02*
X056892D01*
Y013071D02*
Y013321D01*
X055392Y013071D02*
X056892D01*
X055392D02*
Y013321D01*
X056892D01*
X032008Y013661D02*
X032320D01*
X031811Y014252D02*
X031811D01*
X031417Y013661D02*
X031614D01*
X031024Y014055D02*
Y014055D01*
X030827Y013661D02*
X031024D01*
X030630Y014252D02*
X030630D01*
X030120Y013661D02*
X030433D01*
X028701Y014803D02*
Y015681D01*
X029201Y016181D02*
X033280D01*
X033780Y014843D02*
Y015681D01*
Y011642D02*
Y012480D01*
X029201Y011142D02*
X033280D01*
X028701Y011642D02*
Y012520D01*
X075602Y015346D02*
X075624D01*
X075512Y015256D02*
X075602Y015346D01*
X075512Y014468D02*
Y015256D01*
Y014468D02*
X075591Y014390D01*
X076457D01*
X076535Y014468D01*
Y015235D01*
X076424Y015346D02*
X076535Y015235D01*
X028870Y025957D02*
Y026707D01*
Y025957D02*
X029620D01*
X021329Y015148D02*
Y015344D01*
X021230Y015246D02*
X021427D01*
X021348Y018415D02*
Y018612D01*
X021250Y018514D02*
X021447D01*
X012992Y026663D02*
Y026063D01*
X013292D01*
X013392Y026163D01*
Y026263D01*
X013292Y026363D01*
X012992D01*
X013292D01*
X013392Y026463D01*
Y026563D01*
X013292Y026663D01*
X012992D01*
X013592Y026563D02*
X013692Y026663D01*
X013892D01*
X013992Y026563D01*
Y026163D01*
X013892Y026063D01*
X013692D01*
X013592Y026163D01*
Y026563D01*
X048819Y012844D02*
Y012244D01*
X049119D01*
X049219Y012344D01*
Y012444D01*
X049119Y012544D01*
X048819D01*
X049119D01*
X049219Y012644D01*
Y012744D01*
X049119Y012844D01*
X048819D01*
X049419D02*
X049819D01*
X049619D01*
Y012244D01*
X050019Y012744D02*
X050118Y012844D01*
X050318D01*
X050418Y012744D01*
Y012344D01*
X050318Y012244D01*
X050118D01*
X050019Y012344D01*
Y012744D01*
X041738Y022783D02*
X041638Y022883D01*
X041439D01*
X041339Y022783D01*
Y022383D01*
X041439Y022283D01*
X041638D01*
X041738Y022383D01*
X041938Y022783D02*
X042038Y022883D01*
X042238D01*
X042338Y022783D01*
Y022383D01*
X042238Y022283D01*
X042038D01*
X041938Y022383D01*
Y022783D01*
X039612Y018807D02*
X039513Y018907D01*
X039313D01*
X039213Y018807D01*
Y018407D01*
X039313Y018307D01*
X039513D01*
X039612Y018407D01*
X039812Y018307D02*
X040012D01*
X039912D01*
Y018907D01*
X039812Y018807D01*
X070039Y013182D02*
X069939Y013282D01*
X069739D01*
X069639Y013182D01*
Y012782D01*
X069739Y012682D01*
X069939D01*
X070039Y012782D01*
X070638Y012682D02*
X070238D01*
X070638Y013082D01*
Y013182D01*
X070538Y013282D01*
X070338D01*
X070238Y013182D01*
X070044Y015898D02*
X069944Y015998D01*
X069744D01*
X069644Y015898D01*
Y015498D01*
X069744Y015398D01*
X069944D01*
X070044Y015498D01*
X070244Y015898D02*
X070344Y015998D01*
X070544D01*
X070644Y015898D01*
Y015798D01*
X070544Y015698D01*
X070444D01*
X070544D01*
X070644Y015598D01*
Y015498D01*
X070544Y015398D01*
X070344D01*
X070244Y015498D01*
X045400Y023807D02*
X045300Y023907D01*
X045100D01*
X045000Y023807D01*
Y023407D01*
X045100Y023307D01*
X045300D01*
X045400Y023407D01*
X045900Y023307D02*
Y023907D01*
X045600Y023607D01*
X046000D01*
X035046Y018610D02*
X034946Y018710D01*
X034746D01*
X034646Y018610D01*
Y018210D01*
X034746Y018110D01*
X034946D01*
X035046Y018210D01*
X035645Y018710D02*
X035245D01*
Y018410D01*
X035445Y018510D01*
X035545D01*
X035645Y018410D01*
Y018210D01*
X035545Y018110D01*
X035345D01*
X035245Y018210D01*
X059310Y015689D02*
X059210Y015789D01*
X059010D01*
X058910Y015689D01*
Y015289D01*
X059010Y015189D01*
X059210D01*
X059310Y015289D01*
X059910Y015789D02*
X059710Y015689D01*
X059510Y015489D01*
Y015289D01*
X059610Y015189D01*
X059810D01*
X059910Y015289D01*
Y015389D01*
X059810Y015489D01*
X059510D01*
X055092Y015691D02*
X054992Y015791D01*
X054792D01*
X054692Y015691D01*
Y015291D01*
X054792Y015191D01*
X054992D01*
X055092Y015291D01*
X055292Y015791D02*
X055692D01*
Y015691D01*
X055292Y015291D01*
Y015191D01*
X030642Y016817D02*
X030542Y016717D01*
Y016517D01*
X030642Y016417D01*
X031042D01*
X031142Y016517D01*
Y016717D01*
X031042Y016817D01*
X030642Y017017D02*
X030542Y017117D01*
Y017317D01*
X030642Y017417D01*
X030742D01*
X030842Y017317D01*
X030942Y017417D01*
X031042D01*
X031142Y017317D01*
Y017117D01*
X031042Y017017D01*
X030942D01*
X030842Y017117D01*
X030742Y017017D01*
X030642D01*
X030842Y017117D02*
Y017317D01*
X018333Y020874D02*
X018233Y020974D01*
X018033D01*
X017933Y020874D01*
Y020474D01*
X018033Y020374D01*
X018233D01*
X018333Y020474D01*
X018533D02*
X018633Y020374D01*
X018833D01*
X018933Y020474D01*
Y020874D01*
X018833Y020974D01*
X018633D01*
X018533Y020874D01*
Y020774D01*
X018633Y020674D01*
X018933D01*
X022938Y015364D02*
X022838Y015464D01*
X022638D01*
X022538Y015364D01*
Y014965D01*
X022638Y014865D01*
X022838D01*
X022938Y014965D01*
X023138Y014865D02*
X023338D01*
X023238D01*
Y015464D01*
X023138Y015364D01*
X023637D02*
X023737Y015464D01*
X023937D01*
X024037Y015364D01*
Y014965D01*
X023937Y014865D01*
X023737D01*
X023637Y014965D01*
Y015364D01*
X035865Y015512D02*
X035765Y015612D01*
X035565D01*
X035465Y015512D01*
Y015112D01*
X035565Y015013D01*
X035765D01*
X035865Y015112D01*
X036065Y015013D02*
X036265D01*
X036165D01*
Y015612D01*
X036065Y015512D01*
X036565Y015013D02*
X036765D01*
X036665D01*
Y015612D01*
X036565Y015512D01*
X024488Y019379D02*
Y018780D01*
X024788D01*
X024888Y018879D01*
Y019279D01*
X024788Y019379D01*
X024488D01*
X025088Y019279D02*
X025188Y019379D01*
X025388D01*
X025488Y019279D01*
Y018879D01*
X025388Y018780D01*
X025188D01*
X025088Y018879D01*
Y019279D01*
X021191Y022588D02*
Y021988D01*
X021491D01*
X021591Y022088D01*
Y022488D01*
X021491Y022588D01*
X021191D01*
X021791Y021988D02*
X021991D01*
X021891D01*
Y022588D01*
X021791Y022488D01*
X014843Y038494D02*
X015443D01*
Y038794D01*
X015343Y038894D01*
X014943D01*
X014843Y038794D01*
Y038494D01*
X015443Y039494D02*
Y039094D01*
X015043Y039494D01*
X014943D01*
X014843Y039394D01*
Y039194D01*
X014943Y039094D01*
X024321Y038445D02*
X024921D01*
Y038745D01*
X024821Y038845D01*
X024421D01*
X024321Y038745D01*
Y038445D01*
X024421Y039045D02*
X024321Y039145D01*
Y039345D01*
X024421Y039445D01*
X024521D01*
X024621Y039345D01*
Y039245D01*
Y039345D01*
X024721Y039445D01*
X024821D01*
X024921Y039345D01*
Y039145D01*
X024821Y039045D01*
X038288Y038518D02*
X038888Y038514D01*
X038890Y038814D01*
X038791Y038914D01*
X038391Y038917D01*
X038290Y038818D01*
X038288Y038518D01*
X038894Y039413D02*
X038294Y039417D01*
X038592Y039116D01*
X038595Y039515D01*
X047727Y038514D02*
X048327D01*
Y038814D01*
X048227Y038914D01*
X047827D01*
X047727Y038814D01*
Y038514D01*
Y039513D02*
Y039114D01*
X048027D01*
X047927Y039314D01*
Y039413D01*
X048027Y039513D01*
X048227D01*
X048327Y039413D01*
Y039214D01*
X048227Y039114D01*
X061684Y038435D02*
X062283D01*
Y038735D01*
X062183Y038835D01*
X061784D01*
X061684Y038735D01*
Y038435D01*
Y039435D02*
X061784Y039235D01*
X061984Y039035D01*
X062183D01*
X062283Y039135D01*
Y039335D01*
X062183Y039435D01*
X062084D01*
X061984Y039335D01*
Y039035D01*
X071132Y038474D02*
X071732D01*
Y038774D01*
X071632Y038874D01*
X071232D01*
X071132Y038774D01*
Y038474D01*
Y039074D02*
Y039474D01*
X071232D01*
X071632Y039074D01*
X071732D01*
X072053Y015009D02*
X071853D01*
X071953D01*
Y014509D01*
X071853Y014409D01*
X071754D01*
X071654Y014509D01*
X072253Y014909D02*
X072353Y015009D01*
X072553D01*
X072653Y014909D01*
Y014509D01*
X072553Y014409D01*
X072353D01*
X072253Y014509D01*
Y014909D01*
X028976Y015600D02*
Y015000D01*
X029376D01*
X029576Y015500D02*
X029676Y015600D01*
X029876D01*
X029976Y015500D01*
Y015100D01*
X029876Y015000D01*
X029676D01*
X029576Y015100D01*
Y015500D01*
X011929Y013189D02*
Y013789D01*
X012229D01*
X012329Y013689D01*
Y013489D01*
X012229Y013389D01*
X011929D01*
X012529Y013689D02*
X012629Y013789D01*
X012829D01*
X012929Y013689D01*
Y013289D01*
X012829Y013189D01*
X012629D01*
X012529Y013289D01*
Y013689D01*
X044864Y015594D02*
X045264D01*
X045364Y015694D01*
Y015894D01*
X045264Y015994D01*
X044864D01*
X044764Y015894D01*
Y015694D01*
X044964Y015794D02*
X044764Y015594D01*
Y015694D02*
X044864Y015594D01*
X045264Y015394D02*
X045364Y015294D01*
Y015094D01*
X045264Y014994D01*
X044864D01*
X044764Y015094D01*
Y015294D01*
X044864Y015394D01*
X045264D01*
X044864Y017395D02*
X045264D01*
X045364Y017495D01*
Y017695D01*
X045264Y017795D01*
X044864D01*
X044764Y017695D01*
Y017495D01*
X044964Y017595D02*
X044764Y017395D01*
Y017495D02*
X044864Y017395D01*
X044764Y017195D02*
Y016996D01*
Y017096D01*
X045364D01*
X045264Y017195D01*
X044824Y019836D02*
X045224D01*
X045324Y019936D01*
Y020136D01*
X045224Y020236D01*
X044824D01*
X044724Y020136D01*
Y019936D01*
X044924Y020036D02*
X044724Y019836D01*
Y019936D02*
X044824Y019836D01*
X044724Y019237D02*
Y019636D01*
X045124Y019237D01*
X045224D01*
X045324Y019337D01*
Y019536D01*
X045224Y019636D01*
X018668Y012088D02*
Y012488D01*
X018568Y012588D01*
X018368D01*
X018268Y012488D01*
Y012088D01*
X018368Y011988D01*
X018568D01*
X018468Y012188D02*
X018668Y011988D01*
X018568D02*
X018668Y012088D01*
X018868Y012488D02*
X018967Y012588D01*
X019167D01*
X019267Y012488D01*
Y012388D01*
X019167Y012288D01*
X019067D01*
X019167D01*
X019267Y012188D01*
Y012088D01*
X019167Y011988D01*
X018967D01*
X018868Y012088D01*
X025230Y021600D02*
Y022000D01*
X025130Y022100D01*
X024930D01*
X024830Y022000D01*
Y021600D01*
X024930Y021500D01*
X025130D01*
X025030Y021700D02*
X025230Y021500D01*
X025130D02*
X025230Y021600D01*
X025730Y021500D02*
Y022100D01*
X025430Y021800D01*
X025830D01*
X054894Y027360D02*
Y027760D01*
X054794Y027860D01*
X054594D01*
X054494Y027760D01*
Y027360D01*
X054594Y027260D01*
X054794D01*
X054694Y027460D02*
X054894Y027260D01*
X054794D02*
X054894Y027360D01*
X055494Y027860D02*
X055094D01*
Y027560D01*
X055294Y027660D01*
X055394D01*
X055494Y027560D01*
Y027360D01*
X055394Y027260D01*
X055194D01*
X055094Y027360D01*
X057569D02*
Y027760D01*
X057469Y027860D01*
X057269D01*
X057169Y027760D01*
Y027360D01*
X057269Y027260D01*
X057469D01*
X057369Y027460D02*
X057569Y027260D01*
X057469D02*
X057569Y027360D01*
X058169Y027860D02*
X057969Y027760D01*
X057769Y027560D01*
Y027360D01*
X057869Y027260D01*
X058069D01*
X058169Y027360D01*
Y027460D01*
X058069Y027560D01*
X057769D01*
X060205Y027360D02*
Y027760D01*
X060105Y027860D01*
X059905D01*
X059805Y027760D01*
Y027360D01*
X059905Y027260D01*
X060105D01*
X060005Y027460D02*
X060205Y027260D01*
X060105D02*
X060205Y027360D01*
X060405Y027860D02*
X060805D01*
Y027760D01*
X060405Y027360D01*
Y027260D01*
X062861Y027360D02*
Y027760D01*
X062761Y027860D01*
X062561D01*
X062461Y027760D01*
Y027360D01*
X062561Y027260D01*
X062761D01*
X062661Y027460D02*
X062861Y027260D01*
X062761D02*
X062861Y027360D01*
X063060Y027760D02*
X063160Y027860D01*
X063360D01*
X063460Y027760D01*
Y027660D01*
X063360Y027560D01*
X063460Y027460D01*
Y027360D01*
X063360Y027260D01*
X063160D01*
X063060Y027360D01*
Y027460D01*
X063160Y027560D01*
X063060Y027660D01*
Y027760D01*
X063160Y027560D02*
X063360D01*
X065516Y027360D02*
Y027760D01*
X065416Y027860D01*
X065216D01*
X065116Y027760D01*
Y027360D01*
X065216Y027260D01*
X065416D01*
X065316Y027460D02*
X065516Y027260D01*
X065416D02*
X065516Y027360D01*
X065716D02*
X065816Y027260D01*
X066016D01*
X066116Y027360D01*
Y027760D01*
X066016Y027860D01*
X065816D01*
X065716Y027760D01*
Y027660D01*
X065816Y027560D01*
X066116D01*
X068181Y027360D02*
Y027760D01*
X068081Y027860D01*
X067881D01*
X067781Y027760D01*
Y027360D01*
X067881Y027260D01*
X068081D01*
X067981Y027460D02*
X068181Y027260D01*
X068081D02*
X068181Y027360D01*
X068381Y027260D02*
X068581D01*
X068481D01*
Y027860D01*
X068381Y027760D01*
X068881D02*
X068981Y027860D01*
X069181D01*
X069281Y027760D01*
Y027360D01*
X069181Y027260D01*
X068981D01*
X068881Y027360D01*
Y027760D01*
X070834Y027360D02*
Y027760D01*
X070734Y027860D01*
X070534D01*
X070434Y027760D01*
Y027360D01*
X070534Y027260D01*
X070734D01*
X070634Y027460D02*
X070834Y027260D01*
X070734D02*
X070834Y027360D01*
X071034Y027260D02*
X071234D01*
X071134D01*
Y027860D01*
X071034Y027760D01*
X071533Y027260D02*
X071733D01*
X071633D01*
Y027860D01*
X071533Y027760D01*
X055050Y020944D02*
Y021343D01*
X054950Y021443D01*
X054750D01*
X054650Y021343D01*
Y020944D01*
X054750Y020844D01*
X054950D01*
X054850Y021043D02*
X055050Y020844D01*
X054950D02*
X055050Y020944D01*
X055250Y020844D02*
X055450D01*
X055350D01*
Y021443D01*
X055250Y021343D01*
X056149Y020844D02*
X055750D01*
X056149Y021243D01*
Y021343D01*
X056049Y021443D01*
X055849D01*
X055750Y021343D01*
X057682Y020945D02*
Y021345D01*
X057583Y021445D01*
X057383D01*
X057283Y021345D01*
Y020945D01*
X057383Y020845D01*
X057583D01*
X057483Y021045D02*
X057682Y020845D01*
X057583D02*
X057682Y020945D01*
X057882Y020845D02*
X058082D01*
X057982D01*
Y021445D01*
X057882Y021345D01*
X058382D02*
X058482Y021445D01*
X058682D01*
X058782Y021345D01*
Y021245D01*
X058682Y021145D01*
X058582D01*
X058682D01*
X058782Y021045D01*
Y020945D01*
X058682Y020845D01*
X058482D01*
X058382Y020945D01*
X060326Y020944D02*
Y021343D01*
X060226Y021443D01*
X060026D01*
X059926Y021343D01*
Y020944D01*
X060026Y020844D01*
X060226D01*
X060126Y021043D02*
X060326Y020844D01*
X060226D02*
X060326Y020944D01*
X060526Y020844D02*
X060726D01*
X060626D01*
Y021443D01*
X060526Y021343D01*
X061326Y020844D02*
Y021443D01*
X061026Y021143D01*
X061426D01*
X062959Y020944D02*
Y021343D01*
X062859Y021443D01*
X062659D01*
X062559Y021343D01*
Y020944D01*
X062659Y020844D01*
X062859D01*
X062759Y021043D02*
X062959Y020844D01*
X062859D02*
X062959Y020944D01*
X063159Y020844D02*
X063359D01*
X063259D01*
Y021443D01*
X063159Y021343D01*
X064059Y021443D02*
X063659D01*
Y021143D01*
X063859Y021243D01*
X063959D01*
X064059Y021143D01*
Y020944D01*
X063959Y020844D01*
X063759D01*
X063659Y020944D01*
X065602Y020944D02*
Y021343D01*
X065502Y021443D01*
X065302D01*
X065202Y021343D01*
Y020944D01*
X065302Y020844D01*
X065502D01*
X065402Y021043D02*
X065602Y020844D01*
X065502D02*
X065602Y020944D01*
X065802Y020844D02*
X066002D01*
X065902D01*
Y021443D01*
X065802Y021343D01*
X066702Y021443D02*
X066502Y021343D01*
X066302Y021143D01*
Y020944D01*
X066402Y020844D01*
X066602D01*
X066702Y020944D01*
Y021043D01*
X066602Y021143D01*
X066302D01*
X068235Y020944D02*
Y021343D01*
X068135Y021443D01*
X067935D01*
X067835Y021343D01*
Y020944D01*
X067935Y020844D01*
X068135D01*
X068035Y021043D02*
X068235Y020844D01*
X068135D02*
X068235Y020944D01*
X068435Y020844D02*
X068635D01*
X068535D01*
Y021443D01*
X068435Y021343D01*
X068935Y021443D02*
X069335D01*
Y021343D01*
X068935Y020944D01*
Y020844D01*
X070878Y020944D02*
Y021343D01*
X070778Y021443D01*
X070578D01*
X070478Y021343D01*
Y020944D01*
X070578Y020844D01*
X070778D01*
X070678Y021043D02*
X070878Y020844D01*
X070778D02*
X070878Y020944D01*
X071077Y020844D02*
X071277D01*
X071177D01*
Y021443D01*
X071077Y021343D01*
X071577D02*
X071677Y021443D01*
X071877D01*
X071977Y021343D01*
Y021243D01*
X071877Y021143D01*
X071977Y021043D01*
Y020944D01*
X071877Y020844D01*
X071677D01*
X071577Y020944D01*
Y021043D01*
X071677Y021143D01*
X071577Y021243D01*
Y021343D01*
X071677Y021143D02*
X071877D01*
X028010Y013943D02*
X027610D01*
X027510Y013843D01*
Y013643D01*
X027610Y013543D01*
X028010D01*
X028110Y013643D01*
Y013843D01*
X027910Y013743D02*
X028110Y013943D01*
Y013843D02*
X028010Y013943D01*
X028110Y014143D02*
Y014343D01*
Y014243D01*
X027510D01*
X027610Y014143D01*
X028010Y014643D02*
X028110Y014743D01*
Y014943D01*
X028010Y015043D01*
X027610D01*
X027510Y014943D01*
Y014743D01*
X027610Y014643D01*
X027710D01*
X027810Y014743D01*
Y015043D01*
X037165Y026575D02*
Y027175D01*
X037465D01*
X037565Y027075D01*
Y026875D01*
X037465Y026775D01*
X037165D01*
X037365D02*
X037565Y026575D01*
X037765Y027075D02*
X037865Y027175D01*
X038065D01*
X038165Y027075D01*
Y026675D01*
X038065Y026575D01*
X037865D01*
X037765Y026675D01*
Y027075D01*
X041142Y015472D02*
Y016072D01*
X041442D01*
X041542Y015972D01*
Y015772D01*
X041442Y015672D01*
X041142D01*
X041342D02*
X041542Y015472D01*
X041742D02*
X041941D01*
X041842D01*
Y016072D01*
X041742Y015972D01*
X041142Y017717D02*
Y018316D01*
X041442D01*
X041542Y018216D01*
Y018016D01*
X041442Y017916D01*
X041142D01*
X041342D02*
X041542Y017717D01*
X042141D02*
X041742D01*
X042141Y018116D01*
Y018216D01*
X042041Y018316D01*
X041842D01*
X041742Y018216D01*
X041102Y020079D02*
Y020679D01*
X041402D01*
X041502Y020579D01*
Y020379D01*
X041402Y020279D01*
X041102D01*
X041302D02*
X041502Y020079D01*
X041702Y020579D02*
X041802Y020679D01*
X042002D01*
X042102Y020579D01*
Y020479D01*
X042002Y020379D01*
X041902D01*
X042002D01*
X042102Y020279D01*
Y020179D01*
X042002Y020079D01*
X041802D01*
X041702Y020179D01*
X040893Y027296D02*
Y027896D01*
X041193D01*
X041293Y027796D01*
Y027596D01*
X041193Y027496D01*
X040893D01*
X041093D02*
X041293Y027296D01*
X041793D02*
Y027896D01*
X041493Y027596D01*
X041893D01*
X039397Y027300D02*
Y027899D01*
X039697D01*
X039797Y027799D01*
Y027599D01*
X039697Y027499D01*
X039397D01*
X039597D02*
X039797Y027300D01*
X040397Y027899D02*
X039997D01*
Y027599D01*
X040197Y027699D01*
X040297D01*
X040397Y027599D01*
Y027399D01*
X040297Y027300D01*
X040097D01*
X039997Y027399D01*
X044331Y027480D02*
Y028080D01*
X044631D01*
X044731Y027980D01*
Y027780D01*
X044631Y027680D01*
X044331D01*
X044531D02*
X044731Y027480D01*
X045330Y028080D02*
X045130Y027980D01*
X044931Y027780D01*
Y027580D01*
X045030Y027480D01*
X045230D01*
X045330Y027580D01*
Y027680D01*
X045230Y027780D01*
X044931D01*
X016968Y023780D02*
Y024379D01*
X017268D01*
X017368Y024279D01*
Y024079D01*
X017268Y023979D01*
X016968D01*
X017168D02*
X017368Y023780D01*
X017568Y024379D02*
X017968D01*
Y024279D01*
X017568Y023879D01*
Y023780D01*
X020945D02*
Y024379D01*
X021245D01*
X021345Y024279D01*
Y024079D01*
X021245Y023979D01*
X020945D01*
X021145D02*
X021345Y023780D01*
X021545Y024279D02*
X021645Y024379D01*
X021845D01*
X021945Y024279D01*
Y024179D01*
X021845Y024079D01*
X021945Y023979D01*
Y023879D01*
X021845Y023780D01*
X021645D01*
X021545Y023879D01*
Y023979D01*
X021645Y024079D01*
X021545Y024179D01*
Y024279D01*
X021645Y024079D02*
X021845D01*
X026339Y023780D02*
Y024379D01*
X026638D01*
X026738Y024279D01*
Y024079D01*
X026638Y023979D01*
X026339D01*
X026539D02*
X026738Y023780D01*
X026938Y023879D02*
X027038Y023780D01*
X027238D01*
X027338Y023879D01*
Y024279D01*
X027238Y024379D01*
X027038D01*
X026938Y024279D01*
Y024179D01*
X027038Y024079D01*
X027338D01*
X016732Y025315D02*
Y025915D01*
X017032D01*
X017132Y025815D01*
Y025615D01*
X017032Y025515D01*
X016732D01*
X016932D02*
X017132Y025315D01*
X017332D02*
X017532D01*
X017432D01*
Y025915D01*
X017332Y025815D01*
X017832D02*
X017932Y025915D01*
X018132D01*
X018232Y025815D01*
Y025415D01*
X018132Y025315D01*
X017932D01*
X017832Y025415D01*
Y025815D01*
X020787Y025315D02*
Y025915D01*
X021087D01*
X021187Y025815D01*
Y025615D01*
X021087Y025515D01*
X020787D01*
X020987D02*
X021187Y025315D01*
X021387D02*
X021587D01*
X021487D01*
Y025915D01*
X021387Y025815D01*
X021887Y025315D02*
X022087D01*
X021987D01*
Y025915D01*
X021887Y025815D01*
X026142Y025315D02*
Y025915D01*
X026442D01*
X026542Y025815D01*
Y025615D01*
X026442Y025515D01*
X026142D01*
X026342D02*
X026542Y025315D01*
X026742D02*
X026941D01*
X026842D01*
Y025915D01*
X026742Y025815D01*
X027641Y025315D02*
X027241D01*
X027641Y025715D01*
Y025815D01*
X027541Y025915D01*
X027341D01*
X027241Y025815D01*
X022648Y010561D02*
Y011161D01*
X022948D01*
X023048Y011061D01*
Y010861D01*
X022948Y010761D01*
X022648D01*
X022848D02*
X023048Y010561D01*
X023247D02*
X023447D01*
X023347D01*
Y011161D01*
X023247Y011061D01*
X023747D02*
X023847Y011161D01*
X024047D01*
X024147Y011061D01*
Y010961D01*
X024047Y010861D01*
X023947D01*
X024047D01*
X024147Y010761D01*
Y010661D01*
X024047Y010561D01*
X023847D01*
X023747Y010661D01*
X023268Y016929D02*
X022668D01*
Y017229D01*
X022768Y017329D01*
X022968D01*
X023068Y017229D01*
Y016929D01*
Y017129D02*
X023268Y017329D01*
Y017529D02*
Y017729D01*
Y017629D01*
X022668D01*
X022768Y017529D01*
X023268Y018329D02*
X022668D01*
X022968Y018029D01*
Y018429D01*
X026641Y021470D02*
Y022070D01*
X026941D01*
X027041Y021970D01*
Y021770D01*
X026941Y021670D01*
X026641D01*
X026841D02*
X027041Y021470D01*
X027241D02*
X027441D01*
X027341D01*
Y022070D01*
X027241Y021970D01*
X028141Y022070D02*
X027741D01*
Y021770D01*
X027941Y021870D01*
X028041D01*
X028141Y021770D01*
Y021570D01*
X028041Y021470D01*
X027841D01*
X027741Y021570D01*
X030072Y021435D02*
Y022035D01*
X030372D01*
X030472Y021935D01*
Y021735D01*
X030372Y021635D01*
X030072D01*
X030272D02*
X030472Y021435D01*
X030672D02*
X030872D01*
X030772D01*
Y022035D01*
X030672Y021935D01*
X031571Y022035D02*
X031371Y021935D01*
X031171Y021735D01*
Y021535D01*
X031271Y021435D01*
X031471D01*
X031571Y021535D01*
Y021635D01*
X031471Y021735D01*
X031171D01*
X028780Y016339D02*
X028180D01*
Y016638D01*
X028280Y016738D01*
X028480D01*
X028580Y016638D01*
Y016339D01*
Y016539D02*
X028780Y016738D01*
Y016938D02*
Y017138D01*
Y017038D01*
X028180D01*
X028280Y016938D01*
X028180Y017438D02*
Y017838D01*
X028280D01*
X028680Y017438D01*
X028780D01*
X032087Y019764D02*
Y020364D01*
X032387D01*
X032486Y020264D01*
Y020064D01*
X032387Y019964D01*
X032087D01*
X032287D02*
X032486Y019764D01*
X032686D02*
X032886D01*
X032786D01*
Y020364D01*
X032686Y020264D01*
X033186D02*
X033286Y020364D01*
X033486D01*
X033586Y020264D01*
Y020164D01*
X033486Y020064D01*
X033586Y019964D01*
Y019864D01*
X033486Y019764D01*
X033286D01*
X033186Y019864D01*
Y019964D01*
X033286Y020064D01*
X033186Y020164D01*
Y020264D01*
X033286Y020064D02*
X033486D01*
X054480Y024800D02*
Y025400D01*
X054780D01*
X054880Y025300D01*
Y025100D01*
X054780Y025000D01*
X054480D01*
X054680D02*
X054880Y024800D01*
X055080D02*
X055280D01*
X055180D01*
Y025400D01*
X055080Y025300D01*
X055580Y024900D02*
X055680Y024800D01*
X055880D01*
X055980Y024900D01*
Y025300D01*
X055880Y025400D01*
X055680D01*
X055580Y025300D01*
Y025200D01*
X055680Y025100D01*
X055980D01*
X057131Y024800D02*
Y025400D01*
X057431D01*
X057531Y025300D01*
Y025100D01*
X057431Y025000D01*
X057131D01*
X057331D02*
X057531Y024800D01*
X058131D02*
X057731D01*
X058131Y025200D01*
Y025300D01*
X058031Y025400D01*
X057831D01*
X057731Y025300D01*
X058331D02*
X058431Y025400D01*
X058631D01*
X058731Y025300D01*
Y024900D01*
X058631Y024800D01*
X058431D01*
X058331Y024900D01*
Y025300D01*
X059782Y024800D02*
Y025400D01*
X060082D01*
X060182Y025300D01*
Y025100D01*
X060082Y025000D01*
X059782D01*
X059982D02*
X060182Y024800D01*
X060782D02*
X060382D01*
X060782Y025200D01*
Y025300D01*
X060682Y025400D01*
X060482D01*
X060382Y025300D01*
X060982Y024800D02*
X061182D01*
X061082D01*
Y025400D01*
X060982Y025300D01*
X062433Y024800D02*
Y025400D01*
X062733D01*
X062833Y025300D01*
Y025100D01*
X062733Y025000D01*
X062433D01*
X062633D02*
X062833Y024800D01*
X063433D02*
X063033D01*
X063433Y025200D01*
Y025300D01*
X063333Y025400D01*
X063133D01*
X063033Y025300D01*
X064032Y024800D02*
X063632D01*
X064032Y025200D01*
Y025300D01*
X063932Y025400D01*
X063732D01*
X063632Y025300D01*
X065084Y024800D02*
Y025400D01*
X065384D01*
X065484Y025300D01*
Y025100D01*
X065384Y025000D01*
X065084D01*
X065284D02*
X065484Y024800D01*
X066083D02*
X065684D01*
X066083Y025200D01*
Y025300D01*
X065984Y025400D01*
X065784D01*
X065684Y025300D01*
X066283D02*
X066383Y025400D01*
X066583D01*
X066683Y025300D01*
Y025200D01*
X066583Y025100D01*
X066483D01*
X066583D01*
X066683Y025000D01*
Y024900D01*
X066583Y024800D01*
X066383D01*
X066283Y024900D01*
X067735Y024800D02*
Y025400D01*
X068035D01*
X068135Y025300D01*
Y025100D01*
X068035Y025000D01*
X067735D01*
X067935D02*
X068135Y024800D01*
X068734D02*
X068335D01*
X068734Y025200D01*
Y025300D01*
X068634Y025400D01*
X068434D01*
X068335Y025300D01*
X069234Y024800D02*
Y025400D01*
X068934Y025100D01*
X069334D01*
X070226Y024783D02*
Y025383D01*
X070526D01*
X070626Y025283D01*
Y025083D01*
X070526Y024983D01*
X070226D01*
X070426D02*
X070626Y024783D01*
X071226D02*
X070826D01*
X071226Y025183D01*
Y025283D01*
X071126Y025383D01*
X070926D01*
X070826Y025283D01*
X071826Y025383D02*
X071426D01*
Y025083D01*
X071626Y025183D01*
X071726D01*
X071826Y025083D01*
Y024883D01*
X071726Y024783D01*
X071526D01*
X071426Y024883D01*
X054480Y022792D02*
Y023392D01*
X054780D01*
X054880Y023292D01*
Y023092D01*
X054780Y022992D01*
X054480D01*
X054680D02*
X054880Y022792D01*
X055480D02*
X055080D01*
X055480Y023192D01*
Y023292D01*
X055380Y023392D01*
X055180D01*
X055080Y023292D01*
X056080Y023392D02*
X055880Y023292D01*
X055680Y023092D01*
Y022892D01*
X055780Y022792D01*
X055980D01*
X056080Y022892D01*
Y022992D01*
X055980Y023092D01*
X055680D01*
X057131Y022792D02*
Y023392D01*
X057431D01*
X057531Y023292D01*
Y023092D01*
X057431Y022992D01*
X057131D01*
X057331D02*
X057531Y022792D01*
X058131D02*
X057731D01*
X058131Y023192D01*
Y023292D01*
X058031Y023392D01*
X057831D01*
X057731Y023292D01*
X058331Y023392D02*
X058731D01*
Y023292D01*
X058331Y022892D01*
Y022792D01*
X059782D02*
Y023392D01*
X060082D01*
X060182Y023292D01*
Y023092D01*
X060082Y022992D01*
X059782D01*
X059982D02*
X060182Y022792D01*
X060782D02*
X060382D01*
X060782Y023192D01*
Y023292D01*
X060682Y023392D01*
X060482D01*
X060382Y023292D01*
X060982D02*
X061082Y023392D01*
X061282D01*
X061382Y023292D01*
Y023192D01*
X061282Y023092D01*
X061382Y022992D01*
Y022892D01*
X061282Y022792D01*
X061082D01*
X060982Y022892D01*
Y022992D01*
X061082Y023092D01*
X060982Y023192D01*
Y023292D01*
X061082Y023092D02*
X061282D01*
X062433Y022792D02*
Y023392D01*
X062733D01*
X062833Y023292D01*
Y023092D01*
X062733Y022992D01*
X062433D01*
X062633D02*
X062833Y022792D01*
X063433D02*
X063033D01*
X063433Y023192D01*
Y023292D01*
X063333Y023392D01*
X063133D01*
X063033Y023292D01*
X063633Y022892D02*
X063733Y022792D01*
X063933D01*
X064033Y022892D01*
Y023292D01*
X063933Y023392D01*
X063733D01*
X063633Y023292D01*
Y023192D01*
X063733Y023092D01*
X064033D01*
X065084Y022792D02*
Y023392D01*
X065384D01*
X065484Y023292D01*
Y023092D01*
X065384Y022992D01*
X065084D01*
X065284D02*
X065484Y022792D01*
X065684Y023292D02*
X065784Y023392D01*
X065984D01*
X066084Y023292D01*
Y023192D01*
X065984Y023092D01*
X065884D01*
X065984D01*
X066084Y022992D01*
Y022892D01*
X065984Y022792D01*
X065784D01*
X065684Y022892D01*
X066284Y023292D02*
X066384Y023392D01*
X066584D01*
X066684Y023292D01*
Y022892D01*
X066584Y022792D01*
X066384D01*
X066284Y022892D01*
Y023292D01*
X067735Y022792D02*
Y023392D01*
X068035D01*
X068135Y023292D01*
Y023092D01*
X068035Y022992D01*
X067735D01*
X067935D02*
X068135Y022792D01*
X068335Y023292D02*
X068435Y023392D01*
X068635D01*
X068735Y023292D01*
Y023192D01*
X068635Y023092D01*
X068535D01*
X068635D01*
X068735Y022992D01*
Y022892D01*
X068635Y022792D01*
X068435D01*
X068335Y022892D01*
X068935Y022792D02*
X069135D01*
X069035D01*
Y023392D01*
X068935Y023292D01*
X070386Y022792D02*
Y023392D01*
X070686D01*
X070786Y023292D01*
Y023092D01*
X070686Y022992D01*
X070386D01*
X070586D02*
X070786Y022792D01*
X070986Y023292D02*
X071086Y023392D01*
X071286D01*
X071386Y023292D01*
Y023192D01*
X071286Y023092D01*
X071186D01*
X071286D01*
X071386Y022992D01*
Y022892D01*
X071286Y022792D01*
X071086D01*
X070986Y022892D01*
X071986Y022792D02*
X071586D01*
X071986Y023192D01*
Y023292D01*
X071886Y023392D01*
X071686D01*
X071586Y023292D01*
X054560Y018482D02*
Y019082D01*
X054860D01*
X054960Y018982D01*
Y018782D01*
X054860Y018682D01*
X054560D01*
X054760D02*
X054960Y018482D01*
X055160Y018982D02*
X055260Y019082D01*
X055460D01*
X055560Y018982D01*
Y018882D01*
X055460Y018782D01*
X055360D01*
X055460D01*
X055560Y018682D01*
Y018582D01*
X055460Y018482D01*
X055260D01*
X055160Y018582D01*
X055760Y018982D02*
X055860Y019082D01*
X056059D01*
X056159Y018982D01*
Y018882D01*
X056059Y018782D01*
X055960D01*
X056059D01*
X056159Y018682D01*
Y018582D01*
X056059Y018482D01*
X055860D01*
X055760Y018582D01*
X057211Y018482D02*
Y019082D01*
X057511D01*
X057611Y018982D01*
Y018782D01*
X057511Y018682D01*
X057211D01*
X057411D02*
X057611Y018482D01*
X057811Y018982D02*
X057911Y019082D01*
X058111D01*
X058211Y018982D01*
Y018882D01*
X058111Y018782D01*
X058011D01*
X058111D01*
X058211Y018682D01*
Y018582D01*
X058111Y018482D01*
X057911D01*
X057811Y018582D01*
X058710Y018482D02*
Y019082D01*
X058410Y018782D01*
X058810D01*
X059862Y018482D02*
Y019082D01*
X060162D01*
X060262Y018982D01*
Y018782D01*
X060162Y018682D01*
X059862D01*
X060062D02*
X060262Y018482D01*
X060462Y018982D02*
X060562Y019082D01*
X060762D01*
X060861Y018982D01*
Y018882D01*
X060762Y018782D01*
X060662D01*
X060762D01*
X060861Y018682D01*
Y018582D01*
X060762Y018482D01*
X060562D01*
X060462Y018582D01*
X061461Y019082D02*
X061061D01*
Y018782D01*
X061261Y018882D01*
X061361D01*
X061461Y018782D01*
Y018582D01*
X061361Y018482D01*
X061161D01*
X061061Y018582D01*
X062513Y018482D02*
Y019082D01*
X062813D01*
X062913Y018982D01*
Y018782D01*
X062813Y018682D01*
X062513D01*
X062713D02*
X062913Y018482D01*
X063113Y018982D02*
X063212Y019082D01*
X063412D01*
X063512Y018982D01*
Y018882D01*
X063412Y018782D01*
X063312D01*
X063412D01*
X063512Y018682D01*
Y018582D01*
X063412Y018482D01*
X063212D01*
X063113Y018582D01*
X064112Y019082D02*
X063912Y018982D01*
X063712Y018782D01*
Y018582D01*
X063812Y018482D01*
X064012D01*
X064112Y018582D01*
Y018682D01*
X064012Y018782D01*
X063712D01*
X065164Y018482D02*
Y019082D01*
X065464D01*
X065564Y018982D01*
Y018782D01*
X065464Y018682D01*
X065164D01*
X065364D02*
X065564Y018482D01*
X065763Y018982D02*
X065863Y019082D01*
X066063D01*
X066163Y018982D01*
Y018882D01*
X066063Y018782D01*
X065963D01*
X066063D01*
X066163Y018682D01*
Y018582D01*
X066063Y018482D01*
X065863D01*
X065763Y018582D01*
X066363Y019082D02*
X066763D01*
Y018982D01*
X066363Y018582D01*
Y018482D01*
X067815D02*
Y019082D01*
X068114D01*
X068214Y018982D01*
Y018782D01*
X068114Y018682D01*
X067815D01*
X068014D02*
X068214Y018482D01*
X068414Y018982D02*
X068514Y019082D01*
X068714D01*
X068814Y018982D01*
Y018882D01*
X068714Y018782D01*
X068614D01*
X068714D01*
X068814Y018682D01*
Y018582D01*
X068714Y018482D01*
X068514D01*
X068414Y018582D01*
X069014Y018982D02*
X069114Y019082D01*
X069314D01*
X069414Y018982D01*
Y018882D01*
X069314Y018782D01*
X069414Y018682D01*
Y018582D01*
X069314Y018482D01*
X069114D01*
X069014Y018582D01*
Y018682D01*
X069114Y018782D01*
X069014Y018882D01*
Y018982D01*
X069114Y018782D02*
X069314D01*
X070465Y018482D02*
Y019082D01*
X070765D01*
X070865Y018982D01*
Y018782D01*
X070765Y018682D01*
X070465D01*
X070665D02*
X070865Y018482D01*
X071065Y018982D02*
X071165Y019082D01*
X071365D01*
X071465Y018982D01*
Y018882D01*
X071365Y018782D01*
X071265D01*
X071365D01*
X071465Y018682D01*
Y018582D01*
X071365Y018482D01*
X071165D01*
X071065Y018582D01*
X071665D02*
X071765Y018482D01*
X071965D01*
X072065Y018582D01*
Y018982D01*
X071965Y019082D01*
X071765D01*
X071665Y018982D01*
Y018882D01*
X071765Y018782D01*
X072065D01*
X017608Y013307D02*
Y013907D01*
X017908D01*
X018008Y013807D01*
Y013607D01*
X017908Y013507D01*
X017608D01*
X017808D02*
X018008Y013307D01*
X018608Y013907D02*
X018408Y013807D01*
X018208Y013607D01*
Y013407D01*
X018308Y013307D01*
X018508D01*
X018608Y013407D01*
Y013507D01*
X018508Y013607D01*
X018208D01*
X019108Y013307D02*
Y013907D01*
X018808Y013607D01*
X019208D01*
X016975Y026957D02*
X016875Y027057D01*
X016675D01*
X016575Y026957D01*
Y026857D01*
X016675Y026757D01*
X016875D01*
X016975Y026657D01*
Y026557D01*
X016875Y026457D01*
X016675D01*
X016575Y026557D01*
X017175Y027057D02*
Y026457D01*
X017375Y026657D01*
X017574Y026457D01*
Y027057D01*
X017774Y026957D02*
X017874Y027057D01*
X018074D01*
X018174Y026957D01*
Y026557D01*
X018074Y026457D01*
X017874D01*
X017774Y026557D01*
Y026957D01*
X021059Y026947D02*
X020959Y027047D01*
X020759D01*
X020659Y026947D01*
Y026847D01*
X020759Y026747D01*
X020959D01*
X021059Y026647D01*
Y026547D01*
X020959Y026447D01*
X020759D01*
X020659Y026547D01*
X021259Y027047D02*
Y026447D01*
X021459Y026647D01*
X021659Y026447D01*
Y027047D01*
X021859Y026447D02*
X022059D01*
X021959D01*
Y027047D01*
X021859Y026947D01*
X024967Y026829D02*
X024867Y026929D01*
X024667D01*
X024567Y026829D01*
Y026729D01*
X024667Y026629D01*
X024867D01*
X024967Y026529D01*
Y026429D01*
X024867Y026329D01*
X024667D01*
X024567Y026429D01*
X025167Y026929D02*
Y026329D01*
X025367Y026529D01*
X025567Y026329D01*
Y026929D01*
X026166Y026329D02*
X025767D01*
X026166Y026729D01*
Y026829D01*
X026066Y026929D01*
X025867D01*
X025767Y026829D01*
X037953Y023434D02*
Y022935D01*
X038053Y022835D01*
X038253D01*
X038353Y022935D01*
Y023434D01*
X038553Y023334D02*
X038653Y023434D01*
X038852D01*
X038952Y023334D01*
Y022935D01*
X038852Y022835D01*
X038653D01*
X038553Y022935D01*
Y023334D01*
X042844Y027116D02*
Y026616D01*
X042944Y026516D01*
X043144D01*
X043244Y026616D01*
Y027116D01*
X043444Y026516D02*
X043644D01*
X043544D01*
Y027116D01*
X043444Y027016D01*
X029094Y020639D02*
Y020139D01*
X029194Y020039D01*
X029394D01*
X029494Y020139D01*
Y020639D01*
X030094Y020039D02*
X029694D01*
X030094Y020439D01*
Y020539D01*
X029994Y020639D01*
X029794D01*
X029694Y020539D01*
X013525Y021421D02*
Y020921D01*
X013625Y020821D01*
X013825D01*
X013925Y020921D01*
Y021421D01*
X014125Y021321D02*
X014225Y021421D01*
X014425D01*
X014525Y021321D01*
Y021221D01*
X014425Y021121D01*
X014325D01*
X014425D01*
X014525Y021021D01*
Y020921D01*
X014425Y020821D01*
X014225D01*
X014125Y020921D01*
X062926Y016189D02*
Y015789D01*
X063126Y015589D01*
X063326Y015789D01*
Y016189D01*
X063526Y015589D02*
Y016189D01*
X063826D01*
X063926Y016089D01*
Y015889D01*
X063826Y015789D01*
X063526D01*
X063726D02*
X063926Y015589D01*
X064126Y016089D02*
X064226Y016189D01*
X064426D01*
X064526Y016089D01*
Y015689D01*
X064426Y015589D01*
X064226D01*
X064126Y015689D01*
Y016089D01*
X017880Y017626D02*
X017780Y017726D01*
X017580D01*
X017480Y017626D01*
Y017226D01*
X017580Y017126D01*
X017780D01*
X017880Y017226D01*
X018080Y017126D02*
X018280D01*
X018180D01*
Y017726D01*
X018080Y017626D01*
X018980Y017126D02*
X018580D01*
X018980Y017526D01*
Y017626D01*
X018880Y017726D01*
X018680D01*
X018580Y017626D01*
X013857Y039978D02*
X014057D01*
X013957Y040077D02*
Y039878D01*
X016307Y039978D02*
X016507D01*
X049370Y018016D02*
X049770D01*
X049570Y018216D02*
Y017816D01*
X011968Y026324D02*
X012368D01*
X012168Y026523D02*
Y026124D01*
X038844Y016280D02*
X038444D01*
X038644Y016080D02*
Y016480D01*
X025945Y018056D02*
X025645Y017756D01*
X025945Y017456D01*
X045630Y026230D02*
Y026130D01*
X045830Y025930D01*
X046030Y026130D01*
Y026230D01*
X045830Y025930D02*
Y025630D01*
X046230Y026130D02*
X046330Y026230D01*
X046530D01*
X046630Y026130D01*
Y025730D01*
X046530Y025630D01*
X046330D01*
X046230Y025730D01*
Y026130D01*
X059154Y011471D02*
Y011871D01*
X058954Y011671D02*
X059354D01*
X057342Y014671D02*
Y014271D01*
X057542Y014471D02*
X057142D01*
X028070Y025957D02*
Y026157D01*
Y026057D01*
X028670D01*
Y025957D01*
Y026157D01*
X028170Y026856D02*
X028070Y026756D01*
Y026556D01*
X028170Y026457D01*
X028570D01*
X028670Y026556D01*
Y026756D01*
X028570Y026856D01*
X028170Y027456D02*
X028070Y027356D01*
Y027156D01*
X028170Y027056D01*
X028270D01*
X028370Y027156D01*
Y027356D01*
X028470Y027456D01*
X028570D01*
X028670Y027356D01*
Y027156D01*
X028570Y027056D01*
X028670Y027656D02*
X028070D01*
Y027956D01*
X028170Y028056D01*
X028370D01*
X028470Y027956D01*
Y027656D01*
X023306Y039978D02*
X023506D01*
X023406Y040077D02*
Y039878D01*
X025756Y039978D02*
X025956D01*
X037302D02*
X037502D01*
X037402Y040077D02*
Y039878D01*
X039752Y039978D02*
X039952D01*
X046732D02*
X046931D01*
X046831Y040077D02*
Y039878D01*
X049181Y039978D02*
X049381D01*
X060698D02*
X060898D01*
X060798Y040077D02*
Y039878D01*
X063148Y039978D02*
X063348D01*
X070157D02*
X070357D01*
X070257Y040077D02*
Y039878D01*
X072607Y039978D02*
X072807D01*
X030487Y040217D02*
Y039817D01*
X030687Y040017D02*
X030287D01*
X053893Y039833D02*
Y040233D01*
X053693Y040033D02*
X054093D01*
D64*
X045069Y024191D02*
G03*
X045069Y024191I-000049J000000D01*
G01*
X027506Y015394D02*
G03*
X027506Y015394I-000049J000000D01*
G01*
X043268Y014557D02*
G03*
X043268Y014557I-000049J000000D01*
G01*
Y016801D02*
G03*
X043268Y016801I-000049J000000D01*
G01*
Y019163D02*
G03*
X043268Y019163I-000049J000000D01*
G01*
X016904Y012091D02*
G03*
X016904Y012091I-000049J000000D01*
G01*
X054695Y019528D02*
G03*
X054695Y019528I-000049J000000D01*
G01*
X057333Y019528D02*
G03*
X057333Y019528I-000049J000000D01*
G01*
X059970Y019528D02*
G03*
X059970Y019528I-000049J000000D01*
G01*
X062608D02*
G03*
X062608Y019528I-000049J000000D01*
G01*
X065246Y019528D02*
G03*
X065246Y019528I-000049J000000D01*
G01*
X067884D02*
G03*
X067884Y019528I-000049J000000D01*
G01*
X070522D02*
G03*
X070522Y019528I-000049J000000D01*
G01*
X054537Y025945D02*
G03*
X054537Y025945I-000049J000000D01*
G01*
X057215D02*
G03*
X057215Y025945I-000049J000000D01*
G01*
X059852Y025945D02*
G03*
X059852Y025945I-000049J000000D01*
G01*
X062510D02*
G03*
X062510Y025945I-000049J000000D01*
G01*
X065167Y025945D02*
G03*
X065167Y025945I-000049J000000D01*
G01*
X067825D02*
G03*
X067825Y025945I-000049J000000D01*
G01*
X070482D02*
G03*
X070482Y025945I-000049J000000D01*
G01*
X025010Y021102D02*
G03*
X025010Y021102I-000049J000000D01*
G01*
X068533Y011785D02*
G03*
X068533Y011785I-000049J000000D01*
G01*
X028789Y019943D02*
G03*
X028789Y019943I-000049J000000D01*
G01*
X019902Y012992D02*
G03*
X019902Y012992I-000049J000000D01*
G01*
D65*
X044252Y024606D02*
G03*
X044252Y024606I-000079J000000D01*
G01*
D66*
X036281Y023799D02*
G03*
X036281Y023799I-000080J000000D01*
G01*
D67*
X029544Y019567D02*
G03*
X029544Y019567I-000056J000000D01*
G01*
D68*
X036356Y023794D02*
G03*
X036356Y023794I-000150J000000D01*
G01*
D69*
X015604Y011764D02*
G03*
X015104Y011764I-000250J000000D01*
G01*
X044488Y024291D02*
Y026260D01*
X043701Y024291D02*
Y026260D01*
Y024291D02*
X044488D01*
X043701Y026260D02*
X044488D01*
X035906Y018819D02*
X038071D01*
X035906Y017913D02*
Y018819D01*
Y016142D02*
Y017047D01*
Y016142D02*
X038071D01*
X038583Y017913D02*
Y018307D01*
X038071Y018819D02*
X038583Y018307D01*
X038071Y016142D02*
X038583Y016654D01*
Y017047D01*
X025039Y016968D02*
X026850D01*
X025039Y018543D02*
X026850D01*
Y016968D02*
Y017058D01*
X025039Y016968D02*
Y017058D01*
X026850Y018453D02*
Y018543D01*
X025039Y018453D02*
Y018543D01*
X044803Y026673D02*
X044882D01*
X044803Y027185D02*
X044882D01*
X037933Y025669D02*
Y025748D01*
X037421Y025669D02*
Y025748D01*
X026811Y023563D02*
X026890D01*
X026811Y023051D02*
X026890D01*
X026811Y024587D02*
X026890D01*
X026811Y025098D02*
X026890D01*
X021417Y024587D02*
X021496D01*
X021417Y025098D02*
X021496D01*
X021417Y023051D02*
X021496D01*
X021417Y023563D02*
X021496D01*
X017402Y024587D02*
X017480D01*
X017402Y025098D02*
X017480D01*
X017402Y023051D02*
X017480D01*
X017402Y023563D02*
X017480D01*
X024736Y013840D02*
Y014291D01*
X027311D01*
Y013840D02*
Y014291D01*
X041850Y015059D02*
X041929D01*
X041850Y014547D02*
X041929D01*
X044222Y015295D02*
X044547D01*
Y014862D02*
Y015295D01*
X043327D02*
X043652D01*
X043327Y014862D02*
Y015295D01*
X044222Y017539D02*
X044547D01*
Y017106D02*
Y017539D01*
X043327D02*
X043652D01*
X043327Y017106D02*
Y017539D01*
X041850Y017343D02*
X041929D01*
X041850Y016831D02*
X041929D01*
X041850Y019705D02*
X041929D01*
X041850Y019193D02*
X041929D01*
X044222Y019902D02*
X044547D01*
Y019468D02*
Y019902D01*
X043327D02*
X043652D01*
X043327Y019468D02*
Y019902D01*
X016398Y011764D02*
Y020402D01*
X014311Y011764D02*
Y020402D01*
X015604Y011764D02*
X016398D01*
X014311D02*
X015104D01*
X014311Y020402D02*
X016398D01*
X055276Y017933D02*
X055354D01*
X055276Y017421D02*
X055354D01*
X057927Y017933D02*
X058005D01*
X057927Y017421D02*
X058005D01*
X060577Y017933D02*
X060656D01*
X060577Y017421D02*
X060656D01*
X063228Y017933D02*
X063307D01*
X063228Y017421D02*
X063307D01*
X065879Y017933D02*
X065958D01*
X065879Y017421D02*
X065958D01*
X068530Y017933D02*
X068609D01*
X068530Y017421D02*
X068609D01*
X071181Y017933D02*
X071260D01*
X071181Y017421D02*
X071260D01*
X055709Y020177D02*
X055968D01*
Y019856D02*
Y020177D01*
X054819D02*
X055079D01*
X054819Y019856D02*
Y020177D01*
X058346Y020177D02*
X058606D01*
Y019856D02*
Y020177D01*
X057457D02*
X057717D01*
X057457Y019856D02*
Y020177D01*
X060984Y020177D02*
X061244D01*
Y019856D02*
Y020177D01*
X060094D02*
X060354D01*
X060094Y019856D02*
Y020177D01*
X063622D02*
X063882D01*
Y019856D02*
Y020177D01*
X062732D02*
X062992D01*
X062732Y019856D02*
Y020177D01*
X066260Y020177D02*
X066520D01*
Y019856D02*
Y020177D01*
X065370D02*
X065630D01*
X065370Y019856D02*
Y020177D01*
X068898D02*
X069157D01*
Y019856D02*
Y020177D01*
X068008D02*
X068268D01*
X068008Y019856D02*
Y020177D01*
X071535D02*
X071795D01*
Y019856D02*
Y020177D01*
X070646D02*
X070906D01*
X070646Y019856D02*
Y020177D01*
X054921Y022333D02*
X055630D01*
X054921Y021762D02*
X055630D01*
X057572Y022333D02*
X058281D01*
X057572Y021762D02*
X058281D01*
X060223Y022333D02*
X060932D01*
X060223Y021762D02*
X060932D01*
X062874Y022333D02*
X063582D01*
X062874Y021762D02*
X063582D01*
X065525Y022333D02*
X066233D01*
X065525Y021762D02*
X066233D01*
X068176Y022333D02*
X068884D01*
X068176Y021762D02*
X068884D01*
X070827Y022333D02*
X071535D01*
X070827Y021762D02*
X071535D01*
X055551Y026594D02*
X055811D01*
Y026274D02*
Y026594D01*
X054661D02*
X054921D01*
X054661Y026274D02*
Y026594D01*
X058228D02*
X058488D01*
Y026274D02*
Y026594D01*
X057339D02*
X057598D01*
X057339Y026274D02*
Y026594D01*
X060866Y026594D02*
X061126D01*
Y026274D02*
Y026594D01*
X059976D02*
X060236D01*
X059976Y026274D02*
Y026594D01*
X063524D02*
X063783D01*
Y026274D02*
Y026594D01*
X062634D02*
X062894D01*
X062634Y026274D02*
Y026594D01*
X066181Y026594D02*
X066441D01*
Y026274D02*
Y026594D01*
X065291D02*
X065551D01*
X065291Y026274D02*
Y026594D01*
X068839D02*
X069098D01*
Y026274D02*
Y026594D01*
X067949D02*
X068209D01*
X067949Y026274D02*
Y026594D01*
X071496D02*
X071756D01*
Y026274D02*
Y026594D01*
X070606D02*
X070866D01*
X070606Y026274D02*
Y026594D01*
X054921Y024340D02*
X055629D01*
X054921Y023770D02*
X055629D01*
X057572Y024340D02*
X058280D01*
X057572Y023770D02*
X058280D01*
X060223Y024340D02*
X060931D01*
X060223Y023770D02*
X060931D01*
X062874Y024340D02*
X063582D01*
X062874Y023770D02*
X063582D01*
X065524Y024340D02*
X066233D01*
X065524Y023770D02*
X066233D01*
X068175Y024340D02*
X068884D01*
X068175Y023770D02*
X068884D01*
X025610Y019780D02*
Y020039D01*
X025289Y019780D02*
X025610D01*
Y020669D02*
Y020929D01*
X025289D02*
X025610D01*
X026791Y020276D02*
Y020354D01*
X027303Y020276D02*
Y020354D01*
X061693Y012244D02*
Y014409D01*
X060787D02*
X061693D01*
X059016D02*
X059921D01*
X059016Y012244D02*
Y014409D01*
X060787Y011732D02*
X061181D01*
X061693Y012244D01*
X059016D02*
X059528Y011732D01*
X059921D01*
X054803D02*
Y013898D01*
Y011732D02*
X055709D01*
X056575D02*
X057480D01*
Y013898D01*
X055315Y014409D02*
X055709D01*
X054803Y013898D02*
X055315Y014409D01*
X056968D02*
X057480Y013898D01*
X056575Y014409D02*
X056968D01*
X067205Y011142D02*
Y015236D01*
X066575D02*
X067205D01*
X066575Y011142D02*
X067205D01*
X039232Y011398D02*
Y012480D01*
Y013583D02*
Y014665D01*
X035965Y013583D02*
Y014272D01*
Y011791D02*
Y012480D01*
Y014272D02*
X036358Y014665D01*
X039232D01*
X036358Y011398D02*
X039232D01*
X035965Y011791D02*
X036358Y011398D01*
X036270Y012234D02*
Y012431D01*
X036172Y012333D02*
X036369D01*
X030787Y020886D02*
X030866D01*
X030787Y020374D02*
X030866D01*
X022953Y013250D02*
Y013700D01*
X022653Y013250D02*
X023253D01*
X022653Y013050D02*
X023253D01*
X022953Y012600D02*
Y013050D01*
X041555Y026102D02*
Y026181D01*
X041043Y026102D02*
Y026181D01*
X040059Y026102D02*
Y026181D01*
X039547Y026102D02*
Y026181D01*
X022453Y019717D02*
X023453D01*
Y015717D02*
Y019717D01*
X022453Y015717D02*
X023453D01*
X022453D02*
Y019717D01*
X030404Y017874D02*
Y019843D01*
X029203Y017874D02*
X030404D01*
X029203D02*
Y019843D01*
X030404D01*
X029685Y017539D02*
X029764D01*
X029685Y017028D02*
X029764D01*
X032579Y018937D02*
Y019016D01*
X032067Y018937D02*
Y019016D01*
X070827Y024341D02*
X071535D01*
X070827Y023770D02*
X071535D01*
X020591Y011663D02*
Y011988D01*
X020157Y011663D02*
X020591D01*
Y012559D02*
Y012884D01*
X020157D02*
X020591D01*
X021479Y020854D02*
X023304D01*
X021479D02*
Y021783D01*
X023304D01*
Y020854D02*
Y021783D01*
X021339Y011171D02*
X021417D01*
X021339Y010659D02*
X021417D01*
X019941Y013868D02*
X020650D01*
X019941Y013297D02*
X020650D01*
D70*
X016122Y012157D02*
G03*
X016122Y012157I-000118J000000D01*
G01*
D71*
X071030Y012768D02*
Y013918D01*
X071680D01*
X071030Y010118D02*
Y011069D01*
Y010118D02*
X075480D01*
Y013918D01*
X073430D02*
X075480D01*
D72*
X036376Y023494D02*
X036516Y023624D01*
X039136D01*
X036376Y020864D02*
Y023494D01*
Y020864D02*
X039136D01*
Y023624D01*
D73*
X032090Y027602D02*
X032040Y027652D01*
X031940D01*
X031890Y027602D01*
Y027402D01*
X031940Y027352D01*
X032040D01*
X032090Y027402D01*
Y027502D01*
X031990D01*
X032190Y027352D02*
Y027652D01*
X032390Y027352D01*
Y027652D01*
X032490D02*
Y027352D01*
X032640D01*
X032689Y027402D01*
Y027602D01*
X032640Y027652D01*
X032490D01*
X029006Y028250D02*
X029206D01*
X029106Y028350D02*
Y028150D01*
X029506Y028400D02*
X029306D01*
Y028250D01*
X029406Y028300D01*
X029456D01*
X029506Y028250D01*
Y028150D01*
X029456Y028100D01*
X029356D01*
X029306Y028150D01*
X029892Y028100D02*
Y028400D01*
X029992Y028300D01*
X030092Y028400D01*
Y028100D01*
X030342Y028400D02*
X030242D01*
X030192Y028350D01*
Y028150D01*
X030242Y028100D01*
X030342D01*
X030392Y028150D01*
Y028350D01*
X030342Y028400D01*
X030691Y028350D02*
X030641Y028400D01*
X030542D01*
X030492Y028350D01*
Y028300D01*
X030542Y028250D01*
X030641D01*
X030691Y028200D01*
Y028150D01*
X030641Y028100D01*
X030542D01*
X030492Y028150D01*
X030791Y028400D02*
X030891D01*
X030841D01*
Y028100D01*
X030791D01*
X030891D01*
X031919Y026270D02*
Y026570D01*
X032069D01*
X032119Y026520D01*
Y026420D01*
X032069Y026370D01*
X031919D01*
X032019D02*
X032119Y026270D01*
X032419Y026570D02*
X032219D01*
Y026270D01*
X032419D01*
X032219Y026420D02*
X032319D01*
X032719Y026520D02*
X032669Y026570D01*
X032569D01*
X032519Y026520D01*
Y026470D01*
X032569Y026420D01*
X032669D01*
X032719Y026370D01*
Y026320D01*
X032669Y026270D01*
X032569D01*
X032519Y026320D01*
X033019Y026570D02*
X032819D01*
Y026270D01*
X033019D01*
X032819Y026420D02*
X032919D01*
X033119Y026570D02*
X033319D01*
X033219D01*
Y026270D01*
X030525Y025732D02*
X030475Y025782D01*
X030375D01*
X030325Y025732D01*
Y025682D01*
X030375Y025632D01*
X030475D01*
X030525Y025582D01*
Y025532D01*
X030475Y025482D01*
X030375D01*
X030325Y025532D01*
X030825Y025732D02*
X030775Y025782D01*
X030675D01*
X030625Y025732D01*
Y025532D01*
X030675Y025482D01*
X030775D01*
X030825Y025532D01*
X030925Y025782D02*
Y025482D01*
Y025582D01*
X031125Y025782D01*
X030975Y025632D01*
X031125Y025482D01*
X028898D02*
Y025782D01*
X028998Y025682D01*
X029098Y025782D01*
Y025482D01*
X029198Y025782D02*
X029298D01*
X029248D01*
Y025482D01*
X029198D01*
X029298D01*
X029647Y025732D02*
X029597Y025782D01*
X029497D01*
X029447Y025732D01*
Y025682D01*
X029497Y025632D01*
X029597D01*
X029647Y025582D01*
Y025532D01*
X029597Y025482D01*
X029497D01*
X029447Y025532D01*
X029897Y025782D02*
X029797D01*
X029747Y025732D01*
Y025532D01*
X029797Y025482D01*
X029897D01*
X029947Y025532D01*
Y025732D01*
X029897Y025782D01*
D74*
X025592Y017728D02*
D03*
D75*
X021611Y021319D02*
D03*
M02*
