G04 Layer_Color=8150272*
%FSAX24Y24*%
%MOIN*%
G70*
G01*
G75*
%ADD97R,0.0680X0.0680*%
%ADD98C,0.0680*%
%ADD100C,0.0860*%
%ADD101C,0.0880*%
%ADD102R,0.0880X0.0680*%
G04:AMPARAMS|DCode=103|XSize=68mil|YSize=88mil|CornerRadius=19mil|HoleSize=0mil|Usage=FLASHONLY|Rotation=90.000|XOffset=0mil|YOffset=0mil|HoleType=Round|Shape=RoundedRectangle|*
%AMROUNDEDRECTD103*
21,1,0.0680,0.0500,0,0,90.0*
21,1,0.0300,0.0880,0,0,90.0*
1,1,0.0380,0.0250,0.0150*
1,1,0.0380,0.0250,-0.0150*
1,1,0.0380,-0.0250,-0.0150*
1,1,0.0380,-0.0250,0.0150*
%
%ADD103ROUNDEDRECTD103*%
%ADD104C,0.0946*%
%ADD105O,0.1655X0.0769*%
%ADD106O,0.0780X0.1655*%
%ADD107O,0.0769X0.1655*%
%ADD108C,0.0474*%
%ADD109R,0.0946X0.0946*%
%ADD110C,0.0930*%
%ADD111C,0.0080*%
%ADD112C,0.0730*%
%ADD113R,0.0730X0.0730*%
G04:AMPARAMS|DCode=114|XSize=68mil|YSize=68mil|CornerRadius=19mil|HoleSize=0mil|Usage=FLASHONLY|Rotation=180.000|XOffset=0mil|YOffset=0mil|HoleType=Round|Shape=RoundedRectangle|*
%AMROUNDEDRECTD114*
21,1,0.0680,0.0300,0,0,180.0*
21,1,0.0300,0.0680,0,0,180.0*
1,1,0.0380,-0.0150,0.0150*
1,1,0.0380,0.0150,0.0150*
1,1,0.0380,0.0150,-0.0150*
1,1,0.0380,-0.0150,-0.0150*
%
%ADD114ROUNDEDRECTD114*%
%ADD115C,0.0789*%
%ADD116R,0.0789X0.0789*%
%ADD117C,0.0580*%
%ADD118R,0.0730X0.0356*%
D97*
X031594Y034961D02*
D03*
Y040472D02*
D03*
X055020Y034961D02*
D03*
Y040472D02*
D03*
D98*
X074213Y022835D02*
D03*
Y015354D02*
D03*
X012402D02*
D03*
Y022835D02*
D03*
X031594Y037165D02*
D03*
X011496Y026339D02*
D03*
X014488D02*
D03*
X019587Y019646D02*
D03*
X031594Y042677D02*
D03*
X055020Y037165D02*
D03*
Y042677D02*
D03*
D100*
X026230Y027480D02*
D03*
X024458D02*
D03*
X022254Y027519D02*
D03*
X020482D02*
D03*
X018277Y027558D02*
D03*
X016506D02*
D03*
D101*
X026722Y026495D02*
D03*
X023966D02*
D03*
X022746Y026535D02*
D03*
X019990D02*
D03*
X018770Y026574D02*
D03*
X016014D02*
D03*
D102*
X076024Y033744D02*
D03*
X010591Y033720D02*
D03*
X076024Y015846D02*
D03*
X010591Y014823D02*
D03*
X076024Y014846D02*
D03*
X076024Y034744D02*
D03*
D103*
X010591Y040720D02*
D03*
Y039720D02*
D03*
Y038720D02*
D03*
Y037720D02*
D03*
Y036720D02*
D03*
Y035720D02*
D03*
Y034720D02*
D03*
Y041720D02*
D03*
Y042720D02*
D03*
X076024Y022846D02*
D03*
Y021846D02*
D03*
Y020846D02*
D03*
Y019846D02*
D03*
Y018846D02*
D03*
Y017846D02*
D03*
Y016846D02*
D03*
Y023846D02*
D03*
Y024846D02*
D03*
X010591Y021823D02*
D03*
Y020823D02*
D03*
Y019823D02*
D03*
Y018823D02*
D03*
Y017823D02*
D03*
Y016823D02*
D03*
Y015823D02*
D03*
Y022823D02*
D03*
Y023823D02*
D03*
X076024Y041744D02*
D03*
Y040744D02*
D03*
Y039744D02*
D03*
Y038744D02*
D03*
Y037744D02*
D03*
Y036744D02*
D03*
Y035744D02*
D03*
Y042744D02*
D03*
Y043744D02*
D03*
D104*
X049567Y019173D02*
D03*
Y011299D02*
D03*
X010906Y011126D02*
D03*
X011906Y012126D02*
D03*
D105*
X072520Y013819D02*
D03*
D106*
X071417Y011968D02*
D03*
D107*
X073780D02*
D03*
D108*
X046181Y024488D02*
D03*
Y025118D02*
D03*
D109*
X010906Y013126D02*
D03*
D110*
X049606Y035669D02*
D03*
X050295Y037047D02*
D03*
Y038819D02*
D03*
Y040591D02*
D03*
X049606Y041969D02*
D03*
X048032Y042362D02*
D03*
X046457Y041969D02*
D03*
X045768Y040591D02*
D03*
Y038819D02*
D03*
Y037047D02*
D03*
X046457Y035669D02*
D03*
X048032Y035276D02*
D03*
X063583Y035679D02*
D03*
X064272Y037057D02*
D03*
Y038829D02*
D03*
Y040600D02*
D03*
X063583Y041978D02*
D03*
X062008Y042372D02*
D03*
X060433Y041978D02*
D03*
X059744Y040600D02*
D03*
Y038829D02*
D03*
Y037057D02*
D03*
X060433Y035679D02*
D03*
X062008Y035285D02*
D03*
X073032Y035679D02*
D03*
X073720Y037057D02*
D03*
Y038829D02*
D03*
Y040600D02*
D03*
X073032Y041978D02*
D03*
X071457Y042372D02*
D03*
X069882Y041978D02*
D03*
X069193Y040600D02*
D03*
Y038829D02*
D03*
Y037057D02*
D03*
X069882Y035679D02*
D03*
X071457Y035285D02*
D03*
X016732Y035669D02*
D03*
X017421Y037047D02*
D03*
Y038819D02*
D03*
Y040591D02*
D03*
X016732Y041969D02*
D03*
X015157Y042362D02*
D03*
X013583Y041969D02*
D03*
X012894Y040591D02*
D03*
Y038819D02*
D03*
Y037047D02*
D03*
X013583Y035669D02*
D03*
X015157Y035276D02*
D03*
X026181Y035669D02*
D03*
X026870Y037047D02*
D03*
Y038819D02*
D03*
Y040591D02*
D03*
X026181Y041969D02*
D03*
X024606Y042362D02*
D03*
X023032Y041969D02*
D03*
X022343Y040591D02*
D03*
Y038819D02*
D03*
Y037047D02*
D03*
X023032Y035669D02*
D03*
X024606Y035276D02*
D03*
X040157Y035669D02*
D03*
X040846Y037047D02*
D03*
Y038819D02*
D03*
Y040591D02*
D03*
X040157Y041969D02*
D03*
X038583Y042362D02*
D03*
X037008Y041969D02*
D03*
X036319Y040591D02*
D03*
Y038819D02*
D03*
Y037047D02*
D03*
X037008Y035669D02*
D03*
X038583Y035276D02*
D03*
D111*
X048032Y038819D02*
D03*
X062008Y038829D02*
D03*
X071457D02*
D03*
X015157Y038819D02*
D03*
X024606D02*
D03*
X038583D02*
D03*
D112*
X013854Y012602D02*
D03*
Y013602D02*
D03*
X016854D02*
D03*
Y014602D02*
D03*
Y015602D02*
D03*
Y016602D02*
D03*
Y017602D02*
D03*
Y018602D02*
D03*
X013854Y014602D02*
D03*
Y015602D02*
D03*
Y016602D02*
D03*
Y017602D02*
D03*
Y018602D02*
D03*
Y019602D02*
D03*
X016854D02*
D03*
X022953Y014150D02*
D03*
Y012150D02*
D03*
D113*
X016854Y012602D02*
D03*
D114*
X020965Y019646D02*
D03*
D115*
X022953Y019217D02*
D03*
D116*
Y016217D02*
D03*
D117*
X021161Y038120D02*
D03*
X021182Y038850D02*
D03*
X018337Y037785D02*
D03*
Y039222D02*
D03*
X041870Y034547D02*
D03*
X018071D02*
D03*
X022234Y036132D02*
D03*
X018002Y039882D02*
D03*
X027175Y033986D02*
D03*
X025502Y033268D02*
D03*
X023770Y032835D02*
D03*
X014232Y032844D02*
D03*
X015886Y033386D02*
D03*
X017480Y033917D02*
D03*
X035541Y023907D02*
D03*
X048494Y023504D02*
D03*
Y022697D02*
D03*
X048504Y021880D02*
D03*
X061890Y018858D02*
D03*
X052953Y023465D02*
D03*
Y022598D02*
D03*
X035945Y020236D02*
D03*
X036850Y019252D02*
D03*
X037598Y019213D02*
D03*
X037283Y023268D02*
D03*
X040866Y024606D02*
D03*
X039449Y024134D02*
D03*
X031577Y018608D02*
D03*
X059331Y018150D02*
D03*
X056575D02*
D03*
X061811Y026732D02*
D03*
X059055D02*
D03*
X056299D02*
D03*
X044961Y018740D02*
D03*
Y016496D02*
D03*
X044951Y014557D02*
D03*
X042165Y025000D02*
D03*
X070984Y014291D02*
D03*
X058032Y013780D02*
D03*
X038307Y018386D02*
D03*
X028071Y019094D02*
D03*
X025945Y019567D02*
D03*
X028740Y020709D02*
D03*
X042165Y026614D02*
D03*
X039291Y019606D02*
D03*
X040787Y021102D02*
D03*
X039567Y020394D02*
D03*
X029370Y026460D02*
D03*
X030370D02*
D03*
X031370D02*
D03*
Y027460D02*
D03*
X030370D02*
D03*
X043346Y027520D02*
D03*
X029488Y024134D02*
D03*
X035945Y019449D02*
D03*
X046220Y026890D02*
D03*
X027992Y023937D02*
D03*
X025787Y023307D02*
D03*
X022677Y023346D02*
D03*
X018661D02*
D03*
X029370Y027457D02*
D03*
X052953Y020748D02*
D03*
X049567Y014291D02*
D03*
X015866Y021732D02*
D03*
X033386Y024695D02*
D03*
X034380Y024902D02*
D03*
X034783Y023386D02*
D03*
X040167Y021535D02*
D03*
X037746Y032785D02*
D03*
X039557Y033278D02*
D03*
X041476Y033967D02*
D03*
X047234Y032825D02*
D03*
X048996Y033287D02*
D03*
X050787Y033789D02*
D03*
X060994Y032815D02*
D03*
X062894Y033287D02*
D03*
X064646Y033770D02*
D03*
X073917Y033829D02*
D03*
X072313Y033287D02*
D03*
X070630Y032815D02*
D03*
X056378Y025118D02*
D03*
X059087D02*
D03*
X061693D02*
D03*
X064341Y025108D02*
D03*
X072165Y025138D02*
D03*
X069675Y025148D02*
D03*
X066988Y025138D02*
D03*
X028051Y039833D02*
D03*
Y037766D02*
D03*
X051486Y037047D02*
D03*
X051476Y039744D02*
D03*
X027894Y034537D02*
D03*
D118*
X032766Y040807D02*
D03*
Y042106D02*
D03*
X030423Y040778D02*
D03*
Y042077D02*
D03*
X056230Y040748D02*
D03*
Y042047D02*
D03*
X053671Y040778D02*
D03*
Y042077D02*
D03*
M02*
