M48
;Layer_Color=6321
;FILE_FORMAT=2:4
INCH
;TYPE=PLATED
T1F00S00C0.0197
T2F00S00C0.0276
T3F00S00C0.0354
T4F00S00C0.0394
T5F00S00C0.0472
T7F00S00C0.0512
T8F00S00C0.0591
T9F00S00C0.1181
%
T01
X033898Y011299
X038819Y012638
X045197Y014685
X045827
X074134Y017165
X070787Y027835
X069252Y028307
X068110Y028386
X061142Y027283
X060276Y026772
X053110Y025669
X052677Y025039
X052047Y025748
X050787Y020394
X037638Y021378
X034291Y019685
X031890Y020433
X038425Y027323
X039331Y027283
X015236Y040512
X013313Y041693
X017047Y040984
X020709Y041654
X025000Y040394
X026811Y040984
X034606Y041654
X038701Y040079
X040354Y039488
X040984Y038937
X041614Y038386
X042205Y037835
X040748Y040984
X044193Y041634
X048110Y040354
X050276Y040984
X058189Y041614
X061732Y040276
X064016Y040984
X067441Y041575
X071299Y040350
X072992Y040984
X064094Y045630
T02
X012323Y010795
X015276
Y014795
X012323
X018307
X021221
X024213
X027087
X030039
Y010795
X027087
X024213
X021221
X018307
X032598Y011909
Y013386
Y014862
X034803Y014756
X036220Y014756
X037638Y014756
X039606Y014937
X040905
Y012937
X039606
X039315Y011142
X041315
X037638Y010756
X036220Y010756
X034803Y010756
X047283Y010756
X048661Y010756
X050039Y010756
X053450Y011270
X055360Y011750
X055860Y012250
X055360Y012750
X056842Y012190
X057848Y013190
Y011190
X053450Y015270
X050039Y014756
X048661Y014756
X047283Y014756
X064000Y010669
X066000
X068858Y011268
X070354Y011228
X071850Y011819
X073307Y012752
X070354Y015228
X068858Y015268
X071850Y015819
X073307Y015752
X073402Y025000
X065152
X062732Y025079
X059291Y022913
Y021913
X059685Y020465
X057244Y021244
X055827Y021283
Y023283
X057244Y023244
X053268Y023504
Y022504
X053780Y020898
Y016898
X056008Y016142
X058008
X059685Y016465
X057850Y018701
X055850
X054482Y025079
X051827Y025039
X050079Y022874
Y021874
X049528Y020268
Y016268
X047272Y022953
X046272
X044634
X043634
X043577Y025039
X040449
X040906Y031027
X039197Y031027
X035197
X033489Y031027
X032199Y025039
X032559Y022579
Y021102
Y019626
X032598Y018720
Y017244
Y015768
X044512Y020787
X046433
X044906Y031027
X029489Y031027
X029976Y025039
X029882Y021567
X028425
X026890
X025433Y021567
X023937Y021567
X022480
X020984
X019528Y021567
X017953Y021567
X016575
Y017567
X017953
X019528Y017567
X020984Y017567
X022480
X023937
X025433Y017567
X026890Y017567
X028425
X029882
X021726Y025039
X019701
X015079Y021567
X013661Y021567
X012126
X010709
Y017567
X012126
X013661
X015079Y017567
X011451Y025039
X023543Y032205
X026535
X029489Y033074
X030416Y037283
X030748Y045583
X034416Y037283
X037109
X041109
X043802Y037323
X044945Y032995
X040945
X039197Y033035
X035197
X033489Y033074
X047802Y037323
X050495
X054495
X054012Y045587
X070591Y048106
Y048606
Y049106
Y049606
X060984Y049606
Y049106
Y048606
Y048106
X054012Y047799
Y049681
Y051894
X047047Y049606
Y049106
Y048606
Y048106
X037717
Y048606
Y049106
Y049606
X030748Y049677
Y047795
Y051890
X023819Y049606
Y049106
Y048606
Y048106
X014213Y048185
Y048685
Y049185
Y049685
T03
X042713Y010508
X043713
X044713
X045713
Y013508
X044713
X043713
X042713
X063388Y013925
Y014925
Y012925
Y011925
X066843
Y012925
Y013925
Y014925
X066835Y026772
X065835
X064835
X063835
X062835
X067835
X068835
X069835
X070835
X071835
X072835
X047878Y019098
X046878
Y016098
X047878
X045878
X044878
X043878
X042878
X041878
X040878
X039878
X038878
X037878
X036878
X035878
X034878
Y019098
X035878
X036878
X037878
X038878
X039878
X040878
X041878
X042878
X043878
X044878
X045878
X041453Y020508
X040453
X039453
X038453
X037453
X036453
X035453
X034453
Y023508
X035453
X036453
X037453
X038453
X039453
X040453
X041453
X030433Y022795
X029409
X028386
X027480
X026457
X025433
X024528
X023504
X022480
X021575
X020551
X019528
X018622
X017598
X016575
X015669
X015866Y026772
X016866
X017866
X018866
X019866
X020866
X021220Y015984
X022244
X023150
X024173
X025197
X026102
X027126
X028150
X029055
X030079
X031102
X020197
X019292Y015999
X018268
X017245
X016300
X015276
X014253
X013346Y015984
X012323
X011299
X011693Y022795
X010669
X012717
X013622
X014646
X014866Y026772
X013866
X012866
X011866
X011850Y036850
X012850
X013850
X014850
X015850
X016850
X017850
X018850
X019850
X020850
X062835
X063835
X064835
X065835
X066835
X067835
X068835
X069835
X070835
X071835
X072835
T04
X055140Y014550
X058140
X059169Y014882
X062169
X063740Y017756
Y021850
X069620Y030260
X061772Y021850
Y017756
X015453Y033563
X012972
X011201
X017224
X019705
X021476
X053497Y031593
X054497
X055497
X069620Y033260
T05
X012638Y045748
X014213Y045354
X015787Y045748
X022244Y045709
X023819Y045315
X025394Y045709
X036142Y045709
X037717Y045315
X039291Y045709
X045433Y045669
X047008Y045276
X048583Y045669
X059409Y045709
X060984Y045315
X062559Y045709
X069016Y045709
X070591Y045315
X072165Y045709
X072854Y047087
Y048858
Y050630
X072165Y052008
X070591Y052402
X069016Y052008
X068327Y050630
Y048858
Y047087
X063248Y047087
Y048858
Y050630
X062559Y052008
X060984Y052402
X059409Y052008
X058720Y050630
Y048858
Y047087
X049272Y047047
Y048819
Y050591
X048583Y051969
X047008Y052362
X045433Y051969
X044744Y050591
Y048819
Y047047
X039980Y047087
Y048858
Y050630
X039291Y052008
X037717Y052402
X036142Y052008
X035453Y050630
Y048858
Y047087
X026083Y047087
Y048858
Y050630
X025394Y052008
X023819Y052402
X022244Y052008
X021555Y050630
Y048858
Y047087
X016476Y047126
Y048898
Y050669
X015787Y052047
X014213Y052441
X012638Y052047
X011949Y050669
Y048898
Y047126
T07
X059380Y012090
X061880Y010840
Y013340
X065866Y019882
X073740
X062310Y031740
X061310
X060310
T08
X010709Y032579
X013465
X014961
X017717
X019213
X021969
T09
X010827Y011024
X073819
Y029724
X010827
M30
