G04 Layer_Physical_Order=2*
G04 Layer_Color=11436288*
%FSAX24Y24*%
%MOIN*%
G70*
G01*
G75*
%ADD17R,0.0591X0.0492*%
%ADD24R,0.0276X0.0650*%
%ADD33C,0.0600*%
%ADD35C,0.0200*%
%ADD36C,0.0120*%
%ADD37C,0.0300*%
%ADD38C,0.0150*%
%ADD39C,0.0400*%
%ADD40C,0.0250*%
%ADD42C,0.0780*%
%ADD43C,0.0800*%
%ADD44R,0.0600X0.0600*%
%ADD45R,0.0800X0.0600*%
G04:AMPARAMS|DCode=46|XSize=60mil|YSize=80mil|CornerRadius=15mil|HoleSize=0mil|Usage=FLASHONLY|Rotation=90.000|XOffset=0mil|YOffset=0mil|HoleType=Round|Shape=RoundedRectangle|*
%AMROUNDEDRECTD46*
21,1,0.0600,0.0500,0,0,90.0*
21,1,0.0300,0.0800,0,0,90.0*
1,1,0.0300,0.0250,0.0150*
1,1,0.0300,0.0250,-0.0150*
1,1,0.0300,-0.0250,-0.0150*
1,1,0.0300,-0.0250,0.0150*
%
%ADD46ROUNDEDRECTD46*%
%ADD47C,0.0866*%
%ADD48O,0.1575X0.0689*%
%ADD49O,0.0700X0.1575*%
%ADD50O,0.0689X0.1575*%
%ADD51C,0.0394*%
%ADD52R,0.0866X0.0866*%
%ADD53C,0.0650*%
%ADD54R,0.0650X0.0650*%
%ADD55C,0.0709*%
%ADD56R,0.0709X0.0709*%
%ADD57R,0.0650X0.0650*%
%ADD58C,0.0728*%
G04:AMPARAMS|DCode=59|XSize=60mil|YSize=60mil|CornerRadius=15mil|HoleSize=0mil|Usage=FLASHONLY|Rotation=180.000|XOffset=0mil|YOffset=0mil|HoleType=Round|Shape=RoundedRectangle|*
%AMROUNDEDRECTD59*
21,1,0.0600,0.0300,0,0,180.0*
21,1,0.0300,0.0600,0,0,180.0*
1,1,0.0300,-0.0150,0.0150*
1,1,0.0300,0.0150,0.0150*
1,1,0.0300,0.0150,-0.0150*
1,1,0.0300,-0.0150,-0.0150*
%
%ADD59ROUNDEDRECTD59*%
%ADD60C,0.0500*%
%ADD61R,0.0650X0.0276*%
%ADD62C,0.0600*%
%ADD63C,0.0100*%
G36*
X048888Y046693D02*
X048297Y047283D01*
Y047303D01*
X049508D01*
X048888Y046693D01*
D02*
G37*
D17*
X047185Y042933D02*
D03*
Y042126D02*
D03*
X045758Y043228D02*
D03*
Y042421D02*
D03*
X048612Y043228D02*
D03*
Y042421D02*
D03*
X059793Y043287D02*
D03*
Y042480D02*
D03*
X062441Y043278D02*
D03*
Y042470D02*
D03*
X061112Y042982D02*
D03*
Y042175D02*
D03*
X069715Y042982D02*
D03*
Y042175D02*
D03*
X068425Y043278D02*
D03*
Y042470D02*
D03*
X071033Y043278D02*
D03*
Y042470D02*
D03*
X039213Y043258D02*
D03*
Y042451D02*
D03*
X036358Y043238D02*
D03*
Y042431D02*
D03*
X037766Y042963D02*
D03*
Y042156D02*
D03*
X014537Y043022D02*
D03*
Y042215D02*
D03*
X015965Y043297D02*
D03*
Y042490D02*
D03*
X013100Y043317D02*
D03*
Y042510D02*
D03*
X022441Y043356D02*
D03*
Y042549D02*
D03*
X023848Y043071D02*
D03*
Y042264D02*
D03*
X025266Y043356D02*
D03*
Y042549D02*
D03*
D24*
X025226Y046161D02*
D03*
X023927D02*
D03*
X047589Y046516D02*
D03*
X048888D02*
D03*
D33*
X070414Y040816D02*
D03*
X069609Y040103D02*
D03*
X069229Y039098D02*
D03*
X069359Y038032D02*
D03*
X069970Y037148D02*
D03*
X070921Y036649D02*
D03*
X071996Y036650D02*
D03*
X072947Y037151D02*
D03*
X073556Y038036D02*
D03*
X073684Y039102D02*
D03*
X073302Y040106D02*
D03*
X072496Y040817D02*
D03*
X071457Y041073D02*
D03*
X060965Y040816D02*
D03*
X060161Y040103D02*
D03*
X059780Y039098D02*
D03*
X059910Y038032D02*
D03*
X060521Y037148D02*
D03*
X061473Y036649D02*
D03*
X062547Y036650D02*
D03*
X063498Y037151D02*
D03*
X064107Y038036D02*
D03*
X064235Y039102D02*
D03*
X063853Y040106D02*
D03*
X063048Y040817D02*
D03*
X062008Y041073D02*
D03*
X046988Y040806D02*
D03*
X046184Y040093D02*
D03*
X045804Y039088D02*
D03*
X045934Y038022D02*
D03*
X046545Y037138D02*
D03*
X047496Y036640D02*
D03*
X048571Y036641D02*
D03*
X049521Y037141D02*
D03*
X050131Y038026D02*
D03*
X050259Y039092D02*
D03*
X049876Y040096D02*
D03*
X049071Y040808D02*
D03*
X048032Y041063D02*
D03*
X037540Y040806D02*
D03*
X036735Y040093D02*
D03*
X036355Y039088D02*
D03*
X036485Y038022D02*
D03*
X037096Y037138D02*
D03*
X038047Y036640D02*
D03*
X039122Y036641D02*
D03*
X040073Y037141D02*
D03*
X040682Y038026D02*
D03*
X040810Y039092D02*
D03*
X040428Y040096D02*
D03*
X039622Y040808D02*
D03*
X038583Y041063D02*
D03*
X023563Y040806D02*
D03*
X022759Y040093D02*
D03*
X022378Y039088D02*
D03*
X022508Y038022D02*
D03*
X023119Y037138D02*
D03*
X024071Y036640D02*
D03*
X025145Y036641D02*
D03*
X026096Y037141D02*
D03*
X026706Y038026D02*
D03*
X026834Y039092D02*
D03*
X026451Y040096D02*
D03*
X025646Y040808D02*
D03*
X024606Y041063D02*
D03*
X014114Y040806D02*
D03*
X013310Y040093D02*
D03*
X012930Y039088D02*
D03*
X013060Y038022D02*
D03*
X013671Y037138D02*
D03*
X014622Y036640D02*
D03*
X015697Y036641D02*
D03*
X016647Y037141D02*
D03*
X017257Y038026D02*
D03*
X017385Y039092D02*
D03*
X017002Y040096D02*
D03*
X016197Y040808D02*
D03*
X015157Y041063D02*
D03*
X074213Y022835D02*
D03*
Y015354D02*
D03*
X012402D02*
D03*
Y022835D02*
D03*
X032687Y039350D02*
D03*
X011496Y026339D02*
D03*
X014488D02*
D03*
X056103Y039350D02*
D03*
X019557Y015738D02*
D03*
X019577Y019006D02*
D03*
D35*
X016102Y034626D02*
X017441Y035965D01*
X010685Y034626D02*
X016102D01*
X010591Y034720D02*
X010685Y034626D01*
X049331Y042423D02*
Y042707D01*
X048809Y043228D02*
X049331Y042707D01*
X048612Y043228D02*
X048809D01*
X047830Y042795D02*
X047911Y042876D01*
X047323Y042795D02*
X047830D01*
X047185Y042933D02*
X047323Y042795D01*
X046437Y043356D02*
X046496Y043415D01*
X045886Y043356D02*
X046437D01*
X045758Y043228D02*
X045886Y043356D01*
X059923Y043417D02*
X059925Y043415D01*
X048494Y041526D02*
X049291D01*
X048032Y041063D02*
X048494Y041526D01*
X049931Y042165D02*
X050039D01*
X049291Y041526D02*
X049931Y042165D01*
X061280Y041624D02*
Y042028D01*
X061959Y041988D02*
X062441Y042470D01*
X060610Y041457D02*
Y041663D01*
X059793Y042480D02*
X060610Y041663D01*
X061238Y042876D02*
X061804D01*
X061132Y042982D02*
X061238Y042876D01*
X063103Y042423D02*
Y042782D01*
X062697Y043189D02*
X063103Y042782D01*
X059925Y043415D02*
X060502D01*
X059793Y043287D02*
X059923Y043417D01*
X063652Y042185D02*
X063780D01*
X062933Y041467D02*
X063652Y042185D01*
X062402Y041467D02*
X062933D01*
X062008Y041073D02*
X062402Y041467D01*
X063780Y043484D02*
X063947D01*
X069715Y042175D02*
X069892D01*
X069715Y042982D02*
X069821Y042876D01*
X071033Y043278D02*
X071211D01*
X072726Y043514D02*
X073032Y043209D01*
Y041407D02*
Y043209D01*
Y041407D02*
X073986Y040453D01*
X073455Y041644D02*
X074400Y040699D01*
X073455Y041644D02*
Y043425D01*
X073907Y041988D02*
Y043593D01*
Y041988D02*
X074931Y040965D01*
X072264Y043514D02*
X072726D01*
X074350Y042313D02*
Y043799D01*
Y042313D02*
X075919Y040744D01*
X074774Y042815D02*
Y044055D01*
Y042815D02*
X075844Y041744D01*
X075217Y043278D02*
Y044301D01*
Y043278D02*
X075750Y042744D01*
X074931Y040266D02*
Y040965D01*
X075919Y040744D02*
X076024D01*
X074400Y040030D02*
Y040699D01*
X075844Y041744D02*
X076024D01*
X075750Y042744D02*
X076024D01*
X074931Y040266D02*
X075453Y039744D01*
X076024D01*
X075685Y038744D02*
X076024D01*
X074400Y040030D02*
X075685Y038744D01*
X075878Y037744D02*
X076024D01*
X073986Y039636D02*
X075878Y037744D01*
X073986Y039636D02*
Y040453D01*
X072136Y027539D02*
X075829Y023846D01*
X059862Y027539D02*
X072136D01*
X059055Y026732D02*
X059862Y027539D01*
X075829Y023846D02*
X076024D01*
X075697Y022846D02*
X076024D01*
X071811Y026732D02*
X075697Y022846D01*
X061811Y026732D02*
X071811D01*
X015945Y014449D02*
Y020768D01*
X012890Y023823D02*
X015945Y020768D01*
X010591Y023823D02*
X012890D01*
X013150Y012362D02*
Y013346D01*
X010673Y015823D02*
X013150Y013346D01*
X010591Y015823D02*
X010673D01*
X014016Y021673D02*
X015236Y020453D01*
X011860Y021673D02*
X014016D01*
X010711Y022823D02*
X011860Y021673D01*
X010591Y022823D02*
X010711D01*
X012638Y012008D02*
Y012854D01*
X010768Y014724D02*
X012638Y012854D01*
X010591Y014724D02*
X010768D01*
X015236Y014984D02*
Y020453D01*
X039449Y024134D02*
X040177D01*
X076024Y036654D02*
Y036744D01*
X075892Y035744D02*
X076024D01*
X034547Y024902D02*
X035541Y023907D01*
X012244Y025591D02*
X027441D01*
X011496Y026339D02*
X012244Y025591D01*
X013504Y011142D02*
X016811D01*
X012638Y012008D02*
X013504Y011142D01*
X013150Y012362D02*
X013622Y011890D01*
X037283Y023268D02*
X037441Y023110D01*
X062362Y018032D02*
X062874Y018543D01*
X059449Y018032D02*
X062362D01*
X062874Y018543D02*
Y019291D01*
X031091Y019094D02*
X031577Y018608D01*
X028071Y019094D02*
X031091D01*
X017421Y013602D02*
X017638Y013386D01*
X016854Y013602D02*
X017421D01*
X013622Y011890D02*
X016142D01*
X013681Y018602D02*
X013854D01*
X011803Y016724D02*
X013681Y018602D01*
X010591Y016724D02*
X011803D01*
X013032Y019016D02*
Y019921D01*
X011740Y017724D02*
X013032Y019016D01*
X010591Y017724D02*
X011740D01*
X013032Y019921D02*
X013465Y020354D01*
X014252D01*
X014646Y019961D01*
Y017913D02*
Y019961D01*
X014335Y017602D02*
X014646Y017913D01*
X013854Y013602D02*
X015236Y014984D01*
X014098Y012602D02*
X015945Y014449D01*
X013854Y017602D02*
X014335D01*
X016142Y011890D02*
X016854Y012602D01*
X017559Y021024D02*
X018937Y022402D01*
X029961D01*
X033268Y019094D01*
X016854Y017602D02*
X017642D01*
X018032Y017992D01*
Y020709D01*
X019252Y021929D01*
X029331D01*
X032992Y018268D01*
X034685D01*
X035906Y019488D01*
X035236Y017638D02*
X035827Y018228D01*
X035827D02*
X036811Y019213D01*
X025945Y019567D02*
X027598D01*
X028740Y020709D01*
X016811Y011142D02*
X017638Y011968D01*
Y013386D01*
X037441Y023110D02*
X040157D01*
X040787Y021102D02*
Y021811D01*
X028228Y025630D02*
X029134Y024724D01*
X028228Y025630D02*
Y027520D01*
X030370Y026126D02*
Y026460D01*
X029370Y025787D02*
Y026460D01*
Y025787D02*
X029921Y025236D01*
X030370Y026126D02*
X030748Y025748D01*
X028228Y027520D02*
X028858Y028150D01*
X031370Y027460D02*
X041791D01*
X042520Y028189D01*
X044921D01*
X046220Y026890D01*
X028858Y028150D02*
X030039D01*
X030370Y027819D01*
Y027460D02*
Y027819D01*
X028898Y024134D02*
X029488D01*
X027441Y025591D02*
X028898Y024134D01*
X039235Y019663D02*
X039291Y019606D01*
X029921Y025236D02*
X030591D01*
X037598Y020394D02*
X039567D01*
X037385Y019663D02*
X039235D01*
X036181Y020866D02*
X037385Y019663D01*
X033780Y020866D02*
X036181D01*
X029921Y024724D02*
X033780Y020866D01*
X029134Y024724D02*
X029921D01*
X030591Y025236D02*
X034449Y021378D01*
X036614D01*
X037598Y020394D01*
X030748Y025748D02*
X031260D01*
X034882Y022126D01*
X040472D01*
X040787Y021811D01*
X042165Y025000D02*
Y026693D01*
X042244Y026614D02*
X043248Y027618D01*
X025748Y023346D02*
X025787Y023307D01*
X052953Y020748D02*
X053976D01*
X056575Y018150D01*
X038307Y018386D02*
Y018661D01*
X038543Y018898D01*
X039882D01*
X016854Y019602D02*
Y020744D01*
X015866Y021732D02*
X016854Y020744D01*
Y015602D02*
X017610D01*
X018504Y016496D01*
Y020315D01*
X016854Y014602D02*
X017831D01*
X018976Y015748D01*
X016854Y018602D02*
X017264D01*
X017559Y018898D01*
Y021024D01*
X025039Y017008D02*
X035748D01*
X037598Y018858D01*
Y019213D01*
X033268Y019094D02*
X034449D01*
X035630Y020276D01*
X035906D01*
X023819Y018228D02*
X025039Y017008D01*
X023819Y018228D02*
Y020039D01*
X024409Y018543D02*
X025315Y017638D01*
X035236D01*
X024409Y018543D02*
Y020354D01*
X033386Y024695D02*
X033455D01*
X034380Y024902D02*
X034547D01*
X033455Y024695D02*
X034764Y023386D01*
X034783D01*
X040167Y019183D02*
Y021535D01*
X039882Y018898D02*
X040167Y019183D01*
X047185Y041585D02*
Y042126D01*
X045758Y042067D02*
Y042421D01*
X047185Y041585D02*
X047215Y041555D01*
X047224D01*
X036358Y043238D02*
X036476Y043356D01*
X037008D01*
X037067Y043415D01*
X037766Y042963D02*
X037913Y042815D01*
X038441D01*
X038502Y042876D01*
X039213Y043258D02*
X039400D01*
X039943Y042714D01*
Y042423D02*
Y042714D01*
X040522Y042165D02*
X040610D01*
X038583Y041063D02*
X039045Y041526D01*
X039882D01*
X040522Y042165D01*
X037766Y041555D02*
Y042156D01*
X036358Y041919D02*
Y042431D01*
Y041919D02*
X036988Y041289D01*
X022441Y043356D02*
X022589Y043504D01*
X023071D01*
X023159Y043415D01*
X023848Y043071D02*
X023976Y042943D01*
X024498D01*
X024565Y042876D01*
X025266Y043356D02*
X025453D01*
X025955Y042854D01*
X024606Y041063D02*
X025148Y041604D01*
X025955D01*
X026604Y042254D01*
X026693D01*
X022441Y041919D02*
Y042549D01*
Y041919D02*
X023041Y041319D01*
X015157Y041063D02*
X015344D01*
X015896Y041614D01*
X016663D01*
X017254Y042205D01*
X017352D01*
X071457Y041073D02*
Y041270D01*
X015965Y043297D02*
X016152D01*
X016663Y042785D01*
X014685Y042874D02*
X015256D01*
X014537Y043022D02*
X014685Y042874D01*
X013100Y043317D02*
X013248Y043465D01*
X013750D01*
X013809Y043406D01*
X013100Y041978D02*
Y042510D01*
X014537Y042215D02*
X014557Y042195D01*
X013937Y040236D02*
X016863D01*
X010591Y041720D02*
X012453D01*
X013937Y040236D01*
X013310Y040093D02*
X013650Y039754D01*
X016526D01*
X022884Y040768D02*
X023583Y040069D01*
X026424D01*
X010591Y040720D02*
X011799D01*
X012926Y039593D01*
X013222D01*
X013514Y039301D01*
X016368D01*
X016577Y039092D01*
X017385D01*
X017002Y040096D02*
X017674Y040768D01*
X022884D01*
X016526Y039754D02*
X016683Y039596D01*
X017411D01*
X018100Y040285D01*
X022567D01*
X017385Y039092D02*
X017714D01*
X018425Y039803D01*
X021939D01*
X022154Y039588D01*
X022912D01*
X023408Y039092D01*
X026834D01*
X013060Y038022D02*
X013395D01*
X013760Y037657D01*
X016909D01*
X015817Y037264D02*
X016240Y036841D01*
X013796Y037264D02*
X015817D01*
X013671Y037138D02*
X013796Y037264D01*
X017441Y035965D02*
Y037126D01*
X016240Y035906D02*
Y036841D01*
X015512Y035177D02*
X016240Y035906D01*
X010591Y035720D02*
X010972D01*
X011516Y035177D01*
X015512D01*
X013386Y036093D02*
X014075D01*
X014622Y036640D01*
X010591Y036720D02*
X011632Y035679D01*
X012972D01*
X013386Y036093D01*
X010591Y039720D02*
X011362D01*
X012510Y038573D01*
X013406D01*
X011565Y036388D02*
Y038799D01*
X012930Y039001D02*
Y039088D01*
X013499Y039001D02*
X013908Y038592D01*
X017982D01*
X018711Y039321D01*
X021467D01*
X021699Y039088D01*
X022378D01*
X012930Y039001D02*
X013499D01*
X016909Y037657D02*
X017456Y037111D01*
X018012Y037667D01*
X022154D01*
X022508Y038022D01*
X018593Y038524D02*
X022982D01*
X022508Y038022D02*
X022943D01*
X023504Y037461D01*
X025571D01*
X025787Y037677D01*
X026280D01*
X027884Y036073D01*
X026706Y038026D02*
X026827D01*
X028327Y036526D01*
X037156Y038573D02*
X037703Y038026D01*
X040682D01*
X022378Y039088D02*
X022929D01*
X023445Y038573D01*
X027037D01*
X028504Y037106D01*
X026834Y039092D02*
X027345D01*
X028848Y037589D01*
X040041Y039092D02*
X040810D01*
X022759Y040093D02*
X022997D01*
X023524Y039567D01*
X025502D01*
X025527Y039592D01*
X027543D01*
X029026Y038110D01*
X027884Y036073D02*
X034813D01*
X036485Y037745D01*
X026451Y040096D02*
X027758D01*
X028327Y036526D02*
X034222D01*
X036270Y038573D01*
X037156D01*
X028504Y037106D02*
X034016D01*
X035998Y039088D01*
X036355D01*
X028848Y037589D02*
X033720D01*
X035725Y039593D01*
X036657D01*
X029026Y038110D02*
X033435D01*
X035418Y040093D01*
X036735D01*
X036485Y038022D02*
X037126D01*
X037815Y037333D01*
X039390D01*
X039715Y037657D01*
X040285D01*
X048927Y038573D02*
X049474Y038026D01*
X050131D01*
X036355Y038991D02*
Y039088D01*
X037367Y038991D02*
X037785Y038573D01*
X036355Y038991D02*
X037367D01*
X036657Y039593D02*
X036870Y039380D01*
X039754D01*
X040041Y039092D01*
X049127Y039593D02*
X049628Y039092D01*
X050259D01*
X036735Y040093D02*
X037026Y039803D01*
X039892D01*
X040098Y039596D01*
X040748D01*
X041245Y040093D01*
X046184D01*
X040428Y040096D02*
X041138Y040807D01*
X046240D01*
X046752Y040295D01*
X049678D01*
X049876Y040096D01*
X040810Y039092D02*
X041100D01*
X041601Y039593D01*
X049127D01*
X037785Y038573D02*
X041447D01*
X041963Y039088D01*
X045804D01*
X040682Y038026D02*
X041648D01*
X042195Y038573D01*
X048927D01*
X042363Y038022D02*
X045934D01*
X040285Y037657D02*
X040591Y037352D01*
X041693D01*
X042363Y038022D01*
X045934D02*
X048661D01*
X048996Y037687D01*
X049682D01*
X051316Y036053D01*
X058287D01*
X059910Y037676D01*
Y038032D01*
X050131Y038026D02*
X051601Y036555D01*
X057953D01*
X059232Y037835D01*
X062805Y038563D02*
X063333Y038036D01*
X064107D01*
X059232Y037835D02*
Y038199D01*
X059596Y038563D01*
X062805D01*
X045804Y039088D02*
X049022D01*
X049528Y038583D01*
X050423D01*
X051870Y037136D01*
X057815D01*
X058809Y038130D01*
Y038789D01*
X059118Y039098D01*
X059780D01*
X050259Y039092D02*
X050681D01*
X052116Y037657D01*
X057520D01*
X058248Y038386D01*
Y039026D01*
X058821Y039598D01*
X062951D01*
X063447Y039102D01*
X064235D01*
X046184Y040093D02*
X046413D01*
X046565Y039941D01*
X049325D01*
X049669Y039596D01*
X050896D01*
X052333Y038159D01*
X057303D01*
X057785Y038642D01*
Y039301D01*
X058587Y040103D01*
X060161D01*
X049876Y040096D02*
X051163D01*
X057264Y038917D02*
Y039488D01*
X058514Y040738D01*
X060295D01*
X060738Y040295D01*
X063664D01*
X059910Y038032D02*
X061909D01*
X063396Y036545D01*
X067872D01*
X069359Y038032D01*
X064107Y038036D02*
X068291D01*
X068809Y038553D01*
X069774D01*
X070291Y038036D01*
X073556D01*
X059780Y039098D02*
X062919D01*
X063435Y038583D01*
X067697D01*
X068213Y039098D01*
X069229D01*
X064235Y039102D02*
X067340D01*
X067841Y039603D01*
X069659D01*
X070160Y039102D01*
X073684D01*
X060161Y040103D02*
X060350D01*
X060502Y039951D01*
X063169D01*
X063518Y039602D01*
X067033D01*
X067534Y040103D01*
X069609D01*
X063853Y040106D02*
X066711D01*
X067402Y040797D01*
X069675D01*
X070366Y040106D01*
X073302D01*
X068661Y043514D02*
X069104D01*
X064426Y043964D02*
X072916D01*
X068425Y043278D02*
X068661Y043514D01*
X063947Y043484D02*
X064426Y043964D01*
X072916D02*
X073455Y043425D01*
X069821Y042876D02*
X069919Y042975D01*
X070387D01*
X071457Y041270D02*
X072402Y042215D01*
X072461D01*
X070456Y041606D02*
Y041611D01*
X069892Y042175D02*
X070456Y041611D01*
X071211Y043278D02*
X071772Y042717D01*
X071752Y042697D02*
X071772Y042717D01*
X071752Y042579D02*
Y042697D01*
X025973Y042580D02*
X025974Y042559D01*
X025955Y042854D02*
X025973Y042580D01*
X016681Y042580D02*
X016683Y042559D01*
X016663Y042785D02*
X016681Y042580D01*
X047943Y041752D02*
X048612Y042421D01*
X023819Y042234D02*
X023848Y042264D01*
X023819Y041604D02*
Y042234D01*
X024537Y041821D02*
X025266Y042549D01*
X014478Y042116D02*
X014557Y042195D01*
X014478Y041585D02*
Y042116D01*
X015236Y041762D02*
X015965Y042490D01*
X017352Y043504D02*
X021181D01*
X021850Y044173D01*
X050039Y043465D02*
Y043986D01*
X029203Y044606D02*
X049045D01*
X028386Y045423D02*
X029203Y044606D01*
X028720Y045896D02*
X029587Y045030D01*
X048720D01*
X021850Y044173D02*
X024665D01*
X026388Y045896D01*
X028720D01*
X026053Y044193D02*
X026693Y043553D01*
X026053Y044193D02*
Y044685D01*
X026791Y045423D01*
X028386D01*
X048720Y045030D02*
X050010Y046319D01*
X073199D01*
X075217Y044301D01*
X049045Y044606D02*
X050197Y045758D01*
X073071D01*
X074774Y044055D01*
X049331Y044154D02*
X050404Y045226D01*
X072923D01*
X074350Y043799D01*
X050039Y043986D02*
X050778Y044724D01*
X072776D01*
X073907Y043593D01*
X040610Y043465D02*
X044478D01*
X045167Y044154D01*
X049331D01*
X027758Y040096D02*
X029281Y038573D01*
X033238D01*
X035600Y040935D01*
X051163Y040096D02*
X052648Y038612D01*
X056959D01*
X057264Y038917D01*
X023632Y020226D02*
X023819Y020039D01*
X018976Y015748D02*
Y019744D01*
X019459Y020226D01*
X023632D01*
X018504Y020315D02*
X018858Y020669D01*
X024094D01*
X024409Y020354D01*
X041673Y021594D02*
X048484D01*
X040157Y023110D02*
X041673Y021594D01*
X058701Y023465D02*
X062874Y019291D01*
X058150Y022598D02*
X061890Y018858D01*
X040177Y024134D02*
X041841Y022470D01*
X052953Y023465D02*
X058701D01*
X041841Y022470D02*
X048484D01*
X042175Y023297D02*
X048474D01*
X040866Y024606D02*
X042175Y023297D01*
X052953Y022598D02*
X058150D01*
X017257Y038026D02*
X017341Y038110D01*
X018179D01*
X018593Y038524D01*
X013406Y038573D02*
X013878Y038100D01*
X017182D01*
X017257Y038026D01*
X022982Y038524D02*
X023415Y038091D01*
X026641D01*
X026706Y038026D01*
X013100Y041978D02*
X013721Y041358D01*
X013730Y041367D01*
Y041407D01*
X024537Y041811D02*
Y041821D01*
X037343Y040276D02*
X040248D01*
X035600Y040935D02*
X036677D01*
X036802Y040810D01*
X036808D01*
X037343Y040276D01*
X038514Y041752D02*
X039213Y042451D01*
X045758Y042067D02*
X046457Y041368D01*
Y041319D02*
Y041368D01*
X047913Y041782D02*
X047943Y041752D01*
X047913Y041782D02*
X047913D01*
X069508Y041388D02*
X069833D01*
X068425Y042470D02*
X069508Y041388D01*
X071093Y041742D02*
Y042411D01*
X071033Y042470D02*
X071093Y042411D01*
D36*
X059331Y018150D02*
X059449Y018032D01*
X013854Y012602D02*
X014098D01*
X035827Y018228D02*
X035827D01*
D37*
X075703Y016984D02*
X075906D01*
X075522Y017165D02*
X075703Y016984D01*
X070689Y017165D02*
X075522D01*
X075532Y015846D02*
X076024D01*
X075020Y016358D02*
X075532Y015846D01*
X071102Y016358D02*
X075020D01*
X069468Y015945D02*
X070689Y017165D01*
X069783Y015039D02*
X071102Y016358D01*
X045433Y015039D02*
X069783D01*
X045512Y015945D02*
X069468D01*
X070278Y017984D02*
X075906D01*
X069065Y016772D02*
X070278Y017984D01*
X046929Y016772D02*
X069065D01*
X040994Y018317D02*
Y019862D01*
X039803Y017126D02*
X040994Y018317D01*
X044961Y016496D02*
X045512Y015945D01*
X044951Y014557D02*
X045433Y015039D01*
X044961Y018740D02*
X046929Y016772D01*
X070472Y013780D02*
X070984Y014291D01*
X058032Y013780D02*
X070472D01*
X043346Y027520D02*
X044213D01*
X022677Y023346D02*
X025748D01*
X025787Y023307D02*
X027362D01*
X027992Y023937D01*
X018661Y023346D02*
X022677D01*
X039016Y017126D02*
X039803D01*
X038307Y017835D02*
Y018386D01*
Y017835D02*
X039016Y017126D01*
X076024Y043744D02*
Y045610D01*
X023927Y045433D02*
Y046161D01*
Y045433D02*
X024537Y044823D01*
X025226Y046161D02*
X026358Y047293D01*
X074341D02*
X076024Y045610D01*
X046476Y045591D02*
X046663D01*
X047589Y046516D01*
X051250Y044144D02*
X053899Y041495D01*
X026978Y044793D02*
X030482Y041289D01*
X049311Y047293D02*
X074341D01*
X048888Y046516D02*
Y046870D01*
X049311Y047293D01*
X026358D02*
X049311D01*
X030482Y039350D02*
Y041289D01*
X053899Y039350D02*
Y041495D01*
X049439Y023140D02*
X050374Y024075D01*
Y025541D01*
X044213Y027520D02*
X045404Y026329D01*
X049587D01*
X050374Y025541D01*
X049439Y021299D02*
Y023140D01*
X040994Y019862D02*
X042008Y020876D01*
X049016D01*
X049439Y021299D01*
D38*
X061132Y042175D02*
X061280Y042028D01*
X061959Y041988D02*
X061988Y041959D01*
X061959Y041929D02*
X061988Y041959D01*
X061959Y041752D02*
Y041929D01*
D39*
X052854Y025118D02*
X056378D01*
X047825Y017835D02*
X050837D01*
X045955Y019705D02*
X047825Y017835D01*
X044341Y019705D02*
X045955D01*
X043652Y019016D02*
X044341Y019705D01*
X043652Y015069D02*
Y019016D01*
X039449Y010866D02*
X043652Y015069D01*
X022323Y010866D02*
X039449D01*
X020965Y012224D02*
X022323Y010866D01*
X056378Y025118D02*
X059087D01*
X061693D01*
X068898D02*
X068917Y025138D01*
X072165D01*
X061693Y025118D02*
X068898D01*
X051604Y023868D02*
X052854Y025118D01*
X050837Y017835D02*
X051604Y018602D01*
Y023868D01*
X020965Y012224D02*
Y019006D01*
D40*
X072652Y028238D02*
X075906Y024984D01*
X057805Y028238D02*
X072652D01*
X056299Y026732D02*
X057805Y028238D01*
D42*
X026230Y027480D02*
D03*
X024458D02*
D03*
X022254Y027519D02*
D03*
X020482D02*
D03*
X018277Y027558D02*
D03*
X016506D02*
D03*
D43*
X026722Y026495D02*
D03*
X023966D02*
D03*
X022746Y026535D02*
D03*
X019990D02*
D03*
X018770Y026574D02*
D03*
X016014D02*
D03*
D44*
X030482Y039350D02*
D03*
X053899D02*
D03*
D45*
X076024Y033744D02*
D03*
X010591Y033720D02*
D03*
X076024Y015846D02*
D03*
X010591Y014823D02*
D03*
X076024Y014846D02*
D03*
X076024Y034744D02*
D03*
D46*
X010591Y040720D02*
D03*
Y039720D02*
D03*
Y038720D02*
D03*
Y037720D02*
D03*
Y036720D02*
D03*
Y035720D02*
D03*
Y034720D02*
D03*
Y041720D02*
D03*
Y042720D02*
D03*
X076024Y022846D02*
D03*
Y021846D02*
D03*
Y020846D02*
D03*
Y019846D02*
D03*
Y018846D02*
D03*
Y017846D02*
D03*
Y016846D02*
D03*
Y023846D02*
D03*
Y024846D02*
D03*
X010591Y021823D02*
D03*
Y020823D02*
D03*
Y019823D02*
D03*
Y018823D02*
D03*
Y017823D02*
D03*
Y016823D02*
D03*
Y015823D02*
D03*
Y022823D02*
D03*
Y023823D02*
D03*
X076024Y041744D02*
D03*
Y040744D02*
D03*
Y039744D02*
D03*
Y038744D02*
D03*
Y037744D02*
D03*
Y036744D02*
D03*
Y035744D02*
D03*
Y042744D02*
D03*
Y043744D02*
D03*
D47*
X049567Y019173D02*
D03*
Y011299D02*
D03*
X010906Y011126D02*
D03*
X011906Y012126D02*
D03*
D48*
X072520Y013819D02*
D03*
D49*
X071417Y011968D02*
D03*
D50*
X073780D02*
D03*
D51*
X046161Y024616D02*
D03*
Y025246D02*
D03*
D52*
X010906Y013126D02*
D03*
D53*
X013854Y012602D02*
D03*
Y013602D02*
D03*
X016854D02*
D03*
Y014602D02*
D03*
Y015602D02*
D03*
Y016602D02*
D03*
Y017602D02*
D03*
Y018602D02*
D03*
X013854Y014602D02*
D03*
Y015602D02*
D03*
Y016602D02*
D03*
Y017602D02*
D03*
Y018602D02*
D03*
Y019602D02*
D03*
X016854D02*
D03*
X022953Y014150D02*
D03*
Y012150D02*
D03*
D54*
X016854Y012602D02*
D03*
D55*
X022953Y019217D02*
D03*
D56*
Y016217D02*
D03*
D57*
X024163Y021319D02*
D03*
D58*
X020620D02*
D03*
D59*
X020935Y015738D02*
D03*
X020955Y019006D02*
D03*
D60*
X049331Y042579D02*
D03*
X047911Y043014D02*
D03*
X046496Y043514D02*
D03*
X060610Y041457D02*
D03*
X061280Y041624D02*
D03*
X063103Y042579D02*
D03*
X060502Y043514D02*
D03*
X035541Y023907D02*
D03*
X061890Y018858D02*
D03*
X035945Y020236D02*
D03*
X036850Y019252D02*
D03*
X037598Y019213D02*
D03*
X037283Y023268D02*
D03*
X040866Y024606D02*
D03*
X039449Y024134D02*
D03*
X031577Y018608D02*
D03*
X059331Y018150D02*
D03*
X056575D02*
D03*
X061811Y026732D02*
D03*
X059055D02*
D03*
X056299D02*
D03*
X044961Y018740D02*
D03*
Y016496D02*
D03*
X044951Y014557D02*
D03*
X042165Y025000D02*
D03*
X070984Y014291D02*
D03*
X058032Y013780D02*
D03*
X038307Y018386D02*
D03*
X028071Y019094D02*
D03*
X025945Y019567D02*
D03*
X028740Y020709D02*
D03*
X042165Y026614D02*
D03*
X039291Y019606D02*
D03*
X040787Y021102D02*
D03*
X039567Y020394D02*
D03*
X029370Y026460D02*
D03*
X030370D02*
D03*
X031370D02*
D03*
Y027460D02*
D03*
X030370D02*
D03*
X043346Y027520D02*
D03*
X029488Y024134D02*
D03*
X035945Y019449D02*
D03*
X046220Y026890D02*
D03*
X027992Y023937D02*
D03*
X025787Y023307D02*
D03*
X022677Y023346D02*
D03*
X018661D02*
D03*
X029370Y027457D02*
D03*
X052953Y020748D02*
D03*
X049567Y014291D02*
D03*
X015866Y021732D02*
D03*
X033386Y024695D02*
D03*
X034380Y024902D02*
D03*
X034783Y023386D02*
D03*
X040167Y021535D02*
D03*
X056378Y025118D02*
D03*
X059087D02*
D03*
X061693D02*
D03*
X064341Y025108D02*
D03*
X072165Y025138D02*
D03*
X069675Y025148D02*
D03*
X066988Y025138D02*
D03*
X047224Y041555D02*
D03*
X037067Y043514D02*
D03*
X038502Y043014D02*
D03*
X039943Y042579D02*
D03*
X037766Y041555D02*
D03*
X025955Y042579D02*
D03*
X024565Y043014D02*
D03*
X023159Y043514D02*
D03*
X023041Y041319D02*
D03*
X013809Y043514D02*
D03*
X015256Y043014D02*
D03*
X016663Y042579D02*
D03*
X011565Y036388D02*
D03*
Y038799D02*
D03*
X069104Y043514D02*
D03*
X070387Y043014D02*
D03*
X070456Y041606D02*
D03*
X071752Y042579D02*
D03*
X061782Y043014D02*
D03*
X061959Y041752D02*
D03*
X023819Y041604D02*
D03*
X014478Y041585D02*
D03*
X024537Y044823D02*
D03*
X026978Y044793D02*
D03*
X046476Y045591D02*
D03*
X051250Y044144D02*
D03*
X048484Y021594D02*
D03*
X052953Y023465D02*
D03*
X048484Y022470D02*
D03*
X048474Y023297D02*
D03*
X052953Y022598D02*
D03*
X048858Y024035D02*
D03*
X048839Y025748D02*
D03*
X013730Y041407D02*
D03*
X015236Y041762D02*
D03*
X024537Y041811D02*
D03*
X036988Y041289D02*
D03*
X038514Y041752D02*
D03*
X046457Y041319D02*
D03*
X047913Y041782D02*
D03*
X069833Y041388D02*
D03*
X071093Y041742D02*
D03*
D61*
X063780Y042185D02*
D03*
Y043484D02*
D03*
X050039Y042165D02*
D03*
Y043465D02*
D03*
X040610Y042165D02*
D03*
Y043465D02*
D03*
X026693Y042254D02*
D03*
Y043553D02*
D03*
X072461Y042215D02*
D03*
Y043514D02*
D03*
X017352Y042205D02*
D03*
Y043504D02*
D03*
D62*
X049567Y011299D02*
Y014213D01*
D63*
X069128Y011427D02*
X069328D01*
X069228D01*
Y010927D01*
X069328Y010827D01*
X069428D01*
X069528Y010927D01*
X068828Y011227D02*
X068628D01*
X068528Y011127D01*
Y010827D01*
X068828D01*
X068928Y010927D01*
X068828Y011027D01*
X068528D01*
X068328Y010827D02*
Y011427D01*
Y011027D02*
X068028Y011227D01*
X068328Y011027D02*
X068028Y010827D01*
X067728Y011227D02*
Y010927D01*
X067628Y010827D01*
X067328D01*
Y011227D01*
X067128Y011427D02*
Y010827D01*
X066828D01*
X066728Y010927D01*
Y011027D01*
Y011127D01*
X066828Y011227D01*
X067128D01*
X065929Y011427D02*
Y010827D01*
X065629D01*
X065529Y010927D01*
Y011327D01*
X065629Y011427D01*
X065929D01*
X065229Y010827D02*
X065029D01*
X064929Y010927D01*
Y011127D01*
X065029Y011227D01*
X065229D01*
X065329Y011127D01*
Y010927D01*
X065229Y010827D01*
X064729Y011227D02*
Y010827D01*
Y011027D01*
X064629Y011127D01*
X064529Y011227D01*
X064429D01*
X063729Y011427D02*
Y010827D01*
X064029D01*
X064129Y010927D01*
Y011127D01*
X064029Y011227D01*
X063729D01*
X063430D02*
X063230D01*
X063130Y011127D01*
Y010827D01*
X063430D01*
X063530Y010927D01*
X063430Y011027D01*
X063130D01*
X061930Y010827D02*
X062330D01*
X061930Y011227D01*
Y011327D01*
X062030Y011427D01*
X062230D01*
X062330Y011327D01*
X061730D02*
X061630Y011427D01*
X061430D01*
X061330Y011327D01*
Y010927D01*
X061430Y010827D01*
X061630D01*
X061730Y010927D01*
Y011327D01*
X061130Y010827D02*
X060930D01*
X061030D01*
Y011427D01*
X061130Y011327D01*
X060630Y011427D02*
X060231D01*
Y011327D01*
X060630Y010927D01*
Y010827D01*
X059431Y011227D02*
X059231Y010827D01*
X059031Y011227D01*
X058831Y010827D02*
X058631D01*
X058731D01*
Y011427D01*
X058831Y011327D01*
X058331Y010827D02*
Y010927D01*
X058231D01*
Y010827D01*
X058331D01*
X057831Y011327D02*
X057731Y011427D01*
X057531D01*
X057431Y011327D01*
Y010927D01*
X057531Y010827D01*
X057731D01*
X057831Y010927D01*
Y011327D01*
M02*
