G04 Layer_Color=7318015*
%FSAX24Y24*%
%MOIN*%
G70*
G01*
G75*
%ADD10O,0.0748X0.0236*%
%ADD11R,0.0906X0.0394*%
%ADD12R,0.0600X0.0450*%
%ADD13R,0.1280X0.0630*%
%ADD14R,0.0850X0.1080*%
%ADD15R,0.0450X0.0600*%
%ADD16R,0.0492X0.0591*%
%ADD17R,0.0591X0.0492*%
%ADD18R,0.2283X0.2441*%
%ADD19R,0.0630X0.1181*%
%ADD20R,0.0256X0.0295*%
%ADD21R,0.0210X0.0500*%
%ADD22R,0.0500X0.0210*%
%ADD23R,0.0315X0.0354*%
%ADD24R,0.0276X0.0650*%
%ADD25R,0.0354X0.0315*%
%ADD26R,0.0630X0.1280*%
%ADD27R,0.3543X0.4075*%
%ADD28R,0.1378X0.0374*%
%ADD29R,0.1575X0.0787*%
%ADD30R,0.0610X0.0236*%
%ADD31R,0.1516X0.2165*%
%ADD32R,0.0600X0.0600*%
%ADD33C,0.0600*%
%ADD34R,0.0295X0.0256*%
G36*
X050118Y024478D02*
X047224D01*
Y025315D01*
X050118D01*
Y024478D01*
D02*
G37*
D10*
X045020Y024526D02*
D03*
Y025026D02*
D03*
Y025526D02*
D03*
Y026026D02*
D03*
X043169Y024526D02*
D03*
Y025026D02*
D03*
Y025526D02*
D03*
Y026026D02*
D03*
D11*
X014075Y039528D02*
D03*
X016240D02*
D03*
Y038937D02*
D03*
X014075D02*
D03*
X016240Y038346D02*
D03*
X014075D02*
D03*
X023524Y039528D02*
D03*
X025689D02*
D03*
Y038937D02*
D03*
X023524D02*
D03*
X025689Y038346D02*
D03*
X023524D02*
D03*
X037520Y039528D02*
D03*
X039685D02*
D03*
Y038937D02*
D03*
X037520D02*
D03*
X039685Y038346D02*
D03*
X037520D02*
D03*
X046949Y039528D02*
D03*
X049114D02*
D03*
Y038937D02*
D03*
X046949D02*
D03*
X049114Y038346D02*
D03*
X046949D02*
D03*
X060915Y039528D02*
D03*
X063081D02*
D03*
Y038937D02*
D03*
X060915D02*
D03*
X063081Y038346D02*
D03*
X060915D02*
D03*
X070374Y039528D02*
D03*
X072539D02*
D03*
Y038937D02*
D03*
X070374D02*
D03*
X072539Y038346D02*
D03*
X070374D02*
D03*
D12*
X039606Y017841D02*
D03*
Y017041D02*
D03*
X070000Y011175D02*
D03*
Y011975D02*
D03*
Y014691D02*
D03*
Y013891D02*
D03*
D13*
X036260Y017480D02*
D03*
X038228D02*
D03*
D14*
X026815Y017756D02*
D03*
X025075D02*
D03*
D15*
X041450Y021693D02*
D03*
X042250D02*
D03*
X044455Y023622D02*
D03*
X043655D02*
D03*
X031529Y017244D02*
D03*
X032329D02*
D03*
D16*
X045246Y026929D02*
D03*
X044439D02*
D03*
X026447Y023307D02*
D03*
X027254D02*
D03*
X027254Y024843D02*
D03*
X026447D02*
D03*
X021860D02*
D03*
X021053D02*
D03*
X021860Y023307D02*
D03*
X021053D02*
D03*
X017844Y024843D02*
D03*
X017037D02*
D03*
X017844Y023307D02*
D03*
X017037D02*
D03*
X041486Y014803D02*
D03*
X042293D02*
D03*
X041486Y017087D02*
D03*
X042293D02*
D03*
X041486Y019449D02*
D03*
X042293D02*
D03*
X054911Y017677D02*
D03*
X055718D02*
D03*
X057562D02*
D03*
X058369D02*
D03*
X060213D02*
D03*
X061020D02*
D03*
X062864D02*
D03*
X063671D02*
D03*
X065515D02*
D03*
X066322D02*
D03*
X068166D02*
D03*
X068973D02*
D03*
X070817D02*
D03*
X071624D02*
D03*
X030423Y020630D02*
D03*
X031230D02*
D03*
X029321Y017283D02*
D03*
X030128D02*
D03*
X020974Y010915D02*
D03*
X021781D02*
D03*
D17*
X037677Y026112D02*
D03*
Y025305D02*
D03*
X027047Y019911D02*
D03*
Y020719D02*
D03*
X041299Y026545D02*
D03*
Y025738D02*
D03*
X039803Y026545D02*
D03*
Y025738D02*
D03*
X032323Y019380D02*
D03*
Y018573D02*
D03*
D18*
X026024Y012559D02*
D03*
D19*
X025122Y015394D02*
D03*
X026925D02*
D03*
D20*
X043937Y015443D02*
D03*
X044311Y014557D02*
D03*
X043563D02*
D03*
X043937Y017687D02*
D03*
X044311Y016801D02*
D03*
X043563D02*
D03*
X043937Y020049D02*
D03*
X044311Y019163D02*
D03*
X043563D02*
D03*
D21*
X036654Y023934D02*
D03*
X036969D02*
D03*
X037283D02*
D03*
X037598D02*
D03*
X037916D02*
D03*
X038236D02*
D03*
X038546D02*
D03*
X038866D02*
D03*
Y020554D02*
D03*
X038546D02*
D03*
X038236D02*
D03*
X037916D02*
D03*
X037598D02*
D03*
X037283D02*
D03*
X036969D02*
D03*
X036654D02*
D03*
D22*
X039446Y023354D02*
D03*
Y023034D02*
D03*
Y022724D02*
D03*
Y022404D02*
D03*
Y022087D02*
D03*
Y021772D02*
D03*
Y021457D02*
D03*
Y021142D02*
D03*
X036066D02*
D03*
Y021457D02*
D03*
Y021772D02*
D03*
Y022087D02*
D03*
Y022404D02*
D03*
Y022724D02*
D03*
Y023034D02*
D03*
Y023354D02*
D03*
D23*
X055394Y020315D02*
D03*
X055768Y019528D02*
D03*
X055020D02*
D03*
X058032Y020315D02*
D03*
X058406Y019528D02*
D03*
X057657D02*
D03*
X060669Y020315D02*
D03*
X061043Y019528D02*
D03*
X060295D02*
D03*
X063307Y020315D02*
D03*
X063681Y019528D02*
D03*
X062933D02*
D03*
X065945Y020315D02*
D03*
X066319Y019528D02*
D03*
X065571D02*
D03*
X068583Y020315D02*
D03*
X068957Y019528D02*
D03*
X068209D02*
D03*
X071220Y020315D02*
D03*
X071594Y019528D02*
D03*
X070846D02*
D03*
X055236Y026732D02*
D03*
X055610Y025945D02*
D03*
X054862D02*
D03*
X057913Y026732D02*
D03*
X058287Y025945D02*
D03*
X057539D02*
D03*
X060551Y026732D02*
D03*
X060925Y025945D02*
D03*
X060177D02*
D03*
X063209Y026732D02*
D03*
X063583Y025945D02*
D03*
X062835D02*
D03*
X065866Y026732D02*
D03*
X066240Y025945D02*
D03*
X065492D02*
D03*
X068524Y026732D02*
D03*
X068898Y025945D02*
D03*
X068150D02*
D03*
X071181Y026732D02*
D03*
X071555Y025945D02*
D03*
X070807D02*
D03*
D24*
X054626Y022047D02*
D03*
X055925D02*
D03*
X057277D02*
D03*
X058576D02*
D03*
X059928D02*
D03*
X061227D02*
D03*
X062579D02*
D03*
X063878D02*
D03*
X065230D02*
D03*
X066529D02*
D03*
X067881D02*
D03*
X069180D02*
D03*
X070531Y022047D02*
D03*
X071831D02*
D03*
X054626Y024055D02*
D03*
X055925D02*
D03*
X057276D02*
D03*
X058576D02*
D03*
X059927D02*
D03*
X061227D02*
D03*
X062578D02*
D03*
X063878D02*
D03*
X065229D02*
D03*
X066528D02*
D03*
X067880D02*
D03*
X069179D02*
D03*
X070532Y024055D02*
D03*
X071831D02*
D03*
X019646Y013583D02*
D03*
X020945D02*
D03*
D25*
X025748Y020354D02*
D03*
X024961Y019980D02*
D03*
Y020728D02*
D03*
D26*
X060354Y014055D02*
D03*
Y012087D02*
D03*
X056142D02*
D03*
Y014055D02*
D03*
D27*
X064646Y013189D02*
D03*
D28*
X068484Y014189D02*
D03*
Y012189D02*
D03*
D29*
X038996Y013032D02*
D03*
X036201D02*
D03*
D30*
X028740Y019608D02*
D03*
Y019108D02*
D03*
Y018608D02*
D03*
Y018108D02*
D03*
X030866D02*
D03*
Y018608D02*
D03*
Y019108D02*
D03*
Y019608D02*
D03*
D31*
X033130Y013661D02*
D03*
X029311D02*
D03*
D32*
X029370Y026457D02*
D03*
D33*
Y027457D02*
D03*
X030370Y026457D02*
D03*
Y027457D02*
D03*
X031370Y026457D02*
D03*
Y027457D02*
D03*
D34*
X020738Y012274D02*
D03*
X019852Y011900D02*
D03*
Y012648D02*
D03*
M02*
