G04 Layer_Color=7318015*
%FSAX24Y24*%
%MOIN*%
G70*
G01*
G75*
%ADD10O,0.0748X0.0236*%
%ADD11R,0.0591X0.0492*%
%ADD12R,0.0906X0.0394*%
%ADD13R,0.0600X0.0450*%
%ADD14R,0.1280X0.0630*%
%ADD15R,0.0850X0.1080*%
%ADD16R,0.0450X0.0600*%
%ADD17R,0.0492X0.0591*%
%ADD18R,0.2283X0.2441*%
%ADD19R,0.0630X0.1181*%
%ADD20R,0.0256X0.0295*%
%ADD21R,0.0210X0.0500*%
%ADD22R,0.0500X0.0210*%
%ADD23R,0.0315X0.0354*%
%ADD24R,0.0276X0.0650*%
%ADD25R,0.0354X0.0315*%
%ADD26R,0.0630X0.1280*%
%ADD27R,0.3543X0.4075*%
%ADD28R,0.1378X0.0374*%
%ADD29R,0.0295X0.0256*%
%ADD30R,0.1575X0.0787*%
%ADD31R,0.0610X0.0236*%
%ADD32R,0.1516X0.2165*%
%ADD33R,0.0600X0.0600*%
%ADD34C,0.0600*%
%ADD35R,0.0492X0.1181*%
D10*
X045020Y024526D02*
D03*
Y025026D02*
D03*
Y025526D02*
D03*
Y026026D02*
D03*
X043169Y024526D02*
D03*
Y025026D02*
D03*
Y025526D02*
D03*
Y026026D02*
D03*
D11*
X026348Y033573D02*
D03*
Y034380D02*
D03*
X024596Y033248D02*
D03*
Y034055D02*
D03*
X022717Y033533D02*
D03*
Y034341D02*
D03*
X037677Y026112D02*
D03*
Y025305D02*
D03*
X027047Y019911D02*
D03*
Y020719D02*
D03*
X041299Y026545D02*
D03*
Y025738D02*
D03*
X039803Y026545D02*
D03*
Y025738D02*
D03*
X032323Y019380D02*
D03*
Y018573D02*
D03*
X013346Y033612D02*
D03*
Y034419D02*
D03*
X015079Y033297D02*
D03*
Y034104D02*
D03*
X016762Y033671D02*
D03*
Y034478D02*
D03*
X040512Y033612D02*
D03*
Y034419D02*
D03*
X038563Y033169D02*
D03*
Y033976D02*
D03*
X036565Y033632D02*
D03*
Y034439D02*
D03*
X046132Y033612D02*
D03*
Y034419D02*
D03*
X048041Y033199D02*
D03*
Y034006D02*
D03*
X049892Y033593D02*
D03*
Y034400D02*
D03*
X060128Y033622D02*
D03*
Y034429D02*
D03*
X061978Y033278D02*
D03*
Y034085D02*
D03*
X063829Y033612D02*
D03*
Y034419D02*
D03*
X069734Y033593D02*
D03*
Y034400D02*
D03*
X071447Y033189D02*
D03*
Y033996D02*
D03*
X073169Y033602D02*
D03*
Y034409D02*
D03*
D12*
X014124Y037677D02*
D03*
X016289D02*
D03*
Y037087D02*
D03*
X014124D02*
D03*
X016289Y036496D02*
D03*
X014124D02*
D03*
X023563Y037697D02*
D03*
X025728D02*
D03*
Y037106D02*
D03*
X023563D02*
D03*
X025728Y036516D02*
D03*
X023563D02*
D03*
X037549Y037657D02*
D03*
X039715D02*
D03*
Y037067D02*
D03*
X037549D02*
D03*
X039715Y036476D02*
D03*
X037549D02*
D03*
X046949Y037707D02*
D03*
X049114D02*
D03*
Y037116D02*
D03*
X046949D02*
D03*
X049114Y036526D02*
D03*
X046949D02*
D03*
X060965Y037657D02*
D03*
X063130D02*
D03*
Y037067D02*
D03*
X060965D02*
D03*
X063130Y036476D02*
D03*
X060965D02*
D03*
X070374Y037717D02*
D03*
X072539D02*
D03*
Y037126D02*
D03*
X070374D02*
D03*
X072539Y036535D02*
D03*
X070374D02*
D03*
D13*
X039606Y017841D02*
D03*
Y017041D02*
D03*
X070000Y011175D02*
D03*
Y011975D02*
D03*
Y014691D02*
D03*
Y013891D02*
D03*
D14*
X036260Y017480D02*
D03*
X038228D02*
D03*
D15*
X026815Y017756D02*
D03*
X025075D02*
D03*
D16*
X041450Y021693D02*
D03*
X042250D02*
D03*
X044455Y023622D02*
D03*
X043655D02*
D03*
X031529Y017244D02*
D03*
X032329D02*
D03*
D17*
X045246Y026929D02*
D03*
X044439D02*
D03*
X026447Y023307D02*
D03*
X027254D02*
D03*
X027254Y024843D02*
D03*
X026447D02*
D03*
X021860D02*
D03*
X021053D02*
D03*
X021860Y023307D02*
D03*
X021053D02*
D03*
X017844Y024843D02*
D03*
X017037D02*
D03*
X017844Y023307D02*
D03*
X017037D02*
D03*
X041486Y014803D02*
D03*
X042293D02*
D03*
X041486Y017087D02*
D03*
X042293D02*
D03*
X041486Y019449D02*
D03*
X042293D02*
D03*
X054911Y017677D02*
D03*
X055718D02*
D03*
X057562D02*
D03*
X058369D02*
D03*
X060213D02*
D03*
X061020D02*
D03*
X062864D02*
D03*
X063671D02*
D03*
X065515D02*
D03*
X066322D02*
D03*
X068166D02*
D03*
X068973D02*
D03*
X070817D02*
D03*
X071624D02*
D03*
X020030Y011220D02*
D03*
X020837D02*
D03*
X030423Y020630D02*
D03*
X031230D02*
D03*
X029321Y017283D02*
D03*
X030128D02*
D03*
D18*
X026024Y012559D02*
D03*
D19*
X025122Y015394D02*
D03*
X026925D02*
D03*
D20*
X043937Y015443D02*
D03*
X044311Y014557D02*
D03*
X043563D02*
D03*
X043937Y017687D02*
D03*
X044311Y016801D02*
D03*
X043563D02*
D03*
X043937Y020049D02*
D03*
X044311Y019163D02*
D03*
X043563D02*
D03*
D21*
X036654Y023934D02*
D03*
X036969D02*
D03*
X037283D02*
D03*
X037598D02*
D03*
X037916D02*
D03*
X038236D02*
D03*
X038546D02*
D03*
X038866D02*
D03*
Y020554D02*
D03*
X038546D02*
D03*
X038236D02*
D03*
X037916D02*
D03*
X037598D02*
D03*
X037283D02*
D03*
X036969D02*
D03*
X036654D02*
D03*
D22*
X039446Y023354D02*
D03*
Y023034D02*
D03*
Y022724D02*
D03*
Y022404D02*
D03*
Y022087D02*
D03*
Y021772D02*
D03*
Y021457D02*
D03*
Y021142D02*
D03*
X036066D02*
D03*
Y021457D02*
D03*
Y021772D02*
D03*
Y022087D02*
D03*
Y022404D02*
D03*
Y022724D02*
D03*
Y023034D02*
D03*
Y023354D02*
D03*
D23*
X055394Y020315D02*
D03*
X055768Y019528D02*
D03*
X055020D02*
D03*
X058032Y020315D02*
D03*
X058406Y019528D02*
D03*
X057657D02*
D03*
X060669Y020315D02*
D03*
X061043Y019528D02*
D03*
X060295D02*
D03*
X063307Y020315D02*
D03*
X063681Y019528D02*
D03*
X062933D02*
D03*
X065945Y020315D02*
D03*
X066319Y019528D02*
D03*
X065571D02*
D03*
X068583Y020315D02*
D03*
X068957Y019528D02*
D03*
X068209D02*
D03*
X071220Y020315D02*
D03*
X071594Y019528D02*
D03*
X070846D02*
D03*
X055236Y026732D02*
D03*
X055610Y025945D02*
D03*
X054862D02*
D03*
X057913Y026732D02*
D03*
X058287Y025945D02*
D03*
X057539D02*
D03*
X060551Y026732D02*
D03*
X060925Y025945D02*
D03*
X060177D02*
D03*
X063209Y026732D02*
D03*
X063583Y025945D02*
D03*
X062835D02*
D03*
X065866Y026732D02*
D03*
X066240Y025945D02*
D03*
X065492D02*
D03*
X068524Y026732D02*
D03*
X068898Y025945D02*
D03*
X068150D02*
D03*
X071181Y026732D02*
D03*
X071555Y025945D02*
D03*
X070807D02*
D03*
D24*
X054626Y022047D02*
D03*
X055925D02*
D03*
X057277D02*
D03*
X058576D02*
D03*
X059928D02*
D03*
X061227D02*
D03*
X062579D02*
D03*
X063878D02*
D03*
X065230D02*
D03*
X066529D02*
D03*
X067881D02*
D03*
X069180D02*
D03*
X070531Y022047D02*
D03*
X071831D02*
D03*
X054626Y024055D02*
D03*
X055925D02*
D03*
X057276D02*
D03*
X058576D02*
D03*
X059927D02*
D03*
X061227D02*
D03*
X062578D02*
D03*
X063878D02*
D03*
X065229D02*
D03*
X066528D02*
D03*
X067880D02*
D03*
X069179D02*
D03*
X019783Y016417D02*
D03*
X021083D02*
D03*
X017500Y035404D02*
D03*
X018799D02*
D03*
X027087Y035413D02*
D03*
X028386D02*
D03*
X041014Y035404D02*
D03*
X042313D02*
D03*
X050640Y035374D02*
D03*
X051939D02*
D03*
X064518Y035354D02*
D03*
X065817D02*
D03*
X073917Y035679D02*
D03*
X075217D02*
D03*
X070532Y024055D02*
D03*
X071831D02*
D03*
D25*
X025748Y020354D02*
D03*
X024961Y019980D02*
D03*
Y020728D02*
D03*
D26*
X060354Y014055D02*
D03*
Y012087D02*
D03*
X056142D02*
D03*
Y014055D02*
D03*
D27*
X064646Y013189D02*
D03*
D28*
X068484Y014189D02*
D03*
Y012189D02*
D03*
D29*
X020758Y013701D02*
D03*
X019872Y013327D02*
D03*
Y014075D02*
D03*
D30*
X038996Y013032D02*
D03*
X036201D02*
D03*
D31*
X028740Y019608D02*
D03*
Y019108D02*
D03*
Y018608D02*
D03*
Y018108D02*
D03*
X030866D02*
D03*
Y018608D02*
D03*
Y019108D02*
D03*
Y019608D02*
D03*
D32*
X033130Y013661D02*
D03*
X029311D02*
D03*
D33*
X029370Y026457D02*
D03*
D34*
Y027457D02*
D03*
X030370Y026457D02*
D03*
Y027457D02*
D03*
X031370Y026457D02*
D03*
Y027457D02*
D03*
D35*
X023813Y021339D02*
D03*
X021993D02*
D03*
M02*
