G04 Layer_Color=13813960*
%FSAX24Y24*%
%MOIN*%
G70*
G01*
G75*
%ADD62C,0.0100*%
%ADD68C,0.0079*%
D62*
X034281Y042598D02*
Y043198D01*
X033982D01*
X033882Y043098D01*
Y042898D01*
X033982Y042798D01*
X034281D01*
X034082D02*
X033882Y042598D01*
X033282Y043198D02*
X033482Y043098D01*
X033682Y042898D01*
Y042698D01*
X033582Y042598D01*
X033382D01*
X033282Y042698D01*
Y042798D01*
X033382Y042898D01*
X033682D01*
X032682Y043198D02*
X033082D01*
Y042898D01*
X032882Y042998D01*
X032782D01*
X032682Y042898D01*
Y042698D01*
X032782Y042598D01*
X032982D01*
X033082Y042698D01*
X030541Y042470D02*
Y043070D01*
X030241D01*
X030141Y042970D01*
Y042770D01*
X030241Y042670D01*
X030541D01*
X030341D02*
X030141Y042470D01*
X029542Y043070D02*
X029742Y042970D01*
X029942Y042770D01*
Y042570D01*
X029842Y042470D01*
X029642D01*
X029542Y042570D01*
Y042670D01*
X029642Y042770D01*
X029942D01*
X028942Y043070D02*
X029142Y042970D01*
X029342Y042770D01*
Y042570D01*
X029242Y042470D01*
X029042D01*
X028942Y042570D01*
Y042670D01*
X029042Y042770D01*
X029342D01*
X053927Y042677D02*
Y043277D01*
X053627D01*
X053527Y043177D01*
Y042977D01*
X053627Y042877D01*
X053927D01*
X053727D02*
X053527Y042677D01*
X052927Y043277D02*
X053127Y043177D01*
X053327Y042977D01*
Y042777D01*
X053227Y042677D01*
X053027D01*
X052927Y042777D01*
Y042877D01*
X053027Y042977D01*
X053327D01*
X052728Y043277D02*
X052328D01*
Y043177D01*
X052728Y042777D01*
Y042677D01*
X057589D02*
Y043277D01*
X057289D01*
X057189Y043177D01*
Y042977D01*
X057289Y042877D01*
X057589D01*
X057389D02*
X057189Y042677D01*
X056589Y043277D02*
X056789Y043177D01*
X056989Y042977D01*
Y042777D01*
X056889Y042677D01*
X056689D01*
X056589Y042777D01*
Y042877D01*
X056689Y042977D01*
X056989D01*
X056389Y043177D02*
X056289Y043277D01*
X056089D01*
X055989Y043177D01*
Y043077D01*
X056089Y042977D01*
X055989Y042877D01*
Y042777D01*
X056089Y042677D01*
X056289D01*
X056389Y042777D01*
Y042877D01*
X056289Y042977D01*
X056389Y043077D01*
Y043177D01*
X056289Y042977D02*
X056089D01*
D68*
X033051Y041102D02*
Y041811D01*
X032480Y041102D02*
Y041811D01*
X030709Y041073D02*
Y041782D01*
X030138Y041073D02*
Y041782D01*
X056516Y041043D02*
Y041752D01*
X055945Y041043D02*
Y041752D01*
X053957Y041073D02*
Y041782D01*
X053386Y041073D02*
Y041782D01*
M02*
