G04 Layer_Physical_Order=1*
G04 Layer_Color=25308*
%FSAX24Y24*%
%MOIN*%
G70*
G01*
G75*
%ADD10C,0.0400*%
%ADD11C,0.0200*%
%ADD12C,0.0120*%
%ADD13C,0.0100*%
%ADD14C,0.0250*%
%ADD15C,0.0279*%
%ADD16C,0.0130*%
%ADD17C,0.0150*%
%ADD18C,0.0650*%
%ADD19R,0.0492X0.0492*%
%ADD20C,0.0492*%
%ADD21C,0.0750*%
%ADD22C,0.0394*%
%ADD23R,0.0394X0.0394*%
%ADD24R,0.0591X0.0591*%
%ADD25C,0.0591*%
%ADD26C,0.0551*%
%ADD27R,0.0551X0.0551*%
G04:AMPARAMS|DCode=28|XSize=60mil|YSize=80mil|CornerRadius=15mil|HoleSize=0mil|Usage=FLASHONLY|Rotation=180.000|XOffset=0mil|YOffset=0mil|HoleType=Round|Shape=RoundedRectangle|*
%AMROUNDEDRECTD28*
21,1,0.0600,0.0500,0,0,180.0*
21,1,0.0300,0.0800,0,0,180.0*
1,1,0.0300,-0.0150,0.0250*
1,1,0.0300,0.0150,0.0250*
1,1,0.0300,0.0150,-0.0250*
1,1,0.0300,-0.0150,-0.0250*
%
%ADD28ROUNDEDRECTD28*%
%ADD29R,0.0600X0.0800*%
%ADD30O,0.0787X0.0394*%
%ADD31R,0.0787X0.0394*%
%ADD32C,0.0600*%
%ADD33O,0.0689X0.1575*%
%ADD34O,0.1575X0.0700*%
%ADD35O,0.1575X0.0689*%
%ADD36C,0.0866*%
%ADD37C,0.0709*%
%ADD38R,0.0709X0.0709*%
%ADD39C,0.0610*%
%ADD40C,0.0984*%
%ADD41C,0.0630*%
%ADD42R,0.0630X0.0630*%
%ADD43R,0.0787X0.0787*%
%ADD44C,0.0787*%
%ADD45R,0.0650X0.0650*%
%ADD46R,0.0472X0.0472*%
%ADD47C,0.0472*%
%ADD48C,0.0850*%
%ADD49C,0.0780*%
%ADD50C,0.0800*%
%ADD51R,0.0600X0.0600*%
%ADD52C,0.0500*%
G36*
X065031Y025448D02*
X064920Y025402D01*
X064823Y025328D01*
X064750Y025232D01*
X064703Y025120D01*
X064688Y025000D01*
X064703Y024880D01*
X064750Y024768D01*
X064823Y024672D01*
X064890Y024621D01*
X064877Y024508D01*
X064835Y024421D01*
X062793D01*
X062780Y024621D01*
X062852Y024631D01*
X062964Y024677D01*
X063060Y024751D01*
X063134Y024847D01*
X063180Y024959D01*
X063196Y025079D01*
X063180Y025199D01*
X063134Y025311D01*
X063060Y025407D01*
X063015Y025442D01*
X063076Y025642D01*
X064997D01*
X065031Y025448D01*
D02*
G37*
G36*
X062338Y025321D02*
X062330Y025311D01*
X062284Y025199D01*
X062268Y025079D01*
X062284Y024959D01*
X062330Y024847D01*
X062404Y024751D01*
X062500Y024677D01*
X062612Y024631D01*
X062685Y024621D01*
X062672Y024421D01*
X057189D01*
X057137Y024411D01*
X057057Y024498D01*
X057019Y024576D01*
X057809Y025366D01*
X062008D01*
X062094Y025383D01*
X062166Y025432D01*
X062187Y025453D01*
X062338Y025321D01*
D02*
G37*
G36*
X054905Y014144D02*
X055019Y014097D01*
X055140Y014081D01*
X055261Y014097D01*
X055272Y014101D01*
X055636Y013737D01*
Y012590D01*
X055570Y012540D01*
X055505Y012455D01*
X055464Y012356D01*
X055450Y012250D01*
X055368Y012156D01*
X054954D01*
Y011344D01*
X055766D01*
Y011526D01*
X056081D01*
X056167Y011543D01*
X056239Y011591D01*
X056288Y011664D01*
X056291Y011679D01*
X056336Y011724D01*
X056462Y011819D01*
X056597Y011766D01*
X056715Y011717D01*
X056842Y011701D01*
X056968Y011717D01*
X057086Y011766D01*
X057188Y011844D01*
X057205Y011867D01*
X058766D01*
X058775Y011839D01*
X058835Y011726D01*
X058917Y011627D01*
X059016Y011545D01*
X059129Y011485D01*
X059252Y011447D01*
X059380Y011435D01*
X059508Y011447D01*
X059631Y011485D01*
X059744Y011545D01*
X059843Y011627D01*
X059925Y011726D01*
X059985Y011839D01*
X060023Y011962D01*
X060035Y012090D01*
X060023Y012218D01*
X059985Y012341D01*
X059925Y012454D01*
X059843Y012553D01*
X059744Y012635D01*
X059631Y012695D01*
X059508Y012733D01*
X059380Y012745D01*
X059252Y012733D01*
X059129Y012695D01*
X059016Y012635D01*
X058917Y012553D01*
X058883Y012513D01*
X057954D01*
X057941Y012713D01*
X057975Y012717D01*
X058093Y012766D01*
X058194Y012844D01*
X058272Y012945D01*
X058280Y012965D01*
X060394D01*
X060480Y012983D01*
X060553Y013031D01*
X061046Y013524D01*
X061144Y013495D01*
X061233Y013429D01*
X061225Y013340D01*
X061237Y013212D01*
X061275Y013089D01*
X061335Y012976D01*
X061417Y012877D01*
X061420Y012801D01*
X059435Y010815D01*
X054222D01*
X053952Y011085D01*
X053971Y011130D01*
X053990Y011270D01*
X053971Y011410D01*
X053917Y011540D01*
X053832Y011652D01*
X053720Y011737D01*
X053590Y011791D01*
X053450Y011810D01*
X053310Y011791D01*
X053220Y011754D01*
X053107Y011923D01*
X054607Y013424D01*
X054656Y013497D01*
X054673Y013583D01*
Y014083D01*
X054873Y014169D01*
X054905Y014144D01*
D02*
G37*
G36*
X070085Y014761D02*
X070215Y014707D01*
X070354Y014689D01*
X070428Y014698D01*
X071528Y013599D01*
Y012246D01*
X071469Y012200D01*
X071437Y012159D01*
X070945Y011929D01*
X070527Y011736D01*
X070494Y011750D01*
X070354Y011768D01*
X070215Y011750D01*
X070085Y011696D01*
X069973Y011610D01*
X069887Y011498D01*
X069833Y011368D01*
X069815Y011228D01*
X069833Y011089D01*
X069852Y011043D01*
X069624Y010815D01*
X066465D01*
X066424Y010914D01*
X066346Y011015D01*
X066245Y011093D01*
X066127Y011142D01*
X066086Y011147D01*
Y011989D01*
X066598Y012502D01*
X066599Y012502D01*
X066716Y012453D01*
X066843Y012436D01*
X066970Y012453D01*
X067088Y012502D01*
X067189Y012579D01*
X067267Y012681D01*
X067316Y012799D01*
X067332Y012925D01*
X067316Y013052D01*
X067267Y013170D01*
X067189Y013271D01*
X067174Y013490D01*
X067275Y013602D01*
X067516D01*
X067599Y013613D01*
X067677Y013646D01*
X067744Y013697D01*
X068785Y014738D01*
X068858Y014728D01*
X068998Y014746D01*
X069040Y014764D01*
X070081D01*
X070085Y014761D01*
D02*
G37*
G36*
X065343Y023808D02*
X065345Y023772D01*
X063582Y022009D01*
X063533Y021936D01*
X063516Y021850D01*
X063533Y021765D01*
X063582Y021692D01*
X063654Y021643D01*
X063740Y021626D01*
X063826Y021643D01*
X063899Y021692D01*
X065605Y023398D01*
X074016D01*
X074102Y023415D01*
X074174Y023463D01*
X074524Y023813D01*
X074724Y023731D01*
X074724Y016348D01*
X074689Y016322D01*
X074489Y016261D01*
X073702Y017048D01*
X073629Y017097D01*
X073543Y017114D01*
X067559D01*
X067473Y017097D01*
X067400Y017048D01*
X066521Y016169D01*
X064502D01*
X063023Y017649D01*
Y020824D01*
X063006Y020909D01*
X062957Y020982D01*
X062364Y021575D01*
X062377Y021600D01*
X062414Y021723D01*
X062427Y021850D01*
X062414Y021978D01*
X062377Y022101D01*
X062316Y022214D01*
X062235Y022314D01*
X062136Y022395D01*
X062022Y022456D01*
X061899Y022493D01*
X061772Y022506D01*
X061644Y022493D01*
X061521Y022456D01*
X061496Y022443D01*
X060867Y023072D01*
X060795Y023121D01*
X060709Y023138D01*
X059751D01*
Y023373D01*
X059149D01*
X059119Y023403D01*
X059046Y023451D01*
X058961Y023468D01*
X057676D01*
X057668Y023489D01*
X057590Y023590D01*
X057489Y023668D01*
X057470Y023675D01*
X057386Y023885D01*
X057389Y023916D01*
X057426Y023972D01*
X065280D01*
X065343Y023808D01*
D02*
G37*
G36*
X014265Y022576D02*
X014335Y022485D01*
X014426Y022415D01*
X014532Y022371D01*
X014626Y022359D01*
X014756Y022228D01*
Y021994D01*
X014697Y021948D01*
X014611Y021837D01*
X014558Y021707D01*
X014539Y021567D01*
X014558Y021427D01*
X014611Y021297D01*
X014615Y021292D01*
X013433Y020110D01*
X013382Y020043D01*
X013350Y019965D01*
X013339Y019882D01*
Y017994D01*
X013280Y017949D01*
X013194Y017837D01*
X013140Y017707D01*
X013122Y017567D01*
X013140Y017427D01*
X013194Y017297D01*
X013280Y017185D01*
X013392Y017100D01*
X013522Y017046D01*
X013661Y017027D01*
X013801Y017046D01*
X013931Y017100D01*
X014043Y017185D01*
X014129Y017297D01*
X014183Y017427D01*
X014201Y017567D01*
X014183Y017707D01*
X014129Y017837D01*
X014043Y017949D01*
X013984Y017994D01*
Y019748D01*
X015307Y021071D01*
X015320Y021088D01*
X015349Y021100D01*
X015460Y021185D01*
X015546Y021297D01*
X015600Y021427D01*
X015618Y021567D01*
X015600Y021707D01*
X015546Y021837D01*
X015460Y021948D01*
X015402Y021994D01*
Y022218D01*
X015473Y022289D01*
X015600Y022365D01*
X015669Y022356D01*
X015698Y022360D01*
X017010D01*
Y022554D01*
X017210Y022594D01*
X017218Y022576D01*
X017288Y022485D01*
X017379Y022415D01*
X017485Y022371D01*
X017579Y022359D01*
X017630Y022307D01*
Y021994D01*
X017571Y021948D01*
X017485Y021837D01*
X017432Y021707D01*
X017413Y021567D01*
X017432Y021427D01*
X017465Y021347D01*
X016347Y020228D01*
X016295Y020161D01*
X016263Y020084D01*
X016252Y020000D01*
Y017994D01*
X016193Y017948D01*
X016108Y017837D01*
X016054Y017707D01*
X016035Y017567D01*
X016054Y017427D01*
X016108Y017297D01*
X016193Y017185D01*
X016305Y017100D01*
X016435Y017046D01*
X016575Y017027D01*
X016715Y017046D01*
X016845Y017100D01*
X016956Y017185D01*
X017042Y017297D01*
X017096Y017427D01*
X017114Y017567D01*
X017096Y017707D01*
X017042Y017837D01*
X016956Y017948D01*
X016898Y017994D01*
Y019866D01*
X018075Y021043D01*
X018092Y021046D01*
X018223Y021100D01*
X018334Y021185D01*
X018420Y021297D01*
X018474Y021427D01*
X018492Y021567D01*
X018474Y021707D01*
X018420Y021837D01*
X018334Y021948D01*
X018276Y021994D01*
Y022260D01*
X018305Y022295D01*
X018476Y022384D01*
X018508Y022371D01*
X018622Y022356D01*
X018670Y022362D01*
X019092D01*
Y022360D01*
X019963D01*
Y022554D01*
X020163Y022594D01*
X020171Y022576D01*
X020241Y022485D01*
X020332Y022415D01*
X020437Y022371D01*
X020531Y022359D01*
X020662Y022228D01*
Y021994D01*
X020603Y021948D01*
X020517Y021837D01*
X020463Y021707D01*
X020445Y021567D01*
X020463Y021427D01*
X020504Y021328D01*
X019296Y020087D01*
X019272Y020055D01*
X019248Y020023D01*
X019247Y020021D01*
X019246Y020019D01*
X019231Y019982D01*
X019216Y019945D01*
X019216Y019943D01*
X019215Y019941D01*
X019210Y019901D01*
X019205Y019862D01*
Y017994D01*
X019146Y017949D01*
X019060Y017837D01*
X019006Y017707D01*
X018988Y017567D01*
X019006Y017427D01*
X019060Y017297D01*
X019146Y017185D01*
X019258Y017100D01*
X019388Y017046D01*
X019528Y017027D01*
X019667Y017046D01*
X019797Y017100D01*
X019909Y017185D01*
X019995Y017297D01*
X020049Y017427D01*
X020067Y017567D01*
X020049Y017707D01*
X019995Y017837D01*
X019909Y017949D01*
X019850Y017994D01*
Y019731D01*
X021136Y021051D01*
X021254Y021100D01*
X021366Y021185D01*
X021452Y021297D01*
X021506Y021427D01*
X021524Y021567D01*
X021506Y021707D01*
X021452Y021837D01*
X021366Y021948D01*
X021307Y021994D01*
Y022218D01*
X021379Y022289D01*
X021506Y022365D01*
X021575Y022356D01*
X021622Y022362D01*
X022045D01*
Y022360D01*
X022916D01*
Y022554D01*
X023116Y022594D01*
X023123Y022576D01*
X023193Y022485D01*
X023284Y022415D01*
X023390Y022371D01*
X023484Y022359D01*
X023614Y022228D01*
Y021994D01*
X023555Y021948D01*
X023470Y021837D01*
X023416Y021707D01*
X023397Y021567D01*
X023416Y021427D01*
X023470Y021297D01*
X023474Y021292D01*
X022252Y020071D01*
X022201Y020004D01*
X022169Y019926D01*
X022158Y019843D01*
Y017994D01*
X022099Y017948D01*
X022013Y017837D01*
X021959Y017707D01*
X021941Y017567D01*
X021959Y017427D01*
X022013Y017297D01*
X022099Y017185D01*
X022211Y017100D01*
X022341Y017046D01*
X022480Y017027D01*
X022620Y017046D01*
X022750Y017100D01*
X022862Y017185D01*
X022948Y017297D01*
X023002Y017427D01*
X023020Y017567D01*
X023002Y017707D01*
X022948Y017837D01*
X022862Y017948D01*
X022803Y017994D01*
Y019709D01*
X024165Y021071D01*
X024178Y021088D01*
X024207Y021100D01*
X024319Y021185D01*
X024404Y021297D01*
X024458Y021427D01*
X024477Y021567D01*
X024458Y021707D01*
X024404Y021837D01*
X024319Y021948D01*
X024260Y021994D01*
Y022218D01*
X024331Y022289D01*
X024459Y022365D01*
X024528Y022356D01*
X024556Y022360D01*
X025869D01*
Y022554D01*
X026069Y022594D01*
X026076Y022576D01*
X026146Y022485D01*
X026237Y022415D01*
X026343Y022371D01*
X026437Y022359D01*
X026567Y022228D01*
Y021994D01*
X026508Y021948D01*
X026422Y021837D01*
X026369Y021707D01*
X026350Y021567D01*
X026369Y021427D01*
X026402Y021347D01*
X025205Y020150D01*
X025154Y020083D01*
X025121Y020005D01*
X025110Y019921D01*
Y017994D01*
X025052Y017949D01*
X024966Y017837D01*
X024912Y017707D01*
X024894Y017567D01*
X024912Y017427D01*
X024966Y017297D01*
X025052Y017185D01*
X025163Y017100D01*
X025293Y017046D01*
X025433Y017027D01*
X025573Y017046D01*
X025703Y017100D01*
X025815Y017185D01*
X025900Y017297D01*
X025954Y017427D01*
X025973Y017567D01*
X025954Y017707D01*
X025900Y017837D01*
X025815Y017949D01*
X025756Y017994D01*
Y019788D01*
X027012Y021043D01*
X027029Y021046D01*
X027160Y021100D01*
X027271Y021185D01*
X027357Y021297D01*
X027411Y021427D01*
X027429Y021567D01*
X027411Y021707D01*
X027357Y021837D01*
X027271Y021948D01*
X027213Y021994D01*
Y022218D01*
X027284Y022289D01*
X027411Y022365D01*
X027480Y022356D01*
X027528Y022362D01*
X027950D01*
Y022360D01*
X028821D01*
Y022554D01*
X029021Y022594D01*
X029029Y022576D01*
X029099Y022485D01*
X029190Y022415D01*
X029296Y022371D01*
X029390Y022359D01*
X029559Y022189D01*
Y021994D01*
X029500Y021948D01*
X029415Y021837D01*
X029361Y021707D01*
X029342Y021567D01*
X029361Y021427D01*
X029383Y021374D01*
X028197Y020189D01*
X028146Y020122D01*
X028113Y020044D01*
X028102Y019961D01*
Y017994D01*
X028044Y017948D01*
X027958Y017837D01*
X027904Y017707D01*
X027886Y017567D01*
X027904Y017427D01*
X027958Y017297D01*
X028044Y017185D01*
X028155Y017100D01*
X028286Y017046D01*
X028425Y017027D01*
X028565Y017046D01*
X028695Y017100D01*
X028807Y017185D01*
X028893Y017297D01*
X028946Y017427D01*
X028965Y017567D01*
X028946Y017707D01*
X028893Y017837D01*
X028807Y017948D01*
X028748Y017994D01*
Y019827D01*
X029958Y021037D01*
X030022Y021046D01*
X030152Y021100D01*
X030264Y021185D01*
X030349Y021297D01*
X030403Y021427D01*
X030422Y021567D01*
X030403Y021707D01*
X030349Y021837D01*
X030264Y021948D01*
X030205Y021994D01*
Y022202D01*
X030235Y022246D01*
X030381Y022356D01*
X030402Y022360D01*
X030433Y022356D01*
X030547Y022371D01*
X030653Y022415D01*
X030744Y022485D01*
X030793Y022548D01*
X030893Y022539D01*
X030993Y022493D01*
Y019297D01*
X031010Y019211D01*
X031058Y019138D01*
X031635Y018562D01*
X031708Y018513D01*
X031794Y018496D01*
X032124D01*
X032147Y018466D01*
X032222Y018409D01*
X032308Y018373D01*
X032402Y018361D01*
X032795D01*
X032888Y018373D01*
X032975Y018409D01*
X033050Y018466D01*
X033107Y018541D01*
X033108Y018543D01*
X034445D01*
X034623Y018720D01*
X034648Y018701D01*
X034759Y018655D01*
X034878Y018639D01*
X034997Y018655D01*
X035108Y018701D01*
X035203Y018774D01*
X035268Y018859D01*
X035337Y018869D01*
X035419D01*
X035488Y018859D01*
X035553Y018774D01*
X035648Y018701D01*
X035759Y018655D01*
X035878Y018639D01*
X035997Y018655D01*
X036108Y018701D01*
X036203Y018774D01*
X036268Y018859D01*
X036337Y018869D01*
X036419D01*
X036488Y018859D01*
X036553Y018774D01*
X036648Y018701D01*
X036759Y018655D01*
X036878Y018639D01*
X036997Y018655D01*
X037108Y018701D01*
X037203Y018774D01*
X037268Y018859D01*
X037337Y018869D01*
X037419D01*
X037488Y018859D01*
X037553Y018774D01*
X037648Y018701D01*
X037759Y018655D01*
X037878Y018639D01*
X037997Y018655D01*
X038108Y018701D01*
X038203Y018774D01*
X038268Y018859D01*
X038337Y018869D01*
X038419D01*
X038488Y018859D01*
X038553Y018774D01*
X038648Y018701D01*
X038759Y018655D01*
X038878Y018639D01*
X038997Y018655D01*
X039108Y018701D01*
X039203Y018774D01*
X039268Y018859D01*
X039337Y018869D01*
X039419D01*
X039488Y018859D01*
X039553Y018774D01*
X039648Y018701D01*
X039759Y018655D01*
X039878Y018639D01*
X039997Y018655D01*
X040108Y018701D01*
X040203Y018774D01*
X040276Y018869D01*
X040322Y018980D01*
X040337Y019098D01*
X040333Y019129D01*
X040706Y019502D01*
X041361D01*
X041432Y019398D01*
X041469Y019302D01*
X041434Y019217D01*
X041419Y019098D01*
X041434Y018980D01*
X041480Y018869D01*
X041553Y018774D01*
X041486Y018573D01*
X041302Y018389D01*
X041302Y018389D01*
X041302Y018389D01*
X041142Y018228D01*
X040963Y018177D01*
X034331D01*
X034245Y018160D01*
X034172Y018111D01*
X033351Y017290D01*
X033209Y017322D01*
X033135Y017357D01*
X033107Y017424D01*
X033050Y017499D01*
X032975Y017556D01*
X032888Y017592D01*
X032795Y017604D01*
X032402D01*
X032308Y017592D01*
X032222Y017556D01*
X032147Y017499D01*
X032090Y017424D01*
X032054Y017337D01*
X032042Y017244D01*
X032054Y017151D01*
X032090Y017064D01*
X032147Y016990D01*
X032087Y016784D01*
X032080Y016782D01*
X032007Y016733D01*
X031623Y016350D01*
X031442Y016302D01*
X031349Y016344D01*
X031332Y016357D01*
X031279Y016436D01*
X030370Y017346D01*
X030403Y017427D01*
X030422Y017567D01*
X030403Y017707D01*
X030349Y017837D01*
X030264Y017948D01*
X030152Y018034D01*
X030022Y018088D01*
X029882Y018107D01*
X029742Y018088D01*
X029612Y018034D01*
X029500Y017948D01*
X029415Y017837D01*
X029361Y017707D01*
X029342Y017567D01*
X029361Y017427D01*
X029415Y017297D01*
X029500Y017185D01*
X029612Y017100D01*
X029742Y017046D01*
X029882Y017027D01*
X029970Y017039D01*
X030590Y016419D01*
X030494Y016232D01*
X030430Y016242D01*
X030389Y016295D01*
X030298Y016365D01*
X030192Y016409D01*
X030079Y016424D01*
X029965Y016409D01*
X029859Y016365D01*
X029768Y016295D01*
X029698Y016204D01*
X029654Y016098D01*
X029639Y015984D01*
X029654Y015871D01*
X029698Y015765D01*
X029756Y015689D01*
Y015252D01*
X029658Y015177D01*
X029572Y015065D01*
X029518Y014935D01*
X029500Y014795D01*
X029518Y014656D01*
X029572Y014525D01*
X029658Y014414D01*
X029770Y014328D01*
X029784Y014322D01*
X029744Y014122D01*
X027382D01*
X027342Y014322D01*
X027356Y014328D01*
X027468Y014414D01*
X027554Y014525D01*
X027608Y014656D01*
X027626Y014795D01*
X027608Y014935D01*
X027554Y015065D01*
X027468Y015177D01*
X027449Y015192D01*
Y015689D01*
X027506Y015765D01*
X027534Y015832D01*
X027608Y015847D01*
X027668D01*
X027741Y015832D01*
X027769Y015765D01*
X027839Y015674D01*
X027930Y015604D01*
X028036Y015560D01*
X028150Y015545D01*
X028263Y015560D01*
X028369Y015604D01*
X028460Y015674D01*
X028530Y015765D01*
X028574Y015871D01*
X028589Y015984D01*
X028574Y016098D01*
X028530Y016204D01*
X028460Y016295D01*
X028391Y016348D01*
X028380Y016403D01*
X028326Y016484D01*
X027403Y017407D01*
X027411Y017427D01*
X027429Y017567D01*
X027411Y017707D01*
X027357Y017837D01*
X027271Y017948D01*
X027160Y018034D01*
X027029Y018088D01*
X026890Y018107D01*
X026750Y018088D01*
X026620Y018034D01*
X026508Y017948D01*
X026422Y017837D01*
X026369Y017707D01*
X026350Y017567D01*
X026369Y017427D01*
X026422Y017297D01*
X026508Y017185D01*
X026620Y017100D01*
X026750Y017046D01*
X026890Y017027D01*
X027029Y017046D01*
X027049Y017054D01*
X027787Y016316D01*
X027719Y016166D01*
X027519Y016174D01*
X027506Y016204D01*
X027437Y016295D01*
X027346Y016365D01*
X027240Y016409D01*
X027126Y016424D01*
X027012Y016409D01*
X026906Y016365D01*
X026815Y016295D01*
X026746Y016204D01*
X026702Y016098D01*
X026687Y015984D01*
X026702Y015871D01*
X026746Y015765D01*
X026803Y015689D01*
Y015252D01*
X026705Y015177D01*
X026619Y015065D01*
X026565Y014935D01*
X026547Y014795D01*
X026565Y014656D01*
X026619Y014525D01*
X026705Y014414D01*
X026817Y014328D01*
X026831Y014322D01*
X026792Y014122D01*
X024508D01*
X024468Y014322D01*
X024482Y014328D01*
X024594Y014414D01*
X024680Y014525D01*
X024734Y014656D01*
X024752Y014795D01*
X024734Y014935D01*
X024680Y015065D01*
X024594Y015177D01*
X024496Y015252D01*
Y015689D01*
X024554Y015765D01*
X024582Y015832D01*
X024655Y015847D01*
X024715D01*
X024789Y015832D01*
X024816Y015765D01*
X024886Y015674D01*
X024977Y015604D01*
X025083Y015560D01*
X025197Y015545D01*
X025311Y015560D01*
X025417Y015604D01*
X025508Y015674D01*
X025577Y015765D01*
X025621Y015871D01*
X025636Y015984D01*
X025621Y016098D01*
X025577Y016204D01*
X025508Y016295D01*
X025439Y016348D01*
X025431Y016387D01*
X025428Y016403D01*
X025373Y016484D01*
X024450Y017407D01*
X024458Y017427D01*
X024477Y017567D01*
X024458Y017707D01*
X024404Y017837D01*
X024319Y017948D01*
X024207Y018034D01*
X024077Y018088D01*
X023937Y018107D01*
X023797Y018088D01*
X023667Y018034D01*
X023555Y017948D01*
X023470Y017837D01*
X023416Y017707D01*
X023397Y017567D01*
X023416Y017427D01*
X023470Y017297D01*
X023555Y017185D01*
X023667Y017100D01*
X023797Y017046D01*
X023937Y017027D01*
X024077Y017046D01*
X024097Y017054D01*
X024835Y016316D01*
X024766Y016166D01*
X024566Y016174D01*
X024554Y016204D01*
X024484Y016295D01*
X024393Y016365D01*
X024287Y016409D01*
X024173Y016424D01*
X024060Y016409D01*
X023954Y016365D01*
X023863Y016295D01*
X023793Y016204D01*
X023749Y016098D01*
X023734Y015984D01*
X023749Y015871D01*
X023793Y015765D01*
X023850Y015689D01*
Y015192D01*
X023831Y015177D01*
X023745Y015065D01*
X023691Y014935D01*
X023673Y014795D01*
X023691Y014656D01*
X023745Y014525D01*
X023831Y014414D01*
X023943Y014328D01*
X023957Y014322D01*
X023918Y014122D01*
X021516D01*
X021476Y014322D01*
X021490Y014328D01*
X021602Y014414D01*
X021688Y014525D01*
X021742Y014656D01*
X021760Y014795D01*
X021742Y014935D01*
X021688Y015065D01*
X021602Y015177D01*
X021543Y015222D01*
Y015689D01*
X021601Y015765D01*
X021629Y015832D01*
X021702Y015847D01*
X021763D01*
X021836Y015832D01*
X021864Y015765D01*
X021933Y015674D01*
X022024Y015604D01*
X022130Y015560D01*
X022244Y015545D01*
X022358Y015560D01*
X022464Y015604D01*
X022555Y015674D01*
X022625Y015765D01*
X022668Y015871D01*
X022683Y015984D01*
X022668Y016098D01*
X022625Y016204D01*
X022555Y016295D01*
X022486Y016348D01*
X022475Y016403D01*
X022421Y016484D01*
X021497Y017407D01*
X021506Y017427D01*
X021524Y017567D01*
X021506Y017707D01*
X021452Y017837D01*
X021366Y017948D01*
X021254Y018034D01*
X021124Y018088D01*
X020984Y018107D01*
X020845Y018088D01*
X020714Y018034D01*
X020603Y017948D01*
X020517Y017837D01*
X020463Y017707D01*
X020445Y017567D01*
X020463Y017427D01*
X020517Y017297D01*
X020603Y017185D01*
X020714Y017100D01*
X020845Y017046D01*
X020984Y017027D01*
X021124Y017046D01*
X021144Y017054D01*
X021882Y016316D01*
X021814Y016166D01*
X021613Y016174D01*
X021601Y016204D01*
X021531Y016295D01*
X021440Y016365D01*
X021334Y016409D01*
X021220Y016424D01*
X021107Y016409D01*
X021001Y016365D01*
X020910Y016295D01*
X020840Y016204D01*
X020796Y016098D01*
X020781Y015984D01*
X020796Y015871D01*
X020840Y015765D01*
X020898Y015689D01*
Y015222D01*
X020839Y015177D01*
X020753Y015065D01*
X020699Y014935D01*
X020681Y014795D01*
X020699Y014656D01*
X020753Y014525D01*
X020839Y014414D01*
X020951Y014328D01*
X020965Y014322D01*
X020925Y014122D01*
X018602D01*
X018562Y014322D01*
X018577Y014328D01*
X018689Y014414D01*
X018774Y014525D01*
X018828Y014656D01*
X018847Y014795D01*
X018828Y014935D01*
X018774Y015065D01*
X018689Y015177D01*
X018591Y015252D01*
Y015704D01*
X018649Y015779D01*
X018677Y015846D01*
X018750Y015861D01*
X018810D01*
X018884Y015846D01*
X018911Y015779D01*
X018981Y015688D01*
X019072Y015618D01*
X019178Y015575D01*
X019292Y015560D01*
X019406Y015575D01*
X019512Y015618D01*
X019603Y015688D01*
X019672Y015779D01*
X019716Y015885D01*
X019731Y015999D01*
X019716Y016113D01*
X019672Y016219D01*
X019603Y016310D01*
X019512Y016379D01*
X019406Y016423D01*
X019357Y016430D01*
X018440Y017346D01*
X018474Y017427D01*
X018492Y017567D01*
X018474Y017707D01*
X018420Y017837D01*
X018334Y017948D01*
X018223Y018034D01*
X018092Y018088D01*
X017953Y018107D01*
X017813Y018088D01*
X017683Y018034D01*
X017571Y017948D01*
X017485Y017837D01*
X017432Y017707D01*
X017413Y017567D01*
X017432Y017427D01*
X017485Y017297D01*
X017571Y017185D01*
X017683Y017100D01*
X017813Y017046D01*
X017953Y017027D01*
X018041Y017039D01*
X018472Y016607D01*
X018388Y016437D01*
X018372Y016425D01*
X018268Y016438D01*
X018155Y016423D01*
X018049Y016379D01*
X017958Y016310D01*
X017888Y016219D01*
X017844Y016113D01*
X017829Y015999D01*
X017844Y015885D01*
X017888Y015779D01*
X017946Y015704D01*
Y015192D01*
X017926Y015177D01*
X017840Y015065D01*
X017786Y014935D01*
X017767Y014795D01*
X017786Y014656D01*
X017840Y014525D01*
X017926Y014414D01*
X018037Y014328D01*
X018052Y014322D01*
X018012Y014122D01*
X015571D01*
X015531Y014322D01*
X015545Y014328D01*
X015657Y014414D01*
X015743Y014525D01*
X015797Y014656D01*
X015815Y014795D01*
X015797Y014935D01*
X015743Y015065D01*
X015657Y015177D01*
X015599Y015222D01*
Y015704D01*
X015657Y015779D01*
X015685Y015846D01*
X015758Y015861D01*
X015818D01*
X015892Y015846D01*
X015919Y015779D01*
X015989Y015688D01*
X016080Y015618D01*
X016186Y015575D01*
X016300Y015560D01*
X016414Y015575D01*
X016520Y015618D01*
X016611Y015688D01*
X016680Y015779D01*
X016724Y015885D01*
X016739Y015999D01*
X016724Y016113D01*
X016680Y016219D01*
X016611Y016310D01*
X016547Y016358D01*
X016531Y016441D01*
X016476Y016522D01*
X015592Y017407D01*
X015600Y017427D01*
X015618Y017567D01*
X015600Y017707D01*
X015546Y017837D01*
X015460Y017948D01*
X015349Y018034D01*
X015218Y018088D01*
X015079Y018107D01*
X014939Y018088D01*
X014809Y018034D01*
X014697Y017948D01*
X014611Y017837D01*
X014558Y017707D01*
X014539Y017567D01*
X014558Y017427D01*
X014611Y017297D01*
X014697Y017185D01*
X014809Y017100D01*
X014939Y017046D01*
X015079Y017027D01*
X015218Y017046D01*
X015238Y017054D01*
X015968Y016325D01*
X015882Y016149D01*
X015818Y016136D01*
X015758D01*
X015685Y016151D01*
X015657Y016219D01*
X015587Y016310D01*
X015496Y016379D01*
X015390Y016423D01*
X015276Y016438D01*
X015163Y016423D01*
X015057Y016379D01*
X014966Y016310D01*
X014896Y016219D01*
X014852Y016113D01*
X014837Y015999D01*
X014852Y015885D01*
X014896Y015779D01*
X014953Y015704D01*
Y015222D01*
X014894Y015177D01*
X014808Y015065D01*
X014754Y014935D01*
X014736Y014795D01*
X014754Y014656D01*
X014808Y014525D01*
X014894Y014414D01*
X015006Y014328D01*
X015136Y014274D01*
X015217Y014263D01*
X015278Y014075D01*
X015278Y014064D01*
X015267Y014056D01*
X012508Y011298D01*
X012463Y011317D01*
X012323Y011335D01*
X012183Y011317D01*
X012053Y011263D01*
X011941Y011177D01*
X011856Y011065D01*
X011802Y010935D01*
X011783Y010795D01*
X011802Y010656D01*
X011856Y010525D01*
X011941Y010414D01*
X012053Y010328D01*
X012183Y010274D01*
X012323Y010256D01*
X012463Y010274D01*
X012593Y010328D01*
X012704Y010414D01*
X012790Y010525D01*
X012844Y010656D01*
X012862Y010795D01*
X012844Y010935D01*
X012825Y010980D01*
X015518Y013673D01*
X017560D01*
X017608Y013598D01*
X017636Y013473D01*
X015461Y011298D01*
X015415Y011317D01*
X015276Y011335D01*
X015136Y011317D01*
X015006Y011263D01*
X014894Y011177D01*
X014808Y011065D01*
X014754Y010935D01*
X014736Y010795D01*
X014754Y010656D01*
X014808Y010525D01*
X014894Y010414D01*
X015006Y010328D01*
X015136Y010274D01*
X015276Y010256D01*
X015415Y010274D01*
X015545Y010328D01*
X015657Y010414D01*
X015743Y010525D01*
X015797Y010656D01*
X015815Y010795D01*
X015797Y010935D01*
X015778Y010980D01*
X017920Y013122D01*
X030171D01*
X030254Y012922D01*
X029210Y011878D01*
X025071D01*
X024985Y011861D01*
X024912Y011812D01*
X024398Y011298D01*
X024352Y011317D01*
X024213Y011335D01*
X024073Y011317D01*
X023943Y011263D01*
X023831Y011177D01*
X023745Y011065D01*
X023691Y010935D01*
X023673Y010795D01*
X023691Y010656D01*
X023738Y010542D01*
X023714Y010474D01*
X023634Y010342D01*
X021991D01*
X021723Y010610D01*
X021742Y010656D01*
X021760Y010795D01*
X021742Y010935D01*
X021688Y011065D01*
X021602Y011177D01*
X021490Y011263D01*
X021360Y011317D01*
X021221Y011335D01*
X021081Y011317D01*
X020951Y011263D01*
X020839Y011177D01*
X020753Y011065D01*
X020699Y010935D01*
X020681Y010795D01*
X020699Y010656D01*
X020753Y010525D01*
X020839Y010414D01*
X020951Y010328D01*
X021081Y010274D01*
X021221Y010256D01*
X021360Y010274D01*
X021406Y010293D01*
X021589Y010109D01*
X021506Y009909D01*
X019510D01*
X018809Y010610D01*
X018828Y010656D01*
X018847Y010795D01*
X018828Y010935D01*
X018774Y011065D01*
X018689Y011177D01*
X018577Y011263D01*
X018447Y011317D01*
X018307Y011335D01*
X018167Y011317D01*
X018037Y011263D01*
X017926Y011177D01*
X017840Y011065D01*
X017786Y010935D01*
X017767Y010795D01*
X017786Y010656D01*
X017840Y010525D01*
X017926Y010414D01*
X018037Y010328D01*
X018167Y010274D01*
X018307Y010256D01*
X018447Y010274D01*
X018492Y010293D01*
X019073Y009712D01*
X018996Y009528D01*
X010114D01*
X009972Y009669D01*
X009974Y010603D01*
X010174Y010653D01*
X010200Y010605D01*
X010293Y010490D01*
X010408Y010397D01*
X010538Y010327D01*
X010680Y010284D01*
X010827Y010269D01*
X010974Y010284D01*
X011115Y010327D01*
X011246Y010397D01*
X011360Y010490D01*
X011454Y010605D01*
X011524Y010735D01*
X011566Y010876D01*
X011581Y011024D01*
X011566Y011171D01*
X011524Y011312D01*
X011454Y011443D01*
X011360Y011557D01*
X011246Y011651D01*
X011115Y011720D01*
X010974Y011763D01*
X010827Y011778D01*
X010680Y011763D01*
X010538Y011720D01*
X010408Y011651D01*
X010293Y011557D01*
X010200Y011443D01*
X010175Y011396D01*
X009975Y011447D01*
X009985Y017434D01*
X010185Y017447D01*
X010187Y017427D01*
X010241Y017297D01*
X010327Y017185D01*
X010439Y017100D01*
X010569Y017046D01*
X010709Y017027D01*
X010848Y017046D01*
X010979Y017100D01*
X011090Y017185D01*
X011176Y017297D01*
X011230Y017427D01*
X011248Y017567D01*
X011230Y017707D01*
X011176Y017837D01*
X011090Y017949D01*
X011031Y017994D01*
Y020016D01*
X012053Y021037D01*
X012126Y021027D01*
X012266Y021046D01*
X012396Y021100D01*
X012508Y021185D01*
X012593Y021297D01*
X012647Y021427D01*
X012666Y021567D01*
X012647Y021707D01*
X012593Y021837D01*
X012508Y021949D01*
X012449Y021994D01*
Y022218D01*
X012520Y022289D01*
X012648Y022365D01*
X012717Y022356D01*
X012745Y022360D01*
X014058D01*
Y022554D01*
X014258Y022594D01*
X014265Y022576D01*
D02*
G37*
G36*
X051325Y025798D02*
X050436Y024908D01*
X049488D01*
X049418Y024894D01*
X049358Y024854D01*
X048335Y023831D01*
X048295Y023771D01*
X048293Y023759D01*
X048281Y023701D01*
Y022084D01*
X047108Y020911D01*
X046886Y020969D01*
X046852Y021081D01*
X047401Y021630D01*
X047441Y021690D01*
X047444Y021701D01*
X047455Y021760D01*
Y022450D01*
X047541Y022485D01*
X047653Y022571D01*
X047739Y022683D01*
X047793Y022813D01*
X047811Y022953D01*
X047793Y023092D01*
X047739Y023223D01*
X047653Y023334D01*
X047541Y023420D01*
X047411Y023474D01*
X047272Y023492D01*
X047132Y023474D01*
X047002Y023420D01*
X046890Y023334D01*
X046804Y023223D01*
X046750Y023092D01*
X046732Y022953D01*
X046750Y022813D01*
X046804Y022683D01*
X046890Y022571D01*
X047002Y022485D01*
X047088Y022450D01*
Y021836D01*
X046439Y021186D01*
X046433Y021187D01*
X046330Y021173D01*
X046233Y021133D01*
X046150Y021070D01*
X046087Y020987D01*
X046080Y020971D01*
X045433D01*
X045374Y020959D01*
X045363Y020957D01*
X045303Y020917D01*
X045093Y020707D01*
X044908Y020783D01*
Y021184D01*
X044817D01*
Y022450D01*
X044904Y022485D01*
X045015Y022571D01*
X045101Y022683D01*
X045155Y022813D01*
X045173Y022953D01*
X045155Y023092D01*
X045101Y023223D01*
X045015Y023334D01*
X044904Y023420D01*
X044774Y023474D01*
X044634Y023492D01*
X044494Y023474D01*
X044364Y023420D01*
X044252Y023334D01*
X044167Y023223D01*
X044113Y023092D01*
X044094Y022953D01*
X044113Y022813D01*
X044167Y022683D01*
X044252Y022571D01*
X044364Y022485D01*
X044450Y022450D01*
Y021184D01*
X044116D01*
Y020971D01*
X042773D01*
X042690Y021171D01*
X043004Y021484D01*
X043044Y021544D01*
X043046Y021556D01*
X043058Y021614D01*
Y023310D01*
X045745Y025998D01*
X051243D01*
X051325Y025798D01*
D02*
G37*
G36*
X052808Y023044D02*
X053728D01*
Y023059D01*
X055395D01*
X055403Y023039D01*
X055481Y022938D01*
X055582Y022860D01*
X055700Y022811D01*
X055827Y022794D01*
X055953Y022811D01*
X056071Y022860D01*
X056150Y022921D01*
X056241Y022900D01*
X056350Y022841D01*
Y019111D01*
X056303Y019088D01*
X056153Y019049D01*
X056082Y019103D01*
X055970Y019149D01*
X055850Y019165D01*
X055730Y019149D01*
X055618Y019103D01*
X055522Y019029D01*
X055449Y018933D01*
X055402Y018821D01*
X055386Y018701D01*
X055402Y018581D01*
X055449Y018469D01*
X055522Y018373D01*
X055618Y018299D01*
X055730Y018253D01*
X055850Y018237D01*
X055970Y018253D01*
X056082Y018299D01*
X056178Y018373D01*
X056363Y018338D01*
X057764Y016937D01*
X057831Y016886D01*
X057909Y016854D01*
X057992Y016843D01*
X058851D01*
X059155Y016538D01*
X059145Y016465D01*
X059164Y016325D01*
X059218Y016195D01*
X059303Y016083D01*
X059415Y015997D01*
X059545Y015943D01*
X059685Y015925D01*
X059825Y015943D01*
X059955Y015997D01*
X060067Y016083D01*
X060152Y016195D01*
X060206Y016325D01*
X060225Y016465D01*
X060206Y016604D01*
X060152Y016734D01*
X060067Y016846D01*
X059955Y016932D01*
X059825Y016986D01*
X059685Y017004D01*
X059612Y016995D01*
X059212Y017394D01*
X059146Y017445D01*
X059068Y017477D01*
X058984Y017488D01*
X058126D01*
X056798Y018815D01*
X056799Y018819D01*
Y022722D01*
X056999Y022821D01*
X057000Y022820D01*
X057117Y022772D01*
X057244Y022755D01*
X057361Y022770D01*
X057626Y022506D01*
Y019106D01*
X057618Y019103D01*
X057522Y019029D01*
X057449Y018933D01*
X057402Y018821D01*
X057386Y018701D01*
X057402Y018581D01*
X057449Y018469D01*
X057522Y018373D01*
X057618Y018299D01*
X057730Y018253D01*
X057850Y018237D01*
X057970Y018253D01*
X058082Y018299D01*
X058178Y018373D01*
X058252Y018469D01*
X058299Y018581D01*
X058314Y018701D01*
X058299Y018821D01*
X058252Y018933D01*
X058178Y019029D01*
X058082Y019103D01*
X058075Y019106D01*
Y022598D01*
X058058Y022684D01*
X058009Y022757D01*
X057931Y022835D01*
X058008Y023020D01*
X058831D01*
Y022453D01*
X059751D01*
Y022689D01*
X060616D01*
X061179Y022126D01*
X061166Y022101D01*
X061129Y021978D01*
X061116Y021850D01*
X061129Y021723D01*
X061166Y021600D01*
X061227Y021486D01*
X061308Y021387D01*
X061408Y021306D01*
X061521Y021245D01*
X061644Y021208D01*
X061772Y021195D01*
X061899Y021208D01*
X062022Y021245D01*
X062047Y021258D01*
X062574Y020731D01*
Y018046D01*
X062377Y018007D01*
X062316Y018120D01*
X062235Y018219D01*
X062136Y018301D01*
X062022Y018361D01*
X061899Y018399D01*
X061772Y018411D01*
X061644Y018399D01*
X061521Y018361D01*
X061408Y018301D01*
X061308Y018219D01*
X061227Y018120D01*
X061166Y018007D01*
X061129Y017884D01*
X061116Y017756D01*
X061129Y017628D01*
X061166Y017505D01*
X061227Y017392D01*
X061308Y017293D01*
X061408Y017211D01*
X061521Y017150D01*
X061644Y017113D01*
X061772Y017101D01*
X061899Y017113D01*
X062022Y017150D01*
X062136Y017211D01*
X062235Y017293D01*
X062316Y017392D01*
X062377Y017505D01*
X062379Y017512D01*
X062585Y017501D01*
X062591Y017470D01*
X062640Y017397D01*
X064062Y015975D01*
X064032Y015853D01*
X063985Y015770D01*
X063928Y015758D01*
X063855Y015710D01*
X063535Y015389D01*
X063515Y015398D01*
X063388Y015414D01*
X063261Y015398D01*
X063144Y015349D01*
X063042Y015271D01*
X062964Y015170D01*
X062916Y015052D01*
X062899Y014925D01*
X062916Y014799D01*
X062924Y014778D01*
X062791Y014646D01*
X062622Y014759D01*
X062622Y014760D01*
X062638Y014882D01*
X062622Y015003D01*
X062576Y015116D01*
X062501Y015214D01*
X062404Y015288D01*
X062291Y015335D01*
X062169Y015351D01*
X062048Y015335D01*
X061935Y015288D01*
X061838Y015214D01*
X061763Y015116D01*
X061716Y015003D01*
X061700Y014882D01*
X061716Y014760D01*
X061763Y014647D01*
X061801Y014598D01*
X061747Y014440D01*
X061712Y014398D01*
X061378D01*
X061292Y014380D01*
X061219Y014332D01*
X060302Y013414D01*
X058280D01*
X058272Y013434D01*
X058194Y013536D01*
X058093Y013613D01*
X057975Y013662D01*
X057867Y013676D01*
X057829Y013731D01*
X057779Y013872D01*
X058008Y014101D01*
X058019Y014097D01*
X058140Y014081D01*
X058261Y014097D01*
X058375Y014144D01*
X058472Y014218D01*
X058546Y014315D01*
X058593Y014429D01*
X058606Y014524D01*
X058676Y014564D01*
X058805Y014592D01*
X058838Y014550D01*
X058935Y014476D01*
X059048Y014429D01*
X059169Y014413D01*
X059291Y014429D01*
X059404Y014476D01*
X059501Y014550D01*
X059576Y014647D01*
X059622Y014760D01*
X059638Y014882D01*
X059622Y015003D01*
X059576Y015116D01*
X059501Y015214D01*
X059404Y015288D01*
X059291Y015335D01*
X059169Y015351D01*
X059048Y015335D01*
X058935Y015288D01*
X058838Y015214D01*
X058763Y015116D01*
X058716Y015003D01*
X058704Y014908D01*
X058633Y014868D01*
X058504Y014840D01*
X058472Y014882D01*
X058375Y014956D01*
X058261Y015003D01*
X058140Y015019D01*
X058019Y015003D01*
X057905Y014956D01*
X057808Y014882D01*
X057734Y014785D01*
X057687Y014671D01*
X057671Y014550D01*
X057687Y014429D01*
X057691Y014418D01*
X056284Y013011D01*
X056084Y013094D01*
Y013830D01*
X056067Y013916D01*
X056019Y013989D01*
X055589Y014418D01*
X055593Y014429D01*
X055609Y014550D01*
X055593Y014671D01*
X055546Y014785D01*
X055472Y014882D01*
X055375Y014956D01*
X055261Y015003D01*
X055140Y015019D01*
X055019Y015003D01*
X054905Y014956D01*
X054873Y014931D01*
X054673Y015017D01*
Y020197D01*
X054656Y020283D01*
X054607Y020355D01*
X054273Y020690D01*
X054301Y020758D01*
X054319Y020898D01*
X054301Y021037D01*
X054247Y021167D01*
X054161Y021279D01*
X054049Y021365D01*
X053919Y021419D01*
X053780Y021437D01*
X053640Y021419D01*
X053510Y021365D01*
X053398Y021279D01*
X053312Y021167D01*
X053258Y021037D01*
X053240Y020898D01*
X053258Y020758D01*
X053312Y020628D01*
X053398Y020516D01*
X053510Y020430D01*
X053640Y020376D01*
X053780Y020358D01*
X053919Y020376D01*
X053942Y020386D01*
X054225Y020104D01*
Y017483D01*
X054117Y017410D01*
X054025Y017375D01*
X053919Y017419D01*
X053780Y017437D01*
X053640Y017419D01*
X053510Y017365D01*
X053398Y017279D01*
X053312Y017167D01*
X053258Y017037D01*
X053240Y016898D01*
X053258Y016758D01*
X053312Y016628D01*
X053398Y016516D01*
X053510Y016430D01*
X053640Y016376D01*
X053780Y016358D01*
X053919Y016376D01*
X054025Y016420D01*
X054117Y016385D01*
X054225Y016313D01*
Y013676D01*
X052452Y011903D01*
X052403Y011830D01*
X052386Y011744D01*
Y010894D01*
X052403Y010808D01*
X052452Y010735D01*
X053306Y009881D01*
X053379Y009832D01*
X053465Y009815D01*
X061079D01*
X061165Y009832D01*
X061238Y009881D01*
X061605Y010248D01*
X061629Y010235D01*
X061752Y010197D01*
X061880Y010185D01*
X062008Y010197D01*
X062131Y010235D01*
X062244Y010295D01*
X062343Y010377D01*
X062425Y010476D01*
X062485Y010589D01*
X062523Y010712D01*
X062535Y010840D01*
X062523Y010968D01*
X062485Y011091D01*
X062425Y011204D01*
X062343Y011303D01*
X062244Y011385D01*
X062131Y011445D01*
X062008Y011483D01*
X061880Y011495D01*
X061752Y011483D01*
X061629Y011445D01*
X061516Y011385D01*
X061417Y011303D01*
X061335Y011204D01*
X061275Y011091D01*
X061237Y010968D01*
X061225Y010840D01*
X061237Y010712D01*
X061275Y010589D01*
X061288Y010565D01*
X060986Y010264D01*
X059794D01*
X059746Y010339D01*
X059718Y010464D01*
X061945Y012691D01*
X062008Y012697D01*
X062131Y012735D01*
X062244Y012795D01*
X062343Y012877D01*
X062425Y012976D01*
X062485Y013089D01*
X062523Y013212D01*
X062535Y013340D01*
X062523Y013468D01*
X062485Y013591D01*
X062425Y013704D01*
X062388Y013749D01*
X062454Y013926D01*
X062475Y013949D01*
X062636D01*
X062702Y013962D01*
X062740Y013955D01*
X062909Y013852D01*
X062916Y013799D01*
X062964Y013681D01*
X063042Y013579D01*
X063090Y013543D01*
X063106Y013483D01*
Y013368D01*
X063090Y013307D01*
X063042Y013271D01*
X062964Y013170D01*
X062916Y013052D01*
X062899Y012925D01*
X062916Y012799D01*
X062964Y012681D01*
X063042Y012579D01*
X063090Y012543D01*
X063106Y012483D01*
Y012368D01*
X063090Y012307D01*
X063042Y012271D01*
X062964Y012170D01*
X062916Y012052D01*
X062899Y011925D01*
X062916Y011799D01*
X062964Y011681D01*
X063042Y011579D01*
X063144Y011502D01*
X063164Y011493D01*
Y010470D01*
X063181Y010384D01*
X063229Y010312D01*
X063813Y009728D01*
X063731Y009528D01*
X032114D01*
X032037Y009712D01*
X033363Y011038D01*
X033605Y011007D01*
X033691Y010941D01*
X033791Y010900D01*
X033898Y010886D01*
X034005Y010900D01*
X034092Y010936D01*
X034143Y010912D01*
X034272Y010817D01*
X034264Y010756D01*
X034282Y010616D01*
X034336Y010486D01*
X034422Y010374D01*
X034533Y010289D01*
X034663Y010235D01*
X034803Y010216D01*
X034943Y010235D01*
X035073Y010289D01*
X035185Y010374D01*
X035270Y010486D01*
X035324Y010616D01*
X035343Y010756D01*
X035324Y010896D01*
X035270Y011026D01*
X035185Y011137D01*
X035073Y011223D01*
X034943Y011277D01*
X034803Y011296D01*
X034663Y011277D01*
X034533Y011223D01*
X034499Y011197D01*
X034311Y011299D01*
X034297Y011406D01*
X034264Y011485D01*
X034701Y011921D01*
X038425D01*
X038509Y011932D01*
X038587Y011965D01*
X038653Y012016D01*
X038868Y012231D01*
X038926Y012238D01*
X039026Y012280D01*
X039111Y012345D01*
X039177Y012431D01*
X039218Y012531D01*
X039232Y012638D01*
X039218Y012745D01*
X039177Y012845D01*
X039111Y012930D01*
X039026Y012996D01*
X038968Y013020D01*
X038888Y013175D01*
X038872Y013236D01*
X038872Y013237D01*
X038964Y013320D01*
X041772D01*
X041830Y013332D01*
X041842Y013334D01*
X041901Y013374D01*
X043895Y015368D01*
X044331D01*
X044389Y015379D01*
X044401Y015382D01*
X044460Y015421D01*
X044713Y015674D01*
X044759Y015655D01*
X044878Y015639D01*
X044997Y015655D01*
X045108Y015701D01*
X045203Y015774D01*
X045268Y015859D01*
X045337Y015869D01*
X045419D01*
X045488Y015859D01*
X045553Y015774D01*
X045648Y015701D01*
X045759Y015655D01*
X045878Y015639D01*
X045997Y015655D01*
X046108Y015701D01*
X046203Y015774D01*
X046268Y015859D01*
X046337Y015869D01*
X046419D01*
X046488Y015859D01*
X046553Y015774D01*
X046648Y015701D01*
X046759Y015655D01*
X046878Y015639D01*
X047056Y015481D01*
X047059Y015470D01*
Y015242D01*
X047014Y015223D01*
X046902Y015137D01*
X046816Y015026D01*
X046762Y014896D01*
X046744Y014756D01*
X046762Y014616D01*
X046816Y014486D01*
X046902Y014374D01*
X047014Y014289D01*
X047059Y014270D01*
Y012812D01*
X046047Y011799D01*
X043898D01*
X043812Y011782D01*
X043739Y011733D01*
X042920Y010915D01*
X042831Y010951D01*
X042713Y010967D01*
X042594Y010951D01*
X042483Y010906D01*
X042388Y010833D01*
X042315Y010737D01*
X042269Y010627D01*
X042253Y010508D01*
X042269Y010389D01*
X042315Y010278D01*
X042388Y010183D01*
X042483Y010110D01*
X042594Y010064D01*
X042713Y010049D01*
X042831Y010064D01*
X042942Y010110D01*
X043037Y010183D01*
X043103Y010268D01*
X043172Y010278D01*
X043253D01*
X043323Y010268D01*
X043388Y010183D01*
X043483Y010110D01*
X043594Y010064D01*
X043713Y010049D01*
X043831Y010064D01*
X043942Y010110D01*
X044037Y010183D01*
X044103Y010268D01*
X044172Y010278D01*
X044253D01*
X044323Y010268D01*
X044388Y010183D01*
X044483Y010110D01*
X044594Y010064D01*
X044713Y010049D01*
X044831Y010064D01*
X044848Y010071D01*
X045117Y009802D01*
X045190Y009753D01*
X045276Y009736D01*
X049244D01*
X049330Y009753D01*
X049403Y009802D01*
X049854Y010254D01*
X049900Y010235D01*
X050039Y010216D01*
X050179Y010235D01*
X050309Y010289D01*
X050421Y010374D01*
X050507Y010486D01*
X050561Y010616D01*
X050579Y010756D01*
X050561Y010896D01*
X050507Y011026D01*
X050421Y011137D01*
X050309Y011223D01*
X050179Y011277D01*
X050039Y011296D01*
X049900Y011277D01*
X049770Y011223D01*
X049658Y011137D01*
X049572Y011026D01*
X049518Y010896D01*
X049500Y010756D01*
X049518Y010616D01*
X049537Y010571D01*
X049285Y010319D01*
X049254Y010321D01*
X049201Y010391D01*
X049147Y010530D01*
X049183Y010616D01*
X049201Y010756D01*
X049183Y010896D01*
X049164Y010941D01*
X050198Y011975D01*
X050247Y012048D01*
X050264Y012134D01*
Y014270D01*
X050309Y014289D01*
X050421Y014374D01*
X050507Y014486D01*
X050561Y014616D01*
X050579Y014756D01*
X050561Y014896D01*
X050507Y015026D01*
X050421Y015137D01*
X050309Y015223D01*
X050264Y015242D01*
Y015756D01*
X050247Y015842D01*
X050198Y015914D01*
X050030Y016083D01*
X050049Y016128D01*
X050067Y016268D01*
X050049Y016407D01*
X050000Y016525D01*
Y016614D01*
X049724Y016890D01*
Y017244D01*
Y017835D01*
Y018504D01*
X049764Y019409D01*
X050236Y019882D01*
X050265Y020085D01*
X050474Y020129D01*
X050495Y020101D01*
X050581Y020036D01*
X050680Y019994D01*
X050787Y019980D01*
X050894Y019994D01*
X050994Y020036D01*
X051080Y020101D01*
X051146Y020187D01*
X051187Y020287D01*
X051201Y020394D01*
X051187Y020501D01*
X051146Y020600D01*
X051080Y020686D01*
X050994Y020752D01*
X050894Y020793D01*
X050787Y020807D01*
X050680Y020793D01*
X050657Y020784D01*
X050366Y021075D01*
X050306Y021114D01*
X050295Y021117D01*
X050236Y021128D01*
X049387D01*
X049304Y021328D01*
X049618Y021642D01*
X049658Y021701D01*
X049660Y021713D01*
X049672Y021772D01*
Y022414D01*
X050539D01*
Y023017D01*
X050802Y023280D01*
X052808D01*
Y023044D01*
D02*
G37*
G36*
X056654Y018937D02*
X056732Y018661D01*
X056535Y018858D01*
X056299D01*
X056417Y018976D01*
X056496Y019055D01*
X056575D01*
X056654Y018937D01*
D02*
G37*
G36*
X072515Y033776D02*
X072491Y033761D01*
X072443Y033688D01*
X072426Y033602D01*
X072443Y033516D01*
X072491Y033444D01*
X073791Y032144D01*
Y031456D01*
X073769Y031444D01*
X073533Y031497D01*
X073451Y031604D01*
X073345Y031685D01*
X073221Y031737D01*
X073087Y031754D01*
X072213D01*
X072079Y031737D01*
X071955Y031685D01*
X071849Y031604D01*
X071767Y031497D01*
X071716Y031373D01*
X071698Y031240D01*
X071716Y031107D01*
X071767Y030983D01*
X071841Y030887D01*
X071536Y030583D01*
X069959D01*
X069952Y030592D01*
X069855Y030666D01*
X069741Y030713D01*
X069620Y030729D01*
X069609Y030728D01*
X068368Y031968D01*
X068301Y032020D01*
X068223Y032052D01*
X068140Y032063D01*
X062864D01*
Y032294D01*
X061756D01*
Y031186D01*
X061596Y031090D01*
X060866D01*
Y031722D01*
X060868Y031740D01*
X060849Y031885D01*
X060794Y032019D01*
X060705Y032135D01*
X060589Y032224D01*
X060455Y032279D01*
X060310Y032299D01*
X060165Y032279D01*
X060031Y032224D01*
X059915Y032135D01*
X059826Y032019D01*
X059771Y031885D01*
X059752Y031740D01*
X059771Y031595D01*
X059826Y031461D01*
X059915Y031345D01*
X059986Y031290D01*
X059937Y031093D01*
X059935Y031090D01*
X056160D01*
X055972Y031118D01*
X055972Y031290D01*
Y032068D01*
X055022D01*
Y032017D01*
X054882Y031953D01*
X054822Y031942D01*
X054736Y032008D01*
X054621Y032056D01*
X054497Y032072D01*
X054373Y032056D01*
X054257Y032008D01*
X054158Y031932D01*
X054082Y031832D01*
X054034Y031717D01*
X054018Y031593D01*
X054034Y031469D01*
X054082Y031353D01*
X054158Y031254D01*
X054257Y031178D01*
X054272Y031172D01*
Y031094D01*
X054290Y031008D01*
X054338Y030935D01*
X054566Y030708D01*
X054639Y030659D01*
X054724Y030642D01*
X068040D01*
X068617Y030064D01*
X068606Y029999D01*
X068530Y029869D01*
X044321D01*
X044261Y030069D01*
X044274Y030078D01*
X044721Y030524D01*
X044766Y030506D01*
X044906Y030487D01*
X045046Y030506D01*
X045176Y030559D01*
X045288Y030645D01*
X045373Y030757D01*
X045427Y030887D01*
X045446Y031027D01*
X045427Y031166D01*
X045373Y031297D01*
X045288Y031408D01*
X045176Y031494D01*
X045046Y031548D01*
X044906Y031566D01*
X044766Y031548D01*
X044636Y031494D01*
X044524Y031408D01*
X044439Y031297D01*
X044385Y031166D01*
X044366Y031027D01*
X044385Y030887D01*
X044404Y030842D01*
X044023Y030461D01*
X041376D01*
X041312Y030594D01*
X041299Y030661D01*
X041373Y030757D01*
X041427Y030887D01*
X041446Y031027D01*
X041427Y031166D01*
X041373Y031297D01*
X041288Y031408D01*
X041176Y031494D01*
X041046Y031548D01*
X040906Y031566D01*
X040766Y031548D01*
X040636Y031494D01*
X040524Y031408D01*
X040439Y031297D01*
X040420Y031251D01*
X039684D01*
X039665Y031296D01*
X039579Y031408D01*
X039467Y031494D01*
X039337Y031548D01*
X039197Y031566D01*
X039058Y031548D01*
X039012Y031529D01*
X038879Y031662D01*
X038962Y031862D01*
X039685D01*
X039771Y031879D01*
X039844Y031928D01*
X040531Y032616D01*
X040564Y032614D01*
X040676Y032528D01*
X040806Y032474D01*
X040945Y032456D01*
X041085Y032474D01*
X041215Y032528D01*
X041327Y032614D01*
X041413Y032725D01*
X041467Y032856D01*
X041485Y032995D01*
X041467Y033135D01*
X041413Y033265D01*
X041327Y033377D01*
X041215Y033463D01*
X041085Y033516D01*
X040945Y033535D01*
X040806Y033516D01*
X040676Y033463D01*
X040564Y033377D01*
X040478Y033265D01*
X040430Y033149D01*
X039592Y032311D01*
X039332D01*
X039319Y032511D01*
X039337Y032513D01*
X039467Y032567D01*
X039579Y032653D01*
X039665Y032765D01*
X039719Y032895D01*
X039737Y033035D01*
X039719Y033174D01*
X039665Y033304D01*
X039579Y033416D01*
X039467Y033502D01*
X039337Y033556D01*
X039197Y033574D01*
X039058Y033556D01*
X038928Y033502D01*
X038816Y033416D01*
X038730Y033304D01*
X038676Y033174D01*
X038658Y033035D01*
X038676Y032895D01*
X038695Y032849D01*
X038511Y032665D01*
X030157D01*
Y033976D01*
X072456Y033976D01*
X072515Y033776D01*
D02*
G37*
G36*
X014369Y030078D02*
X014442Y030029D01*
X014528Y030012D01*
X034490D01*
X034552Y029824D01*
X034552Y029812D01*
X033138Y028397D01*
X033098Y028338D01*
X033096Y028326D01*
X033084Y028268D01*
Y023130D01*
X032891Y023011D01*
X032783Y023075D01*
Y023386D01*
X032766Y023472D01*
X032718Y023544D01*
X031881Y024381D01*
X031893Y024452D01*
X032079Y024591D01*
X032199Y024575D01*
X032319Y024591D01*
X032431Y024638D01*
X032527Y024711D01*
X032601Y024807D01*
X032647Y024919D01*
X032663Y025039D01*
X032647Y025159D01*
X032601Y025271D01*
X032527Y025367D01*
X032431Y025441D01*
X032319Y025488D01*
X032199Y025503D01*
X032079Y025488D01*
X031967Y025441D01*
X031960Y025436D01*
X031760Y025534D01*
Y026102D01*
X031743Y026188D01*
X031694Y026261D01*
X030277Y027678D01*
X030204Y027727D01*
X030118Y027744D01*
X019291D01*
X019205Y027727D01*
X019133Y027678D01*
X018789Y027334D01*
X018716D01*
X018635Y027324D01*
X018560Y027292D01*
X018495Y027243D01*
X018483Y027227D01*
X018414Y027210D01*
X018319D01*
X018249Y027227D01*
X018237Y027243D01*
X018172Y027292D01*
X018097Y027324D01*
X018016Y027334D01*
X017716D01*
X017635Y027324D01*
X017560Y027292D01*
X017495Y027243D01*
X017483Y027227D01*
X017414Y027210D01*
X017319D01*
X017249Y027227D01*
X017237Y027243D01*
X017172Y027292D01*
X017097Y027324D01*
X017016Y027334D01*
X016716D01*
X016635Y027324D01*
X016560Y027292D01*
X016495Y027243D01*
X016483Y027227D01*
X016414Y027210D01*
X016319D01*
X016249Y027227D01*
X016237Y027243D01*
X016172Y027292D01*
X016097Y027324D01*
X016016Y027334D01*
X015716D01*
X015635Y027324D01*
X015560Y027292D01*
X015495Y027243D01*
X015483Y027227D01*
X015414Y027210D01*
X015319D01*
X015249Y027227D01*
X015237Y027243D01*
X015172Y027292D01*
X015097Y027324D01*
X015016Y027334D01*
X014716D01*
X014635Y027324D01*
X014560Y027292D01*
X014495Y027243D01*
X014483Y027227D01*
X014414Y027210D01*
X014319D01*
X014249Y027227D01*
X014237Y027243D01*
X014172Y027292D01*
X014097Y027324D01*
X014016Y027334D01*
X013716D01*
X013635Y027324D01*
X013560Y027292D01*
X013495Y027243D01*
X013483Y027227D01*
X013414Y027210D01*
X013319D01*
X013249Y027227D01*
X013237Y027243D01*
X013172Y027292D01*
X013097Y027324D01*
X013016Y027334D01*
X012716D01*
X012635Y027324D01*
X012560Y027292D01*
X012495Y027243D01*
X012483Y027227D01*
X012414Y027210D01*
X012319D01*
X012249Y027227D01*
X012237Y027243D01*
X012172Y027292D01*
X012097Y027324D01*
X012016Y027334D01*
X011716D01*
X011635Y027324D01*
X011560Y027292D01*
X011495Y027243D01*
X011445Y027178D01*
X011414Y027103D01*
X011403Y027022D01*
Y026522D01*
X011414Y026441D01*
X011445Y026365D01*
X011495Y026301D01*
X011560Y026251D01*
X011635Y026220D01*
X011716Y026209D01*
X012016D01*
X012097Y026220D01*
X012172Y026251D01*
X012237Y026301D01*
X012249Y026316D01*
X012319Y026334D01*
X012414D01*
X012483Y026316D01*
X012495Y026301D01*
X012560Y026251D01*
X012635Y026220D01*
X012716Y026209D01*
X013016D01*
X013097Y026220D01*
X013172Y026251D01*
X013237Y026301D01*
X013249Y026316D01*
X013319Y026334D01*
X013414D01*
X013483Y026316D01*
X013495Y026301D01*
X013560Y026251D01*
X013635Y026220D01*
X013716Y026209D01*
X014016D01*
X014097Y026220D01*
X014172Y026251D01*
X014237Y026301D01*
X014249Y026316D01*
X014319Y026334D01*
X014414D01*
X014483Y026316D01*
X014495Y026301D01*
X014560Y026251D01*
X014635Y026220D01*
X014716Y026209D01*
X015016D01*
X015097Y026220D01*
X015172Y026251D01*
X015237Y026301D01*
X015249Y026316D01*
X015319Y026334D01*
X015414D01*
X015483Y026316D01*
X015495Y026301D01*
X015560Y026251D01*
X015635Y026220D01*
X015716Y026209D01*
X016016D01*
X016097Y026220D01*
X016172Y026251D01*
X016237Y026301D01*
X016249Y026316D01*
X016319Y026334D01*
X016414D01*
X016483Y026316D01*
X016495Y026301D01*
X016560Y026251D01*
X016635Y026220D01*
X016716Y026209D01*
X017016D01*
X017097Y026220D01*
X017172Y026251D01*
X017237Y026301D01*
X017249Y026316D01*
X017319Y026334D01*
X017414D01*
X017483Y026316D01*
X017495Y026301D01*
X017560Y026251D01*
X017635Y026220D01*
X017716Y026209D01*
X018016D01*
X018097Y026220D01*
X018172Y026251D01*
X018237Y026301D01*
X018249Y026316D01*
X018319Y026334D01*
X018414D01*
X018483Y026316D01*
X018495Y026301D01*
X018560Y026251D01*
X018635Y026220D01*
X018716Y026209D01*
X019016D01*
X019097Y026220D01*
X019172Y026251D01*
X019237Y026301D01*
X019249Y026316D01*
X019319Y026334D01*
X019414D01*
X019483Y026316D01*
X019495Y026301D01*
X019560Y026251D01*
X019635Y026220D01*
X019642Y026219D01*
Y026039D01*
X019659Y025954D01*
X019708Y025881D01*
X019929Y025659D01*
X019825Y025493D01*
X019817Y025488D01*
X019701Y025503D01*
X019581Y025488D01*
X019469Y025441D01*
X019373Y025367D01*
X019299Y025271D01*
X019253Y025159D01*
X019237Y025039D01*
X019253Y024919D01*
X019299Y024807D01*
X019373Y024711D01*
X019469Y024638D01*
X019581Y024591D01*
X019701Y024575D01*
X019821Y024591D01*
X019933Y024638D01*
X020029Y024711D01*
X020103Y024807D01*
X020149Y024919D01*
X020165Y025039D01*
X020149Y025159D01*
X020103Y025271D01*
X020077Y025304D01*
X020190Y025486D01*
X020197Y025484D01*
X021236D01*
X021335Y025284D01*
X021325Y025271D01*
X021278Y025159D01*
X021262Y025039D01*
X021278Y024919D01*
X021325Y024807D01*
X021398Y024711D01*
X021494Y024638D01*
X021606Y024591D01*
X021726Y024575D01*
X021846Y024591D01*
X021958Y024638D01*
X022054Y024711D01*
X022128Y024807D01*
X022175Y024919D01*
X022190Y025039D01*
X022175Y025159D01*
X022128Y025271D01*
X022118Y025284D01*
X022217Y025484D01*
X028293D01*
X030373Y023404D01*
X030288Y023207D01*
X030213Y023176D01*
X030122Y023106D01*
X030053Y023015D01*
X030025Y022948D01*
X029951Y022933D01*
X029891D01*
X029818Y022948D01*
X029790Y023015D01*
X029720Y023106D01*
X029629Y023176D01*
X029523Y023220D01*
X029409Y023235D01*
X029296Y023220D01*
X029190Y023176D01*
X029099Y023106D01*
X029029Y023015D01*
X029021Y022997D01*
X028821Y023037D01*
Y023231D01*
X027509D01*
X027480Y023235D01*
X027367Y023220D01*
X027261Y023176D01*
X027170Y023106D01*
X027100Y023015D01*
X027072Y022948D01*
X026999Y022933D01*
X026938D01*
X026865Y022948D01*
X026837Y023015D01*
X026767Y023106D01*
X026676Y023176D01*
X026570Y023220D01*
X026457Y023235D01*
X026343Y023220D01*
X026237Y023176D01*
X026146Y023106D01*
X026076Y023015D01*
X026069Y022997D01*
X025869Y023037D01*
Y023231D01*
X025116D01*
X025112Y023235D01*
X024528D01*
X024414Y023220D01*
X024308Y023176D01*
X024217Y023106D01*
X024147Y023015D01*
X024119Y022948D01*
X024046Y022933D01*
X023985D01*
X023912Y022948D01*
X023884Y023015D01*
X023815Y023106D01*
X023724Y023176D01*
X023618Y023220D01*
X023504Y023235D01*
X023390Y023220D01*
X023284Y023176D01*
X023193Y023106D01*
X023123Y023015D01*
X023116Y022997D01*
X022916Y023037D01*
Y023231D01*
X022045D01*
Y023228D01*
X021623D01*
X021575Y023235D01*
X021461Y023220D01*
X021355Y023176D01*
X021264Y023106D01*
X021194Y023015D01*
X021167Y022948D01*
X021093Y022933D01*
X021033D01*
X020959Y022948D01*
X020932Y023015D01*
X020862Y023106D01*
X020771Y023176D01*
X020665Y023220D01*
X020551Y023235D01*
X020437Y023220D01*
X020332Y023176D01*
X020241Y023106D01*
X020171Y023015D01*
X020163Y022997D01*
X019963Y023037D01*
Y023231D01*
X019092D01*
Y023231D01*
X019090Y023229D01*
X018651Y023231D01*
X018622Y023235D01*
X018508Y023220D01*
X018402Y023176D01*
X018311Y023106D01*
X018242Y023015D01*
X018214Y022948D01*
X018140Y022933D01*
X018080D01*
X018007Y022948D01*
X017979Y023015D01*
X017909Y023106D01*
X017818Y023176D01*
X017712Y023220D01*
X017598Y023235D01*
X017485Y023220D01*
X017379Y023176D01*
X017288Y023106D01*
X017218Y023015D01*
X017210Y022997D01*
X017010Y023037D01*
Y023231D01*
X016139D01*
Y023220D01*
X015783D01*
X015669Y023235D01*
X015556Y023220D01*
X015450Y023176D01*
X015359Y023106D01*
X015289Y023015D01*
X015261Y022948D01*
X015188Y022933D01*
X015127D01*
X015054Y022948D01*
X015026Y023015D01*
X014956Y023106D01*
X014865Y023176D01*
X014759Y023220D01*
X014646Y023235D01*
X014532Y023220D01*
X014426Y023176D01*
X014335Y023106D01*
X014265Y023015D01*
X014258Y022997D01*
X014058Y023036D01*
Y023231D01*
X012841D01*
X012830Y023220D01*
X012717Y023235D01*
X012603Y023220D01*
X012497Y023176D01*
X012406Y023106D01*
X012336Y023015D01*
X012308Y022948D01*
X012235Y022933D01*
X012174D01*
X012101Y022948D01*
X012073Y023015D01*
X012004Y023106D01*
X011913Y023176D01*
X011807Y023220D01*
X011693Y023235D01*
X011579Y023220D01*
X011473Y023176D01*
X011382Y023106D01*
X011312Y023015D01*
X011305Y022997D01*
X011105Y023037D01*
Y023231D01*
X010234D01*
Y022830D01*
X010194Y022799D01*
X009994Y022897D01*
X010004Y029247D01*
X010186Y029301D01*
X010204Y029300D01*
X010293Y029191D01*
X010408Y029097D01*
X010538Y029028D01*
X010680Y028985D01*
X010827Y028970D01*
X010974Y028985D01*
X011115Y029028D01*
X011246Y029097D01*
X011360Y029191D01*
X011454Y029305D01*
X011524Y029436D01*
X011566Y029577D01*
X011581Y029724D01*
X011566Y029872D01*
X011524Y030013D01*
X011454Y030143D01*
X011360Y030258D01*
X011246Y030351D01*
X011115Y030421D01*
X010974Y030464D01*
X010827Y030479D01*
X010680Y030464D01*
X010538Y030421D01*
X010408Y030351D01*
X010293Y030258D01*
X010205Y030150D01*
X010183Y030149D01*
X010006Y030206D01*
X010008Y031850D01*
X012596D01*
X014369Y030078D01*
D02*
G37*
G36*
X073583Y033835D02*
Y033228D01*
X073341D01*
X072809Y033761D01*
X072785Y033776D01*
X072844Y033976D01*
X073441D01*
X073583Y033835D01*
D02*
G37*
G36*
X063256Y027189D02*
X063372Y027022D01*
Y026522D01*
X063383Y026441D01*
X063414Y026365D01*
X063464Y026301D01*
X063477Y026290D01*
X063413Y026090D01*
X062283D01*
X062198Y026073D01*
X062125Y026025D01*
X061915Y025815D01*
X061034D01*
X061009Y025848D01*
X060959Y026015D01*
X062163Y027218D01*
X063214D01*
X063256Y027189D01*
D02*
G37*
G36*
X073776Y027246D02*
Y025545D01*
X073731Y025500D01*
X073576Y025426D01*
X073522Y025448D01*
X073402Y025464D01*
X073281Y025448D01*
X073170Y025402D01*
X073074Y025328D01*
X073000Y025232D01*
X072953Y025120D01*
X072938Y025000D01*
X072953Y024880D01*
X073000Y024768D01*
X073074Y024672D01*
X073140Y024621D01*
X073127Y024508D01*
X073085Y024421D01*
X065468D01*
X065426Y024508D01*
X065413Y024621D01*
X065480Y024672D01*
X065553Y024768D01*
X065600Y024880D01*
X065616Y025000D01*
X065600Y025120D01*
X065553Y025232D01*
X065480Y025328D01*
X065384Y025402D01*
X065272Y025448D01*
X065306Y025642D01*
X065315D01*
X065401Y025659D01*
X065474Y025708D01*
X065907Y026141D01*
X065952Y026209D01*
X065985D01*
X066066Y026220D01*
X066141Y026251D01*
X066206Y026301D01*
X066218Y026316D01*
X066287Y026334D01*
X066382D01*
X066452Y026316D01*
X066464Y026301D01*
X066528Y026251D01*
X066604Y026220D01*
X066685Y026209D01*
X066985D01*
X067066Y026220D01*
X067141Y026251D01*
X067206Y026301D01*
X067218Y026316D01*
X067287Y026334D01*
X067382D01*
X067452Y026316D01*
X067464Y026301D01*
X067528Y026251D01*
X067604Y026220D01*
X067685Y026209D01*
X067985D01*
X068066Y026220D01*
X068141Y026251D01*
X068206Y026301D01*
X068218Y026316D01*
X068287Y026334D01*
X068382D01*
X068452Y026316D01*
X068464Y026301D01*
X068528Y026251D01*
X068604Y026220D01*
X068685Y026209D01*
X068985D01*
X069066Y026220D01*
X069141Y026251D01*
X069206Y026301D01*
X069218Y026316D01*
X069287Y026334D01*
X069382D01*
X069452Y026316D01*
X069464Y026301D01*
X069528Y026251D01*
X069604Y026220D01*
X069685Y026209D01*
X069985D01*
X070066Y026220D01*
X070141Y026251D01*
X070206Y026301D01*
X070218Y026316D01*
X070287Y026334D01*
X070382D01*
X070452Y026316D01*
X070464Y026301D01*
X070528Y026251D01*
X070604Y026220D01*
X070685Y026209D01*
X070985D01*
X071066Y026220D01*
X071141Y026251D01*
X071206Y026301D01*
X071218Y026316D01*
X071287Y026334D01*
X071382D01*
X071452Y026316D01*
X071464Y026301D01*
X071528Y026251D01*
X071604Y026220D01*
X071685Y026209D01*
X071985D01*
X072066Y026220D01*
X072141Y026251D01*
X072175Y026277D01*
X072329Y026236D01*
X072375Y026212D01*
X072375Y026212D01*
X072390Y026212D01*
X073295D01*
Y027332D01*
X072390D01*
X072375Y027332D01*
X072375Y027332D01*
X072329Y027308D01*
X072194Y027272D01*
X072018Y027380D01*
Y027555D01*
X072007Y027614D01*
X072004Y027626D01*
X071964Y027685D01*
X070428Y029221D01*
X070502Y029421D01*
X071600D01*
X073776Y027246D01*
D02*
G37*
G36*
X074764Y054811D02*
X074764Y035197D01*
X010016Y035197D01*
X009977Y054811D01*
X010048Y054882D01*
X074693Y054882D01*
X074764Y054811D01*
D02*
G37*
%LPC*%
G36*
X019528Y022107D02*
X019388Y022088D01*
X019258Y022034D01*
X019146Y021949D01*
X019060Y021837D01*
X019006Y021707D01*
X018988Y021567D01*
X019006Y021427D01*
X019060Y021297D01*
X019146Y021185D01*
X019258Y021100D01*
X019388Y021046D01*
X019528Y021027D01*
X019667Y021046D01*
X019797Y021100D01*
X019909Y021185D01*
X019995Y021297D01*
X020049Y021427D01*
X020067Y021567D01*
X020049Y021707D01*
X019995Y021837D01*
X019909Y021949D01*
X019797Y022034D01*
X019667Y022088D01*
X019528Y022107D01*
D02*
G37*
G36*
X013661D02*
X013522Y022088D01*
X013392Y022034D01*
X013280Y021949D01*
X013194Y021837D01*
X013140Y021707D01*
X013122Y021567D01*
X013140Y021427D01*
X013194Y021297D01*
X013280Y021185D01*
X013392Y021100D01*
X013522Y021046D01*
X013661Y021027D01*
X013801Y021046D01*
X013931Y021100D01*
X014043Y021185D01*
X014129Y021297D01*
X014183Y021427D01*
X014201Y021567D01*
X014183Y021707D01*
X014129Y021837D01*
X014043Y021949D01*
X013931Y022034D01*
X013801Y022088D01*
X013661Y022107D01*
D02*
G37*
G36*
X016575Y022107D02*
X016435Y022088D01*
X016305Y022034D01*
X016193Y021948D01*
X016108Y021837D01*
X016054Y021707D01*
X016035Y021567D01*
X016054Y021427D01*
X016108Y021297D01*
X016193Y021185D01*
X016305Y021100D01*
X016435Y021046D01*
X016575Y021027D01*
X016715Y021046D01*
X016845Y021100D01*
X016956Y021185D01*
X017042Y021297D01*
X017096Y021427D01*
X017114Y021567D01*
X017096Y021707D01*
X017042Y021837D01*
X016956Y021948D01*
X016845Y022034D01*
X016715Y022088D01*
X016575Y022107D01*
D02*
G37*
G36*
X022480D02*
X022341Y022088D01*
X022211Y022034D01*
X022099Y021948D01*
X022013Y021837D01*
X021959Y021707D01*
X021941Y021567D01*
X021959Y021427D01*
X022013Y021297D01*
X022099Y021185D01*
X022211Y021100D01*
X022341Y021046D01*
X022480Y021027D01*
X022620Y021046D01*
X022750Y021100D01*
X022862Y021185D01*
X022948Y021297D01*
X023002Y021427D01*
X023020Y021567D01*
X023002Y021707D01*
X022948Y021837D01*
X022862Y021948D01*
X022750Y022034D01*
X022620Y022088D01*
X022480Y022107D01*
D02*
G37*
G36*
X028425D02*
X028286Y022088D01*
X028155Y022034D01*
X028044Y021948D01*
X027958Y021837D01*
X027904Y021707D01*
X027886Y021567D01*
X027904Y021427D01*
X027958Y021297D01*
X028044Y021185D01*
X028155Y021100D01*
X028286Y021046D01*
X028425Y021027D01*
X028565Y021046D01*
X028695Y021100D01*
X028807Y021185D01*
X028893Y021297D01*
X028946Y021427D01*
X028965Y021567D01*
X028946Y021707D01*
X028893Y021837D01*
X028807Y021948D01*
X028695Y022034D01*
X028565Y022088D01*
X028425Y022107D01*
D02*
G37*
G36*
X062835Y026945D02*
X062768Y026932D01*
X062712Y026894D01*
X062674Y026838D01*
X062661Y026772D01*
Y026670D01*
X062674Y026604D01*
X062712Y026547D01*
X062768Y026510D01*
X062835Y026497D01*
X062950D01*
X063016Y026510D01*
X063073Y026547D01*
X063110Y026604D01*
X063123Y026670D01*
X063110Y026736D01*
X063073Y026793D01*
X063016Y026830D01*
X062996Y026834D01*
X062995Y026838D01*
X062957Y026894D01*
X062901Y026932D01*
X062835Y026945D01*
D02*
G37*
G36*
X011451Y025503D02*
X011331Y025488D01*
X011219Y025441D01*
X011123Y025367D01*
X011049Y025271D01*
X011003Y025159D01*
X010987Y025039D01*
X011003Y024919D01*
X011049Y024807D01*
X011123Y024711D01*
X011219Y024638D01*
X011331Y024591D01*
X011451Y024575D01*
X011571Y024591D01*
X011683Y024638D01*
X011779Y024711D01*
X011853Y024807D01*
X011899Y024919D01*
X011915Y025039D01*
X011899Y025159D01*
X011853Y025271D01*
X011779Y025367D01*
X011683Y025441D01*
X011571Y025488D01*
X011451Y025503D01*
D02*
G37*
G36*
X070800Y033294D02*
X070668Y033277D01*
X070545Y033226D01*
X070440Y033145D01*
X070359Y033040D01*
X070308Y032917D01*
X070291Y032785D01*
Y031899D01*
X070308Y031768D01*
X070359Y031645D01*
X070440Y031540D01*
X070545Y031459D01*
X070668Y031408D01*
X070800Y031391D01*
X070931Y031408D01*
X071054Y031459D01*
X071159Y031540D01*
X071240Y031645D01*
X071291Y031768D01*
X071308Y031899D01*
Y032785D01*
X071291Y032917D01*
X071240Y033040D01*
X071159Y033145D01*
X071054Y033226D01*
X070931Y033277D01*
X070800Y033294D01*
D02*
G37*
G36*
X025433Y022107D02*
X025293Y022088D01*
X025163Y022034D01*
X025052Y021949D01*
X024966Y021837D01*
X024912Y021707D01*
X024894Y021567D01*
X024912Y021427D01*
X024966Y021297D01*
X025052Y021185D01*
X025163Y021100D01*
X025293Y021046D01*
X025433Y021027D01*
X025573Y021046D01*
X025703Y021100D01*
X025815Y021185D01*
X025900Y021297D01*
X025954Y021427D01*
X025973Y021567D01*
X025954Y021707D01*
X025900Y021837D01*
X025815Y021949D01*
X025703Y022034D01*
X025573Y022088D01*
X025433Y022107D01*
D02*
G37*
G36*
X068389Y033704D02*
X055893D01*
Y032704D01*
X068389D01*
Y033704D01*
D02*
G37*
G36*
X014213Y049043D02*
X014166Y049040D01*
X014120Y049030D01*
X014076Y049015D01*
X014034Y048995D01*
X013995Y048969D01*
X013960Y048938D01*
X013929Y048903D01*
X013903Y048864D01*
X013882Y048822D01*
X013867Y048778D01*
X013858Y048732D01*
X013855Y048685D01*
X013858Y048638D01*
X013867Y048592D01*
X013882Y048548D01*
X013903Y048506D01*
X013929Y048467D01*
X013957Y048435D01*
X013929Y048403D01*
X013903Y048364D01*
X013882Y048322D01*
X013867Y048278D01*
X013858Y048232D01*
X013855Y048185D01*
X013858Y048138D01*
X013867Y048092D01*
X013882Y048048D01*
X013903Y048006D01*
X013929Y047967D01*
X013960Y047932D01*
X013995Y047901D01*
X014034Y047875D01*
X014076Y047855D01*
X014120Y047840D01*
X014166Y047830D01*
X014213Y047827D01*
X014259Y047830D01*
X014305Y047840D01*
X014349Y047855D01*
X014391Y047875D01*
X014430Y047901D01*
X014465Y047932D01*
X014496Y047967D01*
X014522Y048006D01*
X014543Y048048D01*
X014558Y048092D01*
X014567Y048138D01*
X014570Y048185D01*
X014567Y048232D01*
X014558Y048278D01*
X014543Y048322D01*
X014522Y048364D01*
X014496Y048403D01*
X014468Y048435D01*
X014496Y048467D01*
X014522Y048506D01*
X014543Y048548D01*
X014558Y048592D01*
X014567Y048638D01*
X014570Y048685D01*
X014567Y048732D01*
X014558Y048778D01*
X014543Y048822D01*
X014522Y048864D01*
X014496Y048903D01*
X014465Y048938D01*
X014430Y048969D01*
X014391Y048995D01*
X014349Y049015D01*
X014305Y049030D01*
X014259Y049040D01*
X014213Y049043D01*
D02*
G37*
G36*
X024176Y049963D02*
X023462D01*
Y049249D01*
X024176D01*
Y049963D01*
D02*
G37*
G36*
X039315Y011631D02*
X039188Y011614D01*
X039070Y011565D01*
X038969Y011488D01*
X038891Y011386D01*
X038842Y011268D01*
X038826Y011142D01*
X038842Y011015D01*
X038891Y010897D01*
X038969Y010796D01*
X039070Y010718D01*
X039188Y010669D01*
X039315Y010653D01*
X039442Y010669D01*
X039560Y010718D01*
X039661Y010796D01*
X039739Y010897D01*
X039787Y011015D01*
X039804Y011142D01*
X039787Y011268D01*
X039739Y011386D01*
X039661Y011488D01*
X039560Y011565D01*
X039442Y011614D01*
X039315Y011631D01*
D02*
G37*
G36*
X070591Y048964D02*
X070544Y048961D01*
X070498Y048952D01*
X070454Y048937D01*
X070412Y048916D01*
X070373Y048890D01*
X070338Y048859D01*
X070307Y048824D01*
X070281Y048785D01*
X070260Y048743D01*
X070245Y048699D01*
X070236Y048653D01*
X070233Y048606D01*
X070236Y048560D01*
X070245Y048514D01*
X070260Y048469D01*
X070281Y048427D01*
X070307Y048389D01*
X070335Y048356D01*
X070307Y048324D01*
X070281Y048285D01*
X070260Y048243D01*
X070245Y048199D01*
X070236Y048153D01*
X070233Y048106D01*
X070236Y048060D01*
X070245Y048014D01*
X070260Y047969D01*
X070281Y047927D01*
X070307Y047889D01*
X070338Y047853D01*
X070373Y047823D01*
X070412Y047797D01*
X070454Y047776D01*
X070498Y047761D01*
X070544Y047752D01*
X070591Y047749D01*
X070637Y047752D01*
X070683Y047761D01*
X070727Y047776D01*
X070769Y047797D01*
X070808Y047823D01*
X070843Y047853D01*
X070874Y047889D01*
X070900Y047927D01*
X070921Y047969D01*
X070936Y048014D01*
X070945Y048060D01*
X070948Y048106D01*
X070945Y048153D01*
X070936Y048199D01*
X070921Y048243D01*
X070900Y048285D01*
X070874Y048324D01*
X070846Y048356D01*
X070874Y048389D01*
X070900Y048427D01*
X070921Y048469D01*
X070936Y048514D01*
X070945Y048560D01*
X070948Y048606D01*
X070945Y048653D01*
X070936Y048699D01*
X070921Y048743D01*
X070900Y048785D01*
X070874Y048824D01*
X070843Y048859D01*
X070808Y048890D01*
X070769Y048916D01*
X070727Y048937D01*
X070683Y048952D01*
X070637Y048961D01*
X070591Y048964D01*
D02*
G37*
G36*
X070947Y049963D02*
X070234D01*
Y049249D01*
X070947D01*
Y049963D01*
D02*
G37*
G36*
X036220Y011296D02*
X036081Y011277D01*
X035951Y011223D01*
X035839Y011137D01*
X035753Y011026D01*
X035699Y010896D01*
X035681Y010756D01*
X035699Y010616D01*
X035753Y010486D01*
X035839Y010374D01*
X035951Y010289D01*
X036081Y010235D01*
X036220Y010216D01*
X036360Y010235D01*
X036490Y010289D01*
X036602Y010374D01*
X036688Y010486D01*
X036742Y010616D01*
X036760Y010756D01*
X036742Y010896D01*
X036688Y011026D01*
X036602Y011137D01*
X036490Y011223D01*
X036360Y011277D01*
X036220Y011296D01*
D02*
G37*
G36*
X035079Y054748D02*
X025433D01*
X025399Y054746D01*
X025365Y054737D01*
X025333Y054724D01*
X025303Y054706D01*
X025277Y054684D01*
X023790Y053197D01*
X023690D01*
X023503Y053384D01*
X023476Y053407D01*
X023447Y053425D01*
X023415Y053438D01*
X023381Y053446D01*
X023346Y053449D01*
X015000D01*
X014965Y053446D01*
X014932Y053438D01*
X014900Y053425D01*
X014870Y053407D01*
X014844Y053384D01*
X014440Y052980D01*
X014406Y052994D01*
X014343Y053012D01*
X014278Y053023D01*
X014213Y053027D01*
X014147Y053023D01*
X014082Y053012D01*
X014019Y052994D01*
X013958Y052969D01*
X013901Y052937D01*
X013847Y052899D01*
X013798Y052855D01*
X013755Y052806D01*
X013716Y052753D01*
X013685Y052695D01*
X013660Y052634D01*
X013641Y052571D01*
X013630Y052507D01*
X013627Y052441D01*
X013630Y052375D01*
X013641Y052311D01*
X013660Y052247D01*
X013674Y052213D01*
X013589Y052156D01*
X013542Y052203D01*
X013516Y052226D01*
X013486Y052244D01*
X013454Y052257D01*
X013420Y052265D01*
X013386Y052268D01*
X013180D01*
X013166Y052301D01*
X013134Y052359D01*
X013096Y052413D01*
X013052Y052462D01*
X013003Y052505D01*
X012950Y052543D01*
X012892Y052575D01*
X012831Y052600D01*
X012768Y052618D01*
X012703Y052629D01*
X012638Y052633D01*
X012572Y052629D01*
X012507Y052618D01*
X012444Y052600D01*
X012384Y052575D01*
X012326Y052543D01*
X012272Y052505D01*
X012224Y052462D01*
X012180Y052413D01*
X012142Y052359D01*
X012110Y052301D01*
X012085Y052241D01*
X012067Y052178D01*
X012056Y052113D01*
X012052Y052047D01*
X012056Y051982D01*
X012067Y051917D01*
X012085Y051854D01*
X012110Y051793D01*
X012142Y051736D01*
X012180Y051682D01*
X012224Y051633D01*
X012272Y051589D01*
X012326Y051551D01*
X012384Y051519D01*
X012444Y051494D01*
X012507Y051476D01*
X012572Y051465D01*
X012638Y051461D01*
X012690Y051464D01*
X012709Y051425D01*
X012717Y051367D01*
X012705Y051360D01*
X012679Y051337D01*
X012423Y051082D01*
X012363Y051084D01*
X012314Y051127D01*
X012261Y051165D01*
X012203Y051197D01*
X012142Y051222D01*
X012079Y051241D01*
X012014Y051252D01*
X011949Y051255D01*
X011883Y051252D01*
X011818Y051241D01*
X011755Y051222D01*
X011695Y051197D01*
X011637Y051165D01*
X011584Y051127D01*
X011535Y051084D01*
X011491Y051035D01*
X011453Y050981D01*
X011421Y050924D01*
X011396Y050863D01*
X011378Y050800D01*
X011367Y050735D01*
X011363Y050669D01*
X011367Y050604D01*
X011378Y050539D01*
X011396Y050476D01*
X011421Y050415D01*
X011453Y050358D01*
X011491Y050304D01*
X011535Y050255D01*
X011584Y050211D01*
X011637Y050173D01*
X011695Y050141D01*
X011755Y050116D01*
X011818Y050098D01*
X011883Y050087D01*
X011949Y050083D01*
X012014Y050087D01*
X012079Y050098D01*
X012142Y050116D01*
X012203Y050141D01*
X012261Y050173D01*
X012314Y050211D01*
X012363Y050255D01*
X012407Y050304D01*
X012445Y050358D01*
X012477Y050415D01*
X012502Y050476D01*
X012520Y050539D01*
X012523Y050558D01*
X012926Y050960D01*
X015827D01*
X015861Y050963D01*
X015925Y050892D01*
X015930Y050879D01*
X015923Y050863D01*
X015905Y050800D01*
X015894Y050735D01*
X015890Y050669D01*
X015894Y050604D01*
X015905Y050539D01*
X015923Y050476D01*
X015948Y050415D01*
X015980Y050358D01*
X016018Y050304D01*
X016062Y050255D01*
X016077Y050242D01*
X016039Y050142D01*
X015682D01*
X015195Y050628D01*
X015169Y050651D01*
X015140Y050669D01*
X015108Y050682D01*
X015074Y050690D01*
X015039Y050693D01*
X013524D01*
X013489Y050690D01*
X013455Y050682D01*
X013423Y050669D01*
X013394Y050651D01*
X013368Y050628D01*
X012176Y049437D01*
X012142Y049451D01*
X012079Y049469D01*
X012014Y049480D01*
X011949Y049484D01*
X011883Y049480D01*
X011818Y049469D01*
X011755Y049451D01*
X011695Y049426D01*
X011637Y049394D01*
X011584Y049356D01*
X011535Y049312D01*
X011491Y049263D01*
X011453Y049209D01*
X011421Y049152D01*
X011396Y049091D01*
X011378Y049028D01*
X011367Y048963D01*
X011363Y048898D01*
X011367Y048832D01*
X011378Y048767D01*
X011396Y048704D01*
X011421Y048643D01*
X011453Y048586D01*
X011491Y048532D01*
X011535Y048483D01*
X011584Y048440D01*
X011637Y048402D01*
X011695Y048370D01*
X011755Y048345D01*
X011818Y048326D01*
X011883Y048315D01*
X011949Y048312D01*
X012014Y048315D01*
X012079Y048326D01*
X012142Y048345D01*
X012203Y048370D01*
X012261Y048402D01*
X012314Y048440D01*
X012363Y048483D01*
X012407Y048532D01*
X012445Y048586D01*
X012477Y048643D01*
X012502Y048704D01*
X012520Y048767D01*
X012531Y048832D01*
X012535Y048898D01*
X012531Y048963D01*
X012520Y049028D01*
X012502Y049091D01*
X012488Y049125D01*
X013615Y050252D01*
X014948D01*
X015435Y049765D01*
X015461Y049743D01*
X015490Y049725D01*
X015509Y049717D01*
X015522Y049711D01*
X015556Y049703D01*
X015591Y049701D01*
X020401D01*
X021016Y049085D01*
X021002Y049052D01*
X020984Y048989D01*
X020973Y048924D01*
X020969Y048858D01*
X020973Y048793D01*
X020984Y048728D01*
X021002Y048665D01*
X021027Y048604D01*
X021059Y048547D01*
X021097Y048493D01*
X021141Y048444D01*
X021190Y048400D01*
X021243Y048362D01*
X021301Y048330D01*
X021362Y048305D01*
X021425Y048287D01*
X021490Y048276D01*
X021555Y048272D01*
X021621Y048276D01*
X021686Y048287D01*
X021749Y048305D01*
X021809Y048330D01*
X021867Y048362D01*
X021920Y048400D01*
X021969Y048444D01*
X022013Y048493D01*
X022051Y048547D01*
X022083Y048604D01*
X022108Y048665D01*
X022126Y048728D01*
X022137Y048793D01*
X022141Y048858D01*
X022137Y048924D01*
X022126Y048989D01*
X022111Y049043D01*
X023162Y050094D01*
X024909D01*
X025316Y049686D01*
X025343Y049664D01*
X025372Y049646D01*
X025404Y049633D01*
X025438Y049625D01*
X025440Y049624D01*
X025472Y049622D01*
X026575D01*
X026609Y049625D01*
X026643Y049633D01*
X026675Y049646D01*
X026705Y049664D01*
X026731Y049686D01*
X027282Y050238D01*
X027305Y050264D01*
X027323Y050294D01*
X027336Y050326D01*
X027344Y050359D01*
X027344Y050362D01*
X027347Y050394D01*
Y051129D01*
X028556Y052338D01*
X031995D01*
X035039Y049295D01*
X035038Y049273D01*
X034995Y049224D01*
X034957Y049170D01*
X034925Y049113D01*
X034900Y049052D01*
X034882Y048989D01*
X034871Y048924D01*
X034867Y048858D01*
X034871Y048793D01*
X034882Y048728D01*
X034900Y048665D01*
X034925Y048604D01*
X034957Y048547D01*
X034995Y048493D01*
X035038Y048444D01*
X035087Y048400D01*
X035141Y048362D01*
X035199Y048330D01*
X035259Y048305D01*
X035322Y048287D01*
X035387Y048276D01*
X035453Y048272D01*
X035518Y048276D01*
X035583Y048287D01*
X035646Y048305D01*
X035707Y048330D01*
X035764Y048362D01*
X035818Y048400D01*
X035867Y048444D01*
X035911Y048493D01*
X035949Y048547D01*
X035981Y048604D01*
X036006Y048665D01*
X036024Y048728D01*
X036035Y048793D01*
X036039Y048858D01*
X036035Y048924D01*
X036024Y048989D01*
X036006Y049052D01*
X035992Y049085D01*
X036804Y049897D01*
X037360D01*
Y049249D01*
X038073D01*
Y049897D01*
X038924D01*
X039057Y049765D01*
X039083Y049743D01*
X039112Y049725D01*
X039144Y049711D01*
X039178Y049703D01*
X039213Y049701D01*
X043550D01*
X044205Y049046D01*
X044191Y049012D01*
X044173Y048949D01*
X044162Y048885D01*
X044158Y048819D01*
X044162Y048753D01*
X044173Y048689D01*
X044191Y048625D01*
X044216Y048565D01*
X044248Y048507D01*
X044286Y048454D01*
X044330Y048405D01*
X044379Y048361D01*
X044432Y048323D01*
X044490Y048291D01*
X044551Y048266D01*
X044614Y048248D01*
X044679Y048237D01*
X044744Y048233D01*
X044810Y048237D01*
X044874Y048248D01*
X044938Y048266D01*
X044998Y048291D01*
X045056Y048323D01*
X045109Y048361D01*
X045158Y048405D01*
X045202Y048454D01*
X045240Y048507D01*
X045272Y048565D01*
X045297Y048625D01*
X045315Y048689D01*
X045326Y048753D01*
X045330Y048819D01*
X045326Y048885D01*
X045315Y048949D01*
X045297Y049012D01*
X045283Y049046D01*
X046135Y049897D01*
X046690D01*
Y049249D01*
X047404D01*
Y049897D01*
X048413D01*
X048584Y049726D01*
X048610Y049703D01*
X048640Y049685D01*
X048672Y049672D01*
X048706Y049664D01*
X048740Y049661D01*
X049961D01*
X049995Y049664D01*
X050029Y049672D01*
X050061Y049685D01*
X050090Y049703D01*
X050117Y049726D01*
X050392Y050001D01*
X050415Y050028D01*
X050433Y050057D01*
X050446Y050089D01*
X050454Y050123D01*
X050457Y050157D01*
Y051365D01*
X051391Y052299D01*
X055420D01*
X058318Y049401D01*
X058306Y049273D01*
X058262Y049224D01*
X058224Y049170D01*
X058193Y049113D01*
X058167Y049052D01*
X058149Y048989D01*
X058138Y048924D01*
X058135Y048858D01*
X058138Y048793D01*
X058149Y048728D01*
X058167Y048665D01*
X058193Y048604D01*
X058224Y048547D01*
X058262Y048493D01*
X058306Y048444D01*
X058355Y048400D01*
X058409Y048362D01*
X058466Y048330D01*
X058527Y048305D01*
X058590Y048287D01*
X058655Y048276D01*
X058720Y048272D01*
X058786Y048276D01*
X058851Y048287D01*
X058914Y048305D01*
X058975Y048330D01*
X059032Y048362D01*
X059086Y048400D01*
X059135Y048444D01*
X059179Y048493D01*
X059217Y048547D01*
X059248Y048604D01*
X059274Y048665D01*
X059292Y048728D01*
X059303Y048793D01*
X059306Y048858D01*
X059303Y048924D01*
X059292Y048989D01*
X059274Y049052D01*
X059265Y049071D01*
X060131Y049937D01*
X060627D01*
Y049249D01*
X061341D01*
Y049937D01*
X062192D01*
X062482Y049647D01*
X062508Y049625D01*
X062538Y049607D01*
X062570Y049593D01*
X062603Y049585D01*
X062606Y049585D01*
X062638Y049582D01*
X067291D01*
X067788Y049085D01*
X067774Y049052D01*
X067756Y048989D01*
X067745Y048924D01*
X067741Y048858D01*
X067745Y048793D01*
X067756Y048728D01*
X067774Y048665D01*
X067799Y048604D01*
X067831Y048547D01*
X067869Y048493D01*
X067912Y048444D01*
X067961Y048400D01*
X068015Y048362D01*
X068073Y048330D01*
X068133Y048305D01*
X068196Y048287D01*
X068261Y048276D01*
X068327Y048272D01*
X068392Y048276D01*
X068457Y048287D01*
X068520Y048305D01*
X068581Y048330D01*
X068639Y048362D01*
X068692Y048400D01*
X068741Y048444D01*
X068785Y048493D01*
X068823Y048547D01*
X068855Y048604D01*
X068880Y048665D01*
X068898Y048728D01*
X068909Y048793D01*
X068913Y048858D01*
X068909Y048924D01*
X068898Y048989D01*
X068880Y049052D01*
X068855Y049113D01*
X068823Y049170D01*
X068785Y049224D01*
X068741Y049273D01*
X068692Y049316D01*
X068639Y049354D01*
X068581Y049386D01*
X068520Y049411D01*
X068457Y049430D01*
X068392Y049441D01*
X068327Y049444D01*
X068261Y049441D01*
X068196Y049430D01*
X068133Y049411D01*
X068100Y049397D01*
X067538Y049959D01*
X067512Y049982D01*
X067482Y050000D01*
X067450Y050013D01*
X067416Y050021D01*
X067382Y050024D01*
X063567D01*
X063542Y050124D01*
X063560Y050134D01*
X063613Y050172D01*
X063662Y050216D01*
X063706Y050265D01*
X063744Y050318D01*
X063776Y050376D01*
X063801Y050436D01*
X063819Y050500D01*
X063830Y050564D01*
X063834Y050630D01*
X063830Y050696D01*
X063819Y050760D01*
X063801Y050823D01*
X063776Y050884D01*
X063744Y050942D01*
X063706Y050995D01*
X063662Y051044D01*
X063613Y051088D01*
X063560Y051126D01*
X063502Y051158D01*
X063442Y051183D01*
X063384Y051200D01*
X063378Y051203D01*
X063323Y051308D01*
X063323Y051310D01*
X063325Y051315D01*
X067330D01*
X067788Y050857D01*
X067774Y050823D01*
X067756Y050760D01*
X067745Y050696D01*
X067741Y050630D01*
X067745Y050564D01*
X067756Y050500D01*
X067774Y050436D01*
X067799Y050376D01*
X067831Y050318D01*
X067869Y050265D01*
X067912Y050216D01*
X067961Y050172D01*
X068015Y050134D01*
X068073Y050102D01*
X068133Y050077D01*
X068196Y050059D01*
X068261Y050048D01*
X068327Y050044D01*
X068392Y050048D01*
X068457Y050059D01*
X068520Y050077D01*
X068581Y050102D01*
X068639Y050134D01*
X068692Y050172D01*
X068741Y050216D01*
X068785Y050265D01*
X068823Y050318D01*
X068855Y050376D01*
X068880Y050436D01*
X068898Y050500D01*
X068909Y050564D01*
X068913Y050630D01*
X068909Y050696D01*
X068898Y050760D01*
X068892Y050783D01*
X068892Y050786D01*
X068942Y050867D01*
X068964Y050882D01*
X069488D01*
X069523Y050884D01*
X069556Y050892D01*
X069588Y050906D01*
X069618Y050924D01*
X069644Y050946D01*
X070013Y051315D01*
X071693D01*
X071727Y051317D01*
X071761Y051326D01*
X071793Y051339D01*
X071823Y051357D01*
X071849Y051379D01*
X071938Y051469D01*
X071972Y051455D01*
X072035Y051437D01*
X072100Y051426D01*
X072165Y051422D01*
X072231Y051426D01*
X072296Y051437D01*
X072359Y051455D01*
X072420Y051480D01*
X072477Y051512D01*
X072531Y051550D01*
X072580Y051594D01*
X072623Y051643D01*
X072661Y051696D01*
X072673Y051716D01*
X072768Y051741D01*
X072794Y051736D01*
X074189Y050342D01*
Y049749D01*
X074089Y049708D01*
X073393Y050403D01*
X073407Y050436D01*
X073426Y050500D01*
X073437Y050564D01*
X073440Y050630D01*
X073437Y050696D01*
X073426Y050760D01*
X073407Y050823D01*
X073382Y050884D01*
X073350Y050942D01*
X073312Y050995D01*
X073269Y051044D01*
X073220Y051088D01*
X073166Y051126D01*
X073109Y051158D01*
X073048Y051183D01*
X072985Y051201D01*
X072920Y051212D01*
X072854Y051216D01*
X072789Y051212D01*
X072724Y051201D01*
X072661Y051183D01*
X072600Y051158D01*
X072543Y051126D01*
X072489Y051088D01*
X072440Y051044D01*
X072396Y050995D01*
X072358Y050942D01*
X072326Y050884D01*
X072301Y050823D01*
X072283Y050760D01*
X072272Y050696D01*
X072268Y050630D01*
X072272Y050564D01*
X072283Y050500D01*
X072301Y050436D01*
X072326Y050376D01*
X072358Y050318D01*
X072396Y050265D01*
X072440Y050216D01*
X072489Y050172D01*
X072543Y050134D01*
X072600Y050102D01*
X072661Y050077D01*
X072724Y050059D01*
X072789Y050048D01*
X072854Y050044D01*
X072920Y050048D01*
X072985Y050059D01*
X073048Y050077D01*
X073081Y050091D01*
X073795Y049377D01*
Y048371D01*
X073695Y048330D01*
X073393Y048631D01*
X073407Y048665D01*
X073426Y048728D01*
X073437Y048793D01*
X073440Y048858D01*
X073437Y048924D01*
X073426Y048989D01*
X073407Y049052D01*
X073382Y049113D01*
X073350Y049170D01*
X073312Y049224D01*
X073269Y049273D01*
X073220Y049316D01*
X073166Y049354D01*
X073109Y049386D01*
X073048Y049411D01*
X072985Y049430D01*
X072920Y049441D01*
X072854Y049444D01*
X072789Y049441D01*
X072724Y049430D01*
X072661Y049411D01*
X072600Y049386D01*
X072543Y049354D01*
X072489Y049316D01*
X072440Y049273D01*
X072396Y049224D01*
X072358Y049170D01*
X072326Y049113D01*
X072301Y049052D01*
X072283Y048989D01*
X072272Y048924D01*
X072268Y048858D01*
X072272Y048793D01*
X072283Y048728D01*
X072301Y048665D01*
X072315Y048631D01*
X071188Y047504D01*
X070288D01*
X069762Y048030D01*
X069736Y048053D01*
X069706Y048071D01*
X069674Y048084D01*
X069641Y048092D01*
X069606Y048095D01*
X067887D01*
X066967Y049014D01*
X066941Y049037D01*
X066911Y049055D01*
X066879Y049068D01*
X066846Y049076D01*
X066811Y049079D01*
X063790D01*
X063776Y049113D01*
X063744Y049170D01*
X063706Y049224D01*
X063662Y049273D01*
X063613Y049316D01*
X063560Y049354D01*
X063502Y049386D01*
X063442Y049411D01*
X063378Y049430D01*
X063314Y049441D01*
X063248Y049444D01*
X063182Y049441D01*
X063118Y049430D01*
X063055Y049411D01*
X062994Y049386D01*
X062936Y049354D01*
X062883Y049316D01*
X062834Y049273D01*
X062790Y049224D01*
X062752Y049170D01*
X062720Y049113D01*
X062701Y049065D01*
X062676Y049055D01*
X062646Y049037D01*
X062620Y049014D01*
X061464Y047858D01*
X061368D01*
X061346Y047879D01*
X061309Y047958D01*
X061315Y047969D01*
X061330Y048014D01*
X061339Y048060D01*
X061342Y048106D01*
X061339Y048153D01*
X061330Y048199D01*
X061315Y048243D01*
X061294Y048285D01*
X061268Y048324D01*
X061240Y048356D01*
X061268Y048389D01*
X061294Y048427D01*
X061315Y048469D01*
X061330Y048514D01*
X061339Y048560D01*
X061342Y048606D01*
X061339Y048653D01*
X061330Y048699D01*
X061315Y048743D01*
X061294Y048785D01*
X061268Y048824D01*
X061237Y048859D01*
X061202Y048890D01*
X061163Y048916D01*
X061121Y048937D01*
X061077Y048952D01*
X061031Y048961D01*
X060984Y048964D01*
X060938Y048961D01*
X060892Y048952D01*
X060847Y048937D01*
X060805Y048916D01*
X060767Y048890D01*
X060731Y048859D01*
X060701Y048824D01*
X060675Y048785D01*
X060654Y048743D01*
X060639Y048699D01*
X060630Y048653D01*
X060627Y048606D01*
X060630Y048560D01*
X060639Y048514D01*
X060654Y048469D01*
X060675Y048427D01*
X060701Y048389D01*
X060729Y048356D01*
X060701Y048324D01*
X060675Y048285D01*
X060654Y048243D01*
X060639Y048199D01*
X060630Y048153D01*
X060627Y048106D01*
X060630Y048060D01*
X060639Y048014D01*
X060654Y047969D01*
X060659Y047958D01*
X060623Y047879D01*
X060600Y047858D01*
X060328D01*
X060156Y048030D01*
X060130Y048053D01*
X060100Y048071D01*
X060068Y048084D01*
X060035Y048092D01*
X060000Y048095D01*
X058398D01*
X055156Y051337D01*
X055130Y051360D01*
X055100Y051378D01*
X055068Y051391D01*
X055035Y051399D01*
X055000Y051402D01*
X052244D01*
X052210Y051399D01*
X052176Y051391D01*
X052163Y051385D01*
X052144Y051378D01*
X052114Y051360D01*
X052088Y051337D01*
X049882Y049131D01*
X049812Y049131D01*
X049756Y049147D01*
X049730Y049184D01*
X049686Y049233D01*
X049637Y049277D01*
X049583Y049315D01*
X049526Y049347D01*
X049465Y049372D01*
X049402Y049390D01*
X049337Y049401D01*
X049272Y049405D01*
X049206Y049401D01*
X049141Y049390D01*
X049078Y049372D01*
X049017Y049347D01*
X048960Y049315D01*
X048906Y049277D01*
X048857Y049233D01*
X048814Y049184D01*
X048776Y049131D01*
X048744Y049073D01*
X048719Y049012D01*
X048700Y048949D01*
X048689Y048885D01*
X048686Y048819D01*
X048689Y048753D01*
X048700Y048689D01*
X048719Y048625D01*
X048733Y048592D01*
X047960Y047819D01*
X047403D01*
X047387Y047835D01*
X047351Y047919D01*
X047357Y047927D01*
X047378Y047969D01*
X047393Y048014D01*
X047402Y048060D01*
X047405Y048106D01*
X047402Y048153D01*
X047393Y048199D01*
X047378Y048243D01*
X047357Y048285D01*
X047331Y048324D01*
X047303Y048356D01*
X047331Y048389D01*
X047357Y048427D01*
X047378Y048469D01*
X047393Y048514D01*
X047402Y048560D01*
X047405Y048606D01*
X047402Y048653D01*
X047393Y048699D01*
X047378Y048743D01*
X047357Y048785D01*
X047331Y048824D01*
X047300Y048859D01*
X047265Y048890D01*
X047226Y048916D01*
X047184Y048937D01*
X047140Y048952D01*
X047094Y048961D01*
X047047Y048964D01*
X047001Y048961D01*
X046955Y048952D01*
X046910Y048937D01*
X046868Y048916D01*
X046830Y048890D01*
X046794Y048859D01*
X046764Y048824D01*
X046738Y048785D01*
X046717Y048743D01*
X046702Y048699D01*
X046693Y048653D01*
X046690Y048606D01*
X046693Y048560D01*
X046702Y048514D01*
X046717Y048469D01*
X046738Y048427D01*
X046764Y048389D01*
X046792Y048356D01*
X046764Y048324D01*
X046738Y048285D01*
X046717Y048243D01*
X046702Y048199D01*
X046693Y048153D01*
X046690Y048106D01*
X046693Y048060D01*
X046702Y048014D01*
X046717Y047969D01*
X046738Y047927D01*
X046743Y047919D01*
X046708Y047835D01*
X046691Y047819D01*
X046391D01*
X046298Y047912D01*
X046271Y047934D01*
X046242Y047953D01*
X046210Y047966D01*
X046176Y047974D01*
X046142Y047977D01*
X041174D01*
X040519Y048631D01*
X040533Y048665D01*
X040552Y048728D01*
X040563Y048793D01*
X040566Y048858D01*
X040563Y048924D01*
X040552Y048989D01*
X040533Y049052D01*
X040508Y049113D01*
X040476Y049170D01*
X040438Y049224D01*
X040395Y049273D01*
X040346Y049316D01*
X040292Y049354D01*
X040235Y049386D01*
X040174Y049411D01*
X040111Y049430D01*
X040046Y049441D01*
X039980Y049444D01*
X039915Y049441D01*
X039850Y049430D01*
X039787Y049411D01*
X039726Y049386D01*
X039669Y049354D01*
X039615Y049316D01*
X039566Y049273D01*
X039522Y049224D01*
X039484Y049170D01*
X039452Y049113D01*
X039427Y049052D01*
X039409Y048989D01*
X039398Y048924D01*
X039394Y048858D01*
X039398Y048793D01*
X039409Y048728D01*
X039427Y048665D01*
X039441Y048631D01*
X038668Y047858D01*
X038100D01*
X038078Y047879D01*
X038042Y047958D01*
X038047Y047969D01*
X038062Y048014D01*
X038071Y048060D01*
X038074Y048106D01*
X038071Y048153D01*
X038062Y048199D01*
X038047Y048243D01*
X038026Y048285D01*
X038000Y048324D01*
X037972Y048356D01*
X038000Y048389D01*
X038026Y048427D01*
X038047Y048469D01*
X038062Y048514D01*
X038071Y048560D01*
X038074Y048606D01*
X038071Y048653D01*
X038062Y048699D01*
X038047Y048743D01*
X038026Y048785D01*
X038000Y048824D01*
X037969Y048859D01*
X037934Y048890D01*
X037895Y048916D01*
X037853Y048937D01*
X037809Y048952D01*
X037763Y048961D01*
X037717Y048964D01*
X037670Y048961D01*
X037624Y048952D01*
X037580Y048937D01*
X037538Y048916D01*
X037499Y048890D01*
X037464Y048859D01*
X037433Y048824D01*
X037407Y048785D01*
X037386Y048743D01*
X037371Y048699D01*
X037362Y048653D01*
X037359Y048606D01*
X037362Y048560D01*
X037371Y048514D01*
X037386Y048469D01*
X037407Y048427D01*
X037433Y048389D01*
X037461Y048356D01*
X037433Y048324D01*
X037407Y048285D01*
X037386Y048243D01*
X037371Y048199D01*
X037362Y048153D01*
X037359Y048106D01*
X037362Y048060D01*
X037371Y048014D01*
X037386Y047969D01*
X037392Y047958D01*
X037355Y047879D01*
X037333Y047858D01*
X037178D01*
X037046Y047991D01*
X037019Y048013D01*
X036990Y048031D01*
X036958Y048045D01*
X036924Y048053D01*
X036890Y048055D01*
X034934D01*
X031613Y051377D01*
X031586Y051399D01*
X031557Y051417D01*
X031525Y051430D01*
X031491Y051438D01*
X031457Y051441D01*
X029094D01*
X029060Y051438D01*
X029026Y051430D01*
X029013Y051425D01*
X028994Y051417D01*
X028965Y051399D01*
X028938Y051377D01*
X026706Y049144D01*
X026694Y049140D01*
X026583Y049162D01*
X026579Y049170D01*
X026541Y049224D01*
X026497Y049273D01*
X026448Y049316D01*
X026394Y049354D01*
X026337Y049386D01*
X026276Y049411D01*
X026213Y049430D01*
X026148Y049441D01*
X026083Y049444D01*
X026017Y049441D01*
X025952Y049430D01*
X025889Y049411D01*
X025828Y049386D01*
X025771Y049354D01*
X025717Y049316D01*
X025668Y049273D01*
X025625Y049224D01*
X025587Y049170D01*
X025555Y049113D01*
X025530Y049052D01*
X025511Y048989D01*
X025500Y048924D01*
X025497Y048858D01*
X025500Y048804D01*
X024476Y047780D01*
X024138D01*
X024126Y047793D01*
X024095Y047880D01*
X024103Y047889D01*
X024129Y047927D01*
X024149Y047969D01*
X024164Y048014D01*
X024173Y048060D01*
X024177Y048106D01*
X024173Y048153D01*
X024164Y048199D01*
X024149Y048243D01*
X024129Y048285D01*
X024103Y048324D01*
X024074Y048356D01*
X024103Y048389D01*
X024129Y048427D01*
X024149Y048469D01*
X024164Y048514D01*
X024173Y048560D01*
X024177Y048606D01*
X024173Y048653D01*
X024164Y048699D01*
X024149Y048743D01*
X024129Y048785D01*
X024103Y048824D01*
X024072Y048859D01*
X024037Y048890D01*
X023998Y048916D01*
X023956Y048937D01*
X023911Y048952D01*
X023866Y048961D01*
X023819Y048964D01*
X023772Y048961D01*
X023726Y048952D01*
X023682Y048937D01*
X023640Y048916D01*
X023601Y048890D01*
X023566Y048859D01*
X023535Y048824D01*
X023509Y048785D01*
X023489Y048743D01*
X023473Y048699D01*
X023464Y048653D01*
X023461Y048606D01*
X023464Y048560D01*
X023473Y048514D01*
X023489Y048469D01*
X023509Y048427D01*
X023535Y048389D01*
X023564Y048356D01*
X023535Y048324D01*
X023509Y048285D01*
X023489Y048243D01*
X023473Y048199D01*
X023464Y048153D01*
X023461Y048106D01*
X023464Y048060D01*
X023473Y048014D01*
X023489Y047969D01*
X023509Y047927D01*
X023535Y047889D01*
X023543Y047880D01*
X023511Y047793D01*
X023499Y047780D01*
X023241D01*
X022951Y048069D01*
X022925Y048092D01*
X022895Y048110D01*
X022863Y048123D01*
X022830Y048131D01*
X022795Y048134D01*
X021194D01*
X020274Y049054D01*
X020248Y049076D01*
X020218Y049094D01*
X020186Y049108D01*
X020153Y049116D01*
X020118Y049118D01*
X017018D01*
X017004Y049152D01*
X016972Y049209D01*
X016934Y049263D01*
X016891Y049312D01*
X016842Y049356D01*
X016788Y049394D01*
X016731Y049426D01*
X016670Y049451D01*
X016607Y049469D01*
X016542Y049480D01*
X016476Y049484D01*
X016411Y049480D01*
X016346Y049469D01*
X016283Y049451D01*
X016222Y049426D01*
X016165Y049394D01*
X016111Y049356D01*
X016062Y049312D01*
X016018Y049263D01*
X015980Y049209D01*
X015948Y049152D01*
X015923Y049091D01*
X015905Y049028D01*
X015894Y048963D01*
X015890Y048898D01*
X015894Y048832D01*
X015905Y048767D01*
X015923Y048704D01*
X015948Y048643D01*
X015980Y048586D01*
X016018Y048532D01*
X016062Y048483D01*
X016111Y048440D01*
X016165Y048402D01*
X016222Y048370D01*
X016283Y048345D01*
X016346Y048326D01*
X016411Y048315D01*
X016476Y048312D01*
X016542Y048315D01*
X016607Y048326D01*
X016670Y048345D01*
X016731Y048370D01*
X016788Y048402D01*
X016842Y048440D01*
X016891Y048483D01*
X016934Y048532D01*
X016972Y048586D01*
X017004Y048643D01*
X017018Y048677D01*
X020027D01*
X020946Y047757D01*
X020973Y047735D01*
X021002Y047717D01*
X021034Y047704D01*
X021068Y047695D01*
X021102Y047693D01*
X021236D01*
X021261Y047593D01*
X021243Y047583D01*
X021190Y047545D01*
X021141Y047501D01*
X021097Y047452D01*
X021059Y047398D01*
X021027Y047341D01*
X021013Y047307D01*
X020603D01*
X019841Y048069D01*
X019815Y048092D01*
X019785Y048110D01*
X019753Y048123D01*
X019720Y048131D01*
X019685Y048134D01*
X015315D01*
X015283Y048132D01*
X015280Y048131D01*
X015247Y048123D01*
X015215Y048110D01*
X015185Y048092D01*
X015159Y048069D01*
X014436Y047347D01*
X012491D01*
X012477Y047380D01*
X012445Y047438D01*
X012407Y047491D01*
X012363Y047540D01*
X012314Y047584D01*
X012261Y047622D01*
X012203Y047654D01*
X012142Y047679D01*
X012079Y047697D01*
X012014Y047708D01*
X011949Y047712D01*
X011883Y047708D01*
X011818Y047697D01*
X011755Y047679D01*
X011695Y047654D01*
X011637Y047622D01*
X011584Y047584D01*
X011535Y047540D01*
X011491Y047491D01*
X011453Y047438D01*
X011421Y047380D01*
X011396Y047320D01*
X011378Y047256D01*
X011367Y047192D01*
X011363Y047126D01*
X011367Y047060D01*
X011378Y046996D01*
X011396Y046932D01*
X011421Y046872D01*
X011453Y046814D01*
X011491Y046761D01*
X011535Y046712D01*
X011584Y046668D01*
X011637Y046630D01*
X011695Y046598D01*
X011755Y046573D01*
X011818Y046555D01*
X011883Y046544D01*
X011949Y046540D01*
X012014Y046544D01*
X012079Y046555D01*
X012142Y046573D01*
X012203Y046598D01*
X012261Y046630D01*
X012314Y046668D01*
X012363Y046712D01*
X012407Y046761D01*
X012445Y046814D01*
X012477Y046872D01*
X012491Y046905D01*
X014528D01*
X014562Y046908D01*
X014596Y046916D01*
X014628Y046929D01*
X014657Y046947D01*
X014684Y046970D01*
X015406Y047693D01*
X016091D01*
X016123Y047593D01*
X016111Y047584D01*
X016062Y047540D01*
X016018Y047491D01*
X015980Y047438D01*
X015948Y047380D01*
X015923Y047320D01*
X015905Y047256D01*
X015894Y047192D01*
X015890Y047126D01*
X015894Y047060D01*
X015905Y046996D01*
X015923Y046932D01*
X015948Y046872D01*
X015957Y046856D01*
X015909Y046763D01*
X015899Y046756D01*
X013543D01*
X013509Y046753D01*
X013475Y046745D01*
X013443Y046732D01*
X013414Y046714D01*
X013387Y046691D01*
X012943Y046248D01*
X012892Y046276D01*
X012831Y046301D01*
X012768Y046319D01*
X012703Y046330D01*
X012638Y046334D01*
X012572Y046330D01*
X012507Y046319D01*
X012444Y046301D01*
X012384Y046276D01*
X012326Y046244D01*
X012272Y046206D01*
X012224Y046162D01*
X012180Y046113D01*
X012142Y046060D01*
X012110Y046002D01*
X012085Y045942D01*
X012067Y045878D01*
X012056Y045814D01*
X012052Y045748D01*
X012056Y045682D01*
X012067Y045618D01*
X012085Y045555D01*
X012110Y045494D01*
X012142Y045436D01*
X012180Y045383D01*
X012224Y045334D01*
X012272Y045290D01*
X012326Y045252D01*
X012384Y045220D01*
X012444Y045195D01*
X012507Y045177D01*
X012572Y045166D01*
X012638Y045162D01*
X012703Y045166D01*
X012768Y045177D01*
X012831Y045195D01*
X012892Y045220D01*
X012950Y045252D01*
X013003Y045290D01*
X013052Y045334D01*
X013096Y045383D01*
X013134Y045436D01*
X013166Y045494D01*
X013191Y045555D01*
X013209Y045618D01*
X013220Y045682D01*
X013224Y045748D01*
X013220Y045814D01*
X013209Y045878D01*
X013207Y045887D01*
X013635Y046315D01*
X015402D01*
X015434Y046215D01*
X015422Y046206D01*
X015373Y046162D01*
X015329Y046113D01*
X015291Y046060D01*
X015260Y046002D01*
X015234Y045942D01*
X015216Y045878D01*
X015205Y045814D01*
X015201Y045748D01*
X015205Y045682D01*
X015216Y045618D01*
X015234Y045555D01*
X015260Y045494D01*
X015291Y045436D01*
X015329Y045383D01*
X015373Y045334D01*
X015422Y045290D01*
X015476Y045252D01*
X015533Y045220D01*
X015594Y045195D01*
X015657Y045177D01*
X015722Y045166D01*
X015787Y045162D01*
X015853Y045166D01*
X015918Y045177D01*
X015981Y045195D01*
X016042Y045220D01*
X016099Y045252D01*
X016153Y045290D01*
X016202Y045334D01*
X016246Y045383D01*
X016284Y045436D01*
X016315Y045494D01*
X016340Y045555D01*
X016359Y045618D01*
X016370Y045682D01*
X016373Y045748D01*
X016372Y045773D01*
X016470Y045817D01*
X016734Y045553D01*
X016760Y045530D01*
X016790Y045512D01*
X016822Y045499D01*
X016855Y045491D01*
X016890Y045488D01*
X021702D01*
X021716Y045454D01*
X021748Y045397D01*
X021786Y045343D01*
X021830Y045294D01*
X021879Y045251D01*
X021932Y045213D01*
X021990Y045181D01*
X022051Y045156D01*
X022108Y045139D01*
X023151Y044096D01*
X023177Y044073D01*
X023207Y044055D01*
X023239Y044042D01*
X023273Y044034D01*
X023307Y044031D01*
X025512D01*
X025546Y044034D01*
X025580Y044042D01*
X025612Y044055D01*
X025642Y044073D01*
X025668Y044096D01*
X027769Y046197D01*
X033334D01*
X033978Y045553D01*
X034004Y045530D01*
X034034Y045512D01*
X034066Y045499D01*
X034099Y045491D01*
X034134Y045488D01*
X035600D01*
X035614Y045454D01*
X035646Y045397D01*
X035684Y045343D01*
X035727Y045294D01*
X035776Y045251D01*
X035830Y045213D01*
X035888Y045181D01*
X035948Y045156D01*
X036011Y045137D01*
X036076Y045126D01*
X036142Y045123D01*
X036177Y045125D01*
X037364Y043938D01*
X037390Y043916D01*
X037420Y043898D01*
X037451Y043885D01*
X037485Y043877D01*
X037520Y043874D01*
X039252D01*
X039286Y043877D01*
X039320Y043885D01*
X039352Y043898D01*
X039382Y043916D01*
X039408Y043938D01*
X040918Y045449D01*
X044891D01*
X044905Y045415D01*
X044937Y045358D01*
X044975Y045304D01*
X045019Y045255D01*
X045068Y045211D01*
X045121Y045173D01*
X045179Y045141D01*
X045240Y045116D01*
X045303Y045098D01*
X045367Y045087D01*
X045389Y045086D01*
X046379Y044096D01*
X046406Y044073D01*
X046435Y044055D01*
X046467Y044042D01*
X046501Y044034D01*
X046503Y044034D01*
X046535Y044031D01*
X048386D01*
X048420Y044034D01*
X048454Y044042D01*
X048486Y044055D01*
X048516Y044073D01*
X048542Y044096D01*
X050603Y046157D01*
X056838D01*
X057442Y045553D01*
X057469Y045530D01*
X057498Y045512D01*
X057530Y045499D01*
X057564Y045491D01*
X057598Y045488D01*
X058868D01*
X058882Y045454D01*
X058913Y045397D01*
X058951Y045343D01*
X058995Y045294D01*
X059044Y045251D01*
X059098Y045213D01*
X059155Y045181D01*
X059216Y045156D01*
X059273Y045139D01*
X060238Y044175D01*
X060264Y044152D01*
X060294Y044134D01*
X060312Y044126D01*
X060326Y044121D01*
X060359Y044113D01*
X060394Y044110D01*
X062598D01*
X062633Y044113D01*
X062667Y044121D01*
X062699Y044134D01*
X062728Y044152D01*
X062754Y044175D01*
X063868Y045288D01*
X063889Y045274D01*
X063937Y045250D01*
X063988Y045233D01*
X064041Y045223D01*
X064094Y045219D01*
X064148Y045223D01*
X064201Y045233D01*
X064252Y045250D01*
X064300Y045274D01*
X064345Y045304D01*
X064385Y045339D01*
X064420Y045380D01*
X064450Y045424D01*
X064474Y045473D01*
X064479Y045488D01*
X068474D01*
X068488Y045454D01*
X068520Y045397D01*
X068558Y045343D01*
X068601Y045294D01*
X068650Y045251D01*
X068704Y045213D01*
X068762Y045181D01*
X068822Y045156D01*
X068885Y045137D01*
X068950Y045126D01*
X069016Y045123D01*
X069081Y045126D01*
X069146Y045137D01*
X069209Y045156D01*
X069270Y045181D01*
X069328Y045213D01*
X069381Y045251D01*
X069430Y045294D01*
X069474Y045343D01*
X069512Y045397D01*
X069544Y045454D01*
X069569Y045515D01*
X069587Y045578D01*
X069598Y045643D01*
X069602Y045709D01*
X069598Y045774D01*
X069587Y045839D01*
X069569Y045902D01*
X069544Y045963D01*
X069512Y046020D01*
X069474Y046074D01*
X069430Y046123D01*
X069381Y046167D01*
X069328Y046205D01*
X069270Y046237D01*
X069209Y046262D01*
X069146Y046280D01*
X069103Y046287D01*
X069074Y046342D01*
X069066Y046392D01*
X069304Y046630D01*
X072488D01*
X072489Y046629D01*
X072543Y046591D01*
X072600Y046559D01*
X072661Y046534D01*
X072724Y046515D01*
X072789Y046504D01*
X072854Y046501D01*
X072920Y046504D01*
X072985Y046515D01*
X073048Y046534D01*
X073109Y046559D01*
X073166Y046591D01*
X073220Y046629D01*
X073269Y046672D01*
X073301Y046709D01*
X073347Y046703D01*
X073401Y046674D01*
Y041290D01*
X073371Y041269D01*
X073301Y041253D01*
X073283Y041275D01*
X073242Y041310D01*
X073198Y041340D01*
X073149Y041364D01*
X073098Y041381D01*
X073046Y041392D01*
X072992Y041395D01*
X072938Y041392D01*
X072886Y041381D01*
X072835Y041364D01*
X072787Y041340D01*
X072742Y041310D01*
X072702Y041275D01*
X072666Y041234D01*
X072646Y041205D01*
X067793D01*
X067771Y041233D01*
X067750Y041305D01*
X067767Y041325D01*
X067797Y041369D01*
X067821Y041418D01*
X067838Y041468D01*
X067848Y041521D01*
X067852Y041575D01*
X067848Y041628D01*
X067838Y041681D01*
X067821Y041732D01*
X067797Y041780D01*
X067767Y041825D01*
X067731Y041865D01*
X067691Y041901D01*
X067646Y041931D01*
X067598Y041954D01*
X067547Y041972D01*
X067495Y041982D01*
X067441Y041986D01*
X067387Y041982D01*
X067335Y041972D01*
X067284Y041954D01*
X067236Y041931D01*
X067191Y041901D01*
X067150Y041865D01*
X067124Y041835D01*
X058535D01*
X058515Y041864D01*
X058480Y041905D01*
X058439Y041940D01*
X058394Y041970D01*
X058346Y041994D01*
X058295Y042011D01*
X058243Y042022D01*
X058189Y042025D01*
X058135Y042022D01*
X058083Y042011D01*
X058032Y041994D01*
X057984Y041970D01*
X057939Y041940D01*
X057898Y041905D01*
X057863Y041864D01*
X057856Y041855D01*
X044539D01*
X044519Y041884D01*
X044483Y041924D01*
X044443Y041960D01*
X044398Y041990D01*
X044350Y042013D01*
X044299Y042031D01*
X044247Y042041D01*
X044193Y042045D01*
X044139Y042041D01*
X044087Y042031D01*
X044036Y042013D01*
X043987Y041990D01*
X043943Y041960D01*
X043902Y041924D01*
X043867Y041884D01*
X043860Y041874D01*
X034952D01*
X034932Y041904D01*
X034897Y041944D01*
X034856Y041980D01*
X034812Y042009D01*
X034764Y042033D01*
X034713Y042050D01*
X034660Y042061D01*
X034606Y042064D01*
X034553Y042061D01*
X034500Y042050D01*
X034449Y042033D01*
X034401Y042009D01*
X034356Y041980D01*
X034316Y041944D01*
X034280Y041904D01*
X034261Y041874D01*
X021054D01*
X021035Y041904D01*
X020999Y041944D01*
X020959Y041980D01*
X020914Y042009D01*
X020866Y042033D01*
X020815Y042050D01*
X020762Y042061D01*
X020709Y042064D01*
X020655Y042061D01*
X020602Y042050D01*
X020551Y042033D01*
X020503Y042009D01*
X020459Y041980D01*
X020418Y041944D01*
X020383Y041904D01*
X020363Y041874D01*
X013681D01*
X013669Y041898D01*
X013639Y041943D01*
X013604Y041983D01*
X013564Y042019D01*
X013519Y042049D01*
X013471Y042073D01*
X013420Y042090D01*
X013367Y042100D01*
X013313Y042104D01*
X013260Y042100D01*
X013207Y042090D01*
X013156Y042073D01*
X013108Y042049D01*
X013063Y042019D01*
X013023Y041983D01*
X012987Y041943D01*
X012968Y041914D01*
X012362D01*
X012330Y041911D01*
X012328Y041911D01*
X012294Y041903D01*
X012262Y041890D01*
X012232Y041871D01*
X012206Y041849D01*
X011675Y041317D01*
X011652Y041291D01*
X011634Y041262D01*
X011621Y041230D01*
X011613Y041196D01*
X011610Y041161D01*
Y039941D01*
X011613Y039906D01*
X011621Y039873D01*
X011634Y039841D01*
X011652Y039811D01*
X011675Y039785D01*
X013033Y038427D01*
X013059Y038404D01*
X013089Y038386D01*
X013121Y038373D01*
X013154Y038365D01*
X013189Y038362D01*
X017704D01*
X018576Y037490D01*
X018577Y037487D01*
X018560Y037384D01*
X018552Y037373D01*
X018518Y037352D01*
X018481Y037320D01*
X018449Y037283D01*
X018423Y037242D01*
X018405Y037196D01*
X018402Y037185D01*
X018299D01*
X018296Y037196D01*
X018277Y037242D01*
X018252Y037283D01*
X018220Y037320D01*
X018183Y037352D01*
X018142Y037377D01*
X018096Y037396D01*
X018049Y037408D01*
X018000Y037411D01*
X017700D01*
X017652Y037408D01*
X017604Y037396D01*
X017559Y037377D01*
X017518Y037352D01*
X017481Y037320D01*
X017449Y037283D01*
X017423Y037242D01*
X017405Y037196D01*
X017402Y037185D01*
X017299D01*
X017296Y037196D01*
X017277Y037242D01*
X017252Y037283D01*
X017220Y037320D01*
X017183Y037352D01*
X017142Y037377D01*
X017096Y037396D01*
X017049Y037408D01*
X017000Y037411D01*
X016700D01*
X016652Y037408D01*
X016604Y037396D01*
X016559Y037377D01*
X016518Y037352D01*
X016481Y037320D01*
X016449Y037283D01*
X016423Y037242D01*
X016405Y037196D01*
X016402Y037185D01*
X016299D01*
X016296Y037196D01*
X016277Y037242D01*
X016252Y037283D01*
X016220Y037320D01*
X016183Y037352D01*
X016142Y037377D01*
X016096Y037396D01*
X016049Y037408D01*
X016000Y037411D01*
X015700D01*
X015652Y037408D01*
X015604Y037396D01*
X015559Y037377D01*
X015518Y037352D01*
X015481Y037320D01*
X015449Y037283D01*
X015423Y037242D01*
X015405Y037196D01*
X015402Y037185D01*
X015299D01*
X015296Y037196D01*
X015277Y037242D01*
X015252Y037283D01*
X015220Y037320D01*
X015183Y037352D01*
X015142Y037377D01*
X015096Y037396D01*
X015049Y037408D01*
X015000Y037411D01*
X014700D01*
X014652Y037408D01*
X014604Y037396D01*
X014559Y037377D01*
X014518Y037352D01*
X014481Y037320D01*
X014449Y037283D01*
X014423Y037242D01*
X014405Y037196D01*
X014402Y037185D01*
X014299D01*
X014296Y037196D01*
X014277Y037242D01*
X014252Y037283D01*
X014220Y037320D01*
X014183Y037352D01*
X014142Y037377D01*
X014096Y037396D01*
X014049Y037408D01*
X014000Y037411D01*
X013700D01*
X013652Y037408D01*
X013604Y037396D01*
X013559Y037377D01*
X013518Y037352D01*
X013481Y037320D01*
X013449Y037283D01*
X013423Y037242D01*
X013405Y037196D01*
X013402Y037185D01*
X013299D01*
X013296Y037196D01*
X013277Y037242D01*
X013252Y037283D01*
X013220Y037320D01*
X013183Y037352D01*
X013142Y037377D01*
X013096Y037396D01*
X013049Y037408D01*
X013000Y037411D01*
X012700D01*
X012652Y037408D01*
X012604Y037396D01*
X012559Y037377D01*
X012518Y037352D01*
X012481Y037320D01*
X012449Y037283D01*
X012423Y037242D01*
X012405Y037196D01*
X012402Y037185D01*
X012299D01*
X012296Y037196D01*
X012277Y037242D01*
X012252Y037283D01*
X012220Y037320D01*
X012183Y037352D01*
X012142Y037377D01*
X012096Y037396D01*
X012049Y037408D01*
X012000Y037411D01*
X011700D01*
X011652Y037408D01*
X011604Y037396D01*
X011559Y037377D01*
X011518Y037352D01*
X011481Y037320D01*
X011449Y037283D01*
X011423Y037242D01*
X011405Y037196D01*
X011393Y037149D01*
X011389Y037100D01*
Y036600D01*
X011393Y036552D01*
X011405Y036504D01*
X011423Y036459D01*
X011449Y036418D01*
X011481Y036381D01*
X011518Y036349D01*
X011559Y036323D01*
X011604Y036305D01*
X011652Y036293D01*
X011700Y036289D01*
X011721D01*
X012253Y035757D01*
X012292Y035725D01*
X012335Y035698D01*
X012348Y035693D01*
X012381Y035679D01*
X012430Y035667D01*
X012480Y035663D01*
X021457D01*
X021507Y035667D01*
X021556Y035679D01*
X021583Y035690D01*
X021602Y035698D01*
X021645Y035725D01*
X021684Y035757D01*
X022889Y036963D01*
X029988D01*
X029997Y036949D01*
X030037Y036905D01*
X030082Y036865D01*
X030131Y036830D01*
X030183Y036801D01*
X030239Y036778D01*
X030297Y036761D01*
X030356Y036751D01*
X030416Y036748D01*
X030476Y036751D01*
X030492Y036754D01*
X031173Y036072D01*
X031212Y036040D01*
X031254Y036013D01*
X031274Y036005D01*
X031301Y035994D01*
X031350Y035982D01*
X031400Y035978D01*
X036125D01*
X036175Y035982D01*
X036224Y035994D01*
X036251Y036005D01*
X036270Y036013D01*
X036313Y036040D01*
X036352Y036072D01*
X037033Y036754D01*
X037049Y036751D01*
X037109Y036748D01*
X037169Y036751D01*
X037185Y036754D01*
X037866Y036072D01*
X037904Y036040D01*
X037947Y036013D01*
X037967Y036005D01*
X037994Y035994D01*
X038043Y035982D01*
X038093Y035978D01*
X042778D01*
X042828Y035982D01*
X042877Y035994D01*
X042905Y036005D01*
X042924Y036013D01*
X042967Y036040D01*
X043005Y036072D01*
X043726Y036793D01*
X043742Y036790D01*
X043802Y036787D01*
X043862Y036790D01*
X043878Y036793D01*
X044598Y036072D01*
X044637Y036040D01*
X044680Y036013D01*
X044693Y036008D01*
X044726Y035994D01*
X044775Y035982D01*
X044825Y035978D01*
X049528D01*
X049578Y035982D01*
X049627Y035994D01*
X049654Y036005D01*
X049673Y036013D01*
X049716Y036040D01*
X049755Y036072D01*
X050471Y036788D01*
X050495Y036787D01*
X050555Y036790D01*
X050614Y036800D01*
X050672Y036817D01*
X050727Y036840D01*
X050780Y036869D01*
X050829Y036904D01*
X050874Y036944D01*
X050914Y036989D01*
X050948Y037038D01*
X050977Y037090D01*
X051000Y037146D01*
X051017Y037204D01*
X051027Y037263D01*
X051030Y037323D01*
X051027Y037383D01*
X051017Y037442D01*
X051000Y037500D01*
X050977Y037555D01*
X050948Y037608D01*
X050914Y037657D01*
X050874Y037702D01*
X050863Y037711D01*
X050902Y037811D01*
X054088D01*
X054126Y037711D01*
X054116Y037702D01*
X054076Y037657D01*
X054041Y037608D01*
X054012Y037555D01*
X053989Y037500D01*
X053972Y037442D01*
X053962Y037383D01*
X053959Y037323D01*
X053962Y037263D01*
X053972Y037204D01*
X053989Y037146D01*
X054012Y037090D01*
X054041Y037038D01*
X054076Y036989D01*
X054116Y036944D01*
X054161Y036904D01*
X054210Y036869D01*
X054262Y036840D01*
X054318Y036817D01*
X054375Y036800D01*
X054435Y036790D01*
X054495Y036787D01*
X054555Y036790D01*
X054614Y036800D01*
X054672Y036817D01*
X054727Y036840D01*
X054780Y036869D01*
X054829Y036904D01*
X054874Y036944D01*
X054914Y036989D01*
X054948Y037038D01*
X054977Y037090D01*
X055000Y037146D01*
X055017Y037204D01*
X055027Y037263D01*
X055030Y037323D01*
X055027Y037383D01*
X055017Y037442D01*
X055000Y037500D01*
X054977Y037555D01*
X054948Y037608D01*
X054914Y037657D01*
X054874Y037702D01*
X054863Y037711D01*
X054902Y037811D01*
X066271D01*
X066584Y037498D01*
X066586Y037459D01*
X066567Y037387D01*
X066543Y037377D01*
X066502Y037352D01*
X066465Y037320D01*
X066433Y037283D01*
X066408Y037242D01*
X066389Y037196D01*
X066386Y037185D01*
X066283D01*
X066280Y037196D01*
X066262Y037242D01*
X066236Y037283D01*
X066205Y037320D01*
X066167Y037352D01*
X066126Y037377D01*
X066081Y037396D01*
X066033Y037408D01*
X065985Y037411D01*
X065685D01*
X065636Y037408D01*
X065589Y037396D01*
X065543Y037377D01*
X065502Y037352D01*
X065465Y037320D01*
X065433Y037283D01*
X065408Y037242D01*
X065389Y037196D01*
X065386Y037185D01*
X065283D01*
X065280Y037196D01*
X065262Y037242D01*
X065236Y037283D01*
X065205Y037320D01*
X065167Y037352D01*
X065126Y037377D01*
X065081Y037396D01*
X065033Y037408D01*
X064985Y037411D01*
X064685D01*
X064636Y037408D01*
X064589Y037396D01*
X064543Y037377D01*
X064502Y037352D01*
X064465Y037320D01*
X064433Y037283D01*
X064408Y037242D01*
X064389Y037196D01*
X064386Y037185D01*
X064283D01*
X064280Y037196D01*
X064262Y037242D01*
X064236Y037283D01*
X064205Y037320D01*
X064167Y037352D01*
X064126Y037377D01*
X064081Y037396D01*
X064033Y037408D01*
X063985Y037411D01*
X063685D01*
X063636Y037408D01*
X063589Y037396D01*
X063543Y037377D01*
X063502Y037352D01*
X063465Y037320D01*
X063433Y037283D01*
X063408Y037242D01*
X063389Y037196D01*
X063378Y037149D01*
X063374Y037100D01*
Y036600D01*
X063378Y036552D01*
X063389Y036504D01*
X063408Y036459D01*
X063433Y036418D01*
X063465Y036381D01*
X063502Y036349D01*
X063543Y036323D01*
X063589Y036305D01*
X063636Y036293D01*
X063685Y036289D01*
X063985D01*
X064033Y036293D01*
X064081Y036305D01*
X064126Y036323D01*
X064167Y036349D01*
X064205Y036381D01*
X064236Y036418D01*
X064262Y036459D01*
X064280Y036504D01*
X064283Y036516D01*
X064386D01*
X064389Y036504D01*
X064408Y036459D01*
X064433Y036418D01*
X064465Y036381D01*
X064502Y036349D01*
X064543Y036323D01*
X064589Y036305D01*
X064636Y036293D01*
X064685Y036289D01*
X064985D01*
X065033Y036293D01*
X065081Y036305D01*
X065126Y036323D01*
X065167Y036349D01*
X065205Y036381D01*
X065236Y036418D01*
X065262Y036459D01*
X065280Y036504D01*
X065283Y036516D01*
X065386D01*
X065389Y036504D01*
X065408Y036459D01*
X065433Y036418D01*
X065465Y036381D01*
X065502Y036349D01*
X065543Y036323D01*
X065589Y036305D01*
X065636Y036293D01*
X065685Y036289D01*
X065985D01*
X066033Y036293D01*
X066081Y036305D01*
X066126Y036323D01*
X066167Y036349D01*
X066205Y036381D01*
X066236Y036418D01*
X066262Y036459D01*
X066280Y036504D01*
X066283Y036516D01*
X066386D01*
X066389Y036504D01*
X066408Y036459D01*
X066433Y036418D01*
X066465Y036381D01*
X066502Y036349D01*
X066543Y036323D01*
X066589Y036305D01*
X066636Y036293D01*
X066685Y036289D01*
X066985D01*
X067033Y036293D01*
X067081Y036305D01*
X067126Y036323D01*
X067167Y036349D01*
X067205Y036381D01*
X067236Y036418D01*
X067262Y036459D01*
X067280Y036504D01*
X067283Y036516D01*
X067386D01*
X067389Y036504D01*
X067408Y036459D01*
X067433Y036418D01*
X067465Y036381D01*
X067502Y036349D01*
X067543Y036323D01*
X067589Y036305D01*
X067636Y036293D01*
X067685Y036289D01*
X067985D01*
X068033Y036293D01*
X068081Y036305D01*
X068126Y036323D01*
X068167Y036349D01*
X068205Y036381D01*
X068236Y036418D01*
X068262Y036459D01*
X068280Y036504D01*
X068283Y036516D01*
X068386D01*
X068389Y036504D01*
X068408Y036459D01*
X068433Y036418D01*
X068465Y036381D01*
X068502Y036349D01*
X068543Y036323D01*
X068589Y036305D01*
X068636Y036293D01*
X068685Y036289D01*
X068985D01*
X069033Y036293D01*
X069081Y036305D01*
X069126Y036323D01*
X069167Y036349D01*
X069205Y036381D01*
X069236Y036418D01*
X069262Y036459D01*
X069280Y036504D01*
X069283Y036516D01*
X069386D01*
X069389Y036504D01*
X069408Y036459D01*
X069433Y036418D01*
X069465Y036381D01*
X069502Y036349D01*
X069543Y036323D01*
X069589Y036305D01*
X069636Y036293D01*
X069685Y036289D01*
X069985D01*
X070033Y036293D01*
X070081Y036305D01*
X070126Y036323D01*
X070167Y036349D01*
X070205Y036381D01*
X070236Y036418D01*
X070262Y036459D01*
X070280Y036504D01*
X070283Y036516D01*
X070386D01*
X070389Y036504D01*
X070408Y036459D01*
X070433Y036418D01*
X070465Y036381D01*
X070502Y036349D01*
X070543Y036323D01*
X070589Y036305D01*
X070636Y036293D01*
X070685Y036289D01*
X070879D01*
X071616Y035553D01*
X071642Y035530D01*
X071671Y035512D01*
X071703Y035499D01*
X071737Y035491D01*
X071740Y035491D01*
X071772Y035488D01*
X073504D01*
X073538Y035491D01*
X073572Y035499D01*
X073604Y035512D01*
X073634Y035530D01*
X073660Y035553D01*
X074565Y036458D01*
X074588Y036484D01*
X074606Y036514D01*
X074619Y036546D01*
X074627Y036580D01*
X074630Y036614D01*
Y050433D01*
X074628Y050465D01*
X074627Y050468D01*
X074619Y050501D01*
X074606Y050533D01*
X074588Y050563D01*
X074565Y050589D01*
X072991Y052164D01*
X072964Y052186D01*
X072935Y052205D01*
X072903Y052218D01*
X072869Y052226D01*
X072835Y052229D01*
X072707D01*
X072693Y052262D01*
X072661Y052320D01*
X072623Y052373D01*
X072580Y052422D01*
X072531Y052466D01*
X072477Y052504D01*
X072420Y052536D01*
X072359Y052561D01*
X072296Y052579D01*
X072231Y052590D01*
X072165Y052594D01*
X072100Y052590D01*
X072035Y052579D01*
X071972Y052561D01*
X071911Y052536D01*
X071854Y052504D01*
X071800Y052466D01*
X071751Y052422D01*
X071707Y052373D01*
X071669Y052320D01*
X071637Y052262D01*
X071612Y052201D01*
X071594Y052138D01*
X071583Y052073D01*
X071579Y052008D01*
X071583Y051942D01*
X071594Y051877D01*
X071600Y051856D01*
X071549Y051771D01*
X071528Y051756D01*
X070816D01*
X070784Y051849D01*
X070845Y051874D01*
X070902Y051905D01*
X070956Y051943D01*
X071005Y051987D01*
X071049Y052036D01*
X071087Y052090D01*
X071118Y052147D01*
X071144Y052208D01*
X071162Y052271D01*
X071173Y052336D01*
X071176Y052402D01*
X071173Y052467D01*
X071162Y052532D01*
X071144Y052595D01*
X071118Y052656D01*
X071087Y052713D01*
X071049Y052767D01*
X071005Y052816D01*
X070956Y052860D01*
X070902Y052898D01*
X070845Y052929D01*
X070784Y052955D01*
X070721Y052973D01*
X070656Y052984D01*
X070591Y052987D01*
X070525Y052984D01*
X070460Y052973D01*
X070397Y052955D01*
X070363Y052941D01*
X069762Y053542D01*
X069736Y053564D01*
X069706Y053582D01*
X069675Y053596D01*
X069641Y053604D01*
X069606Y053607D01*
X061968D01*
X061934Y053604D01*
X061900Y053596D01*
X061868Y053582D01*
X061839Y053564D01*
X061812Y053542D01*
X061211Y052941D01*
X061178Y052955D01*
X061115Y052973D01*
X061050Y052984D01*
X060984Y052987D01*
X060919Y052984D01*
X060854Y052973D01*
X060791Y052955D01*
X060757Y052941D01*
X059054Y054644D01*
X059027Y054667D01*
X058998Y054685D01*
X058966Y054698D01*
X058932Y054706D01*
X058898Y054709D01*
X048976D01*
X048942Y054706D01*
X048908Y054698D01*
X048876Y054685D01*
X048847Y054667D01*
X048820Y054644D01*
X047114Y052938D01*
X047073Y052944D01*
X047008Y052948D01*
X046942Y052944D01*
X046877Y052933D01*
X046814Y052915D01*
X046781Y052901D01*
X046180Y053502D01*
X046153Y053525D01*
X046124Y053543D01*
X046092Y053556D01*
X046058Y053564D01*
X046024Y053567D01*
X045827D01*
Y053622D01*
X038858D01*
X038858Y053622D01*
X038836Y053567D01*
X038583D01*
X038548Y053564D01*
X038514Y053556D01*
X038501Y053551D01*
X038482Y053543D01*
X038453Y053525D01*
X038427Y053502D01*
X037886Y052962D01*
X037847Y052973D01*
X037782Y052984D01*
X037717Y052987D01*
X037651Y052984D01*
X037586Y052973D01*
X037523Y052955D01*
X037462Y052929D01*
X037405Y052898D01*
X037351Y052860D01*
X037302Y052816D01*
X037275Y052785D01*
X037212Y052771D01*
X037142Y052776D01*
X035235Y054684D01*
X035208Y054706D01*
X035179Y054724D01*
X035147Y054737D01*
X035113Y054746D01*
X035079Y054748D01*
D02*
G37*
G36*
X014569Y050042D02*
X013856D01*
Y049328D01*
X014569D01*
Y050042D01*
D02*
G37*
G36*
X037638Y011296D02*
X037498Y011277D01*
X037368Y011223D01*
X037256Y011137D01*
X037170Y011026D01*
X037117Y010896D01*
X037098Y010756D01*
X037117Y010616D01*
X037170Y010486D01*
X037256Y010374D01*
X037368Y010289D01*
X037498Y010235D01*
X037638Y010216D01*
X037777Y010235D01*
X037908Y010289D01*
X038019Y010374D01*
X038105Y010486D01*
X038159Y010616D01*
X038177Y010756D01*
X038159Y010896D01*
X038105Y011026D01*
X038019Y011137D01*
X037908Y011223D01*
X037777Y011277D01*
X037638Y011296D01*
D02*
G37*
G36*
X045827Y015045D02*
X045734Y015033D01*
X045647Y014997D01*
X045642Y014993D01*
X045572Y014940D01*
X045451Y014940D01*
X045382Y014993D01*
X045377Y014997D01*
X045290Y015033D01*
X045197Y015045D01*
X045104Y015033D01*
X045017Y014997D01*
X044942Y014940D01*
X044885Y014865D01*
X044849Y014778D01*
X044837Y014685D01*
X044846Y014614D01*
X044540Y014246D01*
X044524Y014216D01*
X044505Y014188D01*
X044503Y014178D01*
X044498Y014169D01*
X044495Y014135D01*
X044488Y014102D01*
Y013908D01*
X044483Y013906D01*
X044388Y013833D01*
X044323Y013748D01*
X044253Y013737D01*
X044172D01*
X044103Y013748D01*
X044037Y013833D01*
X043942Y013906D01*
X043831Y013951D01*
X043713Y013967D01*
X043594Y013951D01*
X043483Y013906D01*
X043388Y013833D01*
X043315Y013737D01*
X043269Y013627D01*
X043253Y013508D01*
X043269Y013389D01*
X043315Y013278D01*
X043388Y013183D01*
X043483Y013110D01*
X043594Y013064D01*
X043713Y013049D01*
X043831Y013064D01*
X043942Y013110D01*
X044037Y013183D01*
X044103Y013268D01*
X044172Y013278D01*
X044253D01*
X044323Y013268D01*
X044388Y013183D01*
X044483Y013110D01*
X044594Y013064D01*
X044713Y013049D01*
X044831Y013064D01*
X044942Y013110D01*
X045037Y013183D01*
X045057Y013209D01*
X045257Y013141D01*
Y013053D01*
X046168D01*
Y013963D01*
X046051D01*
Y014407D01*
X046081Y014431D01*
X046138Y014505D01*
X046174Y014592D01*
X046187Y014685D01*
X046174Y014778D01*
X046138Y014865D01*
X046081Y014940D01*
X046007Y014997D01*
X045920Y015033D01*
X045827Y015045D01*
D02*
G37*
G36*
X031208Y046043D02*
X030288D01*
Y045123D01*
X031208D01*
Y046043D01*
D02*
G37*
G36*
X072165Y046295D02*
X072100Y046291D01*
X072035Y046280D01*
X071972Y046262D01*
X071911Y046237D01*
X071854Y046205D01*
X071800Y046167D01*
X071751Y046123D01*
X071707Y046074D01*
X071669Y046020D01*
X071637Y045963D01*
X071612Y045902D01*
X071594Y045839D01*
X071583Y045774D01*
X071579Y045709D01*
X071583Y045643D01*
X071594Y045578D01*
X071612Y045515D01*
X071637Y045454D01*
X071669Y045397D01*
X071707Y045343D01*
X071751Y045294D01*
X071800Y045251D01*
X071854Y045213D01*
X071911Y045181D01*
X071972Y045156D01*
X072035Y045137D01*
X072100Y045126D01*
X072165Y045123D01*
X072231Y045126D01*
X072296Y045137D01*
X072359Y045156D01*
X072420Y045181D01*
X072477Y045213D01*
X072531Y045251D01*
X072580Y045294D01*
X072623Y045343D01*
X072661Y045397D01*
X072693Y045454D01*
X072718Y045515D01*
X072737Y045578D01*
X072748Y045643D01*
X072751Y045709D01*
X072748Y045774D01*
X072737Y045839D01*
X072718Y045902D01*
X072693Y045963D01*
X072661Y046020D01*
X072623Y046074D01*
X072580Y046123D01*
X072531Y046167D01*
X072477Y046205D01*
X072420Y046237D01*
X072359Y046262D01*
X072296Y046280D01*
X072231Y046291D01*
X072165Y046295D01*
D02*
G37*
G36*
X070591Y045901D02*
X070525Y045897D01*
X070460Y045886D01*
X070397Y045868D01*
X070336Y045843D01*
X070279Y045811D01*
X070225Y045773D01*
X070176Y045729D01*
X070132Y045680D01*
X070094Y045627D01*
X070063Y045569D01*
X070038Y045508D01*
X070019Y045445D01*
X070008Y045381D01*
X070005Y045315D01*
X070008Y045249D01*
X070019Y045185D01*
X070038Y045121D01*
X070063Y045061D01*
X070094Y045003D01*
X070132Y044950D01*
X070176Y044901D01*
X070225Y044857D01*
X070279Y044819D01*
X070336Y044787D01*
X070397Y044762D01*
X070460Y044744D01*
X070525Y044733D01*
X070591Y044729D01*
X070656Y044733D01*
X070721Y044744D01*
X070784Y044762D01*
X070845Y044787D01*
X070902Y044819D01*
X070956Y044857D01*
X071005Y044901D01*
X071049Y044950D01*
X071087Y045003D01*
X071118Y045061D01*
X071144Y045121D01*
X071162Y045185D01*
X071173Y045249D01*
X071176Y045315D01*
X071173Y045381D01*
X071162Y045445D01*
X071144Y045508D01*
X071118Y045569D01*
X071087Y045627D01*
X071049Y045680D01*
X071005Y045729D01*
X070956Y045773D01*
X070902Y045811D01*
X070845Y045843D01*
X070784Y045868D01*
X070721Y045886D01*
X070656Y045897D01*
X070591Y045901D01*
D02*
G37*
G36*
X014213Y045940D02*
X014147Y045937D01*
X014082Y045926D01*
X014019Y045907D01*
X013958Y045882D01*
X013901Y045850D01*
X013847Y045812D01*
X013798Y045769D01*
X013755Y045720D01*
X013716Y045666D01*
X013685Y045609D01*
X013660Y045548D01*
X013641Y045485D01*
X013630Y045420D01*
X013627Y045354D01*
X013630Y045289D01*
X013641Y045224D01*
X013660Y045161D01*
X013685Y045100D01*
X013716Y045043D01*
X013755Y044989D01*
X013798Y044940D01*
X013847Y044896D01*
X013901Y044858D01*
X013958Y044826D01*
X014019Y044801D01*
X014082Y044783D01*
X014147Y044772D01*
X014213Y044768D01*
X014278Y044772D01*
X014343Y044783D01*
X014406Y044801D01*
X014467Y044826D01*
X014524Y044858D01*
X014578Y044896D01*
X014627Y044940D01*
X014671Y044989D01*
X014709Y045043D01*
X014741Y045100D01*
X014766Y045161D01*
X014784Y045224D01*
X014795Y045289D01*
X014799Y045354D01*
X014795Y045420D01*
X014784Y045485D01*
X014766Y045548D01*
X014741Y045609D01*
X014709Y045666D01*
X014671Y045720D01*
X014627Y045769D01*
X014578Y045812D01*
X014524Y045850D01*
X014467Y045882D01*
X014406Y045907D01*
X014343Y045926D01*
X014278Y045937D01*
X014213Y045940D01*
D02*
G37*
G36*
X054472Y046047D02*
X053552D01*
Y045127D01*
X054472D01*
Y046047D01*
D02*
G37*
G36*
X012126Y018107D02*
X011986Y018088D01*
X011856Y018034D01*
X011744Y017949D01*
X011659Y017837D01*
X011605Y017707D01*
X011586Y017567D01*
X011605Y017427D01*
X011659Y017297D01*
X011744Y017185D01*
X011856Y017100D01*
X011986Y017046D01*
X012126Y017027D01*
X012266Y017046D01*
X012286Y017054D01*
X013036Y016303D01*
X013036Y016295D01*
X012966Y016204D01*
X012938Y016137D01*
X012865Y016122D01*
X012804D01*
X012731Y016137D01*
X012703Y016204D01*
X012634Y016295D01*
X012543Y016365D01*
X012437Y016409D01*
X012323Y016424D01*
X012209Y016409D01*
X012103Y016365D01*
X012012Y016295D01*
X011942Y016204D01*
X011898Y016098D01*
X011883Y015984D01*
X011898Y015871D01*
X011942Y015765D01*
X012000Y015689D01*
Y015222D01*
X011941Y015177D01*
X011856Y015065D01*
X011802Y014935D01*
X011783Y014795D01*
X011802Y014656D01*
X011856Y014525D01*
X011941Y014414D01*
X012053Y014328D01*
X012183Y014274D01*
X012323Y014256D01*
X012463Y014274D01*
X012593Y014328D01*
X012704Y014414D01*
X012790Y014525D01*
X012844Y014656D01*
X012862Y014795D01*
X012844Y014935D01*
X012790Y015065D01*
X012704Y015177D01*
X012646Y015222D01*
Y015689D01*
X012703Y015765D01*
X012731Y015832D01*
X012804Y015847D01*
X012865D01*
X012938Y015832D01*
X012966Y015765D01*
X013036Y015674D01*
X013127Y015604D01*
X013233Y015560D01*
X013346Y015545D01*
X013460Y015560D01*
X013566Y015604D01*
X013657Y015674D01*
X013727Y015765D01*
X013771Y015871D01*
X013786Y015984D01*
X013771Y016098D01*
X013727Y016204D01*
X013657Y016295D01*
X013596Y016342D01*
Y016346D01*
X013577Y016442D01*
X013523Y016523D01*
X012639Y017407D01*
X012647Y017427D01*
X012666Y017567D01*
X012647Y017707D01*
X012593Y017837D01*
X012508Y017949D01*
X012396Y018034D01*
X012266Y018088D01*
X012126Y018107D01*
D02*
G37*
G36*
X056008Y016631D02*
X055881Y016614D01*
X055763Y016565D01*
X055662Y016488D01*
X055584Y016386D01*
X055535Y016268D01*
X055519Y016142D01*
X055535Y016015D01*
X055584Y015897D01*
X055662Y015796D01*
X055763Y015718D01*
X055881Y015669D01*
X056008Y015653D01*
X056134Y015669D01*
X056252Y015718D01*
X056354Y015796D01*
X056432Y015897D01*
X056480Y016015D01*
X056497Y016142D01*
X056480Y016268D01*
X056432Y016386D01*
X056354Y016488D01*
X056252Y016565D01*
X056134Y016614D01*
X056008Y016631D01*
D02*
G37*
G36*
X059685Y021004D02*
X059545Y020986D01*
X059415Y020932D01*
X059303Y020846D01*
X059218Y020734D01*
X059164Y020604D01*
X059145Y020465D01*
X059164Y020325D01*
X059218Y020195D01*
X059303Y020083D01*
X059415Y019997D01*
X059545Y019943D01*
X059685Y019925D01*
X059825Y019943D01*
X059955Y019997D01*
X060067Y020083D01*
X060152Y020195D01*
X060206Y020325D01*
X060225Y020465D01*
X060206Y020604D01*
X060152Y020734D01*
X060067Y020846D01*
X059955Y020932D01*
X059825Y020986D01*
X059685Y021004D01*
D02*
G37*
G36*
X073740Y020478D02*
X073624Y020466D01*
X073512Y020432D01*
X073409Y020377D01*
X073319Y020303D01*
X073245Y020213D01*
X073190Y020110D01*
X073156Y019998D01*
X073144Y019882D01*
X073156Y019766D01*
X073190Y019654D01*
X073245Y019551D01*
X073319Y019461D01*
X073409Y019386D01*
X073512Y019331D01*
X073624Y019297D01*
X073740Y019286D01*
X073856Y019297D01*
X073968Y019331D01*
X074071Y019386D01*
X074162Y019461D01*
X074236Y019551D01*
X074291Y019654D01*
X074325Y019766D01*
X074336Y019882D01*
X074325Y019998D01*
X074291Y020110D01*
X074236Y020213D01*
X074162Y020303D01*
X074071Y020377D01*
X073968Y020432D01*
X073856Y020466D01*
X073740Y020478D01*
D02*
G37*
%LPD*%
G36*
X073795Y037357D02*
Y036902D01*
X073387Y036494D01*
X073295Y036533D01*
Y036998D01*
X073695Y037399D01*
X073795Y037357D01*
D02*
G37*
G36*
X050126Y037711D02*
X050116Y037702D01*
X050076Y037657D01*
X050041Y037608D01*
X050012Y037555D01*
X049989Y037500D01*
X049972Y037442D01*
X049962Y037383D01*
X049959Y037323D01*
X049962Y037263D01*
X049972Y037204D01*
X049974Y037199D01*
X049395Y036620D01*
X044958D01*
X044331Y037247D01*
X044334Y037263D01*
X044338Y037323D01*
X044334Y037383D01*
X044324Y037442D01*
X044307Y037500D01*
X044285Y037555D01*
X044255Y037608D01*
X044221Y037657D01*
X044181Y037702D01*
X044171Y037711D01*
X044209Y037811D01*
X047395D01*
X047433Y037711D01*
X047423Y037702D01*
X047383Y037657D01*
X047348Y037608D01*
X047319Y037555D01*
X047296Y037500D01*
X047279Y037442D01*
X047269Y037383D01*
X047266Y037323D01*
X047269Y037263D01*
X047279Y037204D01*
X047296Y037146D01*
X047319Y037090D01*
X047348Y037038D01*
X047383Y036989D01*
X047423Y036944D01*
X047468Y036904D01*
X047517Y036869D01*
X047569Y036840D01*
X047625Y036817D01*
X047682Y036800D01*
X047742Y036790D01*
X047802Y036787D01*
X047862Y036790D01*
X047921Y036800D01*
X047979Y036817D01*
X048034Y036840D01*
X048087Y036869D01*
X048136Y036904D01*
X048181Y036944D01*
X048221Y036989D01*
X048255Y037038D01*
X048285Y037090D01*
X048307Y037146D01*
X048324Y037204D01*
X048334Y037263D01*
X048338Y037323D01*
X048334Y037383D01*
X048324Y037442D01*
X048307Y037500D01*
X048285Y037555D01*
X048255Y037608D01*
X048221Y037657D01*
X048181Y037702D01*
X048171Y037711D01*
X048209Y037811D01*
X050088D01*
X050126Y037711D01*
D02*
G37*
G36*
X067521Y046143D02*
X067547Y046121D01*
X067577Y046103D01*
X067596Y046095D01*
X067609Y046089D01*
X067643Y046081D01*
X067677Y046079D01*
X068383D01*
X068441Y045980D01*
X068411Y045929D01*
X064375D01*
X064345Y045956D01*
X064300Y045986D01*
X064252Y046010D01*
X064201Y046027D01*
X064148Y046037D01*
X064094Y046041D01*
X064041Y046037D01*
X064038Y046037D01*
X063938Y046104D01*
X063940Y046866D01*
X066798D01*
X067521Y046143D01*
D02*
G37*
G36*
X020316Y046064D02*
X020343Y046042D01*
X020315Y045943D01*
X020306Y045929D01*
X016981D01*
X016470Y046440D01*
X016472Y046462D01*
X016510Y046542D01*
X016542Y046544D01*
X016607Y046555D01*
X016670Y046573D01*
X016731Y046598D01*
X016788Y046630D01*
X016842Y046668D01*
X016891Y046712D01*
X016934Y046761D01*
X016972Y046814D01*
X017004Y046872D01*
X017018Y046905D01*
X019476D01*
X020316Y046064D01*
D02*
G37*
G36*
X034185Y046113D02*
X034152Y046005D01*
X034150Y046004D01*
X033581Y046573D01*
X033555Y046596D01*
X033525Y046614D01*
X033493Y046627D01*
X033460Y046635D01*
X033425Y046638D01*
X027677D01*
X027609Y046705D01*
X027598Y046728D01*
Y046866D01*
X033432D01*
X034185Y046113D01*
D02*
G37*
G36*
X057679Y046104D02*
X057705Y046081D01*
X057734Y046063D01*
X057766Y046050D01*
X057800Y046042D01*
X057803Y046042D01*
X057835Y046039D01*
X058716D01*
X058768Y045980D01*
X058777Y045939D01*
X058767Y045929D01*
X057690D01*
X057085Y046534D01*
X057059Y046556D01*
X057029Y046575D01*
X056997Y046588D01*
X056964Y046596D01*
X056929Y046599D01*
X050512D01*
X050443Y046667D01*
X050433Y046688D01*
Y046827D01*
X056956D01*
X057679Y046104D01*
D02*
G37*
G36*
X044792Y045941D02*
X044800Y045900D01*
X044790Y045890D01*
X041496D01*
Y046000D01*
X044740D01*
X044792Y045941D01*
D02*
G37*
G36*
X057833Y041409D02*
X057863Y041364D01*
X057898Y041324D01*
X057920Y041305D01*
X057904Y041235D01*
X057883Y041205D01*
X050621D01*
X050602Y041234D01*
X050566Y041275D01*
X050526Y041310D01*
X050521Y041313D01*
X050552Y041413D01*
X057831D01*
X057833Y041409D01*
D02*
G37*
G36*
X050030Y041313D02*
X050025Y041310D01*
X049985Y041275D01*
X049950Y041234D01*
X049930Y041205D01*
X044469D01*
X044439Y041305D01*
X044443Y041308D01*
X044483Y041343D01*
X044519Y041384D01*
X044539Y041413D01*
X050000D01*
X050030Y041313D01*
D02*
G37*
G36*
X067085Y041369D02*
X067115Y041325D01*
X067132Y041305D01*
X067111Y041233D01*
X067089Y041205D01*
X064361D01*
X064342Y041234D01*
X064306Y041275D01*
X064285Y041293D01*
X064301Y041363D01*
X064321Y041393D01*
X067073D01*
X067085Y041369D01*
D02*
G37*
G36*
X063731Y041363D02*
X063747Y041293D01*
X063725Y041275D01*
X063690Y041234D01*
X063670Y041205D01*
X058494D01*
X058474Y041235D01*
X058458Y041305D01*
X058480Y041324D01*
X058515Y041364D01*
X058535Y041393D01*
X063710D01*
X063731Y041363D01*
D02*
G37*
G36*
X067639Y047718D02*
X067666Y047695D01*
X067695Y047677D01*
X067714Y047670D01*
X067727Y047664D01*
X067761Y047656D01*
X067795Y047653D01*
X067942D01*
X067974Y047553D01*
X067961Y047545D01*
X067912Y047501D01*
X067880Y047465D01*
X067650D01*
X066928Y048188D01*
X066901Y048210D01*
X066872Y048228D01*
X066840Y048241D01*
X066806Y048249D01*
X066772Y048252D01*
X064014D01*
X063943Y048323D01*
X063944Y048638D01*
X066720D01*
X067639Y047718D01*
D02*
G37*
G36*
X058151Y047718D02*
X058177Y047695D01*
X058207Y047677D01*
X058239Y047664D01*
X058273Y047656D01*
X058307Y047653D01*
X058335D01*
X058367Y047553D01*
X058355Y047545D01*
X058306Y047501D01*
X058262Y047452D01*
X058224Y047398D01*
X058193Y047341D01*
X058179Y047307D01*
X057887D01*
X054605Y050589D01*
X054579Y050612D01*
X054549Y050630D01*
X054517Y050643D01*
X054483Y050651D01*
X054449Y050654D01*
X052638D01*
X052603Y050651D01*
X052570Y050643D01*
X052556Y050637D01*
X052538Y050630D01*
X052508Y050612D01*
X052482Y050589D01*
X050027Y048134D01*
X049294D01*
X049291Y048234D01*
X049337Y048237D01*
X049402Y048248D01*
X049465Y048266D01*
X049526Y048291D01*
X049583Y048323D01*
X049637Y048361D01*
X049686Y048405D01*
X049730Y048454D01*
X049768Y048507D01*
X049800Y048565D01*
X049813Y048598D01*
X049882D01*
X049916Y048601D01*
X049950Y048609D01*
X049982Y048622D01*
X050012Y048640D01*
X050038Y048663D01*
X052336Y050960D01*
X054909D01*
X058151Y047718D01*
D02*
G37*
G36*
X021016Y050857D02*
X021002Y050823D01*
X020984Y050760D01*
X020973Y050696D01*
X020969Y050630D01*
X020973Y050564D01*
X020984Y050500D01*
X021002Y050436D01*
X021027Y050376D01*
X021059Y050318D01*
X021097Y050265D01*
X021141Y050216D01*
X021190Y050172D01*
X021243Y050134D01*
X021301Y050102D01*
X021362Y050077D01*
X021425Y050059D01*
X021490Y050048D01*
X021555Y050044D01*
X021621Y050048D01*
X021686Y050059D01*
X021749Y050077D01*
X021809Y050102D01*
X021867Y050134D01*
X021920Y050172D01*
X021969Y050216D01*
X022013Y050265D01*
X022051Y050318D01*
X022083Y050376D01*
X022108Y050436D01*
X022126Y050500D01*
X022131Y050527D01*
X022830D01*
X022871Y050427D01*
X021823Y049379D01*
X021809Y049386D01*
X021749Y049411D01*
X021686Y049430D01*
X021621Y049441D01*
X021555Y049444D01*
X021490Y049441D01*
X021425Y049430D01*
X021362Y049411D01*
X021328Y049397D01*
X020648Y050077D01*
X020622Y050100D01*
X020592Y050118D01*
X020560Y050131D01*
X020527Y050139D01*
X020492Y050142D01*
X016914D01*
X016876Y050242D01*
X016891Y050255D01*
X016934Y050304D01*
X016972Y050358D01*
X017004Y050415D01*
X017029Y050476D01*
X017048Y050539D01*
X017059Y050604D01*
X017062Y050669D01*
X017059Y050735D01*
X017048Y050800D01*
X017029Y050863D01*
X017004Y050924D01*
X016972Y050981D01*
X016934Y051035D01*
X016891Y051084D01*
X016842Y051127D01*
X016788Y051165D01*
X016770Y051175D01*
X016796Y051275D01*
X020598D01*
X021016Y050857D01*
D02*
G37*
G36*
X044199Y050804D02*
X044191Y050784D01*
X044173Y050721D01*
X044162Y050656D01*
X044158Y050591D01*
X044162Y050525D01*
X044173Y050460D01*
X044191Y050397D01*
X044216Y050336D01*
X044248Y050279D01*
X044286Y050225D01*
X044330Y050176D01*
X044379Y050132D01*
X044432Y050094D01*
X044490Y050063D01*
X044551Y050038D01*
X044614Y050019D01*
X044679Y050008D01*
X044744Y050005D01*
X044810Y050008D01*
X044874Y050019D01*
X044938Y050038D01*
X044998Y050063D01*
X045056Y050094D01*
X045109Y050132D01*
X045158Y050176D01*
X045202Y050225D01*
X045240Y050279D01*
X045272Y050336D01*
X045286Y050370D01*
X045845D01*
X045882Y050286D01*
X045883Y050270D01*
X044971Y049358D01*
X044938Y049372D01*
X044874Y049390D01*
X044810Y049401D01*
X044744Y049405D01*
X044679Y049401D01*
X044614Y049390D01*
X044551Y049372D01*
X044517Y049358D01*
X043798Y050077D01*
X043771Y050100D01*
X043742Y050118D01*
X043710Y050131D01*
X043676Y050139D01*
X043642Y050142D01*
X040462D01*
X040450Y050155D01*
X040418Y050242D01*
X040438Y050265D01*
X040476Y050318D01*
X040508Y050376D01*
X040533Y050436D01*
X040552Y050500D01*
X040563Y050564D01*
X040566Y050630D01*
X040563Y050696D01*
X040552Y050760D01*
X040533Y050823D01*
X040508Y050884D01*
X040476Y050942D01*
X040438Y050995D01*
X040395Y051044D01*
X040346Y051088D01*
X040333Y051097D01*
X040365Y051197D01*
X043806D01*
X044199Y050804D01*
D02*
G37*
G36*
X034686Y047679D02*
X034713Y047656D01*
X034724Y047649D01*
Y047307D01*
X034580D01*
X031298Y050589D01*
X031271Y050612D01*
X031242Y050630D01*
X031210Y050643D01*
X031176Y050651D01*
X031142Y050654D01*
X029370D01*
X029336Y050651D01*
X029302Y050643D01*
X029270Y050630D01*
X029240Y050612D01*
X029214Y050589D01*
X026838Y048213D01*
X026308D01*
X026276Y048305D01*
X026337Y048330D01*
X026394Y048362D01*
X026448Y048400D01*
X026497Y048444D01*
X026541Y048493D01*
X026579Y048547D01*
X026611Y048604D01*
X026624Y048638D01*
X026732D01*
X026767Y048640D01*
X026800Y048648D01*
X026832Y048662D01*
X026862Y048680D01*
X026888Y048702D01*
X029186Y051000D01*
X031365D01*
X034686Y047679D01*
D02*
G37*
G36*
X020356Y046931D02*
X020382Y046908D01*
X020412Y046890D01*
X020444Y046877D01*
X020477Y046869D01*
X020512Y046866D01*
X021013D01*
X021027Y046832D01*
X021059Y046775D01*
X021097Y046721D01*
X021141Y046672D01*
X021190Y046629D01*
X021243Y046591D01*
X021301Y046559D01*
X021362Y046534D01*
X021329Y046441D01*
X020564D01*
X019723Y047282D01*
X019697Y047305D01*
X019667Y047323D01*
X019635Y047336D01*
X019601Y047344D01*
X019567Y047347D01*
X017018D01*
X017004Y047380D01*
X016972Y047438D01*
X016934Y047491D01*
X016891Y047540D01*
X016842Y047584D01*
X016830Y047593D01*
X016861Y047693D01*
X019594D01*
X020356Y046931D01*
D02*
G37*
G36*
X030288Y050137D02*
Y049217D01*
X031208D01*
Y049924D01*
X031300Y049962D01*
X034332Y046931D01*
X034358Y046908D01*
X034388Y046890D01*
X034420Y046877D01*
X034454Y046869D01*
X034488Y046866D01*
X034724D01*
Y046362D01*
X034560D01*
X033680Y047243D01*
X033654Y047265D01*
X033624Y047283D01*
X033592Y047297D01*
X033558Y047305D01*
X033524Y047307D01*
X026624D01*
X026611Y047341D01*
X026579Y047398D01*
X026541Y047452D01*
X026497Y047501D01*
X026448Y047545D01*
X026394Y047583D01*
X026337Y047615D01*
X026276Y047640D01*
X026213Y047658D01*
X026148Y047669D01*
X026102Y047671D01*
X026105Y047771D01*
X026929D01*
X026964Y047774D01*
X026997Y047782D01*
X027029Y047796D01*
X027059Y047814D01*
X027085Y047836D01*
X029461Y050212D01*
X030228D01*
X030288Y050137D01*
D02*
G37*
G36*
X067403Y047088D02*
X067429Y047066D01*
X067459Y047047D01*
X067478Y047040D01*
X067491Y047034D01*
X067525Y047026D01*
X067559Y047023D01*
X067744D01*
X067745Y047021D01*
X067756Y046956D01*
X067774Y046893D01*
X067799Y046832D01*
X067831Y046775D01*
X067869Y046721D01*
X067912Y046672D01*
X067961Y046629D01*
X067974Y046620D01*
X067942Y046520D01*
X067769D01*
X067046Y047243D01*
X067019Y047265D01*
X066990Y047283D01*
X066958Y047297D01*
X066924Y047305D01*
X066890Y047307D01*
X064012D01*
X063941Y047378D01*
X063942Y047811D01*
X066680D01*
X067403Y047088D01*
D02*
G37*
G36*
X053552Y050141D02*
Y049221D01*
X054472D01*
Y049967D01*
X054564Y050006D01*
X057639Y046931D01*
X057666Y046908D01*
X057695Y046890D01*
X057727Y046877D01*
X057761Y046869D01*
X057763Y046868D01*
X057795Y046866D01*
X058179D01*
X058193Y046832D01*
X058224Y046775D01*
X058262Y046721D01*
X058306Y046672D01*
X058355Y046629D01*
X058409Y046591D01*
X058427Y046581D01*
X058401Y046481D01*
X057926D01*
X057203Y047203D01*
X057177Y047226D01*
X057147Y047244D01*
X057115Y047257D01*
X057082Y047265D01*
X057047Y047268D01*
X049813D01*
X049800Y047301D01*
X049768Y047359D01*
X049730Y047413D01*
X049686Y047462D01*
X049637Y047505D01*
X049583Y047543D01*
X049526Y047575D01*
X049465Y047600D01*
X049497Y047693D01*
X050118D01*
X050153Y047695D01*
X050186Y047704D01*
X050218Y047717D01*
X050248Y047735D01*
X050274Y047757D01*
X052729Y050212D01*
X053483D01*
X053552Y050141D01*
D02*
G37*
G36*
X016691Y040779D02*
X016721Y040734D01*
X016757Y040694D01*
X016797Y040658D01*
X016842Y040628D01*
X016890Y040605D01*
X016941Y040587D01*
X016994Y040577D01*
X017047Y040573D01*
X017101Y040577D01*
X017154Y040587D01*
X017204Y040605D01*
X017253Y040628D01*
X017297Y040658D01*
X017338Y040694D01*
X017373Y040734D01*
X017393Y040764D01*
X024648D01*
X024670Y040736D01*
X024691Y040664D01*
X024674Y040644D01*
X024644Y040599D01*
X024620Y040551D01*
X024603Y040500D01*
X024593Y040447D01*
X024591Y040418D01*
X024094D01*
X024060Y040415D01*
X024026Y040407D01*
X023994Y040393D01*
X023965Y040375D01*
X023938Y040353D01*
X020996Y037410D01*
X020933D01*
X018424Y039920D01*
X018397Y039942D01*
X018368Y039960D01*
X018336Y039974D01*
X018302Y039982D01*
X018268Y039984D01*
X016312D01*
X015628Y040668D01*
X015608Y040686D01*
X015599Y040703D01*
X015615Y040749D01*
X015655Y040803D01*
X016680D01*
X016691Y040779D01*
D02*
G37*
G36*
X014857Y040749D02*
X014873Y040703D01*
X014857Y040669D01*
X014839Y040618D01*
X014829Y040565D01*
X014825Y040512D01*
X014829Y040458D01*
X014839Y040405D01*
X014857Y040355D01*
X014880Y040306D01*
X014910Y040262D01*
X014946Y040221D01*
X014986Y040186D01*
X015031Y040156D01*
X015079Y040132D01*
X015130Y040115D01*
X015183Y040104D01*
X015236Y040101D01*
X015290Y040104D01*
X015343Y040115D01*
X015393Y040132D01*
X015442Y040156D01*
X015486Y040186D01*
X016064Y039608D01*
X016091Y039585D01*
X016120Y039567D01*
X016152Y039554D01*
X016186Y039546D01*
X016220Y039543D01*
X018176D01*
X020215Y037505D01*
X020187Y037391D01*
X020179Y037389D01*
X020163Y037393D01*
X020078Y037439D01*
X020076Y037446D01*
X020063Y037478D01*
X020045Y037508D01*
X020022Y037534D01*
X018227Y039329D01*
X018201Y039352D01*
X018171Y039370D01*
X018139Y039383D01*
X018105Y039391D01*
X018071Y039394D01*
X014225D01*
X013607Y040013D01*
Y040657D01*
X013753Y040803D01*
X014817D01*
X014857Y040749D01*
D02*
G37*
G36*
X072666Y040734D02*
X072702Y040694D01*
X072742Y040658D01*
X072787Y040628D01*
X072835Y040605D01*
X072886Y040587D01*
X072938Y040577D01*
X072992Y040573D01*
X073046Y040577D01*
X073098Y040587D01*
X073149Y040605D01*
X073198Y040628D01*
X073242Y040658D01*
X073283Y040694D01*
X073301Y040715D01*
X073371Y040699D01*
X073401Y040679D01*
Y037729D01*
X073083Y037410D01*
X072375D01*
Y037224D01*
X072280Y037196D01*
X072262Y037242D01*
X072236Y037283D01*
X072205Y037320D01*
X072167Y037352D01*
X072126Y037377D01*
X072081Y037396D01*
X072033Y037408D01*
X071985Y037411D01*
X071685D01*
X071636Y037408D01*
X071589Y037396D01*
X071543Y037377D01*
X071502Y037352D01*
X071465Y037320D01*
X071433Y037283D01*
X071408Y037242D01*
X071389Y037196D01*
X071386Y037185D01*
X071283D01*
X071280Y037196D01*
X071262Y037242D01*
X071236Y037283D01*
X071205Y037320D01*
X071167Y037352D01*
X071126Y037377D01*
X071081Y037396D01*
X071033Y037408D01*
X070985Y037411D01*
X070685D01*
X070636Y037408D01*
X070589Y037396D01*
X070543Y037377D01*
X070502Y037352D01*
X070465Y037320D01*
X070433Y037283D01*
X070408Y037242D01*
X070389Y037196D01*
X070386Y037185D01*
X070283D01*
X070280Y037196D01*
X070262Y037242D01*
X070236Y037283D01*
X070205Y037320D01*
X070167Y037352D01*
X070126Y037377D01*
X070081Y037396D01*
X070055Y037402D01*
Y038591D01*
X070053Y038623D01*
X070053Y038625D01*
X070045Y038659D01*
X070031Y038691D01*
X070013Y038720D01*
X069991Y038747D01*
X069093Y039644D01*
X069067Y039667D01*
X069037Y039685D01*
X069005Y039698D01*
X068972Y039706D01*
X068937Y039709D01*
X040700D01*
X040680Y039738D01*
X040645Y039779D01*
X040604Y039814D01*
X040560Y039844D01*
X040512Y039868D01*
X040487Y039876D01*
X040503Y039976D01*
X047950D01*
X047953Y039975D01*
X048004Y039957D01*
X048057Y039947D01*
X048110Y039943D01*
X048164Y039947D01*
X048217Y039957D01*
X048267Y039975D01*
X048270Y039976D01*
X061452D01*
X061482Y039950D01*
X061527Y039920D01*
X061575Y039896D01*
X061626Y039879D01*
X061679Y039868D01*
X061732Y039865D01*
X061786Y039868D01*
X061839Y039879D01*
X061890Y039896D01*
X061938Y039920D01*
X061982Y039950D01*
X062013Y039976D01*
X071130D01*
X071142Y039970D01*
X071193Y039953D01*
X071246Y039942D01*
X071299Y039939D01*
X071353Y039942D01*
X071406Y039953D01*
X071456Y039970D01*
X071505Y039994D01*
X071549Y040024D01*
X071590Y040059D01*
X071625Y040100D01*
X071655Y040144D01*
X071679Y040193D01*
X071696Y040243D01*
X071707Y040296D01*
X071710Y040350D01*
X071707Y040403D01*
X071696Y040456D01*
X071679Y040507D01*
X071655Y040555D01*
X071625Y040600D01*
X071590Y040640D01*
X071563Y040664D01*
X071571Y040715D01*
X071598Y040764D01*
X072646D01*
X072666Y040734D01*
D02*
G37*
G36*
X040222Y039876D02*
X040197Y039868D01*
X040149Y039844D01*
X040104Y039814D01*
X040064Y039779D01*
X040028Y039738D01*
X039999Y039694D01*
X039975Y039645D01*
X039957Y039595D01*
X039947Y039542D01*
X039943Y039488D01*
X039947Y039435D01*
X039957Y039382D01*
X039975Y039331D01*
X039999Y039283D01*
X040028Y039238D01*
X040064Y039198D01*
X040104Y039162D01*
X040149Y039132D01*
X040197Y039109D01*
X040248Y039091D01*
X040301Y039081D01*
X040354Y039077D01*
X040408Y039081D01*
X040461Y039091D01*
X040503Y039106D01*
X040538Y039086D01*
X040560Y039067D01*
X040585Y039034D01*
X040577Y038991D01*
X040573Y038937D01*
X040577Y038883D01*
X040587Y038831D01*
X040605Y038780D01*
X040628Y038732D01*
X040658Y038687D01*
X040694Y038646D01*
X040734Y038611D01*
X040779Y038581D01*
X040827Y038557D01*
X040878Y038540D01*
X040931Y038530D01*
X040984Y038526D01*
X041038Y038530D01*
X041091Y038540D01*
X041133Y038554D01*
X041167Y038535D01*
X041190Y038515D01*
X041215Y038482D01*
X041207Y038439D01*
X041203Y038386D01*
X041207Y038332D01*
X041217Y038279D01*
X041235Y038229D01*
X041258Y038180D01*
X041288Y038136D01*
X041324Y038095D01*
X041364Y038060D01*
X041409Y038030D01*
X041457Y038006D01*
X041508Y037989D01*
X041561Y037978D01*
X041614Y037975D01*
X041668Y037978D01*
X041721Y037989D01*
X041747Y037974D01*
X041802Y037911D01*
X041797Y037888D01*
X041794Y037835D01*
X041797Y037781D01*
X041808Y037728D01*
X041825Y037677D01*
X041849Y037629D01*
X041879Y037585D01*
X041914Y037544D01*
X041955Y037509D01*
X041999Y037479D01*
X042047Y037455D01*
X042098Y037438D01*
X042151Y037427D01*
X042205Y037424D01*
X042258Y037427D01*
X042311Y037438D01*
X042362Y037455D01*
X042410Y037479D01*
X042455Y037509D01*
X042495Y037544D01*
X042531Y037585D01*
X042561Y037629D01*
X042584Y037677D01*
X042602Y037728D01*
X042612Y037781D01*
X042614Y037811D01*
X043395D01*
X043433Y037711D01*
X043423Y037702D01*
X043383Y037657D01*
X043348Y037608D01*
X043319Y037555D01*
X043296Y037500D01*
X043279Y037442D01*
X043269Y037383D01*
X043266Y037323D01*
X043269Y037263D01*
X043272Y037247D01*
X042645Y036620D01*
X038226D01*
X037639Y037208D01*
X037641Y037224D01*
X037645Y037283D01*
X037641Y037343D01*
X037631Y037403D01*
X037615Y037460D01*
X037592Y037516D01*
X037563Y037569D01*
X037528Y037618D01*
X037488Y037662D01*
X037443Y037702D01*
X037394Y037737D01*
X037341Y037766D01*
X037286Y037789D01*
X037228Y037806D01*
X037169Y037816D01*
X037109Y037819D01*
X037049Y037816D01*
X036990Y037806D01*
X036932Y037789D01*
X036876Y037766D01*
X036824Y037737D01*
X036775Y037702D01*
X036730Y037662D01*
X036690Y037618D01*
X036655Y037569D01*
X036626Y037516D01*
X036603Y037460D01*
X036586Y037403D01*
X036576Y037343D01*
X036573Y037283D01*
X036576Y037224D01*
X036579Y037208D01*
X035992Y036620D01*
X031533D01*
X030946Y037208D01*
X030948Y037224D01*
X030952Y037283D01*
X030948Y037343D01*
X030938Y037403D01*
X030922Y037460D01*
X030899Y037516D01*
X030870Y037569D01*
X030835Y037618D01*
X030795Y037662D01*
X030750Y037702D01*
X030701Y037737D01*
X030648Y037766D01*
X030593Y037789D01*
X030535Y037806D01*
X030476Y037816D01*
X030416Y037819D01*
X030356Y037816D01*
X030297Y037806D01*
X030239Y037789D01*
X030183Y037766D01*
X030131Y037737D01*
X030082Y037702D01*
X030037Y037662D01*
X029997Y037618D01*
X029988Y037604D01*
X022756D01*
X022706Y037601D01*
X022657Y037589D01*
X022629Y037577D01*
X022610Y037569D01*
X022567Y037543D01*
X022529Y037510D01*
X021410Y036392D01*
X021310Y036433D01*
Y037101D01*
X024186Y039976D01*
X038303D01*
X038304Y039972D01*
X038321Y039922D01*
X038345Y039873D01*
X038375Y039829D01*
X038410Y039788D01*
X038451Y039753D01*
X038495Y039723D01*
X038544Y039699D01*
X038594Y039682D01*
X038647Y039671D01*
X038701Y039668D01*
X038754Y039671D01*
X038807Y039682D01*
X038858Y039699D01*
X038906Y039723D01*
X038951Y039753D01*
X038991Y039788D01*
X039027Y039829D01*
X039057Y039873D01*
X039080Y039922D01*
X039098Y039972D01*
X039098Y039976D01*
X040205D01*
X040222Y039876D01*
D02*
G37*
G36*
X068559Y038413D02*
Y037384D01*
X068543Y037377D01*
X068502Y037352D01*
X068465Y037320D01*
X068433Y037283D01*
X068408Y037242D01*
X068389Y037196D01*
X068386Y037185D01*
X068283D01*
X068280Y037196D01*
X068262Y037242D01*
X068236Y037283D01*
X068205Y037320D01*
X068167Y037352D01*
X068126Y037377D01*
X068081Y037396D01*
X068055Y037402D01*
Y038042D01*
X068053Y038074D01*
X068053Y038077D01*
X068045Y038111D01*
X068031Y038143D01*
X068013Y038172D01*
X067991Y038198D01*
X067647Y038542D01*
X067621Y038564D01*
X067591Y038582D01*
X067559Y038596D01*
X067526Y038604D01*
X067491Y038607D01*
X042055D01*
X042044Y038616D01*
X042064Y038682D01*
X042098Y038716D01*
X068255D01*
X068559Y038413D01*
D02*
G37*
G36*
X067614Y037951D02*
Y037402D01*
X067589Y037396D01*
X067543Y037377D01*
X067502Y037352D01*
X067465Y037320D01*
X067433Y037283D01*
X067408Y037242D01*
X067389Y037196D01*
X067386Y037185D01*
X067283D01*
X067280Y037196D01*
X067262Y037242D01*
X067236Y037283D01*
X067205Y037320D01*
X067167Y037352D01*
X067126Y037377D01*
X067081Y037396D01*
X067055Y037402D01*
Y037559D01*
X067053Y037591D01*
X067053Y037594D01*
X067045Y037627D01*
X067031Y037659D01*
X067013Y037689D01*
X066991Y037715D01*
X066633Y038073D01*
X066671Y038165D01*
X067400D01*
X067614Y037951D01*
D02*
G37*
G36*
X012987Y041443D02*
X013023Y041402D01*
X013063Y041367D01*
X013108Y041337D01*
X013156Y041313D01*
X013207Y041296D01*
X013260Y041286D01*
X013313Y041282D01*
X013367Y041286D01*
X013420Y041296D01*
X013471Y041313D01*
X013519Y041337D01*
X013564Y041367D01*
X013604Y041402D01*
X013631Y041433D01*
X016762D01*
X016775Y041416D01*
X016797Y041310D01*
X016757Y041275D01*
X016730Y041244D01*
X013661D01*
X013627Y041242D01*
X013593Y041234D01*
X013561Y041220D01*
X013532Y041202D01*
X013505Y041180D01*
X013230Y040904D01*
X013207Y040878D01*
X013189Y040848D01*
X013176Y040816D01*
X013168Y040783D01*
X013165Y040748D01*
Y039921D01*
X013168Y039887D01*
X013176Y039853D01*
X013189Y039821D01*
X013207Y039792D01*
X013230Y039765D01*
X013978Y039017D01*
X014004Y038995D01*
X014034Y038977D01*
X014066Y038963D01*
X014099Y038955D01*
X014134Y038953D01*
X017979D01*
X019470Y037462D01*
X019428Y037362D01*
X019166D01*
X019142Y037377D01*
X019096Y037396D01*
X019087Y037398D01*
Y037512D01*
X019084Y037544D01*
X019084Y037546D01*
X019076Y037580D01*
X019063Y037612D01*
X019045Y037642D01*
X019022Y037668D01*
X017951Y038739D01*
X017925Y038761D01*
X017895Y038779D01*
X017863Y038793D01*
X017830Y038801D01*
X017795Y038803D01*
X013280D01*
X012051Y040032D01*
Y041070D01*
X012454Y041472D01*
X012968D01*
X012987Y041443D01*
D02*
G37*
G36*
X069614Y038499D02*
Y037402D01*
X069589Y037396D01*
X069543Y037377D01*
X069502Y037352D01*
X069465Y037320D01*
X069433Y037283D01*
X069408Y037242D01*
X069389Y037196D01*
X069386Y037185D01*
X069283D01*
X069280Y037196D01*
X069262Y037242D01*
X069236Y037283D01*
X069205Y037320D01*
X069167Y037352D01*
X069126Y037377D01*
X069081Y037396D01*
X069033Y037408D01*
X069000Y037410D01*
Y038504D01*
X068997Y038538D01*
X068989Y038572D01*
X068976Y038604D01*
X068958Y038634D01*
X068936Y038660D01*
X068502Y039093D01*
X068476Y039116D01*
X068447Y039134D01*
X068415Y039147D01*
X068381Y039155D01*
X068346Y039158D01*
X041425D01*
X041414Y039168D01*
X041434Y039233D01*
X041468Y039268D01*
X068846D01*
X069614Y038499D01*
D02*
G37*
G36*
X034280Y041403D02*
X034316Y041363D01*
X034356Y041328D01*
X034334Y041222D01*
X034321Y041205D01*
X027157D01*
X027137Y041234D01*
X027102Y041275D01*
X027061Y041310D01*
X027083Y041416D01*
X027096Y041433D01*
X034261D01*
X034280Y041403D01*
D02*
G37*
G36*
X026539Y041416D02*
X026561Y041310D01*
X026520Y041275D01*
X026485Y041234D01*
X026465Y041205D01*
X020994D01*
X020981Y041222D01*
X020959Y041328D01*
X020999Y041363D01*
X021035Y041403D01*
X021054Y041433D01*
X026526D01*
X026539Y041416D01*
D02*
G37*
G36*
X043837Y041428D02*
X043867Y041384D01*
X043902Y041343D01*
X043943Y041308D01*
X043947Y041305D01*
X043917Y041205D01*
X041094D01*
X041074Y041234D01*
X041039Y041275D01*
X040998Y041310D01*
X041020Y041416D01*
X041033Y041433D01*
X043835D01*
X043837Y041428D01*
D02*
G37*
G36*
X040476Y041416D02*
X040498Y041310D01*
X040457Y041275D01*
X040422Y041234D01*
X040402Y041205D01*
X034891D01*
X034878Y041222D01*
X034856Y041328D01*
X034897Y041363D01*
X034932Y041403D01*
X034952Y041433D01*
X040463D01*
X040476Y041416D01*
D02*
G37*
G36*
X061600Y040664D02*
X061575Y040655D01*
X061527Y040631D01*
X061482Y040602D01*
X061442Y040566D01*
X061406Y040526D01*
X061376Y040481D01*
X061353Y040433D01*
X061347Y040418D01*
X048516D01*
X048507Y040461D01*
X048490Y040512D01*
X048466Y040560D01*
X048436Y040604D01*
X048401Y040645D01*
X048379Y040664D01*
X048395Y040733D01*
X048416Y040764D01*
X049930D01*
X049950Y040734D01*
X049985Y040694D01*
X050025Y040658D01*
X050070Y040628D01*
X050118Y040605D01*
X050169Y040587D01*
X050222Y040577D01*
X050276Y040573D01*
X050329Y040577D01*
X050382Y040587D01*
X050433Y040605D01*
X050481Y040628D01*
X050526Y040658D01*
X050566Y040694D01*
X050602Y040734D01*
X050621Y040764D01*
X061583D01*
X061600Y040664D01*
D02*
G37*
G36*
X047825Y040733D02*
X047841Y040664D01*
X047820Y040645D01*
X047784Y040604D01*
X047754Y040560D01*
X047731Y040512D01*
X047713Y040461D01*
X047705Y040418D01*
X038932D01*
X038906Y040435D01*
X038858Y040458D01*
X038807Y040476D01*
X038754Y040486D01*
X038701Y040490D01*
X038647Y040486D01*
X038594Y040476D01*
X038544Y040458D01*
X038495Y040435D01*
X038470Y040418D01*
X025409D01*
X025407Y040447D01*
X025397Y040500D01*
X025380Y040551D01*
X025356Y040599D01*
X025326Y040644D01*
X025309Y040664D01*
X025330Y040736D01*
X025352Y040764D01*
X026465D01*
X026485Y040734D01*
X026520Y040694D01*
X026561Y040658D01*
X026606Y040628D01*
X026654Y040605D01*
X026705Y040587D01*
X026757Y040577D01*
X026811Y040573D01*
X026865Y040577D01*
X026917Y040587D01*
X026968Y040605D01*
X027016Y040628D01*
X027061Y040658D01*
X027102Y040694D01*
X027137Y040734D01*
X027157Y040764D01*
X040402D01*
X040422Y040734D01*
X040457Y040694D01*
X040498Y040658D01*
X040543Y040628D01*
X040591Y040605D01*
X040642Y040587D01*
X040694Y040577D01*
X040748Y040573D01*
X040802Y040577D01*
X040854Y040587D01*
X040905Y040605D01*
X040953Y040628D01*
X040998Y040658D01*
X041039Y040694D01*
X041074Y040734D01*
X041094Y040764D01*
X047805D01*
X047825Y040733D01*
D02*
G37*
G36*
X020383Y041403D02*
X020418Y041363D01*
X020459Y041328D01*
X020437Y041222D01*
X020424Y041205D01*
X017393D01*
X017373Y041234D01*
X017338Y041275D01*
X017297Y041310D01*
X017319Y041416D01*
X017332Y041433D01*
X020363D01*
X020383Y041403D01*
D02*
G37*
G36*
X071028Y040715D02*
X071035Y040664D01*
X071009Y040640D01*
X070973Y040600D01*
X070943Y040555D01*
X070920Y040507D01*
X070902Y040456D01*
X070895Y040418D01*
X062117D01*
X062112Y040433D01*
X062088Y040481D01*
X062058Y040526D01*
X062023Y040566D01*
X061982Y040602D01*
X061938Y040631D01*
X061890Y040655D01*
X061865Y040664D01*
X061881Y040764D01*
X063670D01*
X063690Y040734D01*
X063725Y040694D01*
X063766Y040658D01*
X063810Y040628D01*
X063859Y040605D01*
X063909Y040587D01*
X063962Y040577D01*
X064016Y040573D01*
X064069Y040577D01*
X064122Y040587D01*
X064173Y040605D01*
X064221Y040628D01*
X064266Y040658D01*
X064306Y040694D01*
X064342Y040734D01*
X064361Y040764D01*
X071001D01*
X071028Y040715D01*
D02*
G37*
%LPC*%
G36*
X041109Y037819D02*
X041049Y037816D01*
X040990Y037806D01*
X040932Y037789D01*
X040876Y037766D01*
X040824Y037737D01*
X040775Y037702D01*
X040730Y037662D01*
X040690Y037618D01*
X040655Y037569D01*
X040626Y037516D01*
X040603Y037460D01*
X040586Y037403D01*
X040576Y037343D01*
X040573Y037283D01*
X040576Y037224D01*
X040586Y037164D01*
X040603Y037107D01*
X040626Y037051D01*
X040655Y036998D01*
X040690Y036949D01*
X040730Y036905D01*
X040775Y036865D01*
X040824Y036830D01*
X040876Y036801D01*
X040932Y036778D01*
X040990Y036761D01*
X041049Y036751D01*
X041109Y036748D01*
X041169Y036751D01*
X041228Y036761D01*
X041286Y036778D01*
X041341Y036801D01*
X041394Y036830D01*
X041443Y036865D01*
X041488Y036905D01*
X041528Y036949D01*
X041563Y036998D01*
X041592Y037051D01*
X041615Y037107D01*
X041631Y037164D01*
X041641Y037224D01*
X041645Y037283D01*
X041641Y037343D01*
X041631Y037403D01*
X041615Y037460D01*
X041592Y037516D01*
X041563Y037569D01*
X041528Y037618D01*
X041488Y037662D01*
X041443Y037702D01*
X041394Y037737D01*
X041341Y037766D01*
X041286Y037789D01*
X041228Y037806D01*
X041169Y037816D01*
X041109Y037819D01*
D02*
G37*
G36*
X034416D02*
X034356Y037816D01*
X034297Y037806D01*
X034239Y037789D01*
X034183Y037766D01*
X034131Y037737D01*
X034082Y037702D01*
X034037Y037662D01*
X033997Y037618D01*
X033962Y037569D01*
X033933Y037516D01*
X033910Y037460D01*
X033893Y037403D01*
X033883Y037343D01*
X033880Y037283D01*
X033883Y037224D01*
X033893Y037164D01*
X033910Y037107D01*
X033933Y037051D01*
X033962Y036998D01*
X033997Y036949D01*
X034037Y036905D01*
X034082Y036865D01*
X034131Y036830D01*
X034183Y036801D01*
X034239Y036778D01*
X034297Y036761D01*
X034356Y036751D01*
X034416Y036748D01*
X034476Y036751D01*
X034535Y036761D01*
X034593Y036778D01*
X034648Y036801D01*
X034701Y036830D01*
X034750Y036865D01*
X034795Y036905D01*
X034835Y036949D01*
X034870Y036998D01*
X034899Y037051D01*
X034922Y037107D01*
X034938Y037164D01*
X034948Y037224D01*
X034952Y037283D01*
X034948Y037343D01*
X034938Y037403D01*
X034922Y037460D01*
X034899Y037516D01*
X034870Y037569D01*
X034835Y037618D01*
X034795Y037662D01*
X034750Y037702D01*
X034701Y037737D01*
X034648Y037766D01*
X034593Y037789D01*
X034535Y037806D01*
X034476Y037816D01*
X034416Y037819D01*
D02*
G37*
%LPD*%
D10*
X036125Y036299D02*
X037109Y037283D01*
X031400Y036299D02*
X036125D01*
X030416Y037283D02*
X031400Y036299D01*
X049528D02*
X050495Y037266D01*
X044825Y036299D02*
X049528D01*
X043802Y037323D02*
X044825Y036299D01*
X042778D02*
X043802Y037323D01*
X038093Y036299D02*
X042778D01*
X037109Y037283D02*
X038093Y036299D01*
X021457Y035984D02*
X022756Y037283D01*
X012480Y035984D02*
X021457D01*
X011850Y036614D02*
X012480Y035984D01*
X022756Y037283D02*
X030416D01*
X011850Y036614D02*
Y036850D01*
X012126Y021567D02*
Y022362D01*
X011693Y022795D02*
X012126Y022362D01*
X010709Y017567D02*
Y020150D01*
X012126Y021567D01*
X029882Y021567D02*
Y022323D01*
X029409Y022795D02*
X029882Y022323D01*
X026890Y021567D02*
Y022362D01*
X026457Y022795D02*
X026890Y022362D01*
X023937Y021567D02*
Y022362D01*
X023504Y022795D02*
X023937Y022362D01*
X020984Y021567D02*
Y022362D01*
X020551Y022795D02*
X020984Y022362D01*
X017953Y021567D02*
Y022441D01*
X017598Y022795D02*
X017953Y022441D01*
X015079Y021567D02*
Y022362D01*
X014646Y022795D02*
X015079Y022362D01*
X012323Y014795D02*
Y015984D01*
X015276Y014796D02*
Y015999D01*
X018268Y014834D02*
Y015999D01*
X021220Y014795D02*
Y015984D01*
X024173Y014835D02*
Y015984D01*
X027126Y014835D02*
Y015984D01*
X071850Y015819D02*
X073240D01*
X071850Y011819D02*
Y013732D01*
X070354Y015228D02*
X071850Y013732D01*
X066843Y013925D02*
X067516D01*
X068858Y015268D01*
X056842Y012190D02*
X059280D01*
X055850Y018701D02*
X056457D01*
X057992Y017165D01*
X058984D01*
X059685Y016465D01*
X071670Y030260D02*
X072650Y031240D01*
X069620Y030260D02*
X071670D01*
X068140Y031740D02*
X069620Y030260D01*
X062310Y031740D02*
X068140D01*
X030079Y014835D02*
Y015984D01*
X038425Y012244D02*
X038819Y012638D01*
X034567Y012244D02*
X038425D01*
X022480Y017567D02*
Y019843D01*
X023937Y021299D01*
Y021567D01*
X025433Y017567D02*
Y019921D01*
X026890Y021378D01*
Y021567D01*
X028425Y017567D02*
Y019961D01*
X029882Y021417D01*
Y021567D01*
X016575Y017567D02*
Y020000D01*
X017953Y021378D01*
Y021567D01*
X019528Y017528D02*
Y019862D01*
X020987Y021361D01*
X020984Y021567D02*
X020987Y021361D01*
X013661Y017567D02*
Y019882D01*
X015079Y021299D01*
Y021567D01*
X033898Y011299D02*
Y011575D01*
X034567Y012244D01*
D11*
X038968Y026921D02*
X039331Y027283D01*
X038968Y024024D02*
Y026921D01*
Y022865D02*
Y023079D01*
X038453Y022350D02*
X038968Y022865D01*
X037953Y022835D02*
Y023110D01*
X037638Y022520D02*
X037953Y022835D01*
Y024055D02*
Y026850D01*
X069835Y036850D02*
Y038591D01*
X068937Y039488D02*
X069835Y038591D01*
X019866Y036866D02*
Y037378D01*
X018071Y039173D02*
X019866Y037378D01*
X014134Y039173D02*
X018071D01*
X018866Y036866D02*
Y037512D01*
X017795Y038583D02*
X018866Y037512D01*
X013189Y038583D02*
X017795D01*
X020965Y037067D02*
X024094Y040197D01*
X018268Y039764D02*
X020965Y037067D01*
X016220Y039764D02*
X018268D01*
X018850Y036850D02*
X018866Y036866D01*
X019850Y036850D02*
X019866Y036866D01*
X024094Y040197D02*
X071299D01*
X042205Y037835D02*
X042402Y038031D01*
X066362D01*
X066835Y037559D01*
X067835Y036850D02*
Y038042D01*
X067491Y038386D02*
X067835Y038042D01*
X073504Y035709D02*
X074409Y036614D01*
X071772Y035709D02*
X073504D01*
X074409Y036614D02*
Y050433D01*
X041614Y038386D02*
X067491D01*
X040984Y038937D02*
X068346D01*
X068780Y038504D01*
X040354Y039488D02*
X068937D01*
X066835Y036850D02*
Y037559D01*
X069835Y036850D02*
X069835Y036850D01*
X068780Y036906D02*
X068835Y036850D01*
X073307Y036102D02*
X074016Y036811D01*
X072283Y036102D02*
X073307D01*
X071835Y036551D02*
X072283Y036102D01*
X070835Y036646D02*
X071772Y035709D01*
X070835Y036646D02*
Y036850D01*
X072835D02*
X073622Y037638D01*
X071835Y036551D02*
Y036850D01*
X074016Y036811D02*
Y049469D01*
X067559Y052165D02*
X068307Y051417D01*
X062717Y052165D02*
X067559D01*
X067421Y051535D02*
X068327Y050630D01*
X063150Y051535D02*
X067421D01*
X062874Y051260D02*
X063150Y051535D01*
X062559Y051260D02*
X062874D01*
X062638Y049803D02*
X067382D01*
X068386Y052756D02*
X069016Y052126D01*
X062008Y052756D02*
X068386D01*
X061772Y052520D02*
X062008Y052756D01*
X069606Y053386D02*
X070591Y052402D01*
X061968Y053386D02*
X069606D01*
X060984Y052402D02*
X061968Y053386D01*
X058898Y054488D02*
X060984Y052402D01*
X048976Y054488D02*
X058898D01*
X047008Y052520D02*
X048976Y054488D01*
X057441Y053976D02*
X059409Y052008D01*
X049331Y053976D02*
X057441D01*
X047795Y052441D02*
X049331Y053976D01*
X055945Y052992D02*
X058346Y050591D01*
X050827Y052992D02*
X055945D01*
X049094Y051260D02*
X050827Y052992D01*
X056417Y053465D02*
X058425Y051457D01*
X050079Y053465D02*
X056417D01*
X048583Y051969D02*
X050079Y053465D01*
X055512Y052520D02*
X058720Y049311D01*
X051299Y052520D02*
X055512D01*
X050236Y051457D02*
X051299Y052520D01*
X038858Y052795D02*
X044606D01*
X038465Y052402D02*
X038858Y052795D01*
X038465Y051929D02*
Y052402D01*
X046024Y053346D02*
X047008Y052362D01*
X038583Y053346D02*
X046024D01*
X037421Y052185D02*
X038583Y053346D01*
X044606Y052795D02*
X045433Y051969D01*
X044094Y052008D02*
X044646Y051457D01*
X039488Y052008D02*
X044094D01*
X043898Y051417D02*
X044724Y050591D01*
X039882Y051417D02*
X043898D01*
X039803Y051339D02*
X039882Y051417D01*
X026024Y054055D02*
X034213D01*
X024606Y052638D02*
X026024Y054055D01*
X024606Y051929D02*
Y052638D01*
X035197Y050551D02*
X038701D01*
X032598Y053150D02*
X035197Y050551D01*
X027874Y053150D02*
X032598D01*
X035354Y051496D02*
X035591D01*
X033268Y053583D02*
X035354Y051496D01*
X026969Y053583D02*
X033268D01*
X036142Y052008D02*
Y052126D01*
X034213Y054055D02*
X036142Y052126D01*
X035079Y054528D02*
X037421Y052185D01*
X025433Y054528D02*
X035079D01*
X023740Y052835D02*
X025433Y054528D01*
X025394Y052008D02*
X026969Y053583D01*
X026063Y051339D02*
X027874Y053150D01*
X032087Y052559D02*
X035453Y049193D01*
X028465Y052559D02*
X032087D01*
X027126Y051220D02*
X028465Y052559D01*
X023346Y053228D02*
X023740Y052835D01*
X015000Y053228D02*
X023346D01*
X014213Y052441D02*
X015000Y053228D01*
X021496Y052756D02*
X022244Y052008D01*
X015354Y052756D02*
X021496D01*
X015000Y052402D02*
X015354Y052756D01*
X056929Y046378D02*
X057598Y045709D01*
X050512Y046378D02*
X056929D01*
X048386Y044252D02*
X050512Y046378D01*
X055000Y051181D02*
X058307Y047874D01*
X052244Y051181D02*
X055000D01*
X049882Y048819D02*
X052244Y051181D01*
X033425Y046417D02*
X034134Y045709D01*
X027677Y046417D02*
X033425D01*
X025512Y044252D02*
X027677Y046417D01*
X031142Y050433D02*
X034488Y047087D01*
X029370Y050433D02*
X031142D01*
X026929Y047992D02*
X029370Y050433D01*
X031457Y051220D02*
X034843Y047835D01*
X029094Y051220D02*
X031457D01*
X026732Y048858D02*
X029094Y051220D01*
X072795Y029252D02*
X074488Y027559D01*
Y024094D02*
Y027559D01*
X074016Y023622D02*
X074488Y024094D01*
X074000Y024481D02*
Y027339D01*
X071693Y029646D02*
X074000Y027339D01*
X069370Y029646D02*
X071693D01*
X072795Y029252D02*
Y029961D01*
X074016Y031181D01*
Y032236D01*
X045827Y013622D02*
Y014685D01*
X045713Y013508D02*
X045827Y013622D01*
X018504Y032165D02*
X019213Y031457D01*
X018504Y032165D02*
Y033228D01*
X044713Y014102D02*
X045197Y014685D01*
X044713Y013508D02*
Y014102D01*
X012638Y052047D02*
X013386D01*
X022244Y052008D02*
X022874D01*
X023346Y051535D01*
X013386Y052047D02*
X013819Y051614D01*
X014646D02*
X015000Y051968D01*
X013819Y051614D02*
X014646D01*
X023346Y051535D02*
X024213D01*
X036417Y052008D02*
X037008Y051417D01*
X061772Y051850D02*
Y052520D01*
X015787Y052047D02*
X020866D01*
X021417Y051496D01*
X021772D01*
X022126Y051142D01*
X024528D01*
X025394Y052008D01*
X035591Y051496D02*
X035866Y051220D01*
X036575D01*
X036811Y050984D01*
X038268D01*
X039291Y052008D01*
X044646Y051457D02*
X044921D01*
X045394Y050984D01*
X047598D01*
X048583Y051969D01*
X045433D02*
X045906Y051496D01*
X047480D01*
X047795Y051811D01*
X058425Y051457D02*
X058937D01*
X059213Y051181D01*
X059882D01*
X059803Y052008D02*
X060315Y051496D01*
X061417D01*
X061772Y051850D01*
X059882Y051181D02*
X060039Y051024D01*
X061575D01*
X062559Y052008D01*
X068307Y051417D02*
X068583D01*
X068898Y051102D01*
X069488D01*
X069921Y051535D01*
X071693D01*
X072165Y052008D01*
X012323Y050669D02*
X012835Y051181D01*
X015827D01*
X016024Y051378D01*
X016299D01*
X016417Y051496D01*
X020689D01*
X021555Y050630D01*
X025709Y051339D02*
X026063D01*
X038701Y050551D02*
X039488Y051339D01*
X039803D01*
X048110Y050591D02*
X048780Y051260D01*
X049094D01*
X024213Y051535D02*
X024606Y051929D01*
X027126Y050394D02*
Y051220D01*
X050236Y050157D02*
Y051457D01*
X021673Y050748D02*
X025118D01*
X025709Y051339D01*
X021614Y048858D02*
X023071Y050315D01*
X025000D01*
X016476Y048898D02*
X020118D01*
X049272Y048819D02*
X049882D01*
X070197Y047283D02*
X071280D01*
X072854Y048858D01*
X067382Y049803D02*
X068327Y048858D01*
X058740Y048858D02*
X060039Y050157D01*
X062283D01*
X062638Y049803D01*
X058346Y050591D02*
X061890D01*
X062559Y051260D01*
X063248Y048858D02*
X066811D01*
X011949Y047126D02*
X014528D01*
X020512Y047087D02*
X021555D01*
X024882D01*
X025787Y047992D02*
X026929D01*
X034488Y047087D02*
X035453D01*
X036772D01*
X039646Y047913D02*
X040354D01*
X041220Y047047D01*
X044744D01*
X046063D01*
X050118Y047913D02*
X052638Y050433D01*
X054449D01*
X057795Y047087D01*
X058720D01*
X059961D01*
X015000Y051968D02*
Y052402D01*
X016476Y047126D02*
X019567D01*
X020472Y046220D01*
X039409Y047087D02*
X039980D01*
X040551D01*
X041417Y046220D01*
X049272Y047047D02*
X057047D01*
X060157Y047283D02*
X062244D01*
X062992Y048032D01*
X059961Y047087D02*
X060157Y047283D01*
X063248Y047087D02*
X066890D01*
X023150Y047559D02*
X024567D01*
X025866Y048858D01*
X024882Y047087D02*
X025787Y047992D01*
X016890Y045709D02*
X022244D01*
X036772Y047087D02*
X036890Y047205D01*
X038937D01*
X039646Y047913D01*
X046299Y047598D02*
X048051D01*
X049272Y048819D01*
X046063Y047047D02*
X046181Y047165D01*
X057598Y045709D02*
X059409D01*
X073622Y037638D02*
Y048091D01*
X072854Y048858D02*
X073622Y048091D01*
X072165Y052008D02*
X072835D01*
X074409Y050433D01*
X072854Y050630D02*
X074016Y049469D01*
X013386Y039921D02*
Y040748D01*
X011831Y039941D02*
Y041161D01*
X012362Y041693D01*
X013386Y040748D02*
X013661Y041024D01*
X017047D01*
X015472Y040512D02*
X016220Y039764D01*
X040748Y040984D02*
X050276D01*
X064016D01*
X072992D01*
X026811D02*
X040748D01*
X017047D02*
X026811D01*
X020709Y041654D02*
X034606D01*
X044173D01*
X044193Y041634D02*
X058189D01*
Y041614D02*
X067441D01*
X063976Y045709D02*
X069016D01*
X062598Y044331D02*
X063976Y045709D01*
X059409Y045315D02*
X060394Y044331D01*
X057047Y047047D02*
X057835Y046260D01*
X045433Y045354D02*
X046535Y044252D01*
X048386D01*
X038819Y046496D02*
X039409Y047087D01*
X026083Y047087D02*
X033524D01*
X048287Y046417D02*
X048917Y047047D01*
X021614Y046220D02*
X021732Y046339D01*
X020472Y046220D02*
X021614D01*
X021732Y046339D02*
X024941D01*
X025689Y047087D01*
X040827Y045669D02*
X045433D01*
X039252Y044094D02*
X040827Y045669D01*
X036142Y045472D02*
X037520Y044094D01*
X039252D01*
X034134Y045709D02*
X036142D01*
X022244Y045315D02*
X023307Y044252D01*
X025512D01*
X012756Y045748D02*
X013543Y046535D01*
X016063D01*
X016890Y045709D01*
X012362Y041693D02*
X013313D01*
Y041654D02*
X020709D01*
X060394Y044331D02*
X062598D01*
X066890Y047087D02*
X067677Y046299D01*
X044724Y050591D02*
X048110D01*
X068780Y036906D02*
Y038504D01*
X033524Y047087D02*
X034469Y046142D01*
X035536D01*
X057835Y046260D02*
X058976D01*
X059252Y046535D01*
X060098D01*
X060413Y046850D01*
X063012D01*
X047878Y019098D02*
X048358D01*
X049528Y020268D01*
X047283Y014756D02*
Y015693D01*
X046878Y016098D02*
X047283Y015693D01*
X048661Y014756D02*
Y015315D01*
X047878Y016098D02*
X048661Y015315D01*
X045713Y010508D02*
X047035D01*
X047283Y010756D02*
X048661D01*
X050039Y012134D01*
Y014756D01*
Y015756D01*
X049528Y016268D02*
X050039Y015756D01*
X043713Y010508D02*
X044386Y011181D01*
X046654D01*
X042831Y010508D02*
X043898Y011575D01*
X048661Y013189D02*
Y014756D01*
X047156Y011683D02*
X048159Y012687D01*
X046654Y011181D02*
X047156Y011683D01*
X048159Y012687D02*
X048661Y013189D01*
X036878Y015516D02*
Y016098D01*
Y015516D02*
X037638Y014756D01*
X035878Y015098D02*
Y016098D01*
Y015098D02*
X036220Y014756D01*
X034878Y014831D02*
Y016098D01*
X025071Y011654D02*
X029252D01*
X024213Y010795D02*
X025071Y011654D01*
X012323Y010795D02*
X015425Y013898D01*
X030197D01*
X031693Y015394D02*
Y016102D01*
X057205Y023244D02*
X058961D01*
X059291Y022913D01*
X053488Y023283D02*
X055905D01*
X050709Y023504D02*
X053268D01*
X050079Y022874D02*
X050709Y023504D01*
X057850Y018701D02*
Y022598D01*
X057205Y023244D02*
X057850Y022598D01*
X059291Y022913D02*
X060709D01*
X061772Y021850D01*
X053450Y011270D02*
X054129Y010591D01*
X066843Y014925D02*
X067942Y016024D01*
X071646D01*
X064014Y015551D02*
X066850D01*
X063388Y014925D02*
X064014Y015551D01*
X061772Y021850D02*
X062798Y020824D01*
X063388Y012925D02*
X065000Y011313D01*
Y010748D02*
Y011313D01*
X063388Y013925D02*
X065231Y012082D01*
X073307Y014528D02*
Y015752D01*
X072638Y013858D02*
X073307Y014528D01*
X072638Y012165D02*
Y013858D01*
Y012165D02*
X072835Y011968D01*
X062798Y017556D02*
Y020824D01*
X063388Y010470D02*
Y011925D01*
X072835Y011968D02*
X074055D01*
X057848Y013190D02*
X060394D01*
X061378Y014173D01*
X062636D01*
X063388Y014925D01*
X055860Y012250D02*
Y013830D01*
X055140Y014550D02*
X055860Y013830D01*
X015276Y010795D02*
X017827Y013346D01*
X030276D01*
X045126Y016850D02*
X045878Y016098D01*
X033346Y015276D02*
X034134Y016063D01*
Y016535D01*
X034449Y016850D01*
X045126D01*
X019866Y026039D02*
X020197Y025709D01*
X019866Y026039D02*
Y026772D01*
X020197Y025709D02*
X028386D01*
X031217Y022878D01*
X032559Y022579D02*
Y023386D01*
X018866Y027094D02*
X019291Y027520D01*
X017224Y033563D02*
X018169D01*
X018504Y033228D01*
X019213Y031457D02*
X027087D01*
X013878Y033563D02*
X014213Y033228D01*
X012972Y033563D02*
X013878D01*
X029489Y031027D02*
X032365D01*
X039197Y031027D02*
X040906D01*
X054497Y031094D02*
Y031593D01*
Y031094D02*
X054724Y030866D01*
X056575Y018819D02*
Y023583D01*
X056457Y018701D02*
X056575Y018819D01*
X031535Y024409D02*
X032559Y023386D01*
X031535Y024409D02*
Y026102D01*
X030118Y027520D02*
X031535Y026102D01*
X019291Y027520D02*
X030118D01*
X029843Y026772D02*
X030866Y025748D01*
X020866Y026772D02*
X029843D01*
X031772Y020787D02*
X031890Y020669D01*
Y020433D02*
Y020669D01*
X032559Y019626D02*
X034232D01*
X038453Y020508D02*
Y022350D01*
X053465Y010039D02*
X061079D01*
X061880Y010840D01*
X018307Y010795D02*
X019417Y009685D01*
X031693D01*
X033346Y011339D01*
X037953Y026850D02*
X038425Y027323D01*
X031772Y020787D02*
Y023228D01*
X030866Y024134D02*
Y025748D01*
Y024134D02*
X031772Y023228D01*
X054129Y010591D02*
X059528D01*
X061880Y012943D01*
X072650Y033602D02*
X074016Y032236D01*
X065512Y023622D02*
X074016D01*
X063740Y021850D02*
X065512Y023622D01*
X031217Y019297D02*
Y022878D01*
Y019297D02*
X031794Y018720D01*
X032598D01*
X033346Y011339D02*
Y012953D01*
X043898Y011575D02*
X046139D01*
X047283Y012719D01*
Y014756D01*
X044728Y010508D02*
X045276Y009961D01*
X049244D01*
X050039Y010756D01*
X031693Y016102D02*
X032165Y016575D01*
X032953D01*
X052610Y010894D02*
X053465Y010039D01*
X052610Y010894D02*
Y011744D01*
X054449Y013583D01*
X065231Y012082D02*
X065862D01*
Y010808D02*
X066000Y010669D01*
X065862Y010808D02*
Y012082D01*
X066705Y012925D01*
X066843D01*
X063388Y010470D02*
X064134Y009724D01*
X070866D01*
X073071Y011929D01*
X065000Y010748D02*
X065630Y010118D01*
X070334D01*
X071850Y011634D01*
X066000Y010669D02*
X066079Y010591D01*
X069717D01*
X070354Y011228D01*
X074055Y011968D02*
X074331Y012244D01*
Y016102D01*
X073307Y012752D02*
X073937Y013382D01*
Y016024D01*
X073543Y016890D02*
X074331Y016102D01*
X066850Y015551D02*
X067795Y016496D01*
X073465D01*
X073937Y016024D01*
X062798Y017556D02*
X064409Y015945D01*
X066614D01*
X067559Y016890D01*
X073543D01*
X056575Y023583D02*
X057189Y024197D01*
X073716D02*
X074000Y024481D01*
X057189Y024197D02*
X073716D01*
X044116Y030236D02*
X044906Y031027D01*
X032365Y031027D02*
X033031Y031693D01*
X038531D01*
X039197Y031027D01*
X039685Y032087D02*
X040594Y032995D01*
X028976Y032087D02*
X039685D01*
X027087Y031457D02*
X028071Y032441D01*
X038604D01*
X039197Y033035D01*
X062008Y025591D02*
X062283Y025866D01*
X065315D01*
X065748Y026299D02*
Y026685D01*
X053858Y024606D02*
X054213Y024252D01*
X056378D02*
X057717Y025591D01*
X062008D01*
X054213Y024252D02*
X056378D01*
X054724Y030866D02*
X068150D01*
X069370Y029646D01*
X067677Y046299D02*
X068661D01*
X069213Y046850D01*
X072618D01*
X035536Y046142D02*
X035890Y046496D01*
X038819D01*
X041417Y046220D02*
X044961D01*
X045157Y046417D01*
X048287D01*
X068169Y047244D02*
X068327Y047087D01*
X067559Y047244D02*
X068169D01*
X062992Y048032D02*
X066772D01*
X067559Y047244D01*
X060236Y047638D02*
X061555D01*
X062776Y048858D01*
X063248D01*
X048976Y047913D02*
X050118D01*
X046181Y047165D02*
X048228D01*
X048976Y047913D01*
X037087Y047638D02*
X038760D01*
X039980Y048858D01*
X011949Y048898D02*
X013524Y050472D01*
X015039D01*
X035453Y048858D02*
X036713Y050118D01*
X039016D01*
X044744Y048819D02*
X046043Y050118D01*
X048504D01*
X037008Y051417D02*
X037953D01*
X038465Y051929D01*
X047795Y051811D02*
Y052441D01*
X026083Y048858D02*
X026732D01*
X025000Y050315D02*
X025472Y049843D01*
X026575D01*
X027126Y050394D01*
X034843Y047835D02*
X036890D01*
X037087Y047638D01*
X039016Y050118D02*
X039213Y049921D01*
X043642D01*
X044744Y048819D01*
X039980Y048858D02*
X041083Y047756D01*
X046142D01*
X046299Y047598D01*
X048504Y050118D02*
X048740Y049882D01*
X049961D01*
X050236Y050157D01*
X058307Y047874D02*
X060000D01*
X060236Y047638D01*
X066811Y048858D02*
X067795Y047874D01*
X069606D01*
X070197Y047283D01*
X015039Y050472D02*
X015591Y049921D01*
X020492D01*
X021555Y048858D01*
X020118Y048898D02*
X021102Y047913D01*
X022795D01*
X023150Y047559D01*
X014528Y047126D02*
X015315Y047913D01*
X019685D01*
X020512Y047087D01*
X056299Y012709D02*
X058140Y014550D01*
X011831Y039941D02*
X013189Y038583D01*
X013386Y039921D02*
X014134Y039173D01*
X021221Y010795D02*
X021898Y010118D01*
X065315Y025866D02*
X065748Y026299D01*
X021476Y033563D02*
X029000D01*
X029489Y033074D01*
X037638Y021378D02*
Y022520D01*
X021898Y010118D02*
X030472D01*
X031575Y011220D01*
Y013386D01*
X014213Y032283D02*
Y033228D01*
X011201Y033563D02*
X014528Y030236D01*
X044116D01*
X014213Y032283D02*
X015591Y030906D01*
X027795D01*
X028976Y032087D01*
X032953Y016575D02*
X034331Y017953D01*
X045732D01*
X046878Y019098D01*
X053622Y020898D02*
X053748D01*
X054449Y020197D01*
Y013583D02*
Y020197D01*
D12*
X038968Y023079D02*
Y024024D01*
X041929Y025315D02*
X043110Y026496D01*
X041929Y024370D02*
Y025315D01*
X041453Y023894D02*
X041929Y024370D01*
X040630Y027402D02*
X061102D01*
X039724Y026496D02*
X040630Y027402D01*
X039724Y023780D02*
Y026496D01*
X037244Y027087D02*
X037913Y027756D01*
X037244Y023717D02*
Y027087D01*
Y023717D02*
X037453Y023508D01*
X037953Y023110D02*
Y024055D01*
X039453Y023508D02*
X039724Y023780D01*
X046433Y020921D02*
X047272Y021760D01*
Y022953D01*
X044634Y020909D02*
Y022953D01*
X035043Y019098D02*
X036453Y020508D01*
X036043Y019098D02*
X037453Y020508D01*
X037878Y019177D02*
X038346Y019646D01*
X042598Y020787D02*
X044512D01*
X044331Y015551D02*
X044878Y016098D01*
X038189Y014134D02*
X038346Y014291D01*
X030197Y013898D02*
X031693Y015394D01*
X030276Y013346D02*
X032205Y015276D01*
X033346D01*
X041453Y020508D02*
X041768D01*
X042874Y021614D01*
X044961Y020315D02*
X045433Y020787D01*
X046433D01*
X042874Y021614D02*
Y023386D01*
X053858Y024606D02*
Y025827D01*
X042957Y019098D02*
X043819Y019961D01*
X045118D01*
X045122Y019098D02*
X045630Y019606D01*
X033268Y021496D02*
X034256Y020508D01*
X033268Y021496D02*
Y028268D01*
X033780Y022480D02*
Y028080D01*
X071835Y026772D02*
Y027555D01*
X069961Y028819D02*
X070787Y027992D01*
X034453Y023508D02*
Y027878D01*
X035453Y023508D02*
Y027657D01*
X036378Y028583D01*
X036453Y023508D02*
Y027319D01*
X040453Y023508D02*
Y023878D01*
X041260Y024685D01*
Y025630D01*
X041453Y023508D02*
Y023894D01*
X043110Y026496D02*
X059370D01*
X059764Y026102D01*
X060787D01*
X036378Y028583D02*
X067677D01*
X067835Y028425D01*
X066850Y027756D02*
X067835Y026772D01*
X051535Y025748D02*
X052047D01*
X069213Y028819D02*
X069961D01*
X068622Y029173D02*
X068858D01*
X069213Y028819D01*
X033268Y028268D02*
X034685Y029685D01*
X068465Y029331D02*
X068622Y029173D01*
X033780Y028080D02*
X035030Y029331D01*
X068465D01*
X034453Y027878D02*
X035551Y028976D01*
X068425D01*
X069094Y028307D01*
X036453Y027319D02*
X037323Y028189D01*
X067417D01*
X068835Y026772D01*
X037913Y027756D02*
X066850D01*
X042874Y023386D02*
X045669Y026181D01*
X053504D01*
X053858Y025827D01*
X035394Y020567D02*
X035453Y020508D01*
X035394Y020567D02*
Y020866D01*
X033780Y022480D02*
X035394Y020866D01*
X038346Y019646D02*
X039094D01*
X036933Y019098D02*
X037795Y019961D01*
X038906D01*
X039453Y020508D01*
X043032Y020315D02*
X044961D01*
X049488Y023504D02*
X049961Y023976D01*
X052795D01*
X053307Y024488D01*
Y025591D01*
X052717Y024528D02*
Y025118D01*
X045630Y019606D02*
X046181D01*
X048465Y022008D02*
Y023701D01*
X048976Y021850D02*
Y023583D01*
X049488Y021772D02*
Y023504D01*
X038346Y014291D02*
X041260D01*
X042878Y015909D01*
X043819Y015551D02*
X044331D01*
X041260Y025630D02*
X042598Y026969D01*
X059961D01*
X060079Y026850D01*
X048976Y023583D02*
X049724Y024331D01*
X052520D01*
X052717Y024528D01*
X048465Y023701D02*
X049488Y024724D01*
X050512D01*
X051535Y025748D01*
X043980Y019098D02*
X044528Y019646D01*
X045236D01*
X045472Y019882D01*
X045118Y019961D02*
X045512Y020354D01*
X046811D01*
X048465Y022008D01*
X047205Y020079D02*
X048976Y021850D01*
X045472Y019882D02*
X045866D01*
X046063Y020079D01*
X047205D01*
X046181Y019606D02*
X046388Y019813D01*
X047530D01*
X049488Y021772D01*
X038780Y013504D02*
X041772D01*
X043819Y015551D01*
X038465Y013819D02*
X041417D01*
X043697Y016098D01*
X060787Y026102D02*
X062087Y027402D01*
X066205D01*
X066835Y026772D01*
X065748Y026685D02*
X065835Y026772D01*
X070246Y029144D02*
X071835Y027555D01*
X034685Y029685D02*
X068583D01*
X068819Y029449D01*
X069134D01*
X069439Y029144D01*
X070246D01*
X039020Y019098D02*
X039567Y019646D01*
X040079D01*
X039094D02*
X039409Y019961D01*
X039906D01*
X040453Y020508D01*
X040079Y019646D02*
X040394Y019961D01*
X041772D01*
X042598Y020787D01*
X040043Y019098D02*
X040630Y019685D01*
X042402D01*
X043032Y020315D01*
X045878Y019098D02*
X046106D01*
X046575Y019567D01*
X047835D01*
X049213Y020945D01*
X050236D01*
X050787Y020394D01*
D13*
X062559Y052008D02*
X062717Y052165D01*
X013182Y015984D02*
X013346D01*
X016120Y015999D02*
X016300D01*
X024993Y015984D02*
X025197D01*
X022040D02*
X022244D01*
X062835Y026670D02*
Y026772D01*
X032598Y018720D02*
X032940D01*
X032500Y015768D02*
X032598D01*
X036142Y052008D02*
X036417D01*
X059409Y052008D02*
X059803D01*
X039291Y052008D02*
X039488D01*
X011949Y050669D02*
X012323D01*
X021555Y048858D02*
X021614D01*
X058720Y048858D02*
Y049311D01*
X021555Y050630D02*
X021673Y050748D01*
X025886Y050433D02*
X026083Y050630D01*
X025866Y048858D02*
X026083D01*
X058720Y048858D02*
X058740D01*
X072618Y046850D02*
X072854Y047087D01*
X015787Y045748D02*
X016102D01*
X012638D02*
X012756D01*
X071835Y036551D02*
Y036850D01*
X070835Y036764D02*
Y036850D01*
X020850D02*
Y036969D01*
X015236Y040512D02*
X015472D01*
X044173Y041654D02*
X044193Y041634D01*
X059409Y045315D02*
Y045709D01*
X045433Y045354D02*
Y045669D01*
X048917Y047047D02*
X049272D01*
X025689Y047087D02*
X026083D01*
X036142Y045472D02*
Y045709D01*
X022244Y045315D02*
Y045709D01*
X050495Y037266D02*
Y037323D01*
X010669Y022795D02*
X010709Y022756D01*
X013622Y022795D02*
X013661Y022756D01*
X016575Y022795D02*
X016575Y022795D01*
X019528Y022795D02*
X019528Y022795D01*
X022480Y022795D02*
X022480Y022795D01*
X025433Y022795D02*
X025433Y022795D01*
X028386Y022795D02*
X028425Y022756D01*
X012323Y014795D02*
X012323Y014795D01*
X015276D02*
X015276Y014796D01*
X018268Y014834D02*
X018307Y014795D01*
X021220Y014795D02*
X021221Y014795D01*
X024173Y014835D02*
X024213Y014795D01*
X027087D02*
X027126Y014835D01*
X063012Y046850D02*
X063248Y047087D01*
X046433Y020787D02*
Y020921D01*
X044512Y020787D02*
X044634Y020909D01*
X034878Y019098D02*
X035043D01*
X035878D02*
X036043D01*
X036878D02*
X036933D01*
X037878D02*
Y019177D01*
X039606Y014937D02*
X039630D01*
X047035Y010508D02*
X047283Y010756D01*
X047283Y010756D01*
X042713Y010508D02*
X042831D01*
X044713D02*
X044728D01*
X034803Y014756D02*
X034878Y014831D01*
X053268Y023504D02*
X053488Y023283D01*
X071646Y016024D02*
X071850Y015819D01*
X073240D02*
X073307Y015752D01*
X071850Y011634D02*
Y011819D01*
X059280Y012190D02*
X059380Y012090D01*
X012866Y026772D02*
X012913Y026724D01*
X018866Y026772D02*
Y027094D01*
X040594Y032995D02*
X040945D01*
X040906Y031027D02*
X040906Y031027D01*
X044878Y019098D02*
X045122D01*
X042878D02*
X042957D01*
X034256Y020508D02*
X034453D01*
X070787Y027835D02*
Y027992D01*
X053071Y025591D02*
X053307D01*
X052047Y025748D02*
X052047Y025748D01*
X069094Y028307D02*
X069252D01*
X038878Y019098D02*
X039020D01*
X061880Y012943D02*
Y013340D01*
X042878Y015909D02*
Y016098D01*
X043697D02*
X043878D01*
X061102Y027402D02*
X061181Y027323D01*
X029882Y017480D02*
Y017567D01*
X030039Y014795D02*
X030079Y014835D01*
X017953Y017480D02*
Y017567D01*
X039878Y019098D02*
X040043D01*
X043878D02*
X043980D01*
X035453Y048858D02*
Y049193D01*
X047008Y052362D02*
Y052520D01*
X034232Y019626D02*
X034291Y019685D01*
X062835Y026670D02*
X062950D01*
X067789Y032904D02*
X067989D01*
X067889D01*
Y033404D01*
X067989Y033504D01*
X068089D01*
X068189Y033404D01*
X067489Y033104D02*
X067289D01*
X067189Y033204D01*
Y033504D01*
X067489D01*
X067589Y033404D01*
X067489Y033304D01*
X067189D01*
X066989Y033504D02*
Y032904D01*
Y033304D02*
X066689Y033104D01*
X066989Y033304D02*
X066689Y033504D01*
X066390Y033104D02*
Y033404D01*
X066290Y033504D01*
X065990D01*
Y033104D01*
X065790Y032904D02*
Y033504D01*
X065490D01*
X065390Y033404D01*
Y033304D01*
Y033204D01*
X065490Y033104D01*
X065790D01*
X064590Y032904D02*
Y033504D01*
X064290D01*
X064190Y033404D01*
Y033004D01*
X064290Y032904D01*
X064590D01*
X063890Y033504D02*
X063690D01*
X063590Y033404D01*
Y033204D01*
X063690Y033104D01*
X063890D01*
X063990Y033204D01*
Y033404D01*
X063890Y033504D01*
X063391Y033104D02*
Y033504D01*
Y033304D01*
X063291Y033204D01*
X063191Y033104D01*
X063091D01*
X062391Y032904D02*
Y033504D01*
X062691D01*
X062791Y033404D01*
Y033204D01*
X062691Y033104D01*
X062391D01*
X062091D02*
X061891D01*
X061791Y033204D01*
Y033504D01*
X062091D01*
X062191Y033404D01*
X062091Y033304D01*
X061791D01*
X060591Y033504D02*
X060991D01*
X060591Y033104D01*
Y033004D01*
X060691Y032904D01*
X060891D01*
X060991Y033004D01*
X060392D02*
X060292Y032904D01*
X060092D01*
X059992Y033004D01*
Y033404D01*
X060092Y033504D01*
X060292D01*
X060392Y033404D01*
Y033004D01*
X059792Y033504D02*
X059592D01*
X059692D01*
Y032904D01*
X059792Y033004D01*
X058892Y032904D02*
X059092Y033004D01*
X059292Y033204D01*
Y033404D01*
X059192Y033504D01*
X058992D01*
X058892Y033404D01*
Y033304D01*
X058992Y033204D01*
X059292D01*
X058092Y033104D02*
X057892Y033504D01*
X057692Y033104D01*
X057492Y033504D02*
X057292D01*
X057392D01*
Y032904D01*
X057492Y033004D01*
X056993Y033504D02*
Y033404D01*
X056893D01*
Y033504D01*
X056993D01*
X056093D02*
X056493D01*
X056093Y033104D01*
Y033004D01*
X056193Y032904D01*
X056393D01*
X056493Y033004D01*
D14*
X013346Y015984D02*
Y016346D01*
X012126Y017567D02*
X013346Y016346D01*
X016300Y015999D02*
Y016346D01*
X015079Y017567D02*
X016300Y016346D01*
X022244Y015984D02*
Y016307D01*
X020984Y017567D02*
X022244Y016307D01*
X025197Y015984D02*
Y016307D01*
X023937Y017567D02*
X025197Y016307D01*
X028150Y015984D02*
Y016307D01*
X026890Y017567D02*
X028150Y016307D01*
X029882Y017480D02*
X031102Y016260D01*
Y015984D02*
Y016260D01*
X017953Y017480D02*
X019292Y016141D01*
Y015999D02*
Y016141D01*
D15*
X040878Y014965D02*
Y016098D01*
X039878Y015209D02*
Y016098D01*
X039606Y014937D02*
X039878Y015209D01*
D16*
X031575Y013386D02*
X032087Y013898D01*
X033150D01*
X033661Y014134D02*
X038189D01*
X029252Y011654D02*
X031929Y014331D01*
X033465D01*
X033661Y014134D01*
X033346Y012953D02*
X033661Y013268D01*
X038543D01*
X038780Y013504D01*
X033150Y013898D02*
X033346Y013701D01*
X038346D01*
X038465Y013819D01*
D17*
X055360Y011750D02*
X056081D01*
X056299Y011969D01*
Y012709D01*
D18*
X057848Y013190D02*
D03*
X056842Y012190D02*
D03*
X057848Y011190D02*
D03*
X039606Y014937D02*
D03*
Y012937D02*
D03*
X066000Y010669D02*
D03*
X064000D02*
D03*
X056008Y016142D02*
D03*
X058008D02*
D03*
X040905Y014937D02*
D03*
Y012937D02*
D03*
X039315Y011142D02*
D03*
X041315D02*
D03*
X034453Y023508D02*
D03*
X035453D02*
D03*
Y020508D02*
D03*
X036453D02*
D03*
X037453D02*
D03*
X038453D02*
D03*
X039453D02*
D03*
X040453D02*
D03*
X036453Y023508D02*
D03*
X037453D02*
D03*
X038453D02*
D03*
X039453D02*
D03*
X040453D02*
D03*
X041453D02*
D03*
Y020508D02*
D03*
X055827Y023283D02*
D03*
Y021283D02*
D03*
X057244Y023244D02*
D03*
Y021244D02*
D03*
X066843Y012925D02*
D03*
Y014925D02*
D03*
X063388D02*
D03*
Y013925D02*
D03*
Y012925D02*
D03*
Y011925D02*
D03*
X066843Y013925D02*
D03*
D19*
X055360Y011750D02*
D03*
D20*
X055860Y012250D02*
D03*
X055360Y012750D02*
D03*
D21*
X047802Y037323D02*
D03*
X043802D02*
D03*
X048661Y014756D02*
D03*
Y010756D02*
D03*
X015079Y017567D02*
D03*
Y021567D02*
D03*
X012126Y017567D02*
D03*
Y021567D02*
D03*
X012323Y010795D02*
D03*
Y014795D02*
D03*
X015276Y010795D02*
D03*
Y014795D02*
D03*
X018307Y010795D02*
D03*
Y014795D02*
D03*
X021221Y010795D02*
D03*
Y014795D02*
D03*
X024213Y010795D02*
D03*
Y014795D02*
D03*
X027087Y010795D02*
D03*
Y014795D02*
D03*
X030039Y010795D02*
D03*
Y014795D02*
D03*
X017953Y017567D02*
D03*
Y021567D02*
D03*
X020984Y017567D02*
D03*
Y021567D02*
D03*
X023937Y017567D02*
D03*
Y021567D02*
D03*
X026890Y017567D02*
D03*
Y021567D02*
D03*
X029882Y017567D02*
D03*
Y021567D02*
D03*
X013661Y017567D02*
D03*
Y021567D02*
D03*
X016575Y017567D02*
D03*
Y021567D02*
D03*
X019528Y017567D02*
D03*
Y021567D02*
D03*
X022480Y017567D02*
D03*
Y021567D02*
D03*
X025433Y017567D02*
D03*
Y021567D02*
D03*
X028425Y017567D02*
D03*
Y021567D02*
D03*
X071850Y015819D02*
D03*
Y011819D02*
D03*
X068858Y015268D02*
D03*
Y011268D02*
D03*
X070354Y011228D02*
D03*
Y015228D02*
D03*
X037638Y014756D02*
D03*
Y010756D02*
D03*
X036220Y014756D02*
D03*
Y010756D02*
D03*
X034803Y014756D02*
D03*
Y010756D02*
D03*
X035197Y031027D02*
D03*
X039197D02*
D03*
X033489Y031027D02*
D03*
X029489D02*
D03*
Y033074D02*
D03*
X033489D02*
D03*
X039197Y033035D02*
D03*
X035197D02*
D03*
X044906Y031027D02*
D03*
X040906D02*
D03*
X040945Y032995D02*
D03*
X044945D02*
D03*
X053450Y011270D02*
D03*
Y015270D02*
D03*
X053780Y020898D02*
D03*
Y016898D02*
D03*
X047283Y014756D02*
D03*
Y010756D02*
D03*
X050039Y010756D02*
D03*
Y014756D02*
D03*
X049528Y020268D02*
D03*
Y016268D02*
D03*
X059685Y016465D02*
D03*
Y020465D02*
D03*
X034416Y037283D02*
D03*
X030416D02*
D03*
X041109D02*
D03*
X037109D02*
D03*
X054495Y037323D02*
D03*
X050495D02*
D03*
X010709Y017567D02*
D03*
Y021567D02*
D03*
X044634Y022953D02*
D03*
X043634D02*
D03*
X047272D02*
D03*
X046272D02*
D03*
D22*
X045827Y014685D02*
D03*
X045197D02*
D03*
X060984Y049106D02*
D03*
Y048606D02*
D03*
Y048106D02*
D03*
X047047Y048106D02*
D03*
Y048606D02*
D03*
Y049106D02*
D03*
X037717Y048106D02*
D03*
Y048606D02*
D03*
Y049106D02*
D03*
X023819Y048106D02*
D03*
Y048606D02*
D03*
Y049106D02*
D03*
X014213Y048185D02*
D03*
Y048685D02*
D03*
Y049185D02*
D03*
X070591Y049106D02*
D03*
Y048606D02*
D03*
Y048106D02*
D03*
X053110Y025669D02*
D03*
X052677Y025039D02*
D03*
X052047Y025748D02*
D03*
D23*
X060984Y049606D02*
D03*
X047047Y049606D02*
D03*
X037717D02*
D03*
X023819D02*
D03*
X014213Y049685D02*
D03*
X070591Y049606D02*
D03*
D24*
X047878Y019098D02*
D03*
X045713Y013508D02*
D03*
D25*
X046878Y019098D02*
D03*
X045878D02*
D03*
X044878D02*
D03*
X043878D02*
D03*
X042878D02*
D03*
X041878D02*
D03*
X040878D02*
D03*
X039878D02*
D03*
X038878D02*
D03*
X037878D02*
D03*
X036878D02*
D03*
X035878D02*
D03*
X034878D02*
D03*
X047878Y016098D02*
D03*
X046878D02*
D03*
X045878D02*
D03*
X044878D02*
D03*
X043878D02*
D03*
X042878D02*
D03*
X041878D02*
D03*
X040878D02*
D03*
X039878D02*
D03*
X038878D02*
D03*
X037878D02*
D03*
X036878D02*
D03*
X035878D02*
D03*
X034878D02*
D03*
X042713Y010508D02*
D03*
X043713D02*
D03*
X044713D02*
D03*
X045713D02*
D03*
X042713Y013508D02*
D03*
X043713D02*
D03*
X044713D02*
D03*
D26*
X018268Y015999D02*
D03*
X019292D02*
D03*
X015276D02*
D03*
X016300D02*
D03*
X021220Y015984D02*
D03*
X022244D02*
D03*
X024173D02*
D03*
X025197D02*
D03*
X027126D02*
D03*
X028150D02*
D03*
X030079D02*
D03*
X031102D02*
D03*
X012323D02*
D03*
X013346D02*
D03*
X021575Y022795D02*
D03*
X020551D02*
D03*
X030433D02*
D03*
X029409D02*
D03*
X027480D02*
D03*
X026457D02*
D03*
X024528D02*
D03*
X023504D02*
D03*
X018622D02*
D03*
X017598D02*
D03*
X015669D02*
D03*
X014646D02*
D03*
X012717D02*
D03*
X011693D02*
D03*
D27*
X017245Y015999D02*
D03*
X014253D02*
D03*
X020197Y015984D02*
D03*
X023150D02*
D03*
X026102D02*
D03*
X029055D02*
D03*
X011299D02*
D03*
X019528Y022795D02*
D03*
X028386D02*
D03*
X025433D02*
D03*
X022480D02*
D03*
X016575D02*
D03*
X013622D02*
D03*
X010669D02*
D03*
D28*
X013866Y026772D02*
D03*
X014866D02*
D03*
X015866D02*
D03*
X016866D02*
D03*
X017866D02*
D03*
X018866D02*
D03*
X019866D02*
D03*
X012866D02*
D03*
X065835D02*
D03*
X066835D02*
D03*
X067835D02*
D03*
X068835D02*
D03*
X069835D02*
D03*
X070835D02*
D03*
X071835D02*
D03*
X064835D02*
D03*
X063835D02*
D03*
X065835Y036850D02*
D03*
X066835D02*
D03*
X067835D02*
D03*
X068835D02*
D03*
X069835D02*
D03*
X070835D02*
D03*
X071835D02*
D03*
X064835D02*
D03*
X063835D02*
D03*
X013850D02*
D03*
X014850D02*
D03*
X015850D02*
D03*
X016850D02*
D03*
X017850D02*
D03*
X018850D02*
D03*
X019850D02*
D03*
X012850D02*
D03*
X011850D02*
D03*
X011866Y026772D02*
D03*
D29*
X020866D02*
D03*
X062835D02*
D03*
X072835D02*
D03*
X062835Y036850D02*
D03*
X072835D02*
D03*
X020850D02*
D03*
D30*
X032598Y018720D02*
D03*
Y017244D02*
D03*
X032559Y022579D02*
D03*
Y021102D02*
D03*
X032598Y014862D02*
D03*
Y013386D02*
D03*
D31*
X032598Y015768D02*
D03*
X032559Y019626D02*
D03*
X032598Y011909D02*
D03*
D32*
X010827Y011024D02*
D03*
X073819D02*
D03*
X010827Y029724D02*
D03*
X073819D02*
D03*
X011451Y025039D02*
D03*
X019701D02*
D03*
X021726D02*
D03*
X029976D02*
D03*
X032199D02*
D03*
X040449D02*
D03*
X043577D02*
D03*
X051827D02*
D03*
X054482Y025079D02*
D03*
X062732D02*
D03*
X026535Y032205D02*
D03*
X023543D02*
D03*
X065152Y025000D02*
D03*
X073402D02*
D03*
X057850Y018701D02*
D03*
X055850D02*
D03*
X030748Y051890D02*
D03*
Y047795D02*
D03*
X054012Y051894D02*
D03*
Y047799D02*
D03*
X050079Y021874D02*
D03*
X053268Y022504D02*
D03*
X059291Y021913D02*
D03*
D33*
X070800Y032342D02*
D03*
D34*
X072650Y031240D02*
D03*
D35*
Y033602D02*
D03*
D36*
X073740Y019882D02*
D03*
X065866D02*
D03*
D37*
X073307Y015752D02*
D03*
D38*
Y012752D02*
D03*
D39*
X062169Y014882D02*
D03*
X059169D02*
D03*
X058140Y014550D02*
D03*
X055140D02*
D03*
X069620Y030260D02*
D03*
Y033260D02*
D03*
D40*
X061880Y010840D02*
D03*
Y013340D02*
D03*
X059380Y012090D02*
D03*
X061772Y017756D02*
D03*
X063740D02*
D03*
X061772Y021850D02*
D03*
X063740D02*
D03*
D41*
X053497Y031593D02*
D03*
X054497D02*
D03*
D42*
X055497D02*
D03*
D43*
X062310Y031740D02*
D03*
D44*
X061310D02*
D03*
X060310D02*
D03*
D45*
X034453Y020508D02*
D03*
X066843Y011925D02*
D03*
D46*
X044512Y020787D02*
D03*
D47*
X046433D02*
D03*
D48*
X025394Y045709D02*
D03*
X026083Y047087D02*
D03*
Y048858D02*
D03*
Y050630D02*
D03*
X025394Y052008D02*
D03*
X023819Y052402D02*
D03*
X022244Y052008D02*
D03*
X021555Y050630D02*
D03*
Y048858D02*
D03*
Y047087D02*
D03*
X022244Y045709D02*
D03*
X023819Y045315D02*
D03*
X015787Y045748D02*
D03*
X016476Y047126D02*
D03*
Y048898D02*
D03*
Y050669D02*
D03*
X015787Y052047D02*
D03*
X014213Y052441D02*
D03*
X012638Y052047D02*
D03*
X011949Y050669D02*
D03*
Y048898D02*
D03*
Y047126D02*
D03*
X012638Y045748D02*
D03*
X014213Y045354D02*
D03*
X039291Y045709D02*
D03*
X039980Y047087D02*
D03*
Y048858D02*
D03*
Y050630D02*
D03*
X039291Y052008D02*
D03*
X037717Y052402D02*
D03*
X036142Y052008D02*
D03*
X035453Y050630D02*
D03*
Y048858D02*
D03*
Y047087D02*
D03*
X036142Y045709D02*
D03*
X037717Y045315D02*
D03*
X048583Y045669D02*
D03*
X049272Y047047D02*
D03*
Y048819D02*
D03*
Y050591D02*
D03*
X048583Y051969D02*
D03*
X047008Y052362D02*
D03*
X045433Y051969D02*
D03*
X044744Y050591D02*
D03*
Y048819D02*
D03*
Y047047D02*
D03*
X045433Y045669D02*
D03*
X047008Y045276D02*
D03*
X062559Y045709D02*
D03*
X063248Y047087D02*
D03*
Y048858D02*
D03*
Y050630D02*
D03*
X062559Y052008D02*
D03*
X060984Y052402D02*
D03*
X059409Y052008D02*
D03*
X058720Y050630D02*
D03*
Y048858D02*
D03*
Y047087D02*
D03*
X059409Y045709D02*
D03*
X060984Y045315D02*
D03*
X072165Y045709D02*
D03*
X072854Y047087D02*
D03*
Y048858D02*
D03*
Y050630D02*
D03*
X072165Y052008D02*
D03*
X070591Y052402D02*
D03*
X069016Y052008D02*
D03*
X068327Y050630D02*
D03*
Y048858D02*
D03*
Y047087D02*
D03*
X069016Y045709D02*
D03*
X070591Y045315D02*
D03*
D49*
X012972Y033563D02*
D03*
X011201D02*
D03*
X017224D02*
D03*
X015453D02*
D03*
X019705D02*
D03*
X021476D02*
D03*
D50*
X013465Y032579D02*
D03*
X010709D02*
D03*
X017717D02*
D03*
X014961D02*
D03*
X019213D02*
D03*
X021969D02*
D03*
D51*
X030748Y049677D02*
D03*
Y045583D02*
D03*
X054012Y049681D02*
D03*
Y045587D02*
D03*
X050079Y022874D02*
D03*
X053268Y023504D02*
D03*
X059291Y022913D02*
D03*
D52*
X042205Y037835D02*
D03*
X041614Y038386D02*
D03*
X040984Y038937D02*
D03*
X040354Y039488D02*
D03*
X064094Y045630D02*
D03*
X013313Y041693D02*
D03*
X015236Y040512D02*
D03*
X071299Y040350D02*
D03*
X048110Y040354D02*
D03*
X038701Y040079D02*
D03*
X040748Y040984D02*
D03*
X050276D02*
D03*
X064016D02*
D03*
X072992D02*
D03*
X020709Y041654D02*
D03*
X017047Y040984D02*
D03*
X025000Y040394D02*
D03*
X026811Y040984D02*
D03*
X034606Y041654D02*
D03*
X044193Y041634D02*
D03*
X058189Y041614D02*
D03*
X067441Y041575D02*
D03*
X061732Y040276D02*
D03*
X031890Y020433D02*
D03*
X038819Y012638D02*
D03*
X033898Y011299D02*
D03*
X070787Y027835D02*
D03*
X060276Y026772D02*
D03*
X069252Y028307D02*
D03*
X068110Y028386D02*
D03*
X061142Y027283D02*
D03*
X039331D02*
D03*
X038425Y027323D02*
D03*
X074134Y017165D02*
D03*
X034291Y019685D02*
D03*
X037638Y021378D02*
D03*
X050787Y020394D02*
D03*
M02*
