G04 Layer_Physical_Order=2*
G04 Layer_Color=11436288*
%FSAX24Y24*%
%MOIN*%
G70*
G01*
G75*
%ADD33R,0.0600X0.0600*%
%ADD34C,0.0600*%
%ADD36C,0.0200*%
%ADD37C,0.0120*%
%ADD38C,0.0300*%
%ADD40C,0.0400*%
%ADD41C,0.0250*%
%ADD43C,0.0780*%
%ADD44C,0.0800*%
%ADD45R,0.0800X0.0600*%
G04:AMPARAMS|DCode=46|XSize=60mil|YSize=80mil|CornerRadius=15mil|HoleSize=0mil|Usage=FLASHONLY|Rotation=90.000|XOffset=0mil|YOffset=0mil|HoleType=Round|Shape=RoundedRectangle|*
%AMROUNDEDRECTD46*
21,1,0.0600,0.0500,0,0,90.0*
21,1,0.0300,0.0800,0,0,90.0*
1,1,0.0300,0.0250,0.0150*
1,1,0.0300,0.0250,-0.0150*
1,1,0.0300,-0.0250,-0.0150*
1,1,0.0300,-0.0250,0.0150*
%
%ADD46ROUNDEDRECTD46*%
%ADD47C,0.0866*%
%ADD48O,0.1575X0.0689*%
%ADD49O,0.0700X0.1575*%
%ADD50O,0.0689X0.1575*%
%ADD51C,0.0394*%
%ADD52R,0.0866X0.0866*%
%ADD53C,0.0850*%
%ADD54C,0.0650*%
%ADD55R,0.0650X0.0650*%
G04:AMPARAMS|DCode=56|XSize=60mil|YSize=60mil|CornerRadius=15mil|HoleSize=0mil|Usage=FLASHONLY|Rotation=180.000|XOffset=0mil|YOffset=0mil|HoleType=Round|Shape=RoundedRectangle|*
%AMROUNDEDRECTD56*
21,1,0.0600,0.0300,0,0,180.0*
21,1,0.0300,0.0600,0,0,180.0*
1,1,0.0300,-0.0150,0.0150*
1,1,0.0300,0.0150,0.0150*
1,1,0.0300,0.0150,-0.0150*
1,1,0.0300,-0.0150,-0.0150*
%
%ADD56ROUNDEDRECTD56*%
%ADD57C,0.0709*%
%ADD58R,0.0709X0.0709*%
%ADD59C,0.0500*%
%ADD60R,0.0650X0.0276*%
%ADD61C,0.0600*%
%ADD62C,0.0100*%
G36*
X056230Y043317D02*
X055768Y043744D01*
X056703D01*
X056230Y043317D01*
D02*
G37*
D33*
X031594Y034961D02*
D03*
Y040472D02*
D03*
X055020Y034961D02*
D03*
Y040472D02*
D03*
D34*
X074213Y022835D02*
D03*
Y015354D02*
D03*
X012402D02*
D03*
Y022835D02*
D03*
X031594Y037165D02*
D03*
X011496Y026339D02*
D03*
X014488D02*
D03*
X019587Y019646D02*
D03*
X031594Y042677D02*
D03*
X055020Y037165D02*
D03*
Y042677D02*
D03*
D36*
X072136Y027539D02*
X075829Y023846D01*
X059862Y027539D02*
X072136D01*
X059055Y026732D02*
X059862Y027539D01*
X011644Y035108D02*
Y037392D01*
X011256Y034720D02*
X011644Y035108D01*
X010591Y034720D02*
X011256D01*
X011644Y037392D02*
X012411Y038159D01*
X021053Y038120D02*
X021161D01*
X019813Y039360D02*
X021053Y038120D01*
X019626Y037628D02*
X021781D01*
X018612Y038642D02*
X019626Y037628D01*
X021781D02*
X022087Y037933D01*
X020591Y039419D02*
X021160Y038850D01*
X021182D01*
X019813Y039360D02*
Y042008D01*
X023248Y039331D02*
X023878Y039961D01*
X023248Y038356D02*
Y039331D01*
X022825Y037933D02*
X023248Y038356D01*
X017598Y038642D02*
X018612D01*
X022087Y037933D02*
X022825D01*
X017421Y038819D02*
X017598Y038642D01*
X017106Y037785D02*
X018337D01*
X016378Y037057D02*
X017106Y037785D01*
X022343Y037057D02*
X024705D01*
X018356Y037766D02*
X019075Y037047D01*
X022343D01*
X021407Y036506D02*
X021781Y036132D01*
X017815Y036506D02*
X021407D01*
X017264Y037057D02*
X017815Y036506D01*
X021093Y035679D02*
X021575Y035197D01*
X017795Y035679D02*
X021093D01*
X016929Y036545D02*
X017795Y035679D01*
X018337Y039222D02*
X018839Y039724D01*
Y041949D01*
X018002Y039882D02*
X018287Y040167D01*
Y041585D01*
X016722Y043150D02*
X018287Y041585D01*
X042165Y034252D02*
X051220D01*
X042003Y034414D02*
X042165Y034252D01*
X041870Y034547D02*
X042003Y034414D01*
X041673Y035089D02*
X043071D01*
X040906Y034321D02*
X041673Y035089D01*
X043071D02*
X043519Y034641D01*
X027087Y033917D02*
X027175Y033829D01*
X017480Y033917D02*
X027087D01*
X026831Y034547D02*
X027421Y035138D01*
X018071Y034547D02*
X026831D01*
X022549Y035197D02*
X023366Y036014D01*
X021575Y035197D02*
X022549D01*
X017126Y043661D02*
X018839Y041949D01*
X013532Y043661D02*
X017126D01*
X075829Y023846D02*
X076024D01*
X075697Y022846D02*
X076024D01*
X071811Y026732D02*
X075697Y022846D01*
X061811Y026732D02*
X071811D01*
X074872Y040679D02*
X075937Y041744D01*
X051181Y038553D02*
X058465D01*
X050600Y037972D02*
X051181Y038553D01*
X049793Y037972D02*
X050600D01*
X051398D02*
X057520D01*
X050482Y037057D02*
X051398Y037972D01*
X047520Y037057D02*
X050482D01*
X037785Y039961D02*
X039636D01*
X037569Y039744D02*
X037785Y039961D01*
X035738Y039744D02*
X037569D01*
X015945Y014449D02*
Y020768D01*
X012890Y023823D02*
X015945Y020768D01*
X010591Y023823D02*
X012890D01*
X013150Y012362D02*
Y013346D01*
X010673Y015823D02*
X013150Y013346D01*
X010591Y015823D02*
X010673D01*
X014016Y021673D02*
X015236Y020453D01*
X011860Y021673D02*
X014016D01*
X010711Y022823D02*
X011860Y021673D01*
X010591Y022823D02*
X010711D01*
X012638Y012008D02*
Y012854D01*
X010768Y014724D02*
X012638Y012854D01*
X010591Y014724D02*
X010768D01*
X015236Y014984D02*
Y020453D01*
X036398Y036181D02*
X037274Y037057D01*
X035778Y036181D02*
X036398D01*
X037234Y035679D02*
X038041Y036486D01*
X036132Y035679D02*
X037234D01*
X034016Y033563D02*
X036132Y035679D01*
X037825Y035561D02*
X038297Y036033D01*
X037825Y035098D02*
Y035561D01*
X037530Y034803D02*
X037825Y035098D01*
X036260Y034803D02*
X037530D01*
X036260Y034793D02*
Y034803D01*
X034390Y032923D02*
X036260Y034793D01*
X034754Y032441D02*
X036634Y034321D01*
X040906D01*
X025610Y037963D02*
X027313D01*
X033671Y034075D02*
X035778Y036181D01*
X031240Y034075D02*
X033671D01*
X028258Y037057D02*
X031240Y034075D01*
X025669Y037057D02*
X028258D01*
X030876Y033563D02*
X034016D01*
X028169Y036270D02*
X030876Y033563D01*
X026565Y036270D02*
X028169D01*
X030581Y032923D02*
X034390D01*
X028366Y035138D02*
X030581Y032923D01*
X027421Y035138D02*
X028366D01*
X015984Y033287D02*
X025502D01*
X035187Y031339D02*
X037136Y033287D01*
X014341Y032736D02*
X023868D01*
X023770Y032835D02*
X023868Y032736D01*
X014232Y032844D02*
X014341Y032736D01*
X074951D02*
X075354Y033140D01*
X074980Y034833D02*
X075892Y035744D01*
X074980Y033553D02*
Y034833D01*
X074715Y033287D02*
X074980Y033553D01*
X075354Y034242D02*
X075856Y034744D01*
X075354Y033140D02*
Y034242D01*
X074596Y035226D02*
X076024Y036654D01*
X074596Y034065D02*
Y035226D01*
X074360Y033829D02*
X074596Y034065D01*
X074173Y035394D02*
X075276Y036496D01*
X074173Y034764D02*
Y035394D01*
X073661Y034252D02*
X074173Y034764D01*
X073750Y035561D02*
X074872Y036683D01*
X073750Y035030D02*
Y035561D01*
X073361Y034641D02*
X073750Y035030D01*
X075913Y042744D02*
X076024D01*
X074419Y041250D02*
X075913Y042744D01*
X074419Y036762D02*
Y041250D01*
X075856Y034744D02*
X076024D01*
X018032Y044656D02*
X020591Y042096D01*
Y039419D02*
Y042096D01*
X012963Y044656D02*
X018032D01*
X010591Y040720D02*
X013532Y043661D01*
X013720Y043150D02*
X016722D01*
X012776Y042205D02*
X013720Y043150D01*
X012776Y041821D02*
Y042205D01*
X011028Y042720D02*
X012963Y044656D01*
X010591Y042720D02*
X011028D01*
X010675Y039720D02*
X012776Y041821D01*
X010591Y039720D02*
X010675D01*
X010837Y038720D02*
X011348Y039232D01*
X010591Y038720D02*
X010837D01*
X041614Y022697D02*
X048494D01*
X040177Y024134D02*
X041614Y022697D01*
X039449Y024134D02*
X040177D01*
X010591Y041720D02*
X010825D01*
X017667Y044154D02*
X019813Y042008D01*
X013258Y044154D02*
X017667D01*
X010825Y041720D02*
X013258Y044154D01*
X016604Y039774D02*
X017421Y040591D01*
X014537Y039774D02*
X016604D01*
X014134Y039370D02*
X014537Y039774D01*
X014134Y038691D02*
Y039370D01*
X013602Y038159D02*
X014134Y038691D01*
X012411Y038159D02*
X013602D01*
X016329Y037726D02*
X017421Y038819D01*
X012589Y037726D02*
X016329D01*
X012165Y037303D02*
X012589Y037726D01*
X012165Y034449D02*
Y037303D01*
X011437Y033720D02*
X012165Y034449D01*
X010591Y033720D02*
X011437D01*
X012736Y037057D02*
X016378D01*
X047303Y035482D02*
X047815Y035994D01*
X047303Y035226D02*
Y035482D01*
X047121Y035044D02*
X047303Y035226D01*
X043287Y035659D02*
X043903Y035044D01*
X041496Y035659D02*
X043287D01*
X040709Y034872D02*
X041496Y035659D01*
X047707Y036496D02*
X049783D01*
X047037Y035827D02*
X047707Y036496D01*
X046683Y035827D02*
X047037D01*
X048435Y035994D02*
X048799Y035630D01*
Y035266D02*
Y035630D01*
Y035266D02*
X049035Y035030D01*
X038297Y036033D02*
X039006D01*
X039370Y035669D01*
Y035315D02*
Y035669D01*
Y035315D02*
X039813Y034872D01*
X040709D01*
X043903Y035044D02*
X047121D01*
X047815Y035994D02*
X048435D01*
X060994Y035030D02*
X061250Y035285D01*
Y035669D01*
X061673Y036093D01*
X062382D01*
X062805Y035669D01*
Y035364D02*
Y035669D01*
Y035364D02*
X063159Y035010D01*
X070374D01*
X070630Y035266D01*
Y035561D01*
X071437Y036368D01*
X074026D02*
X074419Y036762D01*
X071437Y036368D02*
X074026D01*
X074872Y036683D02*
Y040679D01*
X075276Y036496D02*
Y040217D01*
X076024Y036654D02*
Y036744D01*
X015886Y033386D02*
X015984Y033287D01*
X075937Y041744D02*
X076024D01*
X075276Y040217D02*
X075803Y040744D01*
X076024D01*
X075892Y035744D02*
X076024D01*
X014656Y036545D02*
X016929D01*
X041968Y023504D02*
X048494D01*
X040866Y024606D02*
X041968Y023504D01*
X034547Y024902D02*
X035541Y023907D01*
X040157Y023110D02*
X041388Y021880D01*
X048504D01*
X012244Y025591D02*
X027441D01*
X011496Y026339D02*
X012244Y025591D01*
X013504Y011142D02*
X016811D01*
X012638Y012008D02*
X013504Y011142D01*
X013150Y012362D02*
X013622Y011890D01*
X037283Y023268D02*
X037441Y023110D01*
X058150Y022598D02*
X061890Y018858D01*
X052953Y022598D02*
X058150D01*
X062362Y018032D02*
X062874Y018543D01*
X059449Y018032D02*
X062362D01*
X058701Y023465D02*
X062874Y019291D01*
Y018543D02*
Y019291D01*
X052953Y023465D02*
X058701D01*
X031091Y019094D02*
X031577Y018608D01*
X028071Y019094D02*
X031091D01*
X017421Y013602D02*
X017638Y013386D01*
X016854Y013602D02*
X017421D01*
X013622Y011890D02*
X016142D01*
X013681Y018602D02*
X013854D01*
X011803Y016724D02*
X013681Y018602D01*
X010591Y016724D02*
X011803D01*
X013032Y019016D02*
Y019921D01*
X011740Y017724D02*
X013032Y019016D01*
X010591Y017724D02*
X011740D01*
X013032Y019921D02*
X013465Y020354D01*
X014252D01*
X014646Y019961D01*
Y017913D02*
Y019961D01*
X014335Y017602D02*
X014646Y017913D01*
X013854Y013602D02*
X015236Y014984D01*
X014098Y012602D02*
X015945Y014449D01*
X013854Y017602D02*
X014335D01*
X016142Y011890D02*
X016854Y012602D01*
X017559Y021024D02*
X018937Y022402D01*
X029961D01*
X033268Y019094D01*
X016854Y017602D02*
X017642D01*
X018032Y017992D01*
Y020709D01*
X019252Y021929D01*
X029331D01*
X032992Y018268D01*
X034685D01*
X035906Y019488D01*
X035236Y017638D02*
X035827Y018228D01*
X035827D02*
X036811Y019213D01*
X025945Y019567D02*
X027598D01*
X028740Y020709D01*
X016811Y011142D02*
X017638Y011968D01*
Y013386D01*
X037441Y023110D02*
X040157D01*
X040787Y021102D02*
Y021811D01*
X028228Y025630D02*
X029134Y024724D01*
X028228Y025630D02*
Y027520D01*
X030370Y026126D02*
Y026460D01*
X029370Y025787D02*
Y026460D01*
Y025787D02*
X029921Y025236D01*
X030370Y026126D02*
X030748Y025748D01*
X028228Y027520D02*
X028858Y028150D01*
X031370Y027460D02*
X041791D01*
X042520Y028189D01*
X044921D01*
X046220Y026890D01*
X028858Y028150D02*
X030039D01*
X030370Y027819D01*
Y027460D02*
Y027819D01*
X028898Y024134D02*
X029488D01*
X027441Y025591D02*
X028898Y024134D01*
X039235Y019663D02*
X039291Y019606D01*
X029921Y025236D02*
X030591D01*
X037598Y020394D02*
X039567D01*
X037385Y019663D02*
X039235D01*
X036181Y020866D02*
X037385Y019663D01*
X033780Y020866D02*
X036181D01*
X029921Y024724D02*
X033780Y020866D01*
X029134Y024724D02*
X029921D01*
X030591Y025236D02*
X034449Y021378D01*
X036614D01*
X037598Y020394D01*
X030748Y025748D02*
X031260D01*
X034882Y022126D01*
X040472D01*
X040787Y021811D01*
X042165Y025000D02*
Y026693D01*
X042244Y026614D02*
X043248Y027618D01*
X025748Y023346D02*
X025787Y023307D01*
X052953Y020748D02*
X053976D01*
X056575Y018150D01*
X038307Y018386D02*
Y018661D01*
X038543Y018898D01*
X039882D01*
X016854Y019602D02*
Y020744D01*
X015866Y021732D02*
X016854Y020744D01*
X018504Y020315D02*
X019567Y021378D01*
X016854Y015602D02*
X017610D01*
X018504Y016496D01*
Y020315D01*
X016854Y014602D02*
X017831D01*
X018976Y015748D01*
X016854Y018602D02*
X017264D01*
X017559Y018898D01*
Y021024D01*
X025039Y017008D02*
X035748D01*
X037598Y018858D01*
Y019213D01*
X033268Y019094D02*
X034449D01*
X035630Y020276D01*
X035906D01*
X023819Y018228D02*
X025039Y017008D01*
X023819Y018228D02*
Y020039D01*
X022992Y020866D02*
X023819Y020039D01*
X024409Y018543D02*
X025315Y017638D01*
X035236D01*
X019567Y021378D02*
X023386D01*
X024409Y020354D01*
Y018543D02*
Y020354D01*
X018976Y015748D02*
Y020000D01*
X019843Y020866D01*
X022992D01*
X033386Y024695D02*
X033455D01*
X034380Y024902D02*
X034547D01*
X033455Y024695D02*
X034764Y023386D01*
X034783D01*
X040167Y019183D02*
Y021535D01*
X039882Y018898D02*
X040167Y019183D01*
X023878Y039961D02*
X025738D01*
X026870Y038829D01*
X039636Y039961D02*
X040768Y038829D01*
X044469D01*
X045433Y039793D01*
X047096D01*
X047461Y040157D01*
X049045D01*
X050374Y038829D01*
X060955Y039754D02*
X061309Y040108D01*
X062992D01*
X064272Y038829D01*
X067618D01*
X068494Y039705D01*
X070541D01*
X070925Y040089D01*
X072618D01*
X073878Y038829D01*
X024705Y037057D02*
X025610Y037963D01*
X036240Y037057D02*
X036919Y037736D01*
X039970D01*
X040315Y038081D01*
X044823D01*
X046417Y037057D02*
X047077Y037717D01*
X049537D01*
X045880Y037057D02*
X046417D01*
X044823Y038081D02*
X045863Y037074D01*
X045880Y037057D01*
X049537Y037717D02*
X049793Y037972D01*
X059744Y037057D02*
Y037274D01*
Y037057D02*
X059931D01*
X060758Y037884D01*
X068524D01*
X069350Y037057D01*
X021781Y036132D02*
X022411D01*
X037274Y037057D02*
X040768D01*
X041092Y037382D01*
X044114D01*
X045295Y036201D01*
X046033D01*
X046398Y036565D01*
X047028D01*
X047520Y037057D01*
X060778D02*
X064272D01*
X068100D01*
X013425Y035679D02*
X013789D01*
X014656Y036545D01*
X023366Y036014D02*
X025404D01*
X025886Y036496D01*
X022411Y036132D02*
X022776Y036496D01*
X025108D01*
X025669Y037057D01*
X025886Y036496D02*
X026339D01*
X026565Y036270D01*
X038041Y036486D02*
X040285D01*
X040541Y036230D01*
X044272D01*
X044823Y035679D01*
X046535D01*
X046683Y035827D01*
X049783Y036496D02*
X050128Y036152D01*
X059892Y036171D02*
X060778Y037057D01*
X059321Y036171D02*
X059892D01*
X060433Y035679D02*
X061398Y036644D01*
X063642D01*
X064173Y036112D01*
X067904D01*
X068337Y035679D01*
X070039D01*
X062894Y033287D02*
X072313D01*
X074715D01*
X073917Y033829D02*
X074360D01*
X032766Y042106D02*
X032864D01*
X032657Y040807D02*
X032766D01*
X070246Y037057D02*
X073878D01*
X068100D02*
X068947Y036211D01*
X069400D01*
X070246Y037057D01*
X027313Y037963D02*
X027825Y038474D01*
X034823D01*
X036240Y037057D01*
X026870Y038819D02*
X027215Y039163D01*
X035157D01*
X035738Y039744D01*
X028051Y037766D02*
X028061Y037756D01*
X034931Y031919D02*
X036841Y033829D01*
X047234Y032825D02*
X047323Y032736D01*
X060915D02*
X074951D01*
X060915D02*
X060994Y032815D01*
X037136Y033287D02*
X048996D01*
X060453D02*
X062894D01*
X036841Y033829D02*
X050787D01*
X060108D02*
X073917D01*
X059695Y034252D02*
X073661D01*
X059272Y034641D02*
X073361D01*
X058711Y035030D02*
X058730D01*
X058711D02*
X060994D01*
X058533Y035679D02*
X060433D01*
X058465Y038553D02*
X059744Y037274D01*
X050374Y038829D02*
X050679Y039134D01*
X057520Y037972D02*
X059321Y036171D01*
X050679Y039134D02*
X057520D01*
X058140Y039754D01*
X060955D01*
X043519Y034641D02*
X051698D01*
X049035Y035030D02*
X052165D01*
X050128Y036152D02*
X051801D01*
X053671Y042077D02*
X053927D01*
X056083Y042047D02*
X056230D01*
X056083Y040748D02*
X056230D01*
X052165Y035030D02*
X053898Y033297D01*
X056978D01*
X058711Y035030D01*
X051698Y034641D02*
X053720Y032618D01*
X057249D01*
X059272Y034641D01*
X051220Y034252D02*
X053494Y031978D01*
X057421D01*
X059695Y034252D01*
X050787Y033789D02*
X053218Y031358D01*
X057638D01*
X060108Y033829D01*
X057982Y030817D02*
X060453Y033287D01*
X048996D02*
X050295D01*
X052766Y030817D01*
X057982D01*
X047323Y032736D02*
X049941D01*
X052372Y030305D01*
X058287D01*
X060718Y032736D01*
X060915D01*
X051801Y036152D02*
X054016Y033937D01*
X056791D01*
X058533Y035679D01*
X030128Y032441D02*
X034754D01*
X027175Y033986D02*
X027598D01*
X029665Y031919D01*
X034931D01*
X025502Y033268D02*
X027352D01*
X029281Y031339D01*
X035187D01*
X023868Y032736D02*
X026909D01*
X028829Y030817D01*
X035591D01*
X037510Y032736D01*
X047323D01*
X013583Y041969D02*
X013888Y041663D01*
X010591Y036720D02*
X010894D01*
X013287Y039685D02*
X013888Y040285D01*
Y041663D01*
X012352Y039685D02*
X013287D01*
X011348Y039232D02*
Y039587D01*
X012352Y040591D01*
X012894D01*
X011890Y038681D02*
Y039222D01*
X012352Y039685D01*
X010929Y037720D02*
X011890Y038681D01*
X010591Y037720D02*
X010929D01*
X028031Y034537D02*
X030128Y032441D01*
X027894Y034537D02*
X028031D01*
D37*
X059331Y018150D02*
X059449Y018032D01*
X013854Y012602D02*
X014098D01*
X035827Y018228D02*
X035827D01*
D38*
X028986Y040768D02*
X030335D01*
X028051Y039833D02*
X028986Y040768D01*
X031142Y043494D02*
X032500D01*
X030423Y042776D02*
X031142Y043494D01*
X030423Y042156D02*
Y042776D01*
X054380Y041624D02*
X055659D01*
X053927Y042077D02*
X054380Y041624D01*
X055659D02*
X056083Y042047D01*
X075703Y016984D02*
X075906D01*
X075522Y017165D02*
X075703Y016984D01*
X070689Y017165D02*
X075522D01*
X075532Y015846D02*
X076024D01*
X075020Y016358D02*
X075532Y015846D01*
X071102Y016358D02*
X075020D01*
X069468Y015945D02*
X070689Y017165D01*
X069783Y015039D02*
X071102Y016358D01*
X045433Y015039D02*
X069783D01*
X045512Y015945D02*
X069468D01*
X070278Y017984D02*
X075906D01*
X069065Y016772D02*
X070278Y017984D01*
X046929Y016772D02*
X069065D01*
X028799Y037756D02*
X031594Y034961D01*
X042362Y021230D02*
X048937D01*
X040994Y019862D02*
X042362Y021230D01*
X040994Y018317D02*
Y019862D01*
X039803Y017126D02*
X040994Y018317D01*
X048937Y021230D02*
X049439Y021732D01*
Y025167D01*
X048543Y026063D02*
X049439Y025167D01*
X045669Y026063D02*
X048543D01*
X044961Y016496D02*
X045512Y015945D01*
X044951Y014557D02*
X045433Y015039D01*
X044961Y018740D02*
X046929Y016772D01*
X070472Y013780D02*
X070984Y014291D01*
X058032Y013780D02*
X070472D01*
X043346Y027520D02*
X044213D01*
X045669Y026063D01*
X022677Y023346D02*
X025748D01*
X025787Y023307D02*
X027362D01*
X027992Y023937D01*
X018661Y023346D02*
X022677D01*
X039016Y017126D02*
X039803D01*
X038307Y017835D02*
Y018386D01*
Y017835D02*
X039016Y017126D01*
X032500Y043494D02*
X033327Y042667D01*
X032864Y042106D02*
X033396Y042638D01*
X033927D01*
X035033Y043744D01*
X031594Y040472D02*
X032323D01*
X032657Y040807D01*
X028061Y037756D02*
X028799D01*
X035033Y043744D02*
X076024D01*
X056230Y042047D02*
Y043744D01*
X035033D02*
X058228D01*
X055020Y040472D02*
X055807D01*
X056083Y040748D01*
X052510Y040778D02*
X053671D01*
X051476Y039744D02*
X052510Y040778D01*
X051486Y037047D02*
X052933D01*
X055020Y034961D01*
D40*
X052854Y025118D02*
X056378D01*
X051604Y023868D02*
X052854Y025118D01*
X051604Y018602D02*
Y023868D01*
X050837Y017835D02*
X051604Y018602D01*
X047825Y017835D02*
X050837D01*
X045955Y019705D02*
X047825Y017835D01*
X044341Y019705D02*
X045955D01*
X043652Y019016D02*
X044341Y019705D01*
X043652Y015069D02*
Y019016D01*
X039449Y010866D02*
X043652Y015069D01*
X022323Y010866D02*
X039449D01*
X020965Y012224D02*
X022323Y010866D01*
X020965Y012224D02*
Y019646D01*
X056378Y025118D02*
X059087D01*
X061693D01*
X068898D02*
X068917Y025138D01*
X072165D01*
X061693Y025118D02*
X068898D01*
D41*
X072652Y028238D02*
X075906Y024984D01*
X057805Y028238D02*
X072652D01*
X056299Y026732D02*
X057805Y028238D01*
D43*
X026230Y027480D02*
D03*
X024458D02*
D03*
X022254Y027519D02*
D03*
X020482D02*
D03*
X018277Y027558D02*
D03*
X016506D02*
D03*
D44*
X026722Y026495D02*
D03*
X023966D02*
D03*
X022746Y026535D02*
D03*
X019990D02*
D03*
X018770Y026574D02*
D03*
X016014D02*
D03*
D45*
X076024Y033744D02*
D03*
X010591Y033720D02*
D03*
X076024Y015846D02*
D03*
X010591Y014823D02*
D03*
X076024Y014846D02*
D03*
X076024Y034744D02*
D03*
D46*
X010591Y040720D02*
D03*
Y039720D02*
D03*
Y038720D02*
D03*
Y037720D02*
D03*
Y036720D02*
D03*
Y035720D02*
D03*
Y034720D02*
D03*
Y041720D02*
D03*
Y042720D02*
D03*
X076024Y022846D02*
D03*
Y021846D02*
D03*
Y020846D02*
D03*
Y019846D02*
D03*
Y018846D02*
D03*
Y017846D02*
D03*
Y016846D02*
D03*
Y023846D02*
D03*
Y024846D02*
D03*
X010591Y021823D02*
D03*
Y020823D02*
D03*
Y019823D02*
D03*
Y018823D02*
D03*
Y017823D02*
D03*
Y016823D02*
D03*
Y015823D02*
D03*
Y022823D02*
D03*
Y023823D02*
D03*
X076024Y041744D02*
D03*
Y040744D02*
D03*
Y039744D02*
D03*
Y038744D02*
D03*
Y037744D02*
D03*
Y036744D02*
D03*
Y035744D02*
D03*
Y042744D02*
D03*
Y043744D02*
D03*
D47*
X049567Y019173D02*
D03*
Y011299D02*
D03*
X010906Y011126D02*
D03*
X011906Y012126D02*
D03*
D48*
X072520Y013819D02*
D03*
D49*
X071417Y011968D02*
D03*
D50*
X073780D02*
D03*
D51*
X046181Y024488D02*
D03*
Y025118D02*
D03*
D52*
X010906Y013126D02*
D03*
D53*
X049606Y035669D02*
D03*
X050295Y037047D02*
D03*
Y038819D02*
D03*
Y040591D02*
D03*
X049606Y041969D02*
D03*
X048032Y042362D02*
D03*
X046457Y041969D02*
D03*
X045768Y040591D02*
D03*
Y038819D02*
D03*
Y037047D02*
D03*
X046457Y035669D02*
D03*
X048032Y035276D02*
D03*
X063583Y035679D02*
D03*
X064272Y037057D02*
D03*
Y038829D02*
D03*
Y040600D02*
D03*
X063583Y041978D02*
D03*
X062008Y042372D02*
D03*
X060433Y041978D02*
D03*
X059744Y040600D02*
D03*
Y038829D02*
D03*
Y037057D02*
D03*
X060433Y035679D02*
D03*
X062008Y035285D02*
D03*
X073032Y035679D02*
D03*
X073720Y037057D02*
D03*
Y038829D02*
D03*
Y040600D02*
D03*
X073032Y041978D02*
D03*
X071457Y042372D02*
D03*
X069882Y041978D02*
D03*
X069193Y040600D02*
D03*
Y038829D02*
D03*
Y037057D02*
D03*
X069882Y035679D02*
D03*
X071457Y035285D02*
D03*
X016732Y035669D02*
D03*
X017421Y037047D02*
D03*
Y038819D02*
D03*
Y040591D02*
D03*
X016732Y041969D02*
D03*
X015157Y042362D02*
D03*
X013583Y041969D02*
D03*
X012894Y040591D02*
D03*
Y038819D02*
D03*
Y037047D02*
D03*
X013583Y035669D02*
D03*
X015157Y035276D02*
D03*
X026181Y035669D02*
D03*
X026870Y037047D02*
D03*
Y038819D02*
D03*
Y040591D02*
D03*
X026181Y041969D02*
D03*
X024606Y042362D02*
D03*
X023032Y041969D02*
D03*
X022343Y040591D02*
D03*
Y038819D02*
D03*
Y037047D02*
D03*
X023032Y035669D02*
D03*
X024606Y035276D02*
D03*
X040157Y035669D02*
D03*
X040846Y037047D02*
D03*
Y038819D02*
D03*
Y040591D02*
D03*
X040157Y041969D02*
D03*
X038583Y042362D02*
D03*
X037008Y041969D02*
D03*
X036319Y040591D02*
D03*
Y038819D02*
D03*
Y037047D02*
D03*
X037008Y035669D02*
D03*
X038583Y035276D02*
D03*
D54*
X013854Y012602D02*
D03*
Y013602D02*
D03*
X016854D02*
D03*
Y014602D02*
D03*
Y015602D02*
D03*
Y016602D02*
D03*
Y017602D02*
D03*
Y018602D02*
D03*
X013854Y014602D02*
D03*
Y015602D02*
D03*
Y016602D02*
D03*
Y017602D02*
D03*
Y018602D02*
D03*
Y019602D02*
D03*
X016854D02*
D03*
X022953Y014150D02*
D03*
Y012150D02*
D03*
D55*
X016854Y012602D02*
D03*
D56*
X020965Y019646D02*
D03*
D57*
X022953Y019217D02*
D03*
D58*
Y016217D02*
D03*
D59*
X021161Y038120D02*
D03*
X021182Y038850D02*
D03*
X018337Y037785D02*
D03*
Y039222D02*
D03*
X041870Y034547D02*
D03*
X018071D02*
D03*
X022234Y036132D02*
D03*
X018002Y039882D02*
D03*
X027175Y033986D02*
D03*
X025502Y033268D02*
D03*
X023770Y032835D02*
D03*
X014232Y032844D02*
D03*
X015886Y033386D02*
D03*
X017480Y033917D02*
D03*
X035541Y023907D02*
D03*
X048494Y023504D02*
D03*
Y022697D02*
D03*
X048504Y021880D02*
D03*
X061890Y018858D02*
D03*
X052953Y023465D02*
D03*
Y022598D02*
D03*
X035945Y020236D02*
D03*
X036850Y019252D02*
D03*
X037598Y019213D02*
D03*
X037283Y023268D02*
D03*
X040866Y024606D02*
D03*
X039449Y024134D02*
D03*
X031577Y018608D02*
D03*
X059331Y018150D02*
D03*
X056575D02*
D03*
X061811Y026732D02*
D03*
X059055D02*
D03*
X056299D02*
D03*
X044961Y018740D02*
D03*
Y016496D02*
D03*
X044951Y014557D02*
D03*
X042165Y025000D02*
D03*
X070984Y014291D02*
D03*
X058032Y013780D02*
D03*
X038307Y018386D02*
D03*
X028071Y019094D02*
D03*
X025945Y019567D02*
D03*
X028740Y020709D02*
D03*
X042165Y026614D02*
D03*
X039291Y019606D02*
D03*
X040787Y021102D02*
D03*
X039567Y020394D02*
D03*
X029370Y026460D02*
D03*
X030370D02*
D03*
X031370D02*
D03*
Y027460D02*
D03*
X030370D02*
D03*
X043346Y027520D02*
D03*
X029488Y024134D02*
D03*
X035945Y019449D02*
D03*
X046220Y026890D02*
D03*
X027992Y023937D02*
D03*
X025787Y023307D02*
D03*
X022677Y023346D02*
D03*
X018661D02*
D03*
X029370Y027457D02*
D03*
X052953Y020748D02*
D03*
X049567Y014291D02*
D03*
X015866Y021732D02*
D03*
X033386Y024695D02*
D03*
X034380Y024902D02*
D03*
X034783Y023386D02*
D03*
X040167Y021535D02*
D03*
X037746Y032785D02*
D03*
X039557Y033278D02*
D03*
X041476Y033967D02*
D03*
X047234Y032825D02*
D03*
X048996Y033287D02*
D03*
X050787Y033789D02*
D03*
X060994Y032815D02*
D03*
X062894Y033287D02*
D03*
X064646Y033770D02*
D03*
X073917Y033829D02*
D03*
X072313Y033287D02*
D03*
X070630Y032815D02*
D03*
X056378Y025118D02*
D03*
X059087D02*
D03*
X061693D02*
D03*
X064341Y025108D02*
D03*
X072165Y025138D02*
D03*
X069675Y025148D02*
D03*
X066988Y025138D02*
D03*
X028051Y039833D02*
D03*
Y037766D02*
D03*
X051486Y037047D02*
D03*
X051476Y039744D02*
D03*
X027894Y034537D02*
D03*
D60*
X032766Y040807D02*
D03*
Y042106D02*
D03*
X030423Y040778D02*
D03*
Y042077D02*
D03*
X056230Y040748D02*
D03*
Y042047D02*
D03*
X053671Y040778D02*
D03*
Y042077D02*
D03*
D61*
X049567Y011299D02*
Y014213D01*
D62*
X069128Y011427D02*
X069328D01*
X069228D01*
Y010927D01*
X069328Y010827D01*
X069428D01*
X069528Y010927D01*
X068828Y011227D02*
X068628D01*
X068528Y011127D01*
Y010827D01*
X068828D01*
X068928Y010927D01*
X068828Y011027D01*
X068528D01*
X068328Y010827D02*
Y011427D01*
Y011027D02*
X068028Y011227D01*
X068328Y011027D02*
X068028Y010827D01*
X067728Y011227D02*
Y010927D01*
X067628Y010827D01*
X067328D01*
Y011227D01*
X067128Y011427D02*
Y010827D01*
X066828D01*
X066728Y010927D01*
Y011027D01*
Y011127D01*
X066828Y011227D01*
X067128D01*
X065929Y011427D02*
Y010827D01*
X065629D01*
X065529Y010927D01*
Y011327D01*
X065629Y011427D01*
X065929D01*
X065229Y010827D02*
X065029D01*
X064929Y010927D01*
Y011127D01*
X065029Y011227D01*
X065229D01*
X065329Y011127D01*
Y010927D01*
X065229Y010827D01*
X064729Y011227D02*
Y010827D01*
Y011027D01*
X064629Y011127D01*
X064529Y011227D01*
X064429D01*
X063729Y011427D02*
Y010827D01*
X064029D01*
X064129Y010927D01*
Y011127D01*
X064029Y011227D01*
X063729D01*
X063430D02*
X063230D01*
X063130Y011127D01*
Y010827D01*
X063430D01*
X063530Y010927D01*
X063430Y011027D01*
X063130D01*
X061930Y010827D02*
X062330D01*
X061930Y011227D01*
Y011327D01*
X062030Y011427D01*
X062230D01*
X062330Y011327D01*
X061730D02*
X061630Y011427D01*
X061430D01*
X061330Y011327D01*
Y010927D01*
X061430Y010827D01*
X061630D01*
X061730Y010927D01*
Y011327D01*
X061130Y010827D02*
X060930D01*
X061030D01*
Y011427D01*
X061130Y011327D01*
X060630Y011427D02*
X060231D01*
Y011327D01*
X060630Y010927D01*
Y010827D01*
M02*
