M48
;Layer_Color=6321
;FILE_FORMAT=2:4
INCH
;TYPE=PLATED
T1F00S00C0.0197
T2F00S00C0.0276
T3F00S00C0.0300
T4F00S00C0.0354
T5F00S00C0.0472
T7F00S00C0.0591
;TYPE=NON_PLATED
T8F00S00C0.1181
%
T01
X044951Y014557
X058032Y013780
X070984Y014291
X072165Y025138
X069675Y025148
X066988Y025138
X064341Y025108
X061693Y025118
X061811Y026732
X059055
X059087Y025118
X056378
X056299Y026732
X052953Y023465
Y022598
Y020748
X048484Y021594
Y022470
X048474Y023297
X056575Y018150
X059331
X061890Y018858
X044961Y018740
Y016496
X038307Y018386
X037598Y019213
X036850Y019252
X035945Y019449
Y020236
X039567Y020394
X039291Y019606
X040167Y021535
X040787Y021102
X040866Y024606
X042165Y025000
Y026614
X043346Y027520
X046220Y026890
X046161Y025246
Y024616
X039449Y024134
X037283Y023268
X035541Y023907
X034783Y023386
X034380Y024902
X033386Y024695
X031370Y026460
Y027460
X031577Y018608
X028071Y019094
X028740Y020709
X025945Y019567
X025787Y023307
X027992Y023937
X029488Y024134
X029370Y026460
X029370Y027457
X030370Y027460
Y026460
X022677Y023346
X018661
X015866Y021732
X011565Y036388
Y038799
X013730Y041407
X014478Y041585
X015236Y041762
X015256Y043014
X013809Y043514
X016663Y042579
X023159Y043514
X024565Y043014
X024537Y041811
X023819Y041604
X023041Y041319
X025955Y042579
X026978Y044793
X024537Y044823
X037067Y043514
X038502Y043014
X038514Y041752
X037766Y041555
X036988Y041289
X039943Y042579
X046496Y043514
X046476Y045591
X046457Y041319
X047224Y041555
X047913Y041782
X047911Y043014
X049331Y042579
X051250Y044144
X060502Y043514
X061782Y043014
X061959Y041752
X061280Y041624
X060610Y041457
X063103Y042579
X069104Y043514
X070387Y043014
X070456Y041606
X071093Y041742
X071752Y042579
X069833Y041388
T02
X022953Y012150
Y014150
X049567Y014291
X048858Y024035
X048839Y025748
X022953Y019217
X020955Y019006
X019577
X022953Y016217
X014488Y026339
X011496
X030482Y039350
X032687
X053899
X056103
T03
X019557Y015738
X020935
X014622Y036640
X013671Y037138
X013060Y038022
X012930Y039088
X013310Y040093
X014114Y040806
X015157Y041063
X016197Y040808
X017002Y040096
X017385Y039092
X017257Y038026
X016647Y037141
X015697Y036641
X023119Y037138
X024071Y036640
X025145Y036641
X026096Y037141
X026706Y038026
X026834Y039092
X026451Y040096
X025646Y040808
X024606Y041063
X023563Y040806
X022759Y040093
X022378Y039088
X022508Y038022
X036485
X036355Y039088
X036735Y040093
X037540Y040806
X038583Y041063
X039622Y040808
X040428Y040096
X040810Y039092
X040682Y038026
X040073Y037141
X039122Y036641
X038047Y036640
X037096Y037138
X046545
X045934Y038022
X045804Y039088
X046184Y040093
X046988Y040806
X048032Y041063
X049071Y040808
X049876Y040096
X050259Y039092
X050131Y038026
X049521Y037141
X048571Y036641
X047496Y036640
X060521Y037148
X061473Y036649
X059910Y038032
X059780Y039098
X060161Y040103
X060965Y040816
X062008Y041073
X063048Y040817
X063853Y040106
X064235Y039102
X064107Y038036
X063498Y037151
X062547Y036650
X069970Y037148
X070921Y036649
X071996Y036650
X072947Y037151
X073556Y038036
X073684Y039102
X073302Y040106
X072496Y040817
X071457Y041073
X070414Y040816
X069609Y040103
X069229Y039098
X069359Y038032
T04
X010591Y014823
X013854Y014602
Y013602
Y012602
Y015602
X016854
Y014602
Y013602
Y012602
X076024Y014846
Y015846
Y016846
Y017846
Y018846
Y019846
Y020846
Y021846
Y022846
Y023846
Y024846
X016854Y019602
Y018602
Y017602
Y016602
X013854
Y017602
Y018602
Y019602
X010591Y019823
Y020823
Y021823
Y022823
Y023823
Y018823
Y017823
Y016823
Y015823
Y033720
Y034720
Y035720
Y036720
Y037720
Y038720
Y039720
Y040720
Y041720
Y042720
X076024Y042744
Y041744
Y040744
Y039744
Y038744
Y037744
Y036744
Y035744
Y034744
Y033744
Y043744
T05
X010906Y011126
X011906Y012126
X010906Y013126
X049567Y011299
Y019173
X024163Y021319
X020620
X020482Y027519
X022254
X024458Y027480
X026230
X018277Y027558
X016506
T07
X016014Y026574
X018770
X019990Y026535
X022746
X023966Y026495
X026722
T08
X012402Y015354
X074213
Y022835
X012402
M30
